M48
; DRILL file {KiCad 8.0.3} date 2024-11-03T21:09:04+0100
; FORMAT={-:-/ absolute / inch / decimal}
; #@! TF.CreationDate,2024-11-03T21:09:04+01:00
; #@! TF.GenerationSoftware,Kicad,Pcbnew,8.0.3
; #@! TF.FileFunction,Plated,1,2,PTH
FMAT,2
INCH
; #@! TA.AperFunction,Plated,PTH,ViaDrill
T1C0.0157
; #@! TA.AperFunction,Plated,PTH,ComponentDrill
T2C0.0315
; #@! TA.AperFunction,Plated,PTH,ComponentDrill
T3C0.0394
; #@! TA.AperFunction,Plated,PTH,ComponentDrill
T4C0.0551
; #@! TA.AperFunction,Plated,PTH,ComponentDrill
T5C0.0748
%
G90
G05
T1
X2.7362Y-3.038
X3.1992Y-3.4787
X3.2201Y-2.5759
X3.2205Y-2.69
X3.3543Y-2.9291
X3.452Y-2.849
X3.511Y-2.79
X3.7Y-2.575
X3.7004Y-2.6891
X3.95Y-2.05
X3.95Y-2.2
X3.95Y-2.35
X3.95Y-2.5
X4.59Y-2.65
X4.95Y-2.05
X4.95Y-2.2
X4.95Y-2.35
X4.95Y-2.5
X4.95Y-2.65
T2
X2.5496Y-2.6992
X2.6496Y-2.6992
X2.7496Y-2.6992
T3
X2.4415Y-3.3415
X2.4415Y-3.4415
X2.464Y-2.25
X2.5415Y-3.3415
X2.5415Y-3.4415
X2.564Y-2.25
X2.6415Y-3.3415
X2.6415Y-3.4415
X2.664Y-2.25
X2.7415Y-3.3415
X2.7415Y-3.4415
X2.764Y-2.25
X2.8415Y-3.3415
X2.8415Y-3.4415
X2.864Y-2.25
T4
X3.0817Y-3.0335
X3.0817Y-3.1988
X3.0817Y-3.3642
X3.0817Y-3.5295
X3.0817Y-3.6949
X3.0817Y-3.8602
X3.0817Y-4.0256
X3.0817Y-4.1909
X3.0817Y-4.3563
X3.0817Y-4.5217
X3.0817Y-4.687
X3.0817Y-4.8524
X3.2982Y-3.0335
X3.2982Y-3.1988
X3.2982Y-3.3642
X3.2982Y-3.5295
X3.2982Y-3.6949
X3.2982Y-3.8602
X3.2982Y-4.0256
X3.2982Y-4.1909
X3.2982Y-4.3563
X3.2982Y-4.5217
X3.2982Y-4.687
X3.2982Y-4.8524
T5
X4.1375Y-2.1683
X4.1375Y-2.3848
X4.3028Y-2.1683
X4.3028Y-2.3848
X4.4682Y-2.1683
X4.4682Y-2.3848
X4.6335Y-2.1683
X4.6335Y-2.3848
X4.7989Y-2.1683
X4.7989Y-2.3848
M30
