%TF.GenerationSoftware,KiCad,Pcbnew,8.0.3*%
%TF.CreationDate,2024-11-03T21:09:05+01:00*%
%TF.ProjectId,IIsi_ATX,49497369-5f41-4545-982e-6b696361645f,rev?*%
%TF.SameCoordinates,Original*%
%TF.FileFunction,Drillmap*%
%TF.FilePolarity,Positive*%
%FSLAX45Y45*%
G04 Gerber Fmt 4.5, Leading zero omitted, Abs format (unit mm)*
G04 Created by KiCad (PCBNEW 8.0.3) date 2024-11-03 21:09:05*
%MOMM*%
%LPD*%
G01*
G04 APERTURE LIST*
%ADD10C,0.100000*%
%ADD11C,0.200000*%
%ADD12C,0.140000*%
%ADD13C,0.190000*%
G04 APERTURE END LIST*
D10*
X7336280Y-11095933D02*
X5777584Y-11095433D01*
X10765000Y-7425000D02*
G75*
G02*
X10485000Y-7425000I-140000J0D01*
G01*
X10485000Y-7425000D02*
G75*
G02*
X10765000Y-7425000I140000J0D01*
G01*
X7678584Y-5080452D02*
X7678584Y-6435033D01*
X20899284Y-12746933D02*
X7335513Y-12746933D01*
X5925984Y-5080433D02*
X7678584Y-5080452D01*
X10762500Y-12162500D02*
G75*
G02*
X10482500Y-12162500I-140000J0D01*
G01*
X10482500Y-12162500D02*
G75*
G02*
X10762500Y-12162500I140000J0D01*
G01*
X20595000Y-12175000D02*
G75*
G02*
X20315000Y-12175000I-140000J0D01*
G01*
X20315000Y-12175000D02*
G75*
G02*
X20595000Y-12175000I140000J0D01*
G01*
X20899284Y-12492933D02*
X20899284Y-12746933D01*
X23272500Y-5492500D02*
G75*
G02*
X22972500Y-5492500I-150000J0D01*
G01*
X22972500Y-5492500D02*
G75*
G02*
X23272500Y-5492500I150000J0D01*
G01*
X20595000Y-7437500D02*
G75*
G02*
X20315000Y-7437500I-140000J0D01*
G01*
X20315000Y-7437500D02*
G75*
G02*
X20595000Y-7437500I140000J0D01*
G01*
X23272500Y-12302500D02*
G75*
G02*
X22972500Y-12302500I-150000J0D01*
G01*
X22972500Y-12302500D02*
G75*
G02*
X23272500Y-12302500I150000J0D01*
G01*
X5925984Y-5482533D02*
X5925984Y-5080433D01*
X22372484Y-12746933D02*
X22372489Y-12492933D01*
X5773584Y-5482533D02*
X5925984Y-5482533D01*
X22372489Y-12492933D02*
X20899284Y-12492933D01*
X6451600Y-7640320D02*
G75*
G02*
X6111240Y-7640320I-170180J0D01*
G01*
X6111240Y-7640320D02*
G75*
G02*
X6451600Y-7640320I170180J0D01*
G01*
X7678584Y-6435033D02*
X9875684Y-6435033D01*
X9875684Y-5077933D02*
X23972684Y-5082483D01*
X23972684Y-12746933D02*
X22372484Y-12746933D01*
X23972684Y-5082483D02*
X23972684Y-12746933D01*
X5777584Y-11095433D02*
X5773584Y-5482533D01*
X7335513Y-12746933D02*
X7336280Y-11095933D01*
X9875684Y-6435033D02*
X9875684Y-5077933D01*
D11*
D10*
X6930000Y-7696540D02*
X6970000Y-7736540D01*
X6970000Y-7696540D02*
X6930000Y-7736540D01*
X8106000Y-8816000D02*
X8146000Y-8856000D01*
X8146000Y-8816000D02*
X8106000Y-8856000D01*
X8159100Y-6522880D02*
X8199100Y-6562880D01*
X8199100Y-6522880D02*
X8159100Y-6562880D01*
X8160000Y-6812600D02*
X8200000Y-6852600D01*
X8200000Y-6812600D02*
X8160000Y-6852600D01*
X8500000Y-7420000D02*
X8540000Y-7460000D01*
X8540000Y-7420000D02*
X8500000Y-7460000D01*
X8748080Y-7216460D02*
X8788080Y-7256460D01*
X8788080Y-7216460D02*
X8748080Y-7256460D01*
X8897940Y-7066600D02*
X8937940Y-7106600D01*
X8937940Y-7066600D02*
X8897940Y-7106600D01*
X9378000Y-6520500D02*
X9418000Y-6560500D01*
X9418000Y-6520500D02*
X9378000Y-6560500D01*
X9378900Y-6810220D02*
X9418900Y-6850220D01*
X9418900Y-6810220D02*
X9378900Y-6850220D01*
X10013000Y-5187000D02*
X10053000Y-5227000D01*
X10053000Y-5187000D02*
X10013000Y-5227000D01*
X10013000Y-5568000D02*
X10053000Y-5608000D01*
X10053000Y-5568000D02*
X10013000Y-5608000D01*
X10013000Y-5949000D02*
X10053000Y-5989000D01*
X10053000Y-5949000D02*
X10013000Y-5989000D01*
X10013000Y-6330000D02*
X10053000Y-6370000D01*
X10053000Y-6330000D02*
X10013000Y-6370000D01*
X11638600Y-6711000D02*
X11678600Y-6751000D01*
X11678600Y-6711000D02*
X11638600Y-6751000D01*
X12553000Y-5187000D02*
X12593000Y-5227000D01*
X12593000Y-5187000D02*
X12553000Y-5227000D01*
X12553000Y-5568000D02*
X12593000Y-5608000D01*
X12593000Y-5568000D02*
X12553000Y-5608000D01*
X12553000Y-5949000D02*
X12593000Y-5989000D01*
X12593000Y-5949000D02*
X12553000Y-5989000D01*
X12553000Y-6330000D02*
X12593000Y-6370000D01*
X12593000Y-6330000D02*
X12553000Y-6370000D01*
X12553000Y-6711000D02*
X12593000Y-6751000D01*
X12593000Y-6711000D02*
X12553000Y-6751000D01*
X6516000Y-6856000D02*
G75*
G02*
X6436000Y-6856000I-40000J0D01*
G01*
X6436000Y-6856000D02*
G75*
G02*
X6516000Y-6856000I40000J0D01*
G01*
X6770000Y-6856000D02*
G75*
G02*
X6690000Y-6856000I-40000J0D01*
G01*
X6690000Y-6856000D02*
G75*
G02*
X6770000Y-6856000I40000J0D01*
G01*
X7024000Y-6856000D02*
G75*
G02*
X6944000Y-6856000I-40000J0D01*
G01*
X6944000Y-6856000D02*
G75*
G02*
X7024000Y-6856000I40000J0D01*
G01*
X6201500Y-8437500D02*
X6201500Y-8537500D01*
X6151500Y-8487500D02*
X6251500Y-8487500D01*
X6201500Y-8691500D02*
X6201500Y-8791500D01*
X6151500Y-8741500D02*
X6251500Y-8741500D01*
X6258560Y-5665000D02*
X6258560Y-5765000D01*
X6208560Y-5715000D02*
X6308560Y-5715000D01*
X6455500Y-8437500D02*
X6455500Y-8537500D01*
X6405500Y-8487500D02*
X6505500Y-8487500D01*
X6455500Y-8691500D02*
X6455500Y-8791500D01*
X6405500Y-8741500D02*
X6505500Y-8741500D01*
X6512560Y-5665000D02*
X6512560Y-5765000D01*
X6462560Y-5715000D02*
X6562560Y-5715000D01*
X6709500Y-8437500D02*
X6709500Y-8537500D01*
X6659500Y-8487500D02*
X6759500Y-8487500D01*
X6709500Y-8691500D02*
X6709500Y-8791500D01*
X6659500Y-8741500D02*
X6759500Y-8741500D01*
X6766560Y-5665000D02*
X6766560Y-5765000D01*
X6716560Y-5715000D02*
X6816560Y-5715000D01*
X6963500Y-8437500D02*
X6963500Y-8537500D01*
X6913500Y-8487500D02*
X7013500Y-8487500D01*
X6963500Y-8691500D02*
X6963500Y-8791500D01*
X6913500Y-8741500D02*
X7013500Y-8741500D01*
X7020560Y-5665000D02*
X7020560Y-5765000D01*
X6970560Y-5715000D02*
X7070560Y-5715000D01*
X7217500Y-8437500D02*
X7217500Y-8537500D01*
X7167500Y-8487500D02*
X7267500Y-8487500D01*
X7217500Y-8691500D02*
X7217500Y-8791500D01*
X7167500Y-8741500D02*
X7267500Y-8741500D01*
X7274560Y-5665000D02*
X7274560Y-5765000D01*
X7224560Y-5715000D02*
X7324560Y-5715000D01*
D12*
X7876998Y-7754498D02*
X7876998Y-7655502D01*
X7778002Y-7655502D01*
X7778002Y-7754498D01*
X7876998Y-7754498D01*
X7876998Y-8174498D02*
X7876998Y-8075502D01*
X7778002Y-8075502D01*
X7778002Y-8174498D01*
X7876998Y-8174498D01*
X7876998Y-8594498D02*
X7876998Y-8495502D01*
X7778002Y-8495502D01*
X7778002Y-8594498D01*
X7876998Y-8594498D01*
X7876998Y-9014498D02*
X7876998Y-8915502D01*
X7778002Y-8915502D01*
X7778002Y-9014498D01*
X7876998Y-9014498D01*
X7876998Y-9434498D02*
X7876998Y-9335502D01*
X7778002Y-9335502D01*
X7778002Y-9434498D01*
X7876998Y-9434498D01*
X7876998Y-9854498D02*
X7876998Y-9755502D01*
X7778002Y-9755502D01*
X7778002Y-9854498D01*
X7876998Y-9854498D01*
X7876998Y-10274498D02*
X7876998Y-10175502D01*
X7778002Y-10175502D01*
X7778002Y-10274498D01*
X7876998Y-10274498D01*
X7876998Y-10694498D02*
X7876998Y-10595502D01*
X7778002Y-10595502D01*
X7778002Y-10694498D01*
X7876998Y-10694498D01*
X7876998Y-11114498D02*
X7876998Y-11015502D01*
X7778002Y-11015502D01*
X7778002Y-11114498D01*
X7876998Y-11114498D01*
X7876998Y-11534498D02*
X7876998Y-11435502D01*
X7778002Y-11435502D01*
X7778002Y-11534498D01*
X7876998Y-11534498D01*
X7876998Y-11954498D02*
X7876998Y-11855502D01*
X7778002Y-11855502D01*
X7778002Y-11954498D01*
X7876998Y-11954498D01*
X7876998Y-12374498D02*
X7876998Y-12275502D01*
X7778002Y-12275502D01*
X7778002Y-12374498D01*
X7876998Y-12374498D01*
X8426998Y-7754498D02*
X8426998Y-7655502D01*
X8328002Y-7655502D01*
X8328002Y-7754498D01*
X8426998Y-7754498D01*
X8426998Y-8174498D02*
X8426998Y-8075502D01*
X8328002Y-8075502D01*
X8328002Y-8174498D01*
X8426998Y-8174498D01*
X8426998Y-8594498D02*
X8426998Y-8495502D01*
X8328002Y-8495502D01*
X8328002Y-8594498D01*
X8426998Y-8594498D01*
X8426998Y-9014498D02*
X8426998Y-8915502D01*
X8328002Y-8915502D01*
X8328002Y-9014498D01*
X8426998Y-9014498D01*
X8426998Y-9434498D02*
X8426998Y-9335502D01*
X8328002Y-9335502D01*
X8328002Y-9434498D01*
X8426998Y-9434498D01*
X8426998Y-9854498D02*
X8426998Y-9755502D01*
X8328002Y-9755502D01*
X8328002Y-9854498D01*
X8426998Y-9854498D01*
X8426998Y-10274498D02*
X8426998Y-10175502D01*
X8328002Y-10175502D01*
X8328002Y-10274498D01*
X8426998Y-10274498D01*
X8426998Y-10694498D02*
X8426998Y-10595502D01*
X8328002Y-10595502D01*
X8328002Y-10694498D01*
X8426998Y-10694498D01*
X8426998Y-11114498D02*
X8426998Y-11015502D01*
X8328002Y-11015502D01*
X8328002Y-11114498D01*
X8426998Y-11114498D01*
X8426998Y-11534498D02*
X8426998Y-11435502D01*
X8328002Y-11435502D01*
X8328002Y-11534498D01*
X8426998Y-11534498D01*
X8426998Y-11954498D02*
X8426998Y-11855502D01*
X8328002Y-11855502D01*
X8328002Y-11954498D01*
X8426998Y-11954498D01*
X8426998Y-12374498D02*
X8426998Y-12275502D01*
X8328002Y-12275502D01*
X8328002Y-12374498D01*
X8426998Y-12374498D01*
D13*
X10509135Y-5602500D02*
X10604135Y-5507500D01*
X10509135Y-5412500D01*
X10414135Y-5507500D01*
X10509135Y-5602500D01*
X10509135Y-6152500D02*
X10604135Y-6057500D01*
X10509135Y-5962500D01*
X10414135Y-6057500D01*
X10509135Y-6152500D01*
X10929135Y-5602500D02*
X11024135Y-5507500D01*
X10929135Y-5412500D01*
X10834135Y-5507500D01*
X10929135Y-5602500D01*
X10929135Y-6152500D02*
X11024135Y-6057500D01*
X10929135Y-5962500D01*
X10834135Y-6057500D01*
X10929135Y-6152500D01*
X11349135Y-5602500D02*
X11444135Y-5507500D01*
X11349135Y-5412500D01*
X11254135Y-5507500D01*
X11349135Y-5602500D01*
X11349135Y-6152500D02*
X11444135Y-6057500D01*
X11349135Y-5962500D01*
X11254135Y-6057500D01*
X11349135Y-6152500D01*
X11769135Y-5602500D02*
X11864135Y-5507500D01*
X11769135Y-5412500D01*
X11674135Y-5507500D01*
X11769135Y-5602500D01*
X11769135Y-6152500D02*
X11864135Y-6057500D01*
X11769135Y-5962500D01*
X11674135Y-6057500D01*
X11769135Y-6152500D01*
X12189135Y-5602500D02*
X12284135Y-5507500D01*
X12189135Y-5412500D01*
X12094135Y-5507500D01*
X12189135Y-5602500D01*
X12189135Y-6152500D02*
X12284135Y-6057500D01*
X12189135Y-5962500D01*
X12094135Y-6057500D01*
X12189135Y-6152500D01*
D11*
X6029361Y-13063417D02*
X6029361Y-12863417D01*
X6029361Y-12863417D02*
X6076980Y-12863417D01*
X6076980Y-12863417D02*
X6105551Y-12872941D01*
X6105551Y-12872941D02*
X6124599Y-12891988D01*
X6124599Y-12891988D02*
X6134123Y-12911036D01*
X6134123Y-12911036D02*
X6143646Y-12949131D01*
X6143646Y-12949131D02*
X6143646Y-12977702D01*
X6143646Y-12977702D02*
X6134123Y-13015798D01*
X6134123Y-13015798D02*
X6124599Y-13034845D01*
X6124599Y-13034845D02*
X6105551Y-13053893D01*
X6105551Y-13053893D02*
X6076980Y-13063417D01*
X6076980Y-13063417D02*
X6029361Y-13063417D01*
X6229361Y-13063417D02*
X6229361Y-12930083D01*
X6229361Y-12968179D02*
X6238885Y-12949131D01*
X6238885Y-12949131D02*
X6248408Y-12939607D01*
X6248408Y-12939607D02*
X6267456Y-12930083D01*
X6267456Y-12930083D02*
X6286504Y-12930083D01*
X6353170Y-13063417D02*
X6353170Y-12930083D01*
X6353170Y-12863417D02*
X6343646Y-12872941D01*
X6343646Y-12872941D02*
X6353170Y-12882464D01*
X6353170Y-12882464D02*
X6362694Y-12872941D01*
X6362694Y-12872941D02*
X6353170Y-12863417D01*
X6353170Y-12863417D02*
X6353170Y-12882464D01*
X6476980Y-13063417D02*
X6457932Y-13053893D01*
X6457932Y-13053893D02*
X6448408Y-13034845D01*
X6448408Y-13034845D02*
X6448408Y-12863417D01*
X6581742Y-13063417D02*
X6562694Y-13053893D01*
X6562694Y-13053893D02*
X6553170Y-13034845D01*
X6553170Y-13034845D02*
X6553170Y-12863417D01*
X6810313Y-13063417D02*
X6810313Y-12863417D01*
X6810313Y-12863417D02*
X6876980Y-13006274D01*
X6876980Y-13006274D02*
X6943646Y-12863417D01*
X6943646Y-12863417D02*
X6943646Y-13063417D01*
X7124599Y-13063417D02*
X7124599Y-12958655D01*
X7124599Y-12958655D02*
X7115075Y-12939607D01*
X7115075Y-12939607D02*
X7096027Y-12930083D01*
X7096027Y-12930083D02*
X7057932Y-12930083D01*
X7057932Y-12930083D02*
X7038885Y-12939607D01*
X7124599Y-13053893D02*
X7105551Y-13063417D01*
X7105551Y-13063417D02*
X7057932Y-13063417D01*
X7057932Y-13063417D02*
X7038885Y-13053893D01*
X7038885Y-13053893D02*
X7029361Y-13034845D01*
X7029361Y-13034845D02*
X7029361Y-13015798D01*
X7029361Y-13015798D02*
X7038885Y-12996750D01*
X7038885Y-12996750D02*
X7057932Y-12987226D01*
X7057932Y-12987226D02*
X7105551Y-12987226D01*
X7105551Y-12987226D02*
X7124599Y-12977702D01*
X7219837Y-12930083D02*
X7219837Y-13130083D01*
X7219837Y-12939607D02*
X7238885Y-12930083D01*
X7238885Y-12930083D02*
X7276980Y-12930083D01*
X7276980Y-12930083D02*
X7296027Y-12939607D01*
X7296027Y-12939607D02*
X7305551Y-12949131D01*
X7305551Y-12949131D02*
X7315075Y-12968179D01*
X7315075Y-12968179D02*
X7315075Y-13025321D01*
X7315075Y-13025321D02*
X7305551Y-13044369D01*
X7305551Y-13044369D02*
X7296027Y-13053893D01*
X7296027Y-13053893D02*
X7276980Y-13063417D01*
X7276980Y-13063417D02*
X7238885Y-13063417D01*
X7238885Y-13063417D02*
X7219837Y-13053893D01*
X7400789Y-13044369D02*
X7410313Y-13053893D01*
X7410313Y-13053893D02*
X7400789Y-13063417D01*
X7400789Y-13063417D02*
X7391266Y-13053893D01*
X7391266Y-13053893D02*
X7400789Y-13044369D01*
X7400789Y-13044369D02*
X7400789Y-13063417D01*
X7400789Y-12939607D02*
X7410313Y-12949131D01*
X7410313Y-12949131D02*
X7400789Y-12958655D01*
X7400789Y-12958655D02*
X7391266Y-12949131D01*
X7391266Y-12949131D02*
X7400789Y-12939607D01*
X7400789Y-12939607D02*
X7400789Y-12958655D01*
D10*
X5728584Y-13371933D02*
X5768584Y-13411933D01*
X5768584Y-13371933D02*
X5728584Y-13411933D01*
D11*
X6067456Y-13283417D02*
X6086504Y-13283417D01*
X6086504Y-13283417D02*
X6105551Y-13292941D01*
X6105551Y-13292941D02*
X6115075Y-13302464D01*
X6115075Y-13302464D02*
X6124599Y-13321512D01*
X6124599Y-13321512D02*
X6134123Y-13359607D01*
X6134123Y-13359607D02*
X6134123Y-13407226D01*
X6134123Y-13407226D02*
X6124599Y-13445321D01*
X6124599Y-13445321D02*
X6115075Y-13464369D01*
X6115075Y-13464369D02*
X6105551Y-13473893D01*
X6105551Y-13473893D02*
X6086504Y-13483417D01*
X6086504Y-13483417D02*
X6067456Y-13483417D01*
X6067456Y-13483417D02*
X6048408Y-13473893D01*
X6048408Y-13473893D02*
X6038885Y-13464369D01*
X6038885Y-13464369D02*
X6029361Y-13445321D01*
X6029361Y-13445321D02*
X6019837Y-13407226D01*
X6019837Y-13407226D02*
X6019837Y-13359607D01*
X6019837Y-13359607D02*
X6029361Y-13321512D01*
X6029361Y-13321512D02*
X6038885Y-13302464D01*
X6038885Y-13302464D02*
X6048408Y-13292941D01*
X6048408Y-13292941D02*
X6067456Y-13283417D01*
X6219837Y-13464369D02*
X6229361Y-13473893D01*
X6229361Y-13473893D02*
X6219837Y-13483417D01*
X6219837Y-13483417D02*
X6210313Y-13473893D01*
X6210313Y-13473893D02*
X6219837Y-13464369D01*
X6219837Y-13464369D02*
X6219837Y-13483417D01*
X6400789Y-13350083D02*
X6400789Y-13483417D01*
X6353170Y-13273893D02*
X6305551Y-13416750D01*
X6305551Y-13416750D02*
X6429361Y-13416750D01*
X6543646Y-13283417D02*
X6562694Y-13283417D01*
X6562694Y-13283417D02*
X6581742Y-13292941D01*
X6581742Y-13292941D02*
X6591266Y-13302464D01*
X6591266Y-13302464D02*
X6600789Y-13321512D01*
X6600789Y-13321512D02*
X6610313Y-13359607D01*
X6610313Y-13359607D02*
X6610313Y-13407226D01*
X6610313Y-13407226D02*
X6600789Y-13445321D01*
X6600789Y-13445321D02*
X6591266Y-13464369D01*
X6591266Y-13464369D02*
X6581742Y-13473893D01*
X6581742Y-13473893D02*
X6562694Y-13483417D01*
X6562694Y-13483417D02*
X6543646Y-13483417D01*
X6543646Y-13483417D02*
X6524599Y-13473893D01*
X6524599Y-13473893D02*
X6515075Y-13464369D01*
X6515075Y-13464369D02*
X6505551Y-13445321D01*
X6505551Y-13445321D02*
X6496027Y-13407226D01*
X6496027Y-13407226D02*
X6496027Y-13359607D01*
X6496027Y-13359607D02*
X6505551Y-13321512D01*
X6505551Y-13321512D02*
X6515075Y-13302464D01*
X6515075Y-13302464D02*
X6524599Y-13292941D01*
X6524599Y-13292941D02*
X6543646Y-13283417D01*
X6734123Y-13283417D02*
X6753170Y-13283417D01*
X6753170Y-13283417D02*
X6772218Y-13292941D01*
X6772218Y-13292941D02*
X6781742Y-13302464D01*
X6781742Y-13302464D02*
X6791266Y-13321512D01*
X6791266Y-13321512D02*
X6800789Y-13359607D01*
X6800789Y-13359607D02*
X6800789Y-13407226D01*
X6800789Y-13407226D02*
X6791266Y-13445321D01*
X6791266Y-13445321D02*
X6781742Y-13464369D01*
X6781742Y-13464369D02*
X6772218Y-13473893D01*
X6772218Y-13473893D02*
X6753170Y-13483417D01*
X6753170Y-13483417D02*
X6734123Y-13483417D01*
X6734123Y-13483417D02*
X6715075Y-13473893D01*
X6715075Y-13473893D02*
X6705551Y-13464369D01*
X6705551Y-13464369D02*
X6696027Y-13445321D01*
X6696027Y-13445321D02*
X6686504Y-13407226D01*
X6686504Y-13407226D02*
X6686504Y-13359607D01*
X6686504Y-13359607D02*
X6696027Y-13321512D01*
X6696027Y-13321512D02*
X6705551Y-13302464D01*
X6705551Y-13302464D02*
X6715075Y-13292941D01*
X6715075Y-13292941D02*
X6734123Y-13283417D01*
X6886504Y-13483417D02*
X6886504Y-13350083D01*
X6886504Y-13369131D02*
X6896027Y-13359607D01*
X6896027Y-13359607D02*
X6915075Y-13350083D01*
X6915075Y-13350083D02*
X6943647Y-13350083D01*
X6943647Y-13350083D02*
X6962694Y-13359607D01*
X6962694Y-13359607D02*
X6972218Y-13378655D01*
X6972218Y-13378655D02*
X6972218Y-13483417D01*
X6972218Y-13378655D02*
X6981742Y-13359607D01*
X6981742Y-13359607D02*
X7000789Y-13350083D01*
X7000789Y-13350083D02*
X7029361Y-13350083D01*
X7029361Y-13350083D02*
X7048408Y-13359607D01*
X7048408Y-13359607D02*
X7057932Y-13378655D01*
X7057932Y-13378655D02*
X7057932Y-13483417D01*
X7153170Y-13483417D02*
X7153170Y-13350083D01*
X7153170Y-13369131D02*
X7162694Y-13359607D01*
X7162694Y-13359607D02*
X7181742Y-13350083D01*
X7181742Y-13350083D02*
X7210313Y-13350083D01*
X7210313Y-13350083D02*
X7229361Y-13359607D01*
X7229361Y-13359607D02*
X7238885Y-13378655D01*
X7238885Y-13378655D02*
X7238885Y-13483417D01*
X7238885Y-13378655D02*
X7248408Y-13359607D01*
X7248408Y-13359607D02*
X7267456Y-13350083D01*
X7267456Y-13350083D02*
X7296027Y-13350083D01*
X7296027Y-13350083D02*
X7315075Y-13359607D01*
X7315075Y-13359607D02*
X7324599Y-13378655D01*
X7324599Y-13378655D02*
X7324599Y-13483417D01*
X7715075Y-13273893D02*
X7543647Y-13531036D01*
X7972218Y-13283417D02*
X7991266Y-13283417D01*
X7991266Y-13283417D02*
X8010313Y-13292941D01*
X8010313Y-13292941D02*
X8019837Y-13302464D01*
X8019837Y-13302464D02*
X8029361Y-13321512D01*
X8029361Y-13321512D02*
X8038885Y-13359607D01*
X8038885Y-13359607D02*
X8038885Y-13407226D01*
X8038885Y-13407226D02*
X8029361Y-13445321D01*
X8029361Y-13445321D02*
X8019837Y-13464369D01*
X8019837Y-13464369D02*
X8010313Y-13473893D01*
X8010313Y-13473893D02*
X7991266Y-13483417D01*
X7991266Y-13483417D02*
X7972218Y-13483417D01*
X7972218Y-13483417D02*
X7953170Y-13473893D01*
X7953170Y-13473893D02*
X7943647Y-13464369D01*
X7943647Y-13464369D02*
X7934123Y-13445321D01*
X7934123Y-13445321D02*
X7924599Y-13407226D01*
X7924599Y-13407226D02*
X7924599Y-13359607D01*
X7924599Y-13359607D02*
X7934123Y-13321512D01*
X7934123Y-13321512D02*
X7943647Y-13302464D01*
X7943647Y-13302464D02*
X7953170Y-13292941D01*
X7953170Y-13292941D02*
X7972218Y-13283417D01*
X8124599Y-13464369D02*
X8134123Y-13473893D01*
X8134123Y-13473893D02*
X8124599Y-13483417D01*
X8124599Y-13483417D02*
X8115075Y-13473893D01*
X8115075Y-13473893D02*
X8124599Y-13464369D01*
X8124599Y-13464369D02*
X8124599Y-13483417D01*
X8257932Y-13283417D02*
X8276980Y-13283417D01*
X8276980Y-13283417D02*
X8296028Y-13292941D01*
X8296028Y-13292941D02*
X8305551Y-13302464D01*
X8305551Y-13302464D02*
X8315075Y-13321512D01*
X8315075Y-13321512D02*
X8324599Y-13359607D01*
X8324599Y-13359607D02*
X8324599Y-13407226D01*
X8324599Y-13407226D02*
X8315075Y-13445321D01*
X8315075Y-13445321D02*
X8305551Y-13464369D01*
X8305551Y-13464369D02*
X8296028Y-13473893D01*
X8296028Y-13473893D02*
X8276980Y-13483417D01*
X8276980Y-13483417D02*
X8257932Y-13483417D01*
X8257932Y-13483417D02*
X8238885Y-13473893D01*
X8238885Y-13473893D02*
X8229361Y-13464369D01*
X8229361Y-13464369D02*
X8219837Y-13445321D01*
X8219837Y-13445321D02*
X8210313Y-13407226D01*
X8210313Y-13407226D02*
X8210313Y-13359607D01*
X8210313Y-13359607D02*
X8219837Y-13321512D01*
X8219837Y-13321512D02*
X8229361Y-13302464D01*
X8229361Y-13302464D02*
X8238885Y-13292941D01*
X8238885Y-13292941D02*
X8257932Y-13283417D01*
X8515075Y-13483417D02*
X8400790Y-13483417D01*
X8457932Y-13483417D02*
X8457932Y-13283417D01*
X8457932Y-13283417D02*
X8438885Y-13311988D01*
X8438885Y-13311988D02*
X8419837Y-13331036D01*
X8419837Y-13331036D02*
X8400790Y-13340560D01*
X8696028Y-13283417D02*
X8600790Y-13283417D01*
X8600790Y-13283417D02*
X8591266Y-13378655D01*
X8591266Y-13378655D02*
X8600790Y-13369131D01*
X8600790Y-13369131D02*
X8619837Y-13359607D01*
X8619837Y-13359607D02*
X8667456Y-13359607D01*
X8667456Y-13359607D02*
X8686504Y-13369131D01*
X8686504Y-13369131D02*
X8696028Y-13378655D01*
X8696028Y-13378655D02*
X8705552Y-13397702D01*
X8705552Y-13397702D02*
X8705552Y-13445321D01*
X8705552Y-13445321D02*
X8696028Y-13464369D01*
X8696028Y-13464369D02*
X8686504Y-13473893D01*
X8686504Y-13473893D02*
X8667456Y-13483417D01*
X8667456Y-13483417D02*
X8619837Y-13483417D01*
X8619837Y-13483417D02*
X8600790Y-13473893D01*
X8600790Y-13473893D02*
X8591266Y-13464369D01*
X8772218Y-13283417D02*
X8905552Y-13283417D01*
X8905552Y-13283417D02*
X8819837Y-13483417D01*
X8972218Y-13283417D02*
X8972218Y-13321512D01*
X9048409Y-13283417D02*
X9048409Y-13321512D01*
X9343647Y-13559607D02*
X9334123Y-13550083D01*
X9334123Y-13550083D02*
X9315075Y-13521512D01*
X9315075Y-13521512D02*
X9305552Y-13502464D01*
X9305552Y-13502464D02*
X9296028Y-13473893D01*
X9296028Y-13473893D02*
X9286504Y-13426274D01*
X9286504Y-13426274D02*
X9286504Y-13388179D01*
X9286504Y-13388179D02*
X9296028Y-13340560D01*
X9296028Y-13340560D02*
X9305552Y-13311988D01*
X9305552Y-13311988D02*
X9315075Y-13292941D01*
X9315075Y-13292941D02*
X9334123Y-13264369D01*
X9334123Y-13264369D02*
X9343647Y-13254845D01*
X9524599Y-13483417D02*
X9410314Y-13483417D01*
X9467456Y-13483417D02*
X9467456Y-13283417D01*
X9467456Y-13283417D02*
X9448409Y-13311988D01*
X9448409Y-13311988D02*
X9429361Y-13331036D01*
X9429361Y-13331036D02*
X9410314Y-13340560D01*
X9619837Y-13483417D02*
X9657933Y-13483417D01*
X9657933Y-13483417D02*
X9676980Y-13473893D01*
X9676980Y-13473893D02*
X9686504Y-13464369D01*
X9686504Y-13464369D02*
X9705552Y-13435798D01*
X9705552Y-13435798D02*
X9715075Y-13397702D01*
X9715075Y-13397702D02*
X9715075Y-13321512D01*
X9715075Y-13321512D02*
X9705552Y-13302464D01*
X9705552Y-13302464D02*
X9696028Y-13292941D01*
X9696028Y-13292941D02*
X9676980Y-13283417D01*
X9676980Y-13283417D02*
X9638885Y-13283417D01*
X9638885Y-13283417D02*
X9619837Y-13292941D01*
X9619837Y-13292941D02*
X9610314Y-13302464D01*
X9610314Y-13302464D02*
X9600790Y-13321512D01*
X9600790Y-13321512D02*
X9600790Y-13369131D01*
X9600790Y-13369131D02*
X9610314Y-13388179D01*
X9610314Y-13388179D02*
X9619837Y-13397702D01*
X9619837Y-13397702D02*
X9638885Y-13407226D01*
X9638885Y-13407226D02*
X9676980Y-13407226D01*
X9676980Y-13407226D02*
X9696028Y-13397702D01*
X9696028Y-13397702D02*
X9705552Y-13388179D01*
X9705552Y-13388179D02*
X9715075Y-13369131D01*
X9953171Y-13483417D02*
X9953171Y-13283417D01*
X10038885Y-13483417D02*
X10038885Y-13378655D01*
X10038885Y-13378655D02*
X10029361Y-13359607D01*
X10029361Y-13359607D02*
X10010314Y-13350083D01*
X10010314Y-13350083D02*
X9981742Y-13350083D01*
X9981742Y-13350083D02*
X9962695Y-13359607D01*
X9962695Y-13359607D02*
X9953171Y-13369131D01*
X10162695Y-13483417D02*
X10143647Y-13473893D01*
X10143647Y-13473893D02*
X10134123Y-13464369D01*
X10134123Y-13464369D02*
X10124599Y-13445321D01*
X10124599Y-13445321D02*
X10124599Y-13388179D01*
X10124599Y-13388179D02*
X10134123Y-13369131D01*
X10134123Y-13369131D02*
X10143647Y-13359607D01*
X10143647Y-13359607D02*
X10162695Y-13350083D01*
X10162695Y-13350083D02*
X10191266Y-13350083D01*
X10191266Y-13350083D02*
X10210314Y-13359607D01*
X10210314Y-13359607D02*
X10219837Y-13369131D01*
X10219837Y-13369131D02*
X10229361Y-13388179D01*
X10229361Y-13388179D02*
X10229361Y-13445321D01*
X10229361Y-13445321D02*
X10219837Y-13464369D01*
X10219837Y-13464369D02*
X10210314Y-13473893D01*
X10210314Y-13473893D02*
X10191266Y-13483417D01*
X10191266Y-13483417D02*
X10162695Y-13483417D01*
X10343647Y-13483417D02*
X10324599Y-13473893D01*
X10324599Y-13473893D02*
X10315076Y-13454845D01*
X10315076Y-13454845D02*
X10315076Y-13283417D01*
X10496028Y-13473893D02*
X10476980Y-13483417D01*
X10476980Y-13483417D02*
X10438885Y-13483417D01*
X10438885Y-13483417D02*
X10419837Y-13473893D01*
X10419837Y-13473893D02*
X10410314Y-13454845D01*
X10410314Y-13454845D02*
X10410314Y-13378655D01*
X10410314Y-13378655D02*
X10419837Y-13359607D01*
X10419837Y-13359607D02*
X10438885Y-13350083D01*
X10438885Y-13350083D02*
X10476980Y-13350083D01*
X10476980Y-13350083D02*
X10496028Y-13359607D01*
X10496028Y-13359607D02*
X10505552Y-13378655D01*
X10505552Y-13378655D02*
X10505552Y-13397702D01*
X10505552Y-13397702D02*
X10410314Y-13416750D01*
X10581742Y-13473893D02*
X10600790Y-13483417D01*
X10600790Y-13483417D02*
X10638885Y-13483417D01*
X10638885Y-13483417D02*
X10657933Y-13473893D01*
X10657933Y-13473893D02*
X10667457Y-13454845D01*
X10667457Y-13454845D02*
X10667457Y-13445321D01*
X10667457Y-13445321D02*
X10657933Y-13426274D01*
X10657933Y-13426274D02*
X10638885Y-13416750D01*
X10638885Y-13416750D02*
X10610314Y-13416750D01*
X10610314Y-13416750D02*
X10591266Y-13407226D01*
X10591266Y-13407226D02*
X10581742Y-13388179D01*
X10581742Y-13388179D02*
X10581742Y-13378655D01*
X10581742Y-13378655D02*
X10591266Y-13359607D01*
X10591266Y-13359607D02*
X10610314Y-13350083D01*
X10610314Y-13350083D02*
X10638885Y-13350083D01*
X10638885Y-13350083D02*
X10657933Y-13359607D01*
X10734123Y-13559607D02*
X10743647Y-13550083D01*
X10743647Y-13550083D02*
X10762695Y-13521512D01*
X10762695Y-13521512D02*
X10772218Y-13502464D01*
X10772218Y-13502464D02*
X10781742Y-13473893D01*
X10781742Y-13473893D02*
X10791266Y-13426274D01*
X10791266Y-13426274D02*
X10791266Y-13388179D01*
X10791266Y-13388179D02*
X10781742Y-13340560D01*
X10781742Y-13340560D02*
X10772218Y-13311988D01*
X10772218Y-13311988D02*
X10762695Y-13292941D01*
X10762695Y-13292941D02*
X10743647Y-13264369D01*
X10743647Y-13264369D02*
X10734123Y-13254845D01*
D10*
X5768584Y-13655933D02*
G75*
G02*
X5688584Y-13655933I-40000J0D01*
G01*
X5688584Y-13655933D02*
G75*
G02*
X5768584Y-13655933I40000J0D01*
G01*
D11*
X6067456Y-13547417D02*
X6086504Y-13547417D01*
X6086504Y-13547417D02*
X6105551Y-13556941D01*
X6105551Y-13556941D02*
X6115075Y-13566464D01*
X6115075Y-13566464D02*
X6124599Y-13585512D01*
X6124599Y-13585512D02*
X6134123Y-13623607D01*
X6134123Y-13623607D02*
X6134123Y-13671226D01*
X6134123Y-13671226D02*
X6124599Y-13709321D01*
X6124599Y-13709321D02*
X6115075Y-13728369D01*
X6115075Y-13728369D02*
X6105551Y-13737893D01*
X6105551Y-13737893D02*
X6086504Y-13747417D01*
X6086504Y-13747417D02*
X6067456Y-13747417D01*
X6067456Y-13747417D02*
X6048408Y-13737893D01*
X6048408Y-13737893D02*
X6038885Y-13728369D01*
X6038885Y-13728369D02*
X6029361Y-13709321D01*
X6029361Y-13709321D02*
X6019837Y-13671226D01*
X6019837Y-13671226D02*
X6019837Y-13623607D01*
X6019837Y-13623607D02*
X6029361Y-13585512D01*
X6029361Y-13585512D02*
X6038885Y-13566464D01*
X6038885Y-13566464D02*
X6048408Y-13556941D01*
X6048408Y-13556941D02*
X6067456Y-13547417D01*
X6219837Y-13728369D02*
X6229361Y-13737893D01*
X6229361Y-13737893D02*
X6219837Y-13747417D01*
X6219837Y-13747417D02*
X6210313Y-13737893D01*
X6210313Y-13737893D02*
X6219837Y-13728369D01*
X6219837Y-13728369D02*
X6219837Y-13747417D01*
X6343646Y-13633131D02*
X6324599Y-13623607D01*
X6324599Y-13623607D02*
X6315075Y-13614083D01*
X6315075Y-13614083D02*
X6305551Y-13595036D01*
X6305551Y-13595036D02*
X6305551Y-13585512D01*
X6305551Y-13585512D02*
X6315075Y-13566464D01*
X6315075Y-13566464D02*
X6324599Y-13556941D01*
X6324599Y-13556941D02*
X6343646Y-13547417D01*
X6343646Y-13547417D02*
X6381742Y-13547417D01*
X6381742Y-13547417D02*
X6400789Y-13556941D01*
X6400789Y-13556941D02*
X6410313Y-13566464D01*
X6410313Y-13566464D02*
X6419837Y-13585512D01*
X6419837Y-13585512D02*
X6419837Y-13595036D01*
X6419837Y-13595036D02*
X6410313Y-13614083D01*
X6410313Y-13614083D02*
X6400789Y-13623607D01*
X6400789Y-13623607D02*
X6381742Y-13633131D01*
X6381742Y-13633131D02*
X6343646Y-13633131D01*
X6343646Y-13633131D02*
X6324599Y-13642655D01*
X6324599Y-13642655D02*
X6315075Y-13652179D01*
X6315075Y-13652179D02*
X6305551Y-13671226D01*
X6305551Y-13671226D02*
X6305551Y-13709321D01*
X6305551Y-13709321D02*
X6315075Y-13728369D01*
X6315075Y-13728369D02*
X6324599Y-13737893D01*
X6324599Y-13737893D02*
X6343646Y-13747417D01*
X6343646Y-13747417D02*
X6381742Y-13747417D01*
X6381742Y-13747417D02*
X6400789Y-13737893D01*
X6400789Y-13737893D02*
X6410313Y-13728369D01*
X6410313Y-13728369D02*
X6419837Y-13709321D01*
X6419837Y-13709321D02*
X6419837Y-13671226D01*
X6419837Y-13671226D02*
X6410313Y-13652179D01*
X6410313Y-13652179D02*
X6400789Y-13642655D01*
X6400789Y-13642655D02*
X6381742Y-13633131D01*
X6543646Y-13547417D02*
X6562694Y-13547417D01*
X6562694Y-13547417D02*
X6581742Y-13556941D01*
X6581742Y-13556941D02*
X6591266Y-13566464D01*
X6591266Y-13566464D02*
X6600789Y-13585512D01*
X6600789Y-13585512D02*
X6610313Y-13623607D01*
X6610313Y-13623607D02*
X6610313Y-13671226D01*
X6610313Y-13671226D02*
X6600789Y-13709321D01*
X6600789Y-13709321D02*
X6591266Y-13728369D01*
X6591266Y-13728369D02*
X6581742Y-13737893D01*
X6581742Y-13737893D02*
X6562694Y-13747417D01*
X6562694Y-13747417D02*
X6543646Y-13747417D01*
X6543646Y-13747417D02*
X6524599Y-13737893D01*
X6524599Y-13737893D02*
X6515075Y-13728369D01*
X6515075Y-13728369D02*
X6505551Y-13709321D01*
X6505551Y-13709321D02*
X6496027Y-13671226D01*
X6496027Y-13671226D02*
X6496027Y-13623607D01*
X6496027Y-13623607D02*
X6505551Y-13585512D01*
X6505551Y-13585512D02*
X6515075Y-13566464D01*
X6515075Y-13566464D02*
X6524599Y-13556941D01*
X6524599Y-13556941D02*
X6543646Y-13547417D01*
X6734123Y-13547417D02*
X6753170Y-13547417D01*
X6753170Y-13547417D02*
X6772218Y-13556941D01*
X6772218Y-13556941D02*
X6781742Y-13566464D01*
X6781742Y-13566464D02*
X6791266Y-13585512D01*
X6791266Y-13585512D02*
X6800789Y-13623607D01*
X6800789Y-13623607D02*
X6800789Y-13671226D01*
X6800789Y-13671226D02*
X6791266Y-13709321D01*
X6791266Y-13709321D02*
X6781742Y-13728369D01*
X6781742Y-13728369D02*
X6772218Y-13737893D01*
X6772218Y-13737893D02*
X6753170Y-13747417D01*
X6753170Y-13747417D02*
X6734123Y-13747417D01*
X6734123Y-13747417D02*
X6715075Y-13737893D01*
X6715075Y-13737893D02*
X6705551Y-13728369D01*
X6705551Y-13728369D02*
X6696027Y-13709321D01*
X6696027Y-13709321D02*
X6686504Y-13671226D01*
X6686504Y-13671226D02*
X6686504Y-13623607D01*
X6686504Y-13623607D02*
X6696027Y-13585512D01*
X6696027Y-13585512D02*
X6705551Y-13566464D01*
X6705551Y-13566464D02*
X6715075Y-13556941D01*
X6715075Y-13556941D02*
X6734123Y-13547417D01*
X6886504Y-13747417D02*
X6886504Y-13614083D01*
X6886504Y-13633131D02*
X6896027Y-13623607D01*
X6896027Y-13623607D02*
X6915075Y-13614083D01*
X6915075Y-13614083D02*
X6943647Y-13614083D01*
X6943647Y-13614083D02*
X6962694Y-13623607D01*
X6962694Y-13623607D02*
X6972218Y-13642655D01*
X6972218Y-13642655D02*
X6972218Y-13747417D01*
X6972218Y-13642655D02*
X6981742Y-13623607D01*
X6981742Y-13623607D02*
X7000789Y-13614083D01*
X7000789Y-13614083D02*
X7029361Y-13614083D01*
X7029361Y-13614083D02*
X7048408Y-13623607D01*
X7048408Y-13623607D02*
X7057932Y-13642655D01*
X7057932Y-13642655D02*
X7057932Y-13747417D01*
X7153170Y-13747417D02*
X7153170Y-13614083D01*
X7153170Y-13633131D02*
X7162694Y-13623607D01*
X7162694Y-13623607D02*
X7181742Y-13614083D01*
X7181742Y-13614083D02*
X7210313Y-13614083D01*
X7210313Y-13614083D02*
X7229361Y-13623607D01*
X7229361Y-13623607D02*
X7238885Y-13642655D01*
X7238885Y-13642655D02*
X7238885Y-13747417D01*
X7238885Y-13642655D02*
X7248408Y-13623607D01*
X7248408Y-13623607D02*
X7267456Y-13614083D01*
X7267456Y-13614083D02*
X7296027Y-13614083D01*
X7296027Y-13614083D02*
X7315075Y-13623607D01*
X7315075Y-13623607D02*
X7324599Y-13642655D01*
X7324599Y-13642655D02*
X7324599Y-13747417D01*
X7715075Y-13537893D02*
X7543647Y-13795036D01*
X7972218Y-13547417D02*
X7991266Y-13547417D01*
X7991266Y-13547417D02*
X8010313Y-13556941D01*
X8010313Y-13556941D02*
X8019837Y-13566464D01*
X8019837Y-13566464D02*
X8029361Y-13585512D01*
X8029361Y-13585512D02*
X8038885Y-13623607D01*
X8038885Y-13623607D02*
X8038885Y-13671226D01*
X8038885Y-13671226D02*
X8029361Y-13709321D01*
X8029361Y-13709321D02*
X8019837Y-13728369D01*
X8019837Y-13728369D02*
X8010313Y-13737893D01*
X8010313Y-13737893D02*
X7991266Y-13747417D01*
X7991266Y-13747417D02*
X7972218Y-13747417D01*
X7972218Y-13747417D02*
X7953170Y-13737893D01*
X7953170Y-13737893D02*
X7943647Y-13728369D01*
X7943647Y-13728369D02*
X7934123Y-13709321D01*
X7934123Y-13709321D02*
X7924599Y-13671226D01*
X7924599Y-13671226D02*
X7924599Y-13623607D01*
X7924599Y-13623607D02*
X7934123Y-13585512D01*
X7934123Y-13585512D02*
X7943647Y-13566464D01*
X7943647Y-13566464D02*
X7953170Y-13556941D01*
X7953170Y-13556941D02*
X7972218Y-13547417D01*
X8124599Y-13728369D02*
X8134123Y-13737893D01*
X8134123Y-13737893D02*
X8124599Y-13747417D01*
X8124599Y-13747417D02*
X8115075Y-13737893D01*
X8115075Y-13737893D02*
X8124599Y-13728369D01*
X8124599Y-13728369D02*
X8124599Y-13747417D01*
X8257932Y-13547417D02*
X8276980Y-13547417D01*
X8276980Y-13547417D02*
X8296028Y-13556941D01*
X8296028Y-13556941D02*
X8305551Y-13566464D01*
X8305551Y-13566464D02*
X8315075Y-13585512D01*
X8315075Y-13585512D02*
X8324599Y-13623607D01*
X8324599Y-13623607D02*
X8324599Y-13671226D01*
X8324599Y-13671226D02*
X8315075Y-13709321D01*
X8315075Y-13709321D02*
X8305551Y-13728369D01*
X8305551Y-13728369D02*
X8296028Y-13737893D01*
X8296028Y-13737893D02*
X8276980Y-13747417D01*
X8276980Y-13747417D02*
X8257932Y-13747417D01*
X8257932Y-13747417D02*
X8238885Y-13737893D01*
X8238885Y-13737893D02*
X8229361Y-13728369D01*
X8229361Y-13728369D02*
X8219837Y-13709321D01*
X8219837Y-13709321D02*
X8210313Y-13671226D01*
X8210313Y-13671226D02*
X8210313Y-13623607D01*
X8210313Y-13623607D02*
X8219837Y-13585512D01*
X8219837Y-13585512D02*
X8229361Y-13566464D01*
X8229361Y-13566464D02*
X8238885Y-13556941D01*
X8238885Y-13556941D02*
X8257932Y-13547417D01*
X8391266Y-13547417D02*
X8515075Y-13547417D01*
X8515075Y-13547417D02*
X8448409Y-13623607D01*
X8448409Y-13623607D02*
X8476980Y-13623607D01*
X8476980Y-13623607D02*
X8496028Y-13633131D01*
X8496028Y-13633131D02*
X8505552Y-13642655D01*
X8505552Y-13642655D02*
X8515075Y-13661702D01*
X8515075Y-13661702D02*
X8515075Y-13709321D01*
X8515075Y-13709321D02*
X8505552Y-13728369D01*
X8505552Y-13728369D02*
X8496028Y-13737893D01*
X8496028Y-13737893D02*
X8476980Y-13747417D01*
X8476980Y-13747417D02*
X8419837Y-13747417D01*
X8419837Y-13747417D02*
X8400790Y-13737893D01*
X8400790Y-13737893D02*
X8391266Y-13728369D01*
X8705552Y-13747417D02*
X8591266Y-13747417D01*
X8648409Y-13747417D02*
X8648409Y-13547417D01*
X8648409Y-13547417D02*
X8629361Y-13575988D01*
X8629361Y-13575988D02*
X8610313Y-13595036D01*
X8610313Y-13595036D02*
X8591266Y-13604560D01*
X8886504Y-13547417D02*
X8791266Y-13547417D01*
X8791266Y-13547417D02*
X8781742Y-13642655D01*
X8781742Y-13642655D02*
X8791266Y-13633131D01*
X8791266Y-13633131D02*
X8810313Y-13623607D01*
X8810313Y-13623607D02*
X8857933Y-13623607D01*
X8857933Y-13623607D02*
X8876980Y-13633131D01*
X8876980Y-13633131D02*
X8886504Y-13642655D01*
X8886504Y-13642655D02*
X8896028Y-13661702D01*
X8896028Y-13661702D02*
X8896028Y-13709321D01*
X8896028Y-13709321D02*
X8886504Y-13728369D01*
X8886504Y-13728369D02*
X8876980Y-13737893D01*
X8876980Y-13737893D02*
X8857933Y-13747417D01*
X8857933Y-13747417D02*
X8810313Y-13747417D01*
X8810313Y-13747417D02*
X8791266Y-13737893D01*
X8791266Y-13737893D02*
X8781742Y-13728369D01*
X8972218Y-13547417D02*
X8972218Y-13585512D01*
X9048409Y-13547417D02*
X9048409Y-13585512D01*
X9343647Y-13823607D02*
X9334123Y-13814083D01*
X9334123Y-13814083D02*
X9315075Y-13785512D01*
X9315075Y-13785512D02*
X9305552Y-13766464D01*
X9305552Y-13766464D02*
X9296028Y-13737893D01*
X9296028Y-13737893D02*
X9286504Y-13690274D01*
X9286504Y-13690274D02*
X9286504Y-13652179D01*
X9286504Y-13652179D02*
X9296028Y-13604560D01*
X9296028Y-13604560D02*
X9305552Y-13575988D01*
X9305552Y-13575988D02*
X9315075Y-13556941D01*
X9315075Y-13556941D02*
X9334123Y-13528369D01*
X9334123Y-13528369D02*
X9343647Y-13518845D01*
X9400790Y-13547417D02*
X9524599Y-13547417D01*
X9524599Y-13547417D02*
X9457933Y-13623607D01*
X9457933Y-13623607D02*
X9486504Y-13623607D01*
X9486504Y-13623607D02*
X9505552Y-13633131D01*
X9505552Y-13633131D02*
X9515075Y-13642655D01*
X9515075Y-13642655D02*
X9524599Y-13661702D01*
X9524599Y-13661702D02*
X9524599Y-13709321D01*
X9524599Y-13709321D02*
X9515075Y-13728369D01*
X9515075Y-13728369D02*
X9505552Y-13737893D01*
X9505552Y-13737893D02*
X9486504Y-13747417D01*
X9486504Y-13747417D02*
X9429361Y-13747417D01*
X9429361Y-13747417D02*
X9410314Y-13737893D01*
X9410314Y-13737893D02*
X9400790Y-13728369D01*
X9762695Y-13747417D02*
X9762695Y-13547417D01*
X9848409Y-13747417D02*
X9848409Y-13642655D01*
X9848409Y-13642655D02*
X9838885Y-13623607D01*
X9838885Y-13623607D02*
X9819837Y-13614083D01*
X9819837Y-13614083D02*
X9791266Y-13614083D01*
X9791266Y-13614083D02*
X9772218Y-13623607D01*
X9772218Y-13623607D02*
X9762695Y-13633131D01*
X9972218Y-13747417D02*
X9953171Y-13737893D01*
X9953171Y-13737893D02*
X9943647Y-13728369D01*
X9943647Y-13728369D02*
X9934123Y-13709321D01*
X9934123Y-13709321D02*
X9934123Y-13652179D01*
X9934123Y-13652179D02*
X9943647Y-13633131D01*
X9943647Y-13633131D02*
X9953171Y-13623607D01*
X9953171Y-13623607D02*
X9972218Y-13614083D01*
X9972218Y-13614083D02*
X10000790Y-13614083D01*
X10000790Y-13614083D02*
X10019837Y-13623607D01*
X10019837Y-13623607D02*
X10029361Y-13633131D01*
X10029361Y-13633131D02*
X10038885Y-13652179D01*
X10038885Y-13652179D02*
X10038885Y-13709321D01*
X10038885Y-13709321D02*
X10029361Y-13728369D01*
X10029361Y-13728369D02*
X10019837Y-13737893D01*
X10019837Y-13737893D02*
X10000790Y-13747417D01*
X10000790Y-13747417D02*
X9972218Y-13747417D01*
X10153171Y-13747417D02*
X10134123Y-13737893D01*
X10134123Y-13737893D02*
X10124599Y-13718845D01*
X10124599Y-13718845D02*
X10124599Y-13547417D01*
X10305552Y-13737893D02*
X10286504Y-13747417D01*
X10286504Y-13747417D02*
X10248409Y-13747417D01*
X10248409Y-13747417D02*
X10229361Y-13737893D01*
X10229361Y-13737893D02*
X10219837Y-13718845D01*
X10219837Y-13718845D02*
X10219837Y-13642655D01*
X10219837Y-13642655D02*
X10229361Y-13623607D01*
X10229361Y-13623607D02*
X10248409Y-13614083D01*
X10248409Y-13614083D02*
X10286504Y-13614083D01*
X10286504Y-13614083D02*
X10305552Y-13623607D01*
X10305552Y-13623607D02*
X10315076Y-13642655D01*
X10315076Y-13642655D02*
X10315076Y-13661702D01*
X10315076Y-13661702D02*
X10219837Y-13680750D01*
X10391266Y-13737893D02*
X10410314Y-13747417D01*
X10410314Y-13747417D02*
X10448409Y-13747417D01*
X10448409Y-13747417D02*
X10467457Y-13737893D01*
X10467457Y-13737893D02*
X10476980Y-13718845D01*
X10476980Y-13718845D02*
X10476980Y-13709321D01*
X10476980Y-13709321D02*
X10467457Y-13690274D01*
X10467457Y-13690274D02*
X10448409Y-13680750D01*
X10448409Y-13680750D02*
X10419837Y-13680750D01*
X10419837Y-13680750D02*
X10400790Y-13671226D01*
X10400790Y-13671226D02*
X10391266Y-13652179D01*
X10391266Y-13652179D02*
X10391266Y-13642655D01*
X10391266Y-13642655D02*
X10400790Y-13623607D01*
X10400790Y-13623607D02*
X10419837Y-13614083D01*
X10419837Y-13614083D02*
X10448409Y-13614083D01*
X10448409Y-13614083D02*
X10467457Y-13623607D01*
X10543647Y-13823607D02*
X10553171Y-13814083D01*
X10553171Y-13814083D02*
X10572218Y-13785512D01*
X10572218Y-13785512D02*
X10581742Y-13766464D01*
X10581742Y-13766464D02*
X10591266Y-13737893D01*
X10591266Y-13737893D02*
X10600790Y-13690274D01*
X10600790Y-13690274D02*
X10600790Y-13652179D01*
X10600790Y-13652179D02*
X10591266Y-13604560D01*
X10591266Y-13604560D02*
X10581742Y-13575988D01*
X10581742Y-13575988D02*
X10572218Y-13556941D01*
X10572218Y-13556941D02*
X10553171Y-13528369D01*
X10553171Y-13528369D02*
X10543647Y-13518845D01*
D10*
X5718584Y-13869933D02*
X5718584Y-13969933D01*
X5668584Y-13919933D02*
X5768584Y-13919933D01*
D11*
X6134123Y-14011417D02*
X6019837Y-14011417D01*
X6076980Y-14011417D02*
X6076980Y-13811417D01*
X6076980Y-13811417D02*
X6057932Y-13839988D01*
X6057932Y-13839988D02*
X6038885Y-13859036D01*
X6038885Y-13859036D02*
X6019837Y-13868560D01*
X6219837Y-13992369D02*
X6229361Y-14001893D01*
X6229361Y-14001893D02*
X6219837Y-14011417D01*
X6219837Y-14011417D02*
X6210313Y-14001893D01*
X6210313Y-14001893D02*
X6219837Y-13992369D01*
X6219837Y-13992369D02*
X6219837Y-14011417D01*
X6353170Y-13811417D02*
X6372218Y-13811417D01*
X6372218Y-13811417D02*
X6391266Y-13820941D01*
X6391266Y-13820941D02*
X6400789Y-13830464D01*
X6400789Y-13830464D02*
X6410313Y-13849512D01*
X6410313Y-13849512D02*
X6419837Y-13887607D01*
X6419837Y-13887607D02*
X6419837Y-13935226D01*
X6419837Y-13935226D02*
X6410313Y-13973321D01*
X6410313Y-13973321D02*
X6400789Y-13992369D01*
X6400789Y-13992369D02*
X6391266Y-14001893D01*
X6391266Y-14001893D02*
X6372218Y-14011417D01*
X6372218Y-14011417D02*
X6353170Y-14011417D01*
X6353170Y-14011417D02*
X6334123Y-14001893D01*
X6334123Y-14001893D02*
X6324599Y-13992369D01*
X6324599Y-13992369D02*
X6315075Y-13973321D01*
X6315075Y-13973321D02*
X6305551Y-13935226D01*
X6305551Y-13935226D02*
X6305551Y-13887607D01*
X6305551Y-13887607D02*
X6315075Y-13849512D01*
X6315075Y-13849512D02*
X6324599Y-13830464D01*
X6324599Y-13830464D02*
X6334123Y-13820941D01*
X6334123Y-13820941D02*
X6353170Y-13811417D01*
X6543646Y-13811417D02*
X6562694Y-13811417D01*
X6562694Y-13811417D02*
X6581742Y-13820941D01*
X6581742Y-13820941D02*
X6591266Y-13830464D01*
X6591266Y-13830464D02*
X6600789Y-13849512D01*
X6600789Y-13849512D02*
X6610313Y-13887607D01*
X6610313Y-13887607D02*
X6610313Y-13935226D01*
X6610313Y-13935226D02*
X6600789Y-13973321D01*
X6600789Y-13973321D02*
X6591266Y-13992369D01*
X6591266Y-13992369D02*
X6581742Y-14001893D01*
X6581742Y-14001893D02*
X6562694Y-14011417D01*
X6562694Y-14011417D02*
X6543646Y-14011417D01*
X6543646Y-14011417D02*
X6524599Y-14001893D01*
X6524599Y-14001893D02*
X6515075Y-13992369D01*
X6515075Y-13992369D02*
X6505551Y-13973321D01*
X6505551Y-13973321D02*
X6496027Y-13935226D01*
X6496027Y-13935226D02*
X6496027Y-13887607D01*
X6496027Y-13887607D02*
X6505551Y-13849512D01*
X6505551Y-13849512D02*
X6515075Y-13830464D01*
X6515075Y-13830464D02*
X6524599Y-13820941D01*
X6524599Y-13820941D02*
X6543646Y-13811417D01*
X6734123Y-13811417D02*
X6753170Y-13811417D01*
X6753170Y-13811417D02*
X6772218Y-13820941D01*
X6772218Y-13820941D02*
X6781742Y-13830464D01*
X6781742Y-13830464D02*
X6791266Y-13849512D01*
X6791266Y-13849512D02*
X6800789Y-13887607D01*
X6800789Y-13887607D02*
X6800789Y-13935226D01*
X6800789Y-13935226D02*
X6791266Y-13973321D01*
X6791266Y-13973321D02*
X6781742Y-13992369D01*
X6781742Y-13992369D02*
X6772218Y-14001893D01*
X6772218Y-14001893D02*
X6753170Y-14011417D01*
X6753170Y-14011417D02*
X6734123Y-14011417D01*
X6734123Y-14011417D02*
X6715075Y-14001893D01*
X6715075Y-14001893D02*
X6705551Y-13992369D01*
X6705551Y-13992369D02*
X6696027Y-13973321D01*
X6696027Y-13973321D02*
X6686504Y-13935226D01*
X6686504Y-13935226D02*
X6686504Y-13887607D01*
X6686504Y-13887607D02*
X6696027Y-13849512D01*
X6696027Y-13849512D02*
X6705551Y-13830464D01*
X6705551Y-13830464D02*
X6715075Y-13820941D01*
X6715075Y-13820941D02*
X6734123Y-13811417D01*
X6886504Y-14011417D02*
X6886504Y-13878083D01*
X6886504Y-13897131D02*
X6896027Y-13887607D01*
X6896027Y-13887607D02*
X6915075Y-13878083D01*
X6915075Y-13878083D02*
X6943647Y-13878083D01*
X6943647Y-13878083D02*
X6962694Y-13887607D01*
X6962694Y-13887607D02*
X6972218Y-13906655D01*
X6972218Y-13906655D02*
X6972218Y-14011417D01*
X6972218Y-13906655D02*
X6981742Y-13887607D01*
X6981742Y-13887607D02*
X7000789Y-13878083D01*
X7000789Y-13878083D02*
X7029361Y-13878083D01*
X7029361Y-13878083D02*
X7048408Y-13887607D01*
X7048408Y-13887607D02*
X7057932Y-13906655D01*
X7057932Y-13906655D02*
X7057932Y-14011417D01*
X7153170Y-14011417D02*
X7153170Y-13878083D01*
X7153170Y-13897131D02*
X7162694Y-13887607D01*
X7162694Y-13887607D02*
X7181742Y-13878083D01*
X7181742Y-13878083D02*
X7210313Y-13878083D01*
X7210313Y-13878083D02*
X7229361Y-13887607D01*
X7229361Y-13887607D02*
X7238885Y-13906655D01*
X7238885Y-13906655D02*
X7238885Y-14011417D01*
X7238885Y-13906655D02*
X7248408Y-13887607D01*
X7248408Y-13887607D02*
X7267456Y-13878083D01*
X7267456Y-13878083D02*
X7296027Y-13878083D01*
X7296027Y-13878083D02*
X7315075Y-13887607D01*
X7315075Y-13887607D02*
X7324599Y-13906655D01*
X7324599Y-13906655D02*
X7324599Y-14011417D01*
X7715075Y-13801893D02*
X7543647Y-14059036D01*
X7972218Y-13811417D02*
X7991266Y-13811417D01*
X7991266Y-13811417D02*
X8010313Y-13820941D01*
X8010313Y-13820941D02*
X8019837Y-13830464D01*
X8019837Y-13830464D02*
X8029361Y-13849512D01*
X8029361Y-13849512D02*
X8038885Y-13887607D01*
X8038885Y-13887607D02*
X8038885Y-13935226D01*
X8038885Y-13935226D02*
X8029361Y-13973321D01*
X8029361Y-13973321D02*
X8019837Y-13992369D01*
X8019837Y-13992369D02*
X8010313Y-14001893D01*
X8010313Y-14001893D02*
X7991266Y-14011417D01*
X7991266Y-14011417D02*
X7972218Y-14011417D01*
X7972218Y-14011417D02*
X7953170Y-14001893D01*
X7953170Y-14001893D02*
X7943647Y-13992369D01*
X7943647Y-13992369D02*
X7934123Y-13973321D01*
X7934123Y-13973321D02*
X7924599Y-13935226D01*
X7924599Y-13935226D02*
X7924599Y-13887607D01*
X7924599Y-13887607D02*
X7934123Y-13849512D01*
X7934123Y-13849512D02*
X7943647Y-13830464D01*
X7943647Y-13830464D02*
X7953170Y-13820941D01*
X7953170Y-13820941D02*
X7972218Y-13811417D01*
X8124599Y-13992369D02*
X8134123Y-14001893D01*
X8134123Y-14001893D02*
X8124599Y-14011417D01*
X8124599Y-14011417D02*
X8115075Y-14001893D01*
X8115075Y-14001893D02*
X8124599Y-13992369D01*
X8124599Y-13992369D02*
X8124599Y-14011417D01*
X8257932Y-13811417D02*
X8276980Y-13811417D01*
X8276980Y-13811417D02*
X8296028Y-13820941D01*
X8296028Y-13820941D02*
X8305551Y-13830464D01*
X8305551Y-13830464D02*
X8315075Y-13849512D01*
X8315075Y-13849512D02*
X8324599Y-13887607D01*
X8324599Y-13887607D02*
X8324599Y-13935226D01*
X8324599Y-13935226D02*
X8315075Y-13973321D01*
X8315075Y-13973321D02*
X8305551Y-13992369D01*
X8305551Y-13992369D02*
X8296028Y-14001893D01*
X8296028Y-14001893D02*
X8276980Y-14011417D01*
X8276980Y-14011417D02*
X8257932Y-14011417D01*
X8257932Y-14011417D02*
X8238885Y-14001893D01*
X8238885Y-14001893D02*
X8229361Y-13992369D01*
X8229361Y-13992369D02*
X8219837Y-13973321D01*
X8219837Y-13973321D02*
X8210313Y-13935226D01*
X8210313Y-13935226D02*
X8210313Y-13887607D01*
X8210313Y-13887607D02*
X8219837Y-13849512D01*
X8219837Y-13849512D02*
X8229361Y-13830464D01*
X8229361Y-13830464D02*
X8238885Y-13820941D01*
X8238885Y-13820941D02*
X8257932Y-13811417D01*
X8391266Y-13811417D02*
X8515075Y-13811417D01*
X8515075Y-13811417D02*
X8448409Y-13887607D01*
X8448409Y-13887607D02*
X8476980Y-13887607D01*
X8476980Y-13887607D02*
X8496028Y-13897131D01*
X8496028Y-13897131D02*
X8505552Y-13906655D01*
X8505552Y-13906655D02*
X8515075Y-13925702D01*
X8515075Y-13925702D02*
X8515075Y-13973321D01*
X8515075Y-13973321D02*
X8505552Y-13992369D01*
X8505552Y-13992369D02*
X8496028Y-14001893D01*
X8496028Y-14001893D02*
X8476980Y-14011417D01*
X8476980Y-14011417D02*
X8419837Y-14011417D01*
X8419837Y-14011417D02*
X8400790Y-14001893D01*
X8400790Y-14001893D02*
X8391266Y-13992369D01*
X8610313Y-14011417D02*
X8648409Y-14011417D01*
X8648409Y-14011417D02*
X8667456Y-14001893D01*
X8667456Y-14001893D02*
X8676980Y-13992369D01*
X8676980Y-13992369D02*
X8696028Y-13963798D01*
X8696028Y-13963798D02*
X8705552Y-13925702D01*
X8705552Y-13925702D02*
X8705552Y-13849512D01*
X8705552Y-13849512D02*
X8696028Y-13830464D01*
X8696028Y-13830464D02*
X8686504Y-13820941D01*
X8686504Y-13820941D02*
X8667456Y-13811417D01*
X8667456Y-13811417D02*
X8629361Y-13811417D01*
X8629361Y-13811417D02*
X8610313Y-13820941D01*
X8610313Y-13820941D02*
X8600790Y-13830464D01*
X8600790Y-13830464D02*
X8591266Y-13849512D01*
X8591266Y-13849512D02*
X8591266Y-13897131D01*
X8591266Y-13897131D02*
X8600790Y-13916179D01*
X8600790Y-13916179D02*
X8610313Y-13925702D01*
X8610313Y-13925702D02*
X8629361Y-13935226D01*
X8629361Y-13935226D02*
X8667456Y-13935226D01*
X8667456Y-13935226D02*
X8686504Y-13925702D01*
X8686504Y-13925702D02*
X8696028Y-13916179D01*
X8696028Y-13916179D02*
X8705552Y-13897131D01*
X8876980Y-13878083D02*
X8876980Y-14011417D01*
X8829361Y-13801893D02*
X8781742Y-13944750D01*
X8781742Y-13944750D02*
X8905552Y-13944750D01*
X8972218Y-13811417D02*
X8972218Y-13849512D01*
X9048409Y-13811417D02*
X9048409Y-13849512D01*
X9343647Y-14087607D02*
X9334123Y-14078083D01*
X9334123Y-14078083D02*
X9315075Y-14049512D01*
X9315075Y-14049512D02*
X9305552Y-14030464D01*
X9305552Y-14030464D02*
X9296028Y-14001893D01*
X9296028Y-14001893D02*
X9286504Y-13954274D01*
X9286504Y-13954274D02*
X9286504Y-13916179D01*
X9286504Y-13916179D02*
X9296028Y-13868560D01*
X9296028Y-13868560D02*
X9305552Y-13839988D01*
X9305552Y-13839988D02*
X9315075Y-13820941D01*
X9315075Y-13820941D02*
X9334123Y-13792369D01*
X9334123Y-13792369D02*
X9343647Y-13782845D01*
X9524599Y-14011417D02*
X9410314Y-14011417D01*
X9467456Y-14011417D02*
X9467456Y-13811417D01*
X9467456Y-13811417D02*
X9448409Y-13839988D01*
X9448409Y-13839988D02*
X9429361Y-13859036D01*
X9429361Y-13859036D02*
X9410314Y-13868560D01*
X9705552Y-13811417D02*
X9610314Y-13811417D01*
X9610314Y-13811417D02*
X9600790Y-13906655D01*
X9600790Y-13906655D02*
X9610314Y-13897131D01*
X9610314Y-13897131D02*
X9629361Y-13887607D01*
X9629361Y-13887607D02*
X9676980Y-13887607D01*
X9676980Y-13887607D02*
X9696028Y-13897131D01*
X9696028Y-13897131D02*
X9705552Y-13906655D01*
X9705552Y-13906655D02*
X9715075Y-13925702D01*
X9715075Y-13925702D02*
X9715075Y-13973321D01*
X9715075Y-13973321D02*
X9705552Y-13992369D01*
X9705552Y-13992369D02*
X9696028Y-14001893D01*
X9696028Y-14001893D02*
X9676980Y-14011417D01*
X9676980Y-14011417D02*
X9629361Y-14011417D01*
X9629361Y-14011417D02*
X9610314Y-14001893D01*
X9610314Y-14001893D02*
X9600790Y-13992369D01*
X9953171Y-14011417D02*
X9953171Y-13811417D01*
X10038885Y-14011417D02*
X10038885Y-13906655D01*
X10038885Y-13906655D02*
X10029361Y-13887607D01*
X10029361Y-13887607D02*
X10010314Y-13878083D01*
X10010314Y-13878083D02*
X9981742Y-13878083D01*
X9981742Y-13878083D02*
X9962695Y-13887607D01*
X9962695Y-13887607D02*
X9953171Y-13897131D01*
X10162695Y-14011417D02*
X10143647Y-14001893D01*
X10143647Y-14001893D02*
X10134123Y-13992369D01*
X10134123Y-13992369D02*
X10124599Y-13973321D01*
X10124599Y-13973321D02*
X10124599Y-13916179D01*
X10124599Y-13916179D02*
X10134123Y-13897131D01*
X10134123Y-13897131D02*
X10143647Y-13887607D01*
X10143647Y-13887607D02*
X10162695Y-13878083D01*
X10162695Y-13878083D02*
X10191266Y-13878083D01*
X10191266Y-13878083D02*
X10210314Y-13887607D01*
X10210314Y-13887607D02*
X10219837Y-13897131D01*
X10219837Y-13897131D02*
X10229361Y-13916179D01*
X10229361Y-13916179D02*
X10229361Y-13973321D01*
X10229361Y-13973321D02*
X10219837Y-13992369D01*
X10219837Y-13992369D02*
X10210314Y-14001893D01*
X10210314Y-14001893D02*
X10191266Y-14011417D01*
X10191266Y-14011417D02*
X10162695Y-14011417D01*
X10343647Y-14011417D02*
X10324599Y-14001893D01*
X10324599Y-14001893D02*
X10315076Y-13982845D01*
X10315076Y-13982845D02*
X10315076Y-13811417D01*
X10496028Y-14001893D02*
X10476980Y-14011417D01*
X10476980Y-14011417D02*
X10438885Y-14011417D01*
X10438885Y-14011417D02*
X10419837Y-14001893D01*
X10419837Y-14001893D02*
X10410314Y-13982845D01*
X10410314Y-13982845D02*
X10410314Y-13906655D01*
X10410314Y-13906655D02*
X10419837Y-13887607D01*
X10419837Y-13887607D02*
X10438885Y-13878083D01*
X10438885Y-13878083D02*
X10476980Y-13878083D01*
X10476980Y-13878083D02*
X10496028Y-13887607D01*
X10496028Y-13887607D02*
X10505552Y-13906655D01*
X10505552Y-13906655D02*
X10505552Y-13925702D01*
X10505552Y-13925702D02*
X10410314Y-13944750D01*
X10581742Y-14001893D02*
X10600790Y-14011417D01*
X10600790Y-14011417D02*
X10638885Y-14011417D01*
X10638885Y-14011417D02*
X10657933Y-14001893D01*
X10657933Y-14001893D02*
X10667457Y-13982845D01*
X10667457Y-13982845D02*
X10667457Y-13973321D01*
X10667457Y-13973321D02*
X10657933Y-13954274D01*
X10657933Y-13954274D02*
X10638885Y-13944750D01*
X10638885Y-13944750D02*
X10610314Y-13944750D01*
X10610314Y-13944750D02*
X10591266Y-13935226D01*
X10591266Y-13935226D02*
X10581742Y-13916179D01*
X10581742Y-13916179D02*
X10581742Y-13906655D01*
X10581742Y-13906655D02*
X10591266Y-13887607D01*
X10591266Y-13887607D02*
X10610314Y-13878083D01*
X10610314Y-13878083D02*
X10638885Y-13878083D01*
X10638885Y-13878083D02*
X10657933Y-13887607D01*
X10734123Y-14087607D02*
X10743647Y-14078083D01*
X10743647Y-14078083D02*
X10762695Y-14049512D01*
X10762695Y-14049512D02*
X10772218Y-14030464D01*
X10772218Y-14030464D02*
X10781742Y-14001893D01*
X10781742Y-14001893D02*
X10791266Y-13954274D01*
X10791266Y-13954274D02*
X10791266Y-13916179D01*
X10791266Y-13916179D02*
X10781742Y-13868560D01*
X10781742Y-13868560D02*
X10772218Y-13839988D01*
X10772218Y-13839988D02*
X10762695Y-13820941D01*
X10762695Y-13820941D02*
X10743647Y-13792369D01*
X10743647Y-13792369D02*
X10734123Y-13782845D01*
D12*
X5748082Y-14233431D02*
X5748082Y-14134435D01*
X5649086Y-14134435D01*
X5649086Y-14233431D01*
X5748082Y-14233431D01*
D11*
X6134123Y-14275417D02*
X6019837Y-14275417D01*
X6076980Y-14275417D02*
X6076980Y-14075417D01*
X6076980Y-14075417D02*
X6057932Y-14103988D01*
X6057932Y-14103988D02*
X6038885Y-14123036D01*
X6038885Y-14123036D02*
X6019837Y-14132560D01*
X6219837Y-14256369D02*
X6229361Y-14265893D01*
X6229361Y-14265893D02*
X6219837Y-14275417D01*
X6219837Y-14275417D02*
X6210313Y-14265893D01*
X6210313Y-14265893D02*
X6219837Y-14256369D01*
X6219837Y-14256369D02*
X6219837Y-14275417D01*
X6400789Y-14142083D02*
X6400789Y-14275417D01*
X6353170Y-14065893D02*
X6305551Y-14208750D01*
X6305551Y-14208750D02*
X6429361Y-14208750D01*
X6543646Y-14075417D02*
X6562694Y-14075417D01*
X6562694Y-14075417D02*
X6581742Y-14084941D01*
X6581742Y-14084941D02*
X6591266Y-14094464D01*
X6591266Y-14094464D02*
X6600789Y-14113512D01*
X6600789Y-14113512D02*
X6610313Y-14151607D01*
X6610313Y-14151607D02*
X6610313Y-14199226D01*
X6610313Y-14199226D02*
X6600789Y-14237321D01*
X6600789Y-14237321D02*
X6591266Y-14256369D01*
X6591266Y-14256369D02*
X6581742Y-14265893D01*
X6581742Y-14265893D02*
X6562694Y-14275417D01*
X6562694Y-14275417D02*
X6543646Y-14275417D01*
X6543646Y-14275417D02*
X6524599Y-14265893D01*
X6524599Y-14265893D02*
X6515075Y-14256369D01*
X6515075Y-14256369D02*
X6505551Y-14237321D01*
X6505551Y-14237321D02*
X6496027Y-14199226D01*
X6496027Y-14199226D02*
X6496027Y-14151607D01*
X6496027Y-14151607D02*
X6505551Y-14113512D01*
X6505551Y-14113512D02*
X6515075Y-14094464D01*
X6515075Y-14094464D02*
X6524599Y-14084941D01*
X6524599Y-14084941D02*
X6543646Y-14075417D01*
X6734123Y-14075417D02*
X6753170Y-14075417D01*
X6753170Y-14075417D02*
X6772218Y-14084941D01*
X6772218Y-14084941D02*
X6781742Y-14094464D01*
X6781742Y-14094464D02*
X6791266Y-14113512D01*
X6791266Y-14113512D02*
X6800789Y-14151607D01*
X6800789Y-14151607D02*
X6800789Y-14199226D01*
X6800789Y-14199226D02*
X6791266Y-14237321D01*
X6791266Y-14237321D02*
X6781742Y-14256369D01*
X6781742Y-14256369D02*
X6772218Y-14265893D01*
X6772218Y-14265893D02*
X6753170Y-14275417D01*
X6753170Y-14275417D02*
X6734123Y-14275417D01*
X6734123Y-14275417D02*
X6715075Y-14265893D01*
X6715075Y-14265893D02*
X6705551Y-14256369D01*
X6705551Y-14256369D02*
X6696027Y-14237321D01*
X6696027Y-14237321D02*
X6686504Y-14199226D01*
X6686504Y-14199226D02*
X6686504Y-14151607D01*
X6686504Y-14151607D02*
X6696027Y-14113512D01*
X6696027Y-14113512D02*
X6705551Y-14094464D01*
X6705551Y-14094464D02*
X6715075Y-14084941D01*
X6715075Y-14084941D02*
X6734123Y-14075417D01*
X6886504Y-14275417D02*
X6886504Y-14142083D01*
X6886504Y-14161131D02*
X6896027Y-14151607D01*
X6896027Y-14151607D02*
X6915075Y-14142083D01*
X6915075Y-14142083D02*
X6943647Y-14142083D01*
X6943647Y-14142083D02*
X6962694Y-14151607D01*
X6962694Y-14151607D02*
X6972218Y-14170655D01*
X6972218Y-14170655D02*
X6972218Y-14275417D01*
X6972218Y-14170655D02*
X6981742Y-14151607D01*
X6981742Y-14151607D02*
X7000789Y-14142083D01*
X7000789Y-14142083D02*
X7029361Y-14142083D01*
X7029361Y-14142083D02*
X7048408Y-14151607D01*
X7048408Y-14151607D02*
X7057932Y-14170655D01*
X7057932Y-14170655D02*
X7057932Y-14275417D01*
X7153170Y-14275417D02*
X7153170Y-14142083D01*
X7153170Y-14161131D02*
X7162694Y-14151607D01*
X7162694Y-14151607D02*
X7181742Y-14142083D01*
X7181742Y-14142083D02*
X7210313Y-14142083D01*
X7210313Y-14142083D02*
X7229361Y-14151607D01*
X7229361Y-14151607D02*
X7238885Y-14170655D01*
X7238885Y-14170655D02*
X7238885Y-14275417D01*
X7238885Y-14170655D02*
X7248408Y-14151607D01*
X7248408Y-14151607D02*
X7267456Y-14142083D01*
X7267456Y-14142083D02*
X7296027Y-14142083D01*
X7296027Y-14142083D02*
X7315075Y-14151607D01*
X7315075Y-14151607D02*
X7324599Y-14170655D01*
X7324599Y-14170655D02*
X7324599Y-14275417D01*
X7715075Y-14065893D02*
X7543647Y-14323036D01*
X7972218Y-14075417D02*
X7991266Y-14075417D01*
X7991266Y-14075417D02*
X8010313Y-14084941D01*
X8010313Y-14084941D02*
X8019837Y-14094464D01*
X8019837Y-14094464D02*
X8029361Y-14113512D01*
X8029361Y-14113512D02*
X8038885Y-14151607D01*
X8038885Y-14151607D02*
X8038885Y-14199226D01*
X8038885Y-14199226D02*
X8029361Y-14237321D01*
X8029361Y-14237321D02*
X8019837Y-14256369D01*
X8019837Y-14256369D02*
X8010313Y-14265893D01*
X8010313Y-14265893D02*
X7991266Y-14275417D01*
X7991266Y-14275417D02*
X7972218Y-14275417D01*
X7972218Y-14275417D02*
X7953170Y-14265893D01*
X7953170Y-14265893D02*
X7943647Y-14256369D01*
X7943647Y-14256369D02*
X7934123Y-14237321D01*
X7934123Y-14237321D02*
X7924599Y-14199226D01*
X7924599Y-14199226D02*
X7924599Y-14151607D01*
X7924599Y-14151607D02*
X7934123Y-14113512D01*
X7934123Y-14113512D02*
X7943647Y-14094464D01*
X7943647Y-14094464D02*
X7953170Y-14084941D01*
X7953170Y-14084941D02*
X7972218Y-14075417D01*
X8124599Y-14256369D02*
X8134123Y-14265893D01*
X8134123Y-14265893D02*
X8124599Y-14275417D01*
X8124599Y-14275417D02*
X8115075Y-14265893D01*
X8115075Y-14265893D02*
X8124599Y-14256369D01*
X8124599Y-14256369D02*
X8124599Y-14275417D01*
X8257932Y-14075417D02*
X8276980Y-14075417D01*
X8276980Y-14075417D02*
X8296028Y-14084941D01*
X8296028Y-14084941D02*
X8305551Y-14094464D01*
X8305551Y-14094464D02*
X8315075Y-14113512D01*
X8315075Y-14113512D02*
X8324599Y-14151607D01*
X8324599Y-14151607D02*
X8324599Y-14199226D01*
X8324599Y-14199226D02*
X8315075Y-14237321D01*
X8315075Y-14237321D02*
X8305551Y-14256369D01*
X8305551Y-14256369D02*
X8296028Y-14265893D01*
X8296028Y-14265893D02*
X8276980Y-14275417D01*
X8276980Y-14275417D02*
X8257932Y-14275417D01*
X8257932Y-14275417D02*
X8238885Y-14265893D01*
X8238885Y-14265893D02*
X8229361Y-14256369D01*
X8229361Y-14256369D02*
X8219837Y-14237321D01*
X8219837Y-14237321D02*
X8210313Y-14199226D01*
X8210313Y-14199226D02*
X8210313Y-14151607D01*
X8210313Y-14151607D02*
X8219837Y-14113512D01*
X8219837Y-14113512D02*
X8229361Y-14094464D01*
X8229361Y-14094464D02*
X8238885Y-14084941D01*
X8238885Y-14084941D02*
X8257932Y-14075417D01*
X8505552Y-14075417D02*
X8410313Y-14075417D01*
X8410313Y-14075417D02*
X8400790Y-14170655D01*
X8400790Y-14170655D02*
X8410313Y-14161131D01*
X8410313Y-14161131D02*
X8429361Y-14151607D01*
X8429361Y-14151607D02*
X8476980Y-14151607D01*
X8476980Y-14151607D02*
X8496028Y-14161131D01*
X8496028Y-14161131D02*
X8505552Y-14170655D01*
X8505552Y-14170655D02*
X8515075Y-14189702D01*
X8515075Y-14189702D02*
X8515075Y-14237321D01*
X8515075Y-14237321D02*
X8505552Y-14256369D01*
X8505552Y-14256369D02*
X8496028Y-14265893D01*
X8496028Y-14265893D02*
X8476980Y-14275417D01*
X8476980Y-14275417D02*
X8429361Y-14275417D01*
X8429361Y-14275417D02*
X8410313Y-14265893D01*
X8410313Y-14265893D02*
X8400790Y-14256369D01*
X8696028Y-14075417D02*
X8600790Y-14075417D01*
X8600790Y-14075417D02*
X8591266Y-14170655D01*
X8591266Y-14170655D02*
X8600790Y-14161131D01*
X8600790Y-14161131D02*
X8619837Y-14151607D01*
X8619837Y-14151607D02*
X8667456Y-14151607D01*
X8667456Y-14151607D02*
X8686504Y-14161131D01*
X8686504Y-14161131D02*
X8696028Y-14170655D01*
X8696028Y-14170655D02*
X8705552Y-14189702D01*
X8705552Y-14189702D02*
X8705552Y-14237321D01*
X8705552Y-14237321D02*
X8696028Y-14256369D01*
X8696028Y-14256369D02*
X8686504Y-14265893D01*
X8686504Y-14265893D02*
X8667456Y-14275417D01*
X8667456Y-14275417D02*
X8619837Y-14275417D01*
X8619837Y-14275417D02*
X8600790Y-14265893D01*
X8600790Y-14265893D02*
X8591266Y-14256369D01*
X8896028Y-14275417D02*
X8781742Y-14275417D01*
X8838885Y-14275417D02*
X8838885Y-14075417D01*
X8838885Y-14075417D02*
X8819837Y-14103988D01*
X8819837Y-14103988D02*
X8800790Y-14123036D01*
X8800790Y-14123036D02*
X8781742Y-14132560D01*
X8972218Y-14075417D02*
X8972218Y-14113512D01*
X9048409Y-14075417D02*
X9048409Y-14113512D01*
X9343647Y-14351607D02*
X9334123Y-14342083D01*
X9334123Y-14342083D02*
X9315075Y-14313512D01*
X9315075Y-14313512D02*
X9305552Y-14294464D01*
X9305552Y-14294464D02*
X9296028Y-14265893D01*
X9296028Y-14265893D02*
X9286504Y-14218274D01*
X9286504Y-14218274D02*
X9286504Y-14180179D01*
X9286504Y-14180179D02*
X9296028Y-14132560D01*
X9296028Y-14132560D02*
X9305552Y-14103988D01*
X9305552Y-14103988D02*
X9315075Y-14084941D01*
X9315075Y-14084941D02*
X9334123Y-14056369D01*
X9334123Y-14056369D02*
X9343647Y-14046845D01*
X9410314Y-14094464D02*
X9419837Y-14084941D01*
X9419837Y-14084941D02*
X9438885Y-14075417D01*
X9438885Y-14075417D02*
X9486504Y-14075417D01*
X9486504Y-14075417D02*
X9505552Y-14084941D01*
X9505552Y-14084941D02*
X9515075Y-14094464D01*
X9515075Y-14094464D02*
X9524599Y-14113512D01*
X9524599Y-14113512D02*
X9524599Y-14132560D01*
X9524599Y-14132560D02*
X9515075Y-14161131D01*
X9515075Y-14161131D02*
X9400790Y-14275417D01*
X9400790Y-14275417D02*
X9524599Y-14275417D01*
X9696028Y-14142083D02*
X9696028Y-14275417D01*
X9648409Y-14065893D02*
X9600790Y-14208750D01*
X9600790Y-14208750D02*
X9724599Y-14208750D01*
X9953171Y-14275417D02*
X9953171Y-14075417D01*
X10038885Y-14275417D02*
X10038885Y-14170655D01*
X10038885Y-14170655D02*
X10029361Y-14151607D01*
X10029361Y-14151607D02*
X10010314Y-14142083D01*
X10010314Y-14142083D02*
X9981742Y-14142083D01*
X9981742Y-14142083D02*
X9962695Y-14151607D01*
X9962695Y-14151607D02*
X9953171Y-14161131D01*
X10162695Y-14275417D02*
X10143647Y-14265893D01*
X10143647Y-14265893D02*
X10134123Y-14256369D01*
X10134123Y-14256369D02*
X10124599Y-14237321D01*
X10124599Y-14237321D02*
X10124599Y-14180179D01*
X10124599Y-14180179D02*
X10134123Y-14161131D01*
X10134123Y-14161131D02*
X10143647Y-14151607D01*
X10143647Y-14151607D02*
X10162695Y-14142083D01*
X10162695Y-14142083D02*
X10191266Y-14142083D01*
X10191266Y-14142083D02*
X10210314Y-14151607D01*
X10210314Y-14151607D02*
X10219837Y-14161131D01*
X10219837Y-14161131D02*
X10229361Y-14180179D01*
X10229361Y-14180179D02*
X10229361Y-14237321D01*
X10229361Y-14237321D02*
X10219837Y-14256369D01*
X10219837Y-14256369D02*
X10210314Y-14265893D01*
X10210314Y-14265893D02*
X10191266Y-14275417D01*
X10191266Y-14275417D02*
X10162695Y-14275417D01*
X10343647Y-14275417D02*
X10324599Y-14265893D01*
X10324599Y-14265893D02*
X10315076Y-14246845D01*
X10315076Y-14246845D02*
X10315076Y-14075417D01*
X10496028Y-14265893D02*
X10476980Y-14275417D01*
X10476980Y-14275417D02*
X10438885Y-14275417D01*
X10438885Y-14275417D02*
X10419837Y-14265893D01*
X10419837Y-14265893D02*
X10410314Y-14246845D01*
X10410314Y-14246845D02*
X10410314Y-14170655D01*
X10410314Y-14170655D02*
X10419837Y-14151607D01*
X10419837Y-14151607D02*
X10438885Y-14142083D01*
X10438885Y-14142083D02*
X10476980Y-14142083D01*
X10476980Y-14142083D02*
X10496028Y-14151607D01*
X10496028Y-14151607D02*
X10505552Y-14170655D01*
X10505552Y-14170655D02*
X10505552Y-14189702D01*
X10505552Y-14189702D02*
X10410314Y-14208750D01*
X10581742Y-14265893D02*
X10600790Y-14275417D01*
X10600790Y-14275417D02*
X10638885Y-14275417D01*
X10638885Y-14275417D02*
X10657933Y-14265893D01*
X10657933Y-14265893D02*
X10667457Y-14246845D01*
X10667457Y-14246845D02*
X10667457Y-14237321D01*
X10667457Y-14237321D02*
X10657933Y-14218274D01*
X10657933Y-14218274D02*
X10638885Y-14208750D01*
X10638885Y-14208750D02*
X10610314Y-14208750D01*
X10610314Y-14208750D02*
X10591266Y-14199226D01*
X10591266Y-14199226D02*
X10581742Y-14180179D01*
X10581742Y-14180179D02*
X10581742Y-14170655D01*
X10581742Y-14170655D02*
X10591266Y-14151607D01*
X10591266Y-14151607D02*
X10610314Y-14142083D01*
X10610314Y-14142083D02*
X10638885Y-14142083D01*
X10638885Y-14142083D02*
X10657933Y-14151607D01*
X10734123Y-14351607D02*
X10743647Y-14342083D01*
X10743647Y-14342083D02*
X10762695Y-14313512D01*
X10762695Y-14313512D02*
X10772218Y-14294464D01*
X10772218Y-14294464D02*
X10781742Y-14265893D01*
X10781742Y-14265893D02*
X10791266Y-14218274D01*
X10791266Y-14218274D02*
X10791266Y-14180179D01*
X10791266Y-14180179D02*
X10781742Y-14132560D01*
X10781742Y-14132560D02*
X10772218Y-14103988D01*
X10772218Y-14103988D02*
X10762695Y-14084941D01*
X10762695Y-14084941D02*
X10743647Y-14056369D01*
X10743647Y-14056369D02*
X10734123Y-14046845D01*
D13*
X5673584Y-14542933D02*
X5768584Y-14447933D01*
X5673584Y-14352933D01*
X5578584Y-14447933D01*
X5673584Y-14542933D01*
D11*
X6134123Y-14539417D02*
X6019837Y-14539417D01*
X6076980Y-14539417D02*
X6076980Y-14339417D01*
X6076980Y-14339417D02*
X6057932Y-14367988D01*
X6057932Y-14367988D02*
X6038885Y-14387036D01*
X6038885Y-14387036D02*
X6019837Y-14396560D01*
X6219837Y-14520369D02*
X6229361Y-14529893D01*
X6229361Y-14529893D02*
X6219837Y-14539417D01*
X6219837Y-14539417D02*
X6210313Y-14529893D01*
X6210313Y-14529893D02*
X6219837Y-14520369D01*
X6219837Y-14520369D02*
X6219837Y-14539417D01*
X6324599Y-14539417D02*
X6362694Y-14539417D01*
X6362694Y-14539417D02*
X6381742Y-14529893D01*
X6381742Y-14529893D02*
X6391266Y-14520369D01*
X6391266Y-14520369D02*
X6410313Y-14491798D01*
X6410313Y-14491798D02*
X6419837Y-14453702D01*
X6419837Y-14453702D02*
X6419837Y-14377512D01*
X6419837Y-14377512D02*
X6410313Y-14358464D01*
X6410313Y-14358464D02*
X6400789Y-14348941D01*
X6400789Y-14348941D02*
X6381742Y-14339417D01*
X6381742Y-14339417D02*
X6343646Y-14339417D01*
X6343646Y-14339417D02*
X6324599Y-14348941D01*
X6324599Y-14348941D02*
X6315075Y-14358464D01*
X6315075Y-14358464D02*
X6305551Y-14377512D01*
X6305551Y-14377512D02*
X6305551Y-14425131D01*
X6305551Y-14425131D02*
X6315075Y-14444179D01*
X6315075Y-14444179D02*
X6324599Y-14453702D01*
X6324599Y-14453702D02*
X6343646Y-14463226D01*
X6343646Y-14463226D02*
X6381742Y-14463226D01*
X6381742Y-14463226D02*
X6400789Y-14453702D01*
X6400789Y-14453702D02*
X6410313Y-14444179D01*
X6410313Y-14444179D02*
X6419837Y-14425131D01*
X6543646Y-14339417D02*
X6562694Y-14339417D01*
X6562694Y-14339417D02*
X6581742Y-14348941D01*
X6581742Y-14348941D02*
X6591266Y-14358464D01*
X6591266Y-14358464D02*
X6600789Y-14377512D01*
X6600789Y-14377512D02*
X6610313Y-14415607D01*
X6610313Y-14415607D02*
X6610313Y-14463226D01*
X6610313Y-14463226D02*
X6600789Y-14501321D01*
X6600789Y-14501321D02*
X6591266Y-14520369D01*
X6591266Y-14520369D02*
X6581742Y-14529893D01*
X6581742Y-14529893D02*
X6562694Y-14539417D01*
X6562694Y-14539417D02*
X6543646Y-14539417D01*
X6543646Y-14539417D02*
X6524599Y-14529893D01*
X6524599Y-14529893D02*
X6515075Y-14520369D01*
X6515075Y-14520369D02*
X6505551Y-14501321D01*
X6505551Y-14501321D02*
X6496027Y-14463226D01*
X6496027Y-14463226D02*
X6496027Y-14415607D01*
X6496027Y-14415607D02*
X6505551Y-14377512D01*
X6505551Y-14377512D02*
X6515075Y-14358464D01*
X6515075Y-14358464D02*
X6524599Y-14348941D01*
X6524599Y-14348941D02*
X6543646Y-14339417D01*
X6734123Y-14339417D02*
X6753170Y-14339417D01*
X6753170Y-14339417D02*
X6772218Y-14348941D01*
X6772218Y-14348941D02*
X6781742Y-14358464D01*
X6781742Y-14358464D02*
X6791266Y-14377512D01*
X6791266Y-14377512D02*
X6800789Y-14415607D01*
X6800789Y-14415607D02*
X6800789Y-14463226D01*
X6800789Y-14463226D02*
X6791266Y-14501321D01*
X6791266Y-14501321D02*
X6781742Y-14520369D01*
X6781742Y-14520369D02*
X6772218Y-14529893D01*
X6772218Y-14529893D02*
X6753170Y-14539417D01*
X6753170Y-14539417D02*
X6734123Y-14539417D01*
X6734123Y-14539417D02*
X6715075Y-14529893D01*
X6715075Y-14529893D02*
X6705551Y-14520369D01*
X6705551Y-14520369D02*
X6696027Y-14501321D01*
X6696027Y-14501321D02*
X6686504Y-14463226D01*
X6686504Y-14463226D02*
X6686504Y-14415607D01*
X6686504Y-14415607D02*
X6696027Y-14377512D01*
X6696027Y-14377512D02*
X6705551Y-14358464D01*
X6705551Y-14358464D02*
X6715075Y-14348941D01*
X6715075Y-14348941D02*
X6734123Y-14339417D01*
X6886504Y-14539417D02*
X6886504Y-14406083D01*
X6886504Y-14425131D02*
X6896027Y-14415607D01*
X6896027Y-14415607D02*
X6915075Y-14406083D01*
X6915075Y-14406083D02*
X6943647Y-14406083D01*
X6943647Y-14406083D02*
X6962694Y-14415607D01*
X6962694Y-14415607D02*
X6972218Y-14434655D01*
X6972218Y-14434655D02*
X6972218Y-14539417D01*
X6972218Y-14434655D02*
X6981742Y-14415607D01*
X6981742Y-14415607D02*
X7000789Y-14406083D01*
X7000789Y-14406083D02*
X7029361Y-14406083D01*
X7029361Y-14406083D02*
X7048408Y-14415607D01*
X7048408Y-14415607D02*
X7057932Y-14434655D01*
X7057932Y-14434655D02*
X7057932Y-14539417D01*
X7153170Y-14539417D02*
X7153170Y-14406083D01*
X7153170Y-14425131D02*
X7162694Y-14415607D01*
X7162694Y-14415607D02*
X7181742Y-14406083D01*
X7181742Y-14406083D02*
X7210313Y-14406083D01*
X7210313Y-14406083D02*
X7229361Y-14415607D01*
X7229361Y-14415607D02*
X7238885Y-14434655D01*
X7238885Y-14434655D02*
X7238885Y-14539417D01*
X7238885Y-14434655D02*
X7248408Y-14415607D01*
X7248408Y-14415607D02*
X7267456Y-14406083D01*
X7267456Y-14406083D02*
X7296027Y-14406083D01*
X7296027Y-14406083D02*
X7315075Y-14415607D01*
X7315075Y-14415607D02*
X7324599Y-14434655D01*
X7324599Y-14434655D02*
X7324599Y-14539417D01*
X7715075Y-14329893D02*
X7543647Y-14587036D01*
X7972218Y-14339417D02*
X7991266Y-14339417D01*
X7991266Y-14339417D02*
X8010313Y-14348941D01*
X8010313Y-14348941D02*
X8019837Y-14358464D01*
X8019837Y-14358464D02*
X8029361Y-14377512D01*
X8029361Y-14377512D02*
X8038885Y-14415607D01*
X8038885Y-14415607D02*
X8038885Y-14463226D01*
X8038885Y-14463226D02*
X8029361Y-14501321D01*
X8029361Y-14501321D02*
X8019837Y-14520369D01*
X8019837Y-14520369D02*
X8010313Y-14529893D01*
X8010313Y-14529893D02*
X7991266Y-14539417D01*
X7991266Y-14539417D02*
X7972218Y-14539417D01*
X7972218Y-14539417D02*
X7953170Y-14529893D01*
X7953170Y-14529893D02*
X7943647Y-14520369D01*
X7943647Y-14520369D02*
X7934123Y-14501321D01*
X7934123Y-14501321D02*
X7924599Y-14463226D01*
X7924599Y-14463226D02*
X7924599Y-14415607D01*
X7924599Y-14415607D02*
X7934123Y-14377512D01*
X7934123Y-14377512D02*
X7943647Y-14358464D01*
X7943647Y-14358464D02*
X7953170Y-14348941D01*
X7953170Y-14348941D02*
X7972218Y-14339417D01*
X8124599Y-14520369D02*
X8134123Y-14529893D01*
X8134123Y-14529893D02*
X8124599Y-14539417D01*
X8124599Y-14539417D02*
X8115075Y-14529893D01*
X8115075Y-14529893D02*
X8124599Y-14520369D01*
X8124599Y-14520369D02*
X8124599Y-14539417D01*
X8257932Y-14339417D02*
X8276980Y-14339417D01*
X8276980Y-14339417D02*
X8296028Y-14348941D01*
X8296028Y-14348941D02*
X8305551Y-14358464D01*
X8305551Y-14358464D02*
X8315075Y-14377512D01*
X8315075Y-14377512D02*
X8324599Y-14415607D01*
X8324599Y-14415607D02*
X8324599Y-14463226D01*
X8324599Y-14463226D02*
X8315075Y-14501321D01*
X8315075Y-14501321D02*
X8305551Y-14520369D01*
X8305551Y-14520369D02*
X8296028Y-14529893D01*
X8296028Y-14529893D02*
X8276980Y-14539417D01*
X8276980Y-14539417D02*
X8257932Y-14539417D01*
X8257932Y-14539417D02*
X8238885Y-14529893D01*
X8238885Y-14529893D02*
X8229361Y-14520369D01*
X8229361Y-14520369D02*
X8219837Y-14501321D01*
X8219837Y-14501321D02*
X8210313Y-14463226D01*
X8210313Y-14463226D02*
X8210313Y-14415607D01*
X8210313Y-14415607D02*
X8219837Y-14377512D01*
X8219837Y-14377512D02*
X8229361Y-14358464D01*
X8229361Y-14358464D02*
X8238885Y-14348941D01*
X8238885Y-14348941D02*
X8257932Y-14339417D01*
X8391266Y-14339417D02*
X8524599Y-14339417D01*
X8524599Y-14339417D02*
X8438885Y-14539417D01*
X8686504Y-14406083D02*
X8686504Y-14539417D01*
X8638885Y-14329893D02*
X8591266Y-14472750D01*
X8591266Y-14472750D02*
X8715075Y-14472750D01*
X8819837Y-14425131D02*
X8800790Y-14415607D01*
X8800790Y-14415607D02*
X8791266Y-14406083D01*
X8791266Y-14406083D02*
X8781742Y-14387036D01*
X8781742Y-14387036D02*
X8781742Y-14377512D01*
X8781742Y-14377512D02*
X8791266Y-14358464D01*
X8791266Y-14358464D02*
X8800790Y-14348941D01*
X8800790Y-14348941D02*
X8819837Y-14339417D01*
X8819837Y-14339417D02*
X8857933Y-14339417D01*
X8857933Y-14339417D02*
X8876980Y-14348941D01*
X8876980Y-14348941D02*
X8886504Y-14358464D01*
X8886504Y-14358464D02*
X8896028Y-14377512D01*
X8896028Y-14377512D02*
X8896028Y-14387036D01*
X8896028Y-14387036D02*
X8886504Y-14406083D01*
X8886504Y-14406083D02*
X8876980Y-14415607D01*
X8876980Y-14415607D02*
X8857933Y-14425131D01*
X8857933Y-14425131D02*
X8819837Y-14425131D01*
X8819837Y-14425131D02*
X8800790Y-14434655D01*
X8800790Y-14434655D02*
X8791266Y-14444179D01*
X8791266Y-14444179D02*
X8781742Y-14463226D01*
X8781742Y-14463226D02*
X8781742Y-14501321D01*
X8781742Y-14501321D02*
X8791266Y-14520369D01*
X8791266Y-14520369D02*
X8800790Y-14529893D01*
X8800790Y-14529893D02*
X8819837Y-14539417D01*
X8819837Y-14539417D02*
X8857933Y-14539417D01*
X8857933Y-14539417D02*
X8876980Y-14529893D01*
X8876980Y-14529893D02*
X8886504Y-14520369D01*
X8886504Y-14520369D02*
X8896028Y-14501321D01*
X8896028Y-14501321D02*
X8896028Y-14463226D01*
X8896028Y-14463226D02*
X8886504Y-14444179D01*
X8886504Y-14444179D02*
X8876980Y-14434655D01*
X8876980Y-14434655D02*
X8857933Y-14425131D01*
X8972218Y-14339417D02*
X8972218Y-14377512D01*
X9048409Y-14339417D02*
X9048409Y-14377512D01*
X9343647Y-14615607D02*
X9334123Y-14606083D01*
X9334123Y-14606083D02*
X9315075Y-14577512D01*
X9315075Y-14577512D02*
X9305552Y-14558464D01*
X9305552Y-14558464D02*
X9296028Y-14529893D01*
X9296028Y-14529893D02*
X9286504Y-14482274D01*
X9286504Y-14482274D02*
X9286504Y-14444179D01*
X9286504Y-14444179D02*
X9296028Y-14396560D01*
X9296028Y-14396560D02*
X9305552Y-14367988D01*
X9305552Y-14367988D02*
X9315075Y-14348941D01*
X9315075Y-14348941D02*
X9334123Y-14320369D01*
X9334123Y-14320369D02*
X9343647Y-14310845D01*
X9524599Y-14539417D02*
X9410314Y-14539417D01*
X9467456Y-14539417D02*
X9467456Y-14339417D01*
X9467456Y-14339417D02*
X9448409Y-14367988D01*
X9448409Y-14367988D02*
X9429361Y-14387036D01*
X9429361Y-14387036D02*
X9410314Y-14396560D01*
X9648409Y-14339417D02*
X9667456Y-14339417D01*
X9667456Y-14339417D02*
X9686504Y-14348941D01*
X9686504Y-14348941D02*
X9696028Y-14358464D01*
X9696028Y-14358464D02*
X9705552Y-14377512D01*
X9705552Y-14377512D02*
X9715075Y-14415607D01*
X9715075Y-14415607D02*
X9715075Y-14463226D01*
X9715075Y-14463226D02*
X9705552Y-14501321D01*
X9705552Y-14501321D02*
X9696028Y-14520369D01*
X9696028Y-14520369D02*
X9686504Y-14529893D01*
X9686504Y-14529893D02*
X9667456Y-14539417D01*
X9667456Y-14539417D02*
X9648409Y-14539417D01*
X9648409Y-14539417D02*
X9629361Y-14529893D01*
X9629361Y-14529893D02*
X9619837Y-14520369D01*
X9619837Y-14520369D02*
X9610314Y-14501321D01*
X9610314Y-14501321D02*
X9600790Y-14463226D01*
X9600790Y-14463226D02*
X9600790Y-14415607D01*
X9600790Y-14415607D02*
X9610314Y-14377512D01*
X9610314Y-14377512D02*
X9619837Y-14358464D01*
X9619837Y-14358464D02*
X9629361Y-14348941D01*
X9629361Y-14348941D02*
X9648409Y-14339417D01*
X9953171Y-14539417D02*
X9953171Y-14339417D01*
X10038885Y-14539417D02*
X10038885Y-14434655D01*
X10038885Y-14434655D02*
X10029361Y-14415607D01*
X10029361Y-14415607D02*
X10010314Y-14406083D01*
X10010314Y-14406083D02*
X9981742Y-14406083D01*
X9981742Y-14406083D02*
X9962695Y-14415607D01*
X9962695Y-14415607D02*
X9953171Y-14425131D01*
X10162695Y-14539417D02*
X10143647Y-14529893D01*
X10143647Y-14529893D02*
X10134123Y-14520369D01*
X10134123Y-14520369D02*
X10124599Y-14501321D01*
X10124599Y-14501321D02*
X10124599Y-14444179D01*
X10124599Y-14444179D02*
X10134123Y-14425131D01*
X10134123Y-14425131D02*
X10143647Y-14415607D01*
X10143647Y-14415607D02*
X10162695Y-14406083D01*
X10162695Y-14406083D02*
X10191266Y-14406083D01*
X10191266Y-14406083D02*
X10210314Y-14415607D01*
X10210314Y-14415607D02*
X10219837Y-14425131D01*
X10219837Y-14425131D02*
X10229361Y-14444179D01*
X10229361Y-14444179D02*
X10229361Y-14501321D01*
X10229361Y-14501321D02*
X10219837Y-14520369D01*
X10219837Y-14520369D02*
X10210314Y-14529893D01*
X10210314Y-14529893D02*
X10191266Y-14539417D01*
X10191266Y-14539417D02*
X10162695Y-14539417D01*
X10343647Y-14539417D02*
X10324599Y-14529893D01*
X10324599Y-14529893D02*
X10315076Y-14510845D01*
X10315076Y-14510845D02*
X10315076Y-14339417D01*
X10496028Y-14529893D02*
X10476980Y-14539417D01*
X10476980Y-14539417D02*
X10438885Y-14539417D01*
X10438885Y-14539417D02*
X10419837Y-14529893D01*
X10419837Y-14529893D02*
X10410314Y-14510845D01*
X10410314Y-14510845D02*
X10410314Y-14434655D01*
X10410314Y-14434655D02*
X10419837Y-14415607D01*
X10419837Y-14415607D02*
X10438885Y-14406083D01*
X10438885Y-14406083D02*
X10476980Y-14406083D01*
X10476980Y-14406083D02*
X10496028Y-14415607D01*
X10496028Y-14415607D02*
X10505552Y-14434655D01*
X10505552Y-14434655D02*
X10505552Y-14453702D01*
X10505552Y-14453702D02*
X10410314Y-14472750D01*
X10581742Y-14529893D02*
X10600790Y-14539417D01*
X10600790Y-14539417D02*
X10638885Y-14539417D01*
X10638885Y-14539417D02*
X10657933Y-14529893D01*
X10657933Y-14529893D02*
X10667457Y-14510845D01*
X10667457Y-14510845D02*
X10667457Y-14501321D01*
X10667457Y-14501321D02*
X10657933Y-14482274D01*
X10657933Y-14482274D02*
X10638885Y-14472750D01*
X10638885Y-14472750D02*
X10610314Y-14472750D01*
X10610314Y-14472750D02*
X10591266Y-14463226D01*
X10591266Y-14463226D02*
X10581742Y-14444179D01*
X10581742Y-14444179D02*
X10581742Y-14434655D01*
X10581742Y-14434655D02*
X10591266Y-14415607D01*
X10591266Y-14415607D02*
X10610314Y-14406083D01*
X10610314Y-14406083D02*
X10638885Y-14406083D01*
X10638885Y-14406083D02*
X10657933Y-14415607D01*
X10734123Y-14615607D02*
X10743647Y-14606083D01*
X10743647Y-14606083D02*
X10762695Y-14577512D01*
X10762695Y-14577512D02*
X10772218Y-14558464D01*
X10772218Y-14558464D02*
X10781742Y-14529893D01*
X10781742Y-14529893D02*
X10791266Y-14482274D01*
X10791266Y-14482274D02*
X10791266Y-14444179D01*
X10791266Y-14444179D02*
X10781742Y-14396560D01*
X10781742Y-14396560D02*
X10772218Y-14367988D01*
X10772218Y-14367988D02*
X10762695Y-14348941D01*
X10762695Y-14348941D02*
X10743647Y-14320369D01*
X10743647Y-14320369D02*
X10734123Y-14310845D01*
M02*
