%TF.GenerationSoftware,KiCad,Pcbnew,8.0.3*%
%TF.CreationDate,2024-11-03T21:09:01+01:00*%
%TF.ProjectId,IIsi_ATX,49497369-5f41-4545-982e-6b696361645f,rev?*%
%TF.SameCoordinates,Original*%
%TF.FileFunction,Legend,Top*%
%TF.FilePolarity,Positive*%
%FSLAX46Y46*%
G04 Gerber Fmt 4.6, Leading zero omitted, Abs format (unit mm)*
G04 Created by KiCad (PCBNEW 8.0.3) date 2024-11-03 21:09:01*
%MOMM*%
%LPD*%
G01*
G04 APERTURE LIST*
%ADD10C,0.300000*%
%ADD11C,0.203200*%
%ADD12C,0.152000*%
%ADD13C,0.130000*%
%ADD14C,0.500000*%
%ADD15C,0.254000*%
%ADD16C,0.100100*%
%ADD17C,0.250000*%
%ADD18C,0.150000*%
%ADD19C,0.120000*%
%ADD20C,0.127000*%
G04 APERTURE END LIST*
D10*
X144273690Y-64865960D02*
X144484510Y-64655130D01*
D11*
X95889180Y-111157460D02*
X95843450Y-111111730D01*
X95843450Y-123931120D02*
X96798490Y-123567890D01*
D10*
X161830170Y-65572070D02*
X162040990Y-65572070D01*
D12*
X87617100Y-106385200D02*
X87512960Y-106331860D01*
X80077730Y-80753780D02*
X80077730Y-80545500D01*
D13*
X86765520Y-109595460D02*
X87720560Y-109232240D01*
D10*
X182655630Y-64584020D02*
X182515930Y-64655130D01*
D11*
X95843450Y-111203180D02*
X95889180Y-111157460D01*
D10*
X198848130Y-61754460D02*
X198634770Y-61754460D01*
X198987830Y-61825570D02*
X198848130Y-61754460D01*
X198284250Y-62178630D02*
X199130070Y-62178630D01*
X181967290Y-62742520D02*
X182106990Y-62742520D01*
D12*
X65256780Y-80072940D02*
X65119620Y-79984040D01*
X80077650Y-98406680D02*
X81167310Y-97680240D01*
D10*
X153501510Y-61754460D02*
X153643750Y-61825570D01*
X157420730Y-61754460D02*
X157631550Y-61754460D01*
D12*
X81040340Y-122084540D02*
X81131770Y-122175970D01*
D11*
X94001950Y-120776440D02*
X94047680Y-120684990D01*
X94139110Y-88658130D02*
X94047680Y-88566700D01*
D14*
X155916990Y-53829650D02*
X155916990Y-56694780D01*
D10*
X158660250Y-61754460D02*
X158518010Y-61825570D01*
X151599050Y-65290130D02*
X151670170Y-65500960D01*
X174878150Y-64797380D02*
X175020390Y-64655130D01*
D11*
X94639490Y-79966260D02*
X94639490Y-80286290D01*
D12*
X87170120Y-123539140D02*
X87215840Y-123447700D01*
D10*
X138213200Y-67766630D02*
X138213200Y-67624390D01*
D11*
X96343840Y-104213100D02*
X96343840Y-104622040D01*
D14*
X177161560Y-57375490D02*
X176889770Y-57647280D01*
X160308650Y-55739730D02*
X160580430Y-55874360D01*
D10*
X142963050Y-65358710D02*
X143102750Y-65500960D01*
D11*
X94456610Y-89186460D02*
X94593770Y-89140730D01*
D14*
X157225090Y-56694780D02*
X157636580Y-56694780D01*
D10*
X134860450Y-65572070D02*
X134718210Y-65500960D01*
X133803750Y-67555810D02*
X133732630Y-67766630D01*
D14*
X172363490Y-54784700D02*
X172089180Y-54921860D01*
D11*
X94273740Y-93794020D02*
X94184840Y-93794020D01*
D10*
X171792050Y-64655130D02*
X171581230Y-64584020D01*
D11*
X93684450Y-112076940D02*
X93684450Y-112257280D01*
D10*
X162802990Y-62318330D02*
X162874110Y-62460570D01*
D14*
X133361790Y-54784700D02*
X133090020Y-54921860D01*
D12*
X87589210Y-81865360D02*
X87543500Y-81911090D01*
D11*
X94593770Y-111048230D02*
X94502340Y-110956790D01*
D12*
X80077650Y-94690660D02*
X80077650Y-94898940D01*
D14*
X134316840Y-55193630D02*
X134045060Y-54921860D01*
D10*
X138157370Y-65008200D02*
X139003190Y-65008200D01*
D12*
X86783930Y-113970990D02*
X86888070Y-113920190D01*
X66559790Y-79984040D02*
X66425180Y-80072940D01*
D10*
X158307190Y-62318330D02*
X158378310Y-62529150D01*
D12*
X66788390Y-81856020D02*
X66742680Y-81810290D01*
D11*
X93684450Y-121439380D02*
X93638740Y-121485100D01*
D10*
X189942890Y-65572070D02*
X190082590Y-65500960D01*
D11*
X93684450Y-90695210D02*
X93684450Y-90875550D01*
D10*
X130153830Y-62671390D02*
X130293530Y-62742520D01*
D14*
X159353610Y-56557620D02*
X159216450Y-56285830D01*
D12*
X80440870Y-118388860D02*
X81167310Y-118078980D01*
D10*
X159772770Y-64865960D02*
X159772770Y-65572070D01*
X134085750Y-61261700D02*
X134085750Y-62742520D01*
D11*
X94093400Y-97484630D02*
X93864790Y-97530360D01*
D10*
X197819430Y-61967810D02*
X197677190Y-61825570D01*
D12*
X80595840Y-105958070D02*
X80753310Y-105904730D01*
D11*
X93684450Y-77248460D02*
X93684450Y-76930960D01*
D12*
X87718650Y-92426710D02*
X87769450Y-92584190D01*
D11*
X94047680Y-108840970D02*
X94184840Y-108929880D01*
X94639490Y-85422180D02*
X94593770Y-85556790D01*
X94593770Y-88249200D02*
X94639490Y-88340630D01*
D10*
X143455810Y-65572070D02*
X143595510Y-65500960D01*
X185264210Y-62882210D02*
X185193090Y-63093040D01*
D12*
X71307060Y-80527600D02*
X71215610Y-80573310D01*
D11*
X96752770Y-115450050D02*
X96798490Y-115584680D01*
X96661340Y-106212070D02*
X96752770Y-106120630D01*
X94184840Y-113011650D02*
X94184840Y-113420600D01*
D13*
X87720560Y-110304120D02*
X87674840Y-110441280D01*
D10*
X148726310Y-65572070D02*
X148866010Y-65500960D01*
D12*
X80440900Y-105561830D02*
X81167340Y-105251960D01*
X80077650Y-103199660D02*
X80077650Y-103407940D01*
D11*
X96160950Y-102066790D02*
X96798490Y-102249680D01*
D12*
X64756390Y-79938310D02*
X64527790Y-79984040D01*
D11*
X93684450Y-108975600D02*
X93730180Y-108884150D01*
D10*
X164916270Y-62742520D02*
X164774030Y-63024460D01*
X131675240Y-67342460D02*
X131464420Y-67342460D01*
X194817150Y-65572070D02*
X194959390Y-65572070D01*
D12*
X87589210Y-75683010D02*
X87634930Y-75820170D01*
D11*
X96798490Y-114784570D02*
X96798490Y-114693130D01*
X94047680Y-82176050D02*
X94001950Y-82267490D01*
X96343840Y-115538960D02*
X96387020Y-115450050D01*
D10*
X170537290Y-62178630D02*
X170537290Y-62318330D01*
D12*
X86679840Y-105521600D02*
X86733180Y-105366660D01*
X86679790Y-114938730D02*
X87769450Y-114938730D01*
D10*
X147514680Y-66849700D02*
X147514680Y-67837750D01*
X162040990Y-65572070D02*
X162183230Y-65500960D01*
D11*
X96752770Y-114921730D02*
X96798490Y-114784570D01*
D12*
X81012370Y-103616220D02*
X81116510Y-103512080D01*
D11*
X94139110Y-122376630D02*
X94047680Y-122285200D01*
X93684450Y-94865890D02*
X93730180Y-94731280D01*
D10*
X142145170Y-64584020D02*
X141934350Y-64584020D01*
X189787950Y-62671390D02*
X189927650Y-62529150D01*
X196973610Y-62178630D02*
X196973610Y-62318330D01*
D14*
X142962990Y-55465410D02*
X145416630Y-55465410D01*
D11*
X94001950Y-98830830D02*
X94001950Y-98693680D01*
D10*
X147174370Y-62671390D02*
X147316610Y-62529150D01*
D12*
X67288780Y-80072940D02*
X67151620Y-79984040D01*
X69193780Y-81810290D02*
X69148050Y-81856020D01*
D10*
X137692550Y-61825570D02*
X137550310Y-61754460D01*
D11*
X94456610Y-102158230D02*
X94593770Y-102112520D01*
D12*
X80128450Y-103098060D02*
X80077650Y-103199660D01*
D10*
X158378310Y-61967810D02*
X158307190Y-62178630D01*
D14*
X165571540Y-53557880D02*
X165299750Y-53966810D01*
D12*
X86834730Y-86030990D02*
X86730590Y-86135130D01*
X63087620Y-80001810D02*
X63224780Y-79910380D01*
D10*
X162802990Y-61825570D02*
X162592170Y-61754460D01*
D12*
X86730590Y-86135130D02*
X86679790Y-86236730D01*
D10*
X194634270Y-61754460D02*
X195127030Y-61754460D01*
D11*
X93775900Y-99902710D02*
X93730180Y-99856990D01*
D10*
X177824550Y-61967810D02*
X177964250Y-61825570D01*
D12*
X86679890Y-76091950D02*
X86679890Y-75594110D01*
D15*
X101296840Y-69557330D02*
X208296620Y-69557330D01*
D10*
X152627750Y-65993710D02*
X152488050Y-66064830D01*
D11*
X96252400Y-116339050D02*
X96298110Y-116384780D01*
D10*
X194606330Y-65290130D02*
X194677450Y-65500960D01*
D12*
X67288780Y-81401360D02*
X67334490Y-81538520D01*
X81116510Y-96816640D02*
X81167310Y-96974120D01*
D11*
X96343840Y-112003280D02*
X96206680Y-111866120D01*
D12*
X87718650Y-103026130D02*
X87614510Y-102921990D01*
D11*
X93684450Y-76039410D02*
X93730180Y-76130860D01*
D10*
X173709750Y-65500960D02*
X173567510Y-65358710D01*
D12*
X65165340Y-81309910D02*
X65256780Y-81401360D01*
X86679790Y-101456410D02*
X87769450Y-101456410D01*
D11*
X93819080Y-105147810D02*
X93730180Y-105239260D01*
X93684450Y-79077260D02*
X93730180Y-79166150D01*
X96160950Y-103321550D02*
X96160950Y-103458710D01*
D10*
X137692550Y-62671390D02*
X137832250Y-62529150D01*
D12*
X87355430Y-86757430D02*
X87510370Y-86706630D01*
X87302090Y-120539430D02*
X87302090Y-119604710D01*
X63270490Y-81373410D02*
X63270490Y-80738410D01*
D11*
X94593770Y-87766600D02*
X94639490Y-87675150D01*
X94047680Y-102912620D02*
X94001950Y-102821180D01*
D10*
X177288610Y-61967810D02*
X177359730Y-62178630D01*
D14*
X172089180Y-54921860D02*
X171817400Y-55193630D01*
X177844810Y-55193630D02*
X177844810Y-55739730D01*
D12*
X87406340Y-80973830D02*
X87452050Y-81019540D01*
D11*
X94593770Y-98967990D02*
X94548060Y-99013710D01*
D14*
X160171490Y-56694780D02*
X159762560Y-56694780D01*
D12*
X80131070Y-80441360D02*
X80181870Y-80388020D01*
D11*
X94273740Y-121830540D02*
X94365180Y-121830540D01*
D10*
X135889150Y-64584020D02*
X135889150Y-65290130D01*
D11*
X96661340Y-101721360D02*
X96752770Y-101629910D01*
D10*
X146287910Y-64584020D02*
X146287910Y-65572070D01*
X133732630Y-67906330D02*
X133803750Y-68117150D01*
D12*
X87589210Y-76091950D02*
X87543500Y-76137670D01*
D10*
X179978470Y-62529150D02*
X180049590Y-62318330D01*
X158251310Y-65500960D02*
X158391010Y-65572070D01*
D12*
X68284460Y-81810290D02*
X68284460Y-81309910D01*
X80649230Y-80492160D02*
X81169930Y-81012860D01*
D10*
X179696530Y-62742520D02*
X179838770Y-62671390D01*
D11*
X94047680Y-98559050D02*
X94139110Y-98467620D01*
D10*
X130435770Y-64584020D02*
X130224950Y-64584020D01*
X179838770Y-62671390D02*
X179978470Y-62529150D01*
D12*
X81167310Y-110408180D02*
X81167310Y-110565660D01*
X86834730Y-102921990D02*
X86730590Y-103026130D01*
D14*
X171680240Y-55602570D02*
X171680240Y-55874360D01*
X140072470Y-55602570D02*
X140072470Y-55330790D01*
D10*
X130011590Y-62529150D02*
X130153830Y-62671390D01*
X158391010Y-65572070D02*
X158533250Y-65572070D01*
D12*
X80987050Y-77083360D02*
X81032770Y-77220520D01*
D10*
X183178870Y-62036390D02*
X183389690Y-61825570D01*
X136242210Y-62742520D02*
X136381910Y-62671390D01*
D11*
X94593770Y-82176050D02*
X94502340Y-82084620D01*
D10*
X132564290Y-64865960D02*
X132775110Y-64655130D01*
D12*
X80077650Y-86308660D02*
X80077650Y-86516940D01*
D14*
X172363490Y-56694780D02*
X172772430Y-56694780D01*
D12*
X86730590Y-100935710D02*
X86834730Y-100831570D01*
X70443450Y-81810290D02*
X70443450Y-81309910D01*
X80077730Y-77492290D02*
X80077730Y-76991910D01*
X66788390Y-79938310D02*
X66559790Y-79984040D01*
D15*
X208296620Y-126707330D02*
X101296840Y-126707330D01*
D12*
X69193780Y-80072940D02*
X69239490Y-80210100D01*
X66696960Y-81538520D02*
X66742680Y-81401360D01*
D10*
X151162170Y-62036390D02*
X151093590Y-61896700D01*
X178599250Y-61967810D02*
X178667830Y-62178630D01*
X179203770Y-62529150D02*
X179346010Y-62671390D01*
X150529710Y-62671390D02*
X150669410Y-62742520D01*
D12*
X80699950Y-112102360D02*
X80699950Y-111167640D01*
X87614510Y-83940570D02*
X87718650Y-84044710D01*
X87769450Y-103336010D02*
X87769450Y-103127730D01*
D11*
X94273740Y-88112040D02*
X94365180Y-88112040D01*
D12*
X80649150Y-87797100D02*
X81167310Y-87797100D01*
D10*
X191477050Y-61754460D02*
X191901230Y-62742520D01*
D11*
X94001950Y-90121180D02*
X94456610Y-90121180D01*
D12*
X81116510Y-103098060D02*
X81012370Y-102993920D01*
D11*
X94273740Y-94340120D02*
X94273740Y-93794020D01*
D12*
X62361180Y-79910380D02*
X62495790Y-80001810D01*
D11*
X93684450Y-85422180D02*
X93730180Y-85556790D01*
D10*
X133196750Y-62742520D02*
X133057050Y-63024460D01*
D12*
X80545010Y-90852720D02*
X80595810Y-90906060D01*
D11*
X94273740Y-102457960D02*
X94365180Y-102457960D01*
D12*
X86938870Y-85977650D02*
X86834730Y-86030990D01*
D10*
X153714870Y-62036390D02*
X153925690Y-61825570D01*
X134436220Y-67413570D02*
X134296520Y-67342460D01*
X145513210Y-61754460D02*
X145370970Y-61825570D01*
D11*
X94639490Y-83021880D02*
X94639490Y-82930440D01*
D12*
X80077730Y-80545500D02*
X80131070Y-80441360D01*
D11*
X94502340Y-82584990D02*
X94593770Y-82493550D01*
X96160950Y-111640050D02*
X96206680Y-111548620D01*
D10*
X182642930Y-61332810D02*
X182714050Y-61261700D01*
X138368190Y-64655130D02*
X138228490Y-64797380D01*
D12*
X81116510Y-115165600D02*
X81065710Y-115216400D01*
D10*
X131886110Y-65500960D02*
X132028350Y-65358710D01*
D12*
X62724390Y-79409990D02*
X62495790Y-79455710D01*
X65256780Y-81401360D02*
X65302490Y-81538520D01*
X81116510Y-119356600D02*
X81065710Y-119407400D01*
X81012370Y-98802920D02*
X80908230Y-98749580D01*
D11*
X96524180Y-119366730D02*
X96661340Y-119321020D01*
D10*
X135213510Y-64655130D02*
X135353210Y-64797380D01*
D12*
X67151620Y-80527600D02*
X67288780Y-80438700D01*
X62361180Y-80873040D02*
X62406890Y-80827310D01*
D11*
X93956240Y-123702520D02*
X94047680Y-123748230D01*
D12*
X80286010Y-80337220D02*
X80390150Y-80337220D01*
D11*
X93730180Y-79166150D02*
X93819080Y-79257600D01*
D12*
X68601960Y-79092490D02*
X69239490Y-79364280D01*
X87614510Y-102921990D02*
X87510370Y-102868650D01*
D11*
X93684450Y-115058890D02*
X94639490Y-114421360D01*
D12*
X87634930Y-75957330D02*
X87589210Y-76091950D01*
D10*
X176795850Y-61754460D02*
X177006670Y-61754460D01*
X146132920Y-66920810D02*
X145990680Y-67060520D01*
X134085700Y-67342460D02*
X133943450Y-67413570D01*
X133689510Y-64584020D02*
X133902870Y-64584020D01*
X162592170Y-62742520D02*
X162378810Y-62742520D01*
D11*
X94047680Y-88249200D02*
X94139110Y-88157760D01*
X93775900Y-112831310D02*
X93864790Y-112785600D01*
X94639490Y-111185390D02*
X94593770Y-111048230D01*
D12*
X87302090Y-99457430D02*
X87302090Y-98522710D01*
D11*
X96298110Y-100875540D02*
X96206680Y-100784100D01*
X96206680Y-103550150D02*
X96298110Y-103639050D01*
D12*
X67334490Y-80210100D02*
X67288780Y-80072940D01*
X80077650Y-102597680D02*
X81167310Y-102597680D01*
D11*
X94410900Y-91104150D02*
X94502340Y-91058440D01*
X96206680Y-106303520D02*
X96432740Y-106303520D01*
D10*
X175652850Y-64797380D02*
X175723970Y-65008200D01*
X141934350Y-61754460D02*
X142145170Y-61754460D01*
D12*
X80128450Y-92498640D02*
X80232590Y-92394500D01*
D11*
X96252400Y-104030210D02*
X96298110Y-104075940D01*
D12*
X86730590Y-84044710D02*
X86834730Y-83940570D01*
D10*
X171159590Y-65500960D02*
X171088470Y-65358710D01*
X149755010Y-64655130D02*
X149894710Y-64584020D01*
D12*
X80128450Y-98907060D02*
X80077650Y-99008660D01*
X86679890Y-81865360D02*
X86679890Y-81364980D01*
X87043010Y-97920730D02*
X87043010Y-97763250D01*
D11*
X95843450Y-116930880D02*
X95843450Y-116521940D01*
D12*
X87088840Y-81410700D02*
X87134550Y-81364980D01*
D11*
X96432740Y-118520910D02*
X96524180Y-118520910D01*
D10*
X177105730Y-65147890D02*
X177105730Y-65008200D01*
D11*
X94001950Y-94111520D02*
X94047680Y-94202960D01*
D14*
X173044220Y-56557620D02*
X173315990Y-56285830D01*
D11*
X94001950Y-121485100D02*
X94639490Y-121485100D01*
D12*
X80494210Y-96608360D02*
X80753290Y-96608360D01*
D10*
X182515930Y-64655130D02*
X182373690Y-64797380D01*
X193394750Y-62036390D02*
X193605570Y-61825570D01*
X183150930Y-64865960D02*
X183079810Y-64726250D01*
X146681610Y-62671390D02*
X146823850Y-62742520D01*
D12*
X80440950Y-77266230D02*
X80440950Y-77129070D01*
D10*
X145160150Y-62318330D02*
X145231270Y-62529150D01*
X138142080Y-67484700D02*
X138073490Y-67413570D01*
X182655630Y-65572070D02*
X182868990Y-65572070D01*
X189645710Y-61754460D02*
X189434890Y-61754460D01*
X158518010Y-62671390D02*
X158660250Y-62742520D01*
D12*
X80908230Y-86778560D02*
X81012370Y-86725220D01*
D10*
X131253650Y-64797380D02*
X131182530Y-65008200D01*
X145513210Y-63235280D02*
X145370970Y-63164150D01*
D14*
X149671130Y-56694780D02*
X149399360Y-56557620D01*
D10*
X143793580Y-67060520D02*
X143653880Y-66920810D01*
D11*
X93684450Y-86875050D02*
X94456610Y-86875050D01*
X94001950Y-89321070D02*
X94001950Y-89003570D01*
D12*
X86679790Y-86445010D02*
X86730590Y-86549150D01*
D10*
X174342210Y-65358710D02*
X174202510Y-65500960D01*
D12*
X71032740Y-79938310D02*
X71124180Y-79938310D01*
D11*
X94001950Y-82404650D02*
X94047680Y-82493550D01*
D12*
X87487620Y-122030380D02*
X87624780Y-122076110D01*
D10*
X138721250Y-65572070D02*
X138860950Y-65500960D01*
D11*
X93775900Y-109295630D02*
X93730180Y-109249910D01*
D10*
X198284250Y-62178630D02*
X198284250Y-62318330D01*
D11*
X96160950Y-112003280D02*
X96798490Y-112003280D01*
X94047680Y-121967700D02*
X94139110Y-121876260D01*
D12*
X71215610Y-80873040D02*
X71169900Y-80918760D01*
D10*
X143935810Y-67413570D02*
X143864700Y-67202750D01*
D12*
X87355480Y-107111640D02*
X87512960Y-107060840D01*
X81116510Y-118889240D02*
X81167310Y-119044180D01*
X70443450Y-81309910D02*
X70806680Y-81584230D01*
D10*
X143244990Y-64584020D02*
X143102750Y-64655130D01*
X158998070Y-64091250D02*
X158998070Y-65572070D01*
D11*
X93864790Y-97530360D02*
X93730180Y-97621790D01*
D12*
X86938870Y-118606490D02*
X86888070Y-118606490D01*
D10*
X158307190Y-62178630D02*
X158307190Y-62318330D01*
X193013750Y-65008200D02*
X193013750Y-65147890D01*
X143089990Y-68259390D02*
X143229700Y-68330520D01*
X129871890Y-65008200D02*
X129871890Y-65147890D01*
X197537490Y-61754460D02*
X197326670Y-61754460D01*
D11*
X94001950Y-101358130D02*
X94001950Y-101040630D01*
D12*
X81131770Y-124365460D02*
X81177490Y-124276550D01*
D10*
X131817470Y-67413570D02*
X131675240Y-67342460D01*
D11*
X93684450Y-114421360D02*
X94639490Y-115058890D01*
D14*
X165843310Y-53283550D02*
X165571540Y-53557880D01*
D10*
X179135190Y-62318330D02*
X179203770Y-62529150D01*
X145751970Y-64655130D02*
X145823090Y-64865960D01*
X143229700Y-66849700D02*
X143089990Y-66920810D01*
X157433430Y-64020130D02*
X157362310Y-64091250D01*
X151812410Y-65572070D02*
X151952110Y-65572070D01*
X198495070Y-62671390D02*
X198634770Y-62742520D01*
D12*
X86730590Y-118088330D02*
X86783930Y-118034990D01*
D10*
X177034610Y-65358710D02*
X177105730Y-65147890D01*
X131746410Y-62742520D02*
X131957230Y-62742520D01*
D12*
X64664960Y-81538520D02*
X64710680Y-81401360D01*
D10*
X174342210Y-64797380D02*
X174413330Y-65008200D01*
X179485710Y-61754460D02*
X179346010Y-61825570D01*
D11*
X94639490Y-106402570D02*
X94639490Y-106722620D01*
D12*
X80440870Y-114853180D02*
X80494210Y-114698240D01*
X87147150Y-98126470D02*
X87096350Y-98075670D01*
D11*
X93819080Y-85013230D02*
X93730180Y-85104680D01*
D10*
X163280510Y-65572070D02*
X163422750Y-65572070D01*
X197044730Y-62529150D02*
X197184430Y-62671390D01*
X132028350Y-64797380D02*
X131886110Y-64655130D01*
D14*
X139798150Y-54921860D02*
X139526380Y-54784700D01*
D12*
X80077650Y-97337340D02*
X80077650Y-96974120D01*
D11*
X96661340Y-103639050D02*
X96752770Y-103550150D01*
X94001950Y-84347760D02*
X94639490Y-84530630D01*
X94639490Y-97847860D02*
X94639490Y-97758960D01*
D14*
X160580430Y-55874360D02*
X160717590Y-56148680D01*
D10*
X160308710Y-65358710D02*
X160448410Y-65500960D01*
D14*
X169417090Y-56557620D02*
X169688880Y-56694780D01*
D10*
X138368190Y-65500960D02*
X138510430Y-65572070D01*
D11*
X94502340Y-121876260D02*
X94593770Y-121967700D01*
D12*
X80494210Y-87850440D02*
X80649150Y-87797100D01*
X81012370Y-89887520D02*
X81116510Y-89938320D01*
D11*
X94139110Y-94294390D02*
X94273740Y-94340120D01*
X96298110Y-103138680D02*
X96206680Y-103230120D01*
D14*
X138571340Y-55193630D02*
X138436720Y-55602570D01*
D10*
X175160090Y-65572070D02*
X175020390Y-65500960D01*
D14*
X170781080Y-54784700D02*
X170781080Y-56694780D01*
D10*
X162310230Y-62178630D02*
X162660750Y-62249750D01*
X171101170Y-61754460D02*
X170890350Y-61754460D01*
D12*
X80494210Y-88213660D02*
X80440870Y-88109520D01*
D13*
X86765520Y-108869020D02*
X87720560Y-109232240D01*
D10*
X135424330Y-65147890D02*
X135353210Y-65358710D01*
X176049090Y-61754460D02*
X176049090Y-62742520D01*
X178881190Y-65500960D02*
X179020890Y-65572070D01*
D11*
X94319450Y-116885150D02*
X94319450Y-116430490D01*
D10*
X144695330Y-61754460D02*
X144695330Y-62742520D01*
D11*
X94410900Y-106130790D02*
X94502340Y-106176520D01*
D12*
X87670500Y-122619670D02*
X87579050Y-122665380D01*
D10*
X185193090Y-63093040D02*
X185121970Y-63164150D01*
X180712530Y-64584020D02*
X180994470Y-65572070D01*
D12*
X87769450Y-94618730D02*
X87718650Y-94517130D01*
D10*
X193366810Y-64584020D02*
X193224570Y-64655130D01*
D11*
X94639490Y-93976890D02*
X94593770Y-93885460D01*
D10*
X166706970Y-65572070D02*
X166917790Y-65572070D01*
X164494630Y-61754460D02*
X164916270Y-62742520D01*
X193084870Y-64797380D02*
X193013750Y-65008200D01*
D11*
X96298110Y-106694680D02*
X96343840Y-106831830D01*
D10*
X131393350Y-64655130D02*
X131253650Y-64797380D01*
D14*
X132681080Y-55602570D02*
X132681080Y-55874360D01*
X138436720Y-55602570D02*
X138436720Y-55874360D01*
D11*
X96206680Y-101629910D02*
X96298110Y-101721360D01*
D10*
X176259910Y-65358710D02*
X176399610Y-65500960D01*
D11*
X94593770Y-102112520D02*
X94639490Y-102021070D01*
D12*
X80232590Y-111635000D02*
X81167310Y-111635000D01*
D10*
X193930690Y-65008200D02*
X193859570Y-64797380D01*
X150318890Y-62318330D02*
X150387470Y-62529150D01*
X172272110Y-61754460D02*
X172482930Y-61754460D01*
D11*
X93819080Y-112485880D02*
X93910520Y-112485880D01*
D12*
X87510370Y-103597630D02*
X87614510Y-103544290D01*
D10*
X177781370Y-64655130D02*
X177921070Y-64584020D01*
D11*
X96160950Y-102430020D02*
X96798490Y-102612890D01*
D10*
X136127860Y-67624390D02*
X136338680Y-67413570D01*
X146991490Y-64655130D02*
X147062610Y-64865960D01*
D11*
X93638740Y-83639100D02*
X93684450Y-83684810D01*
X93730180Y-83639100D02*
X93684450Y-83593380D01*
D14*
X177161560Y-53557880D02*
X177435880Y-53966810D01*
D11*
X94639490Y-111276830D02*
X94639490Y-111185390D01*
D10*
X151980050Y-62742520D02*
X152190870Y-62742520D01*
X152333110Y-62671390D02*
X152472810Y-62529150D01*
D14*
X132818240Y-56285830D02*
X133090020Y-56557620D01*
D10*
X161083410Y-64797380D02*
X160943710Y-64655130D01*
D12*
X68284460Y-80481880D02*
X68284460Y-79984040D01*
D10*
X158998070Y-64865960D02*
X159208890Y-64655130D01*
X135424330Y-65008200D02*
X135424330Y-65147890D01*
D11*
X94593770Y-93039630D02*
X94502340Y-92948200D01*
D12*
X80545010Y-110771400D02*
X80494210Y-110720600D01*
D14*
X165299750Y-56966550D02*
X165571540Y-57375490D01*
D10*
X146696790Y-67624390D02*
X146836490Y-67695520D01*
D11*
X93910520Y-105739630D02*
X94047680Y-105785360D01*
D12*
X80440870Y-115010660D02*
X80440870Y-114853180D01*
D10*
X142145170Y-61754460D02*
X142284870Y-61825570D01*
D12*
X80077650Y-93019340D02*
X81167310Y-93019340D01*
X80494240Y-106062210D02*
X80595840Y-105958070D01*
D11*
X94047680Y-81330230D02*
X94184840Y-81284520D01*
D10*
X146823850Y-61754460D02*
X146681610Y-61825570D01*
X146823850Y-62742520D02*
X147034670Y-62742520D01*
D12*
X87667850Y-89617470D02*
X87563710Y-89670810D01*
D10*
X131464470Y-62529150D02*
X131604170Y-62671390D01*
X165337910Y-61754460D02*
X164916270Y-62742520D01*
D14*
X140072470Y-55330790D02*
X139935310Y-55056470D01*
D10*
X165182970Y-65993710D02*
X165043270Y-66064830D01*
D12*
X66923020Y-80573310D02*
X67151620Y-80527600D01*
X87769450Y-103127730D02*
X87718650Y-103026130D01*
D10*
X171243410Y-62671390D02*
X171383110Y-62529150D01*
X150318890Y-62178630D02*
X150318890Y-62318330D01*
X184418390Y-62318330D02*
X184489510Y-62529150D01*
D12*
X87043120Y-75865880D02*
X87043120Y-75728720D01*
D10*
X138157370Y-65147890D02*
X138228490Y-65358710D01*
X148302130Y-65290130D02*
X148373250Y-65500960D01*
X132564290Y-64584020D02*
X132564290Y-65572070D01*
D11*
X94273740Y-79648760D02*
X94410900Y-79694470D01*
D12*
X87355430Y-103648430D02*
X87510370Y-103597630D01*
D14*
X174626630Y-57512650D02*
X174352310Y-57647280D01*
D12*
X80545010Y-115216400D02*
X80494210Y-115165600D01*
X87769450Y-101093190D02*
X87769450Y-101456410D01*
D11*
X93684450Y-79966260D02*
X93730180Y-79831630D01*
D12*
X80336730Y-86778560D02*
X80494210Y-86829360D01*
X87512960Y-107060840D02*
X87617100Y-107007500D01*
X87634930Y-81728200D02*
X87589210Y-81865360D01*
D10*
X179203770Y-61967810D02*
X179135190Y-62178630D01*
D11*
X94639490Y-102021070D02*
X94639490Y-101886460D01*
X94593770Y-121967700D02*
X94639490Y-122059130D01*
D10*
X136127860Y-67342460D02*
X136127860Y-68330520D01*
D11*
X94047680Y-93039630D02*
X94001950Y-93131070D01*
D10*
X138073490Y-68259390D02*
X138213200Y-68117150D01*
D12*
X87096350Y-86757430D02*
X87355430Y-86757430D01*
D10*
X154489570Y-62036390D02*
X154489570Y-62742520D01*
D14*
X159762560Y-54784700D02*
X159353610Y-54921860D01*
D10*
X159617830Y-61754460D02*
X159617830Y-62742520D01*
D12*
X80336730Y-83961700D02*
X80494210Y-83908360D01*
X87614510Y-88995170D02*
X87718650Y-89099310D01*
X80077650Y-93019340D02*
X80077650Y-92656120D01*
D10*
X153869810Y-65219020D02*
X153798690Y-65290130D01*
D11*
X94001950Y-103575550D02*
X94001950Y-103440940D01*
X94639490Y-87540540D02*
X94593770Y-87449100D01*
D10*
X147514680Y-68188280D02*
X147443560Y-68259390D01*
X189081830Y-62178630D02*
X189927650Y-62178630D01*
D11*
X94502340Y-79740200D02*
X94593770Y-79831630D01*
X96298110Y-101721360D02*
X96432740Y-101767070D01*
D10*
X150669410Y-61754460D02*
X150529710Y-61825570D01*
X174103450Y-62671390D02*
X174032330Y-62529150D01*
D12*
X87718650Y-94517130D02*
X87614510Y-94412990D01*
X62815840Y-80918760D02*
X63270490Y-81373410D01*
X69193780Y-81401360D02*
X69239490Y-81538520D01*
D10*
X193224570Y-64655130D02*
X193084870Y-64797380D01*
D12*
X86679840Y-106593480D02*
X86679840Y-106799220D01*
X87396180Y-123356270D02*
X87487620Y-123356270D01*
D10*
X187024430Y-61261700D02*
X187024430Y-62460570D01*
D12*
X86679890Y-75594110D02*
X87043120Y-75865880D01*
D10*
X129871890Y-65147890D02*
X129943010Y-65358710D01*
D11*
X94228020Y-85104680D02*
X94273740Y-85058960D01*
D12*
X87251290Y-118139130D02*
X87769450Y-118659830D01*
X81012370Y-89440480D02*
X81116510Y-89336340D01*
X71352770Y-80481880D02*
X71307060Y-80527600D01*
D10*
X130717710Y-64797380D02*
X130575470Y-64655130D01*
D11*
X94001950Y-88658130D02*
X94956990Y-88658130D01*
D10*
X137720430Y-68330520D02*
X137931250Y-68330520D01*
D12*
X80077680Y-106008880D02*
X80077680Y-106529570D01*
D10*
X171863170Y-65358710D02*
X171792050Y-65500960D01*
X144977270Y-64655130D02*
X145048390Y-64865960D01*
D12*
X81116510Y-110720600D02*
X81065710Y-110771400D01*
X87510370Y-83889770D02*
X87614510Y-83940570D01*
D10*
X175696030Y-62742520D02*
X175835730Y-62671390D01*
D14*
X155017840Y-53829650D02*
X155017840Y-56694780D01*
D11*
X94184840Y-81784890D02*
X94047680Y-81647730D01*
D10*
X185828090Y-64584020D02*
X185546150Y-65572070D01*
D12*
X81116510Y-89336340D02*
X81167310Y-89232200D01*
D14*
X146727270Y-56557620D02*
X147136220Y-56694780D01*
D10*
X158378310Y-62529150D02*
X158518010Y-62671390D01*
D12*
X71169900Y-80918760D02*
X71215610Y-80964470D01*
D10*
X133803750Y-68117150D02*
X133943450Y-68259390D01*
D12*
X87096350Y-98075670D02*
X87043010Y-97920730D01*
X65302490Y-80301540D02*
X65302490Y-80210100D01*
X87718650Y-97608310D02*
X87769450Y-97763250D01*
D10*
X178317310Y-62742520D02*
X178106490Y-62742520D01*
X132914810Y-64584020D02*
X133128170Y-64584020D01*
D11*
X93730180Y-76793790D02*
X93819080Y-76702360D01*
D12*
X86938870Y-94359650D02*
X86834730Y-94412990D01*
D11*
X93864790Y-99402330D02*
X93956240Y-99402330D01*
D10*
X195734090Y-61967810D02*
X195662970Y-62178630D01*
D12*
X62495790Y-80784130D02*
X62587230Y-80784130D01*
D10*
X132099470Y-65147890D02*
X132099470Y-65008200D01*
X185264210Y-61967810D02*
X185121970Y-61825570D01*
D13*
X87674840Y-110032340D02*
X87720560Y-110169500D01*
D12*
X80494210Y-115165600D02*
X80440870Y-115010660D01*
D11*
X95843450Y-109813790D02*
X95843450Y-109176260D01*
X93775900Y-123748230D02*
X93864790Y-123702520D01*
D10*
X174314270Y-62742520D02*
X174103450Y-62671390D01*
D12*
X87088840Y-76965700D02*
X87134550Y-76919980D01*
X66514070Y-82610390D02*
X67334490Y-82610390D01*
X62450070Y-82610390D02*
X63270490Y-82610390D01*
D11*
X94502340Y-88157760D02*
X94593770Y-88249200D01*
D12*
X81167340Y-106217150D02*
X81167340Y-106374630D01*
D14*
X161753920Y-54784700D02*
X161753920Y-56694780D01*
D12*
X86679790Y-102525750D02*
X87769450Y-101799310D01*
X87716210Y-122165010D02*
X87761930Y-122302170D01*
D10*
X139821070Y-64584020D02*
X140031890Y-64584020D01*
D12*
X64527790Y-80527600D02*
X64756390Y-80573310D01*
D11*
X95934900Y-106648960D02*
X96023790Y-106603230D01*
D10*
X135889150Y-61825570D02*
X135746910Y-61967810D01*
X166353910Y-65008200D02*
X166353910Y-65147890D01*
X145160150Y-62178630D02*
X145160150Y-62318330D01*
X166719670Y-62318330D02*
X166719670Y-62178630D01*
X189379010Y-65008200D02*
X189379010Y-65147890D01*
D11*
X94639490Y-76039410D02*
X94639490Y-75859070D01*
X93910520Y-118020540D02*
X93819080Y-118066260D01*
D10*
X166155790Y-61754460D02*
X166016090Y-61825570D01*
D11*
X93956240Y-108795260D02*
X94047680Y-108840970D01*
D10*
X153714870Y-62036390D02*
X153714870Y-62742520D01*
X142284870Y-61825570D02*
X142355990Y-62036390D01*
D12*
X80494210Y-119356600D02*
X80440870Y-119201660D01*
D10*
X141581290Y-65147890D02*
X141652410Y-65358710D01*
D11*
X95843450Y-112302990D02*
X95797740Y-112348710D01*
X93684450Y-109684260D02*
X94639490Y-109684260D01*
D10*
X160943710Y-65500960D02*
X161083410Y-65358710D01*
X162378810Y-61754460D02*
X162167990Y-61825570D01*
X189856530Y-61896700D02*
X189787950Y-61825570D01*
X166016090Y-62671390D02*
X166155790Y-62742520D01*
D11*
X93819080Y-106176520D02*
X93910520Y-106130790D01*
D10*
X130575420Y-67413570D02*
X130646540Y-67624390D01*
D12*
X80336730Y-88764840D02*
X80232590Y-88815640D01*
D11*
X94001950Y-121139650D02*
X94639490Y-121139650D01*
X93684450Y-96275600D02*
X94639490Y-96504200D01*
D12*
X87043120Y-77194300D02*
X87043120Y-77057140D01*
D10*
X178667830Y-62178630D02*
X178667830Y-62318330D01*
X195873790Y-61825570D02*
X195734090Y-61967810D01*
X145370970Y-61825570D02*
X145231270Y-61967810D01*
X131393350Y-62178630D02*
X131393350Y-62318330D01*
D12*
X86888070Y-113920190D02*
X86992210Y-113920190D01*
X87718650Y-86549150D02*
X87769450Y-86445010D01*
X68873730Y-79938310D02*
X68965180Y-79938310D01*
D10*
X166648550Y-62529150D02*
X166719670Y-62318330D01*
D11*
X93684450Y-81784890D02*
X94639490Y-81784890D01*
D10*
X131675240Y-68330520D02*
X131817470Y-68259390D01*
D12*
X80753290Y-110095760D02*
X80857430Y-110095760D01*
X80128450Y-101007640D02*
X80232590Y-100903500D01*
D10*
X147062610Y-64865960D02*
X147062610Y-65572070D01*
D12*
X80811740Y-124093680D02*
X80811740Y-123867620D01*
D11*
X96160950Y-101541020D02*
X96206680Y-101629910D01*
D12*
X80357080Y-122084540D02*
X80448520Y-122038810D01*
X80440900Y-106374630D02*
X80440900Y-106217150D01*
D10*
X135213510Y-61261700D02*
X135213510Y-62742520D01*
X147766190Y-64655130D02*
X147837310Y-64865960D01*
X186292910Y-65147890D02*
X186361490Y-65358710D01*
D12*
X86679790Y-94827010D02*
X86730590Y-94931150D01*
X87269180Y-81319270D02*
X87360620Y-81319270D01*
D10*
X141581290Y-65008200D02*
X141581290Y-65147890D01*
D14*
X151662490Y-55465410D02*
X154116130Y-55465410D01*
D12*
X80753290Y-95211360D02*
X80908230Y-95160560D01*
D10*
X197184430Y-61825570D02*
X197044730Y-61967810D01*
X146287910Y-64865960D02*
X146498730Y-64655130D01*
X142145170Y-65572070D02*
X142284870Y-65500960D01*
X192124750Y-64584020D02*
X192338110Y-64584020D01*
D12*
X87096350Y-95139430D02*
X87355430Y-95139430D01*
D10*
X130575470Y-64655130D02*
X130435770Y-64584020D01*
D11*
X95843450Y-120695150D02*
X95843450Y-120286210D01*
D10*
X181753930Y-62460570D02*
X181825050Y-62671390D01*
D11*
X95889180Y-115450050D02*
X95843450Y-115584680D01*
X96752770Y-118912070D02*
X96661340Y-118820630D01*
D14*
X133770740Y-54784700D02*
X133361790Y-54784700D01*
D10*
X183150930Y-65008200D02*
X183150930Y-64865960D01*
D12*
X86834730Y-120072070D02*
X87769450Y-120072070D01*
D10*
X131464470Y-61967810D02*
X131393350Y-62178630D01*
D11*
X94639490Y-102686550D02*
X94639490Y-102821180D01*
X94593770Y-97621790D02*
X94456610Y-97530360D01*
D12*
X68965180Y-81264200D02*
X69102340Y-81309910D01*
D11*
X94047680Y-120684990D02*
X94184840Y-120639280D01*
D12*
X86679790Y-93290310D02*
X87769450Y-93290310D01*
X81012370Y-84012500D02*
X81116510Y-84116640D01*
X87614510Y-94412990D02*
X87510370Y-94359650D01*
D11*
X95843450Y-107240780D02*
X95843450Y-106831830D01*
D12*
X80987050Y-75754940D02*
X81032770Y-75892100D01*
X87215840Y-123447700D02*
X87261550Y-123401980D01*
D10*
X157504550Y-64091250D02*
X157433430Y-64020130D01*
X193717330Y-64655130D02*
X193577630Y-64584020D01*
X167057490Y-65500960D02*
X167199730Y-65358710D01*
D12*
X80448520Y-123867620D02*
X80357080Y-123910790D01*
D10*
X194098330Y-61825570D02*
X194169450Y-62036390D01*
X145866270Y-63164150D02*
X145724030Y-63235280D01*
D11*
X96298110Y-119321020D02*
X96432740Y-119366730D01*
D12*
X80941330Y-76209600D02*
X80849890Y-76255310D01*
D11*
X96252400Y-106648960D02*
X96298110Y-106694680D01*
X93684450Y-83593380D02*
X93638740Y-83639100D01*
X96023790Y-103984490D02*
X96160950Y-103984490D01*
D12*
X87360620Y-76874270D02*
X87497780Y-76919980D01*
D13*
X87083020Y-110304120D02*
X87083020Y-110169500D01*
D10*
X136381910Y-62671390D02*
X136521610Y-62529150D01*
X153938390Y-65290130D02*
X153869810Y-65219020D01*
X147837310Y-64865960D02*
X147837310Y-65572070D01*
D12*
X86679790Y-84202190D02*
X86730590Y-84044710D01*
D11*
X93910520Y-75630470D02*
X93819080Y-75676200D01*
X94001950Y-93976890D02*
X94001950Y-94111520D01*
D12*
X87512960Y-106331860D02*
X87355480Y-106331860D01*
D11*
X96798490Y-115584680D02*
X96798490Y-115767550D01*
D10*
X138073490Y-67413570D02*
X137931250Y-67342460D01*
X159970890Y-61754460D02*
X160181710Y-61754460D01*
X184771450Y-63235280D02*
X184629210Y-63164150D01*
D14*
X133361790Y-56694780D02*
X133770740Y-56694780D01*
D10*
X189787950Y-61825570D02*
X189645710Y-61754460D01*
D11*
X93864790Y-99948440D02*
X93775900Y-99902710D01*
D10*
X144413390Y-62742520D02*
X144555630Y-62671390D01*
X150387470Y-61967810D02*
X150318890Y-62178630D01*
X197819430Y-61754460D02*
X197819430Y-62882210D01*
D12*
X62495790Y-81327700D02*
X62406890Y-81281970D01*
D10*
X196016030Y-61754460D02*
X195873790Y-61825570D01*
X166353910Y-65147890D02*
X166425030Y-65358710D01*
D12*
X81012370Y-95107220D02*
X81116510Y-95003080D01*
D10*
X131182470Y-68117150D02*
X131322180Y-68259390D01*
X193859570Y-64797380D02*
X193717330Y-64655130D01*
X146625680Y-66849700D02*
X146343740Y-66849700D01*
D12*
X87718700Y-106489340D02*
X87617100Y-106385200D01*
D11*
X94593770Y-102912620D02*
X94502340Y-103004050D01*
X96524180Y-115058890D02*
X96661340Y-115013180D01*
D10*
X187885490Y-65572070D02*
X188096310Y-65572070D01*
X177146370Y-62671390D02*
X177006670Y-62742520D01*
D12*
X87355430Y-83836430D02*
X87510370Y-83889770D01*
X64664960Y-79638600D02*
X65302490Y-79364280D01*
D11*
X95978080Y-115358620D02*
X95889180Y-115450050D01*
D12*
X80440950Y-79940980D02*
X81169930Y-79631100D01*
X71352770Y-81810290D02*
X71307060Y-81856020D01*
D11*
X93684450Y-112257280D02*
X93730180Y-112394440D01*
D12*
X80181870Y-80908720D02*
X80131070Y-80855380D01*
X68647680Y-81447070D02*
X68693390Y-81355630D01*
D10*
X130082710Y-64655130D02*
X129943010Y-64797380D01*
X142820810Y-61754460D02*
X143313570Y-61754460D01*
D12*
X80753290Y-114540760D02*
X80857430Y-114540760D01*
D10*
X147583250Y-68259390D02*
X147514680Y-68188280D01*
X191985050Y-64655130D02*
X192124750Y-64584020D01*
X142427110Y-64797380D02*
X142284870Y-64655130D01*
X136902560Y-67624390D02*
X136902560Y-68330520D01*
D11*
X94502340Y-105147810D02*
X94410900Y-105104630D01*
D12*
X86679790Y-92584190D02*
X86730590Y-92426710D01*
D11*
X94001950Y-122193760D02*
X94001950Y-122059130D01*
D12*
X80857430Y-110095760D02*
X81012370Y-110149100D01*
D14*
X170097810Y-56694780D02*
X170372130Y-56557620D01*
D10*
X169043770Y-64797380D02*
X169186010Y-64655130D01*
D11*
X94001950Y-83293650D02*
X94001950Y-82976150D01*
D14*
X159216450Y-55193630D02*
X159353610Y-55465410D01*
D10*
X186361490Y-65358710D02*
X186503730Y-65500960D01*
D11*
X94502340Y-119094960D02*
X94593770Y-119186390D01*
D10*
X187842310Y-61261700D02*
X187842310Y-62742520D01*
D14*
X131507590Y-55193630D02*
X131098650Y-55330790D01*
D12*
X86997390Y-75248670D02*
X87634930Y-74974350D01*
X81116510Y-92498640D02*
X81167310Y-92656120D01*
D10*
X133128170Y-64584020D02*
X133267870Y-64655130D01*
X137339490Y-65290130D02*
X137410610Y-65500960D01*
X197677190Y-62671390D02*
X197819430Y-62529150D01*
D12*
X87589210Y-80128010D02*
X87634930Y-80265170D01*
D11*
X94139110Y-102503680D02*
X94273740Y-102457960D01*
D10*
X185121970Y-61825570D02*
X184982270Y-61754460D01*
D11*
X94273740Y-90420890D02*
X94047680Y-90420890D01*
D10*
X131111360Y-67906330D02*
X131182470Y-68117150D01*
X146836490Y-67695520D02*
X146907610Y-67766630D01*
D11*
X94001950Y-112440150D02*
X94047680Y-112394440D01*
D12*
X87769450Y-97763250D02*
X87769450Y-97920730D01*
D10*
X147174370Y-61825570D02*
X147034670Y-61754460D01*
D11*
X94184840Y-108929880D02*
X94639490Y-109384540D01*
D12*
X64756390Y-81856020D02*
X64710680Y-81810290D01*
D14*
X160717590Y-56148680D02*
X160717590Y-56285830D01*
D12*
X80494210Y-86829360D02*
X80753290Y-86829360D01*
D11*
X93730180Y-112877040D02*
X93775900Y-112831310D01*
X94502340Y-78711490D02*
X94410900Y-78668310D01*
D12*
X66696960Y-79092490D02*
X67334490Y-79364280D01*
D10*
X131886110Y-64655130D02*
X131746410Y-64584020D01*
D11*
X95843450Y-123268180D02*
X95843450Y-122630630D01*
D12*
X86783930Y-118034990D02*
X86888070Y-117984190D01*
D10*
X131957230Y-62742520D02*
X132099470Y-62671390D01*
D12*
X71352770Y-80072940D02*
X71398490Y-80210100D01*
X80753290Y-103720360D02*
X80908230Y-103669560D01*
X64936730Y-81264200D02*
X65028180Y-81264200D01*
D11*
X94410900Y-79303310D02*
X94502340Y-79257600D01*
D10*
X134578510Y-64584020D02*
X134578510Y-66064830D01*
D12*
X70760950Y-79638600D02*
X71398490Y-79364280D01*
D10*
X184700330Y-64584020D02*
X184982270Y-65572070D01*
D11*
X96160950Y-111157460D02*
X96798490Y-111157460D01*
D10*
X132914810Y-63164150D02*
X132775110Y-63235280D01*
D11*
X94639490Y-105513570D02*
X94639490Y-105330700D01*
D10*
X159701650Y-64655130D02*
X159772770Y-64865960D01*
D12*
X70806680Y-80255810D02*
X70806680Y-80118650D01*
D10*
X156897490Y-64091250D02*
X156546970Y-65572070D01*
X143808870Y-65008200D02*
X143737750Y-64797380D01*
D12*
X80908230Y-86049580D02*
X80753290Y-86049580D01*
D10*
X175342970Y-62671390D02*
X175485210Y-62742520D01*
D12*
X87670500Y-123948090D02*
X87579050Y-123993800D01*
D10*
X171159590Y-64655130D02*
X171088470Y-64797380D01*
X197537490Y-62742520D02*
X197677190Y-62671390D01*
D12*
X65119620Y-80964470D02*
X65165340Y-80918760D01*
D10*
X151388230Y-64584020D02*
X151880990Y-64584020D01*
X130435720Y-67342460D02*
X130575420Y-67413570D01*
X182305110Y-65008200D02*
X183150930Y-65008200D01*
X157969370Y-64584020D02*
X158462130Y-64584020D01*
D12*
X67334490Y-81673130D02*
X67288780Y-81810290D01*
X80128450Y-94589060D02*
X80077650Y-94690660D01*
D11*
X94502340Y-118066260D02*
X94410900Y-118020540D01*
D10*
X144695330Y-61967810D02*
X144555630Y-61825570D01*
D11*
X96160950Y-112348710D02*
X96798490Y-112348710D01*
D10*
X174525090Y-62742520D02*
X174314270Y-62742520D01*
D12*
X80128450Y-89336340D02*
X80232590Y-89440480D01*
X87096350Y-103648430D02*
X87355430Y-103648430D01*
D10*
X144555630Y-62671390D02*
X144695330Y-62529150D01*
D13*
X87583400Y-109940900D02*
X87674840Y-110032340D01*
D12*
X81116510Y-98907060D02*
X81012370Y-98802920D01*
D10*
X138228490Y-64797380D02*
X138157370Y-65008200D01*
D12*
X80077650Y-84637340D02*
X81167310Y-84637340D01*
X86888070Y-115197810D02*
X86834730Y-115093670D01*
X68873730Y-81264200D02*
X68965180Y-81264200D01*
D10*
X176513910Y-61967810D02*
X176653610Y-61825570D01*
D12*
X86992210Y-117984190D02*
X87096350Y-118034990D01*
X87134550Y-76919980D02*
X87269180Y-76874270D01*
D11*
X95889180Y-116384780D02*
X95934900Y-116339050D01*
D10*
X138228490Y-65358710D02*
X138368190Y-65500960D01*
D11*
X96432740Y-101767070D02*
X96524180Y-101767070D01*
D14*
X150763340Y-55602570D02*
X150763340Y-55874360D01*
D11*
X96343840Y-111502890D02*
X96798490Y-111502890D01*
D10*
X197677190Y-61825570D02*
X197537490Y-61754460D01*
X146132920Y-68259390D02*
X145990680Y-68117150D01*
D11*
X93638740Y-121485100D02*
X93684450Y-121530810D01*
D10*
X177570550Y-65008200D02*
X177639130Y-64797380D01*
X197748310Y-63093040D02*
X197677190Y-63164150D01*
D11*
X94273740Y-76613460D02*
X94410900Y-76659180D01*
D10*
X150318890Y-62178630D02*
X151162170Y-62178630D01*
D14*
X131781920Y-54784700D02*
X131644750Y-55056470D01*
D10*
X158518010Y-61825570D02*
X158378310Y-61967810D01*
D12*
X66923020Y-83019330D02*
X66923020Y-82201460D01*
D11*
X94184840Y-94865890D02*
X94184840Y-95277380D01*
D10*
X160590650Y-64584020D02*
X160448410Y-64655130D01*
D12*
X81012370Y-114594100D02*
X81116510Y-114698240D01*
D10*
X131957230Y-61754460D02*
X131746410Y-61754460D01*
X152937630Y-61754460D02*
X152937630Y-62742520D01*
D11*
X96661340Y-115358620D02*
X96752770Y-115450050D01*
D12*
X87718650Y-89099310D02*
X87769450Y-89254250D01*
D10*
X170608410Y-62529150D02*
X170750650Y-62671390D01*
D12*
X86834730Y-92322570D02*
X86938870Y-92271770D01*
D11*
X93910520Y-105104630D02*
X93819080Y-105147810D01*
D10*
X164494630Y-63235280D02*
X164423510Y-63235280D01*
X159561950Y-64584020D02*
X159701650Y-64655130D01*
D12*
X87579050Y-122965110D02*
X87533340Y-123010830D01*
X80804090Y-90042460D02*
X80857430Y-89938320D01*
X80440870Y-119201660D02*
X80440870Y-119044180D01*
X67060180Y-81264200D02*
X67197340Y-81309910D01*
D10*
X130224950Y-64584020D02*
X130082710Y-64655130D01*
X158180190Y-64091250D02*
X158180190Y-65290130D01*
D12*
X80758450Y-75620310D02*
X80895610Y-75666040D01*
D10*
X194916210Y-62671390D02*
X195055910Y-62742520D01*
X192477810Y-64655130D02*
X192548930Y-64865960D01*
D12*
X80128450Y-95003080D02*
X80232590Y-95107220D01*
D10*
X179978470Y-61967810D02*
X179838770Y-61825570D01*
D12*
X65073890Y-80918760D02*
X65119620Y-80964470D01*
D11*
X94639490Y-89986550D02*
X94639490Y-89849390D01*
D12*
X86733180Y-106903360D02*
X86837320Y-107007500D01*
D10*
X195662970Y-62178630D02*
X195662970Y-62318330D01*
D14*
X138436720Y-55602570D02*
X140072470Y-55602570D01*
D10*
X132239170Y-61967810D02*
X132099470Y-61825570D01*
D12*
X80908230Y-100852700D02*
X81012370Y-100903500D01*
X86730590Y-118502350D02*
X86679790Y-118398210D01*
D11*
X95889180Y-120149050D02*
X95934900Y-120103330D01*
X94593770Y-78802940D02*
X94502340Y-78711490D01*
D10*
X136381910Y-61825570D02*
X136242210Y-61754460D01*
X131464420Y-68330520D02*
X131675240Y-68330520D01*
D11*
X93910520Y-76268020D02*
X94047680Y-76313730D01*
D12*
X81012370Y-100903500D02*
X81116510Y-101007640D01*
D10*
X186643430Y-65572070D02*
X186856790Y-65572070D01*
D12*
X80987050Y-76163880D02*
X80941330Y-76209600D01*
D11*
X93684450Y-90875550D02*
X93730180Y-90966990D01*
D10*
X171159590Y-64937070D02*
X171299290Y-65008200D01*
D11*
X96298110Y-120149050D02*
X96343840Y-120286210D01*
D10*
X184629210Y-61825570D02*
X184489510Y-61967810D01*
X159617830Y-62036390D02*
X159828650Y-61825570D01*
X178599250Y-64584020D02*
X179092010Y-64584020D01*
X146470790Y-62178630D02*
X147316610Y-62178630D01*
D11*
X96524180Y-118520910D02*
X96661340Y-118475200D01*
D10*
X142947750Y-67060520D02*
X142876630Y-67202750D01*
D11*
X93684450Y-113420600D02*
X93684450Y-113011650D01*
D12*
X86679890Y-81364980D02*
X87043120Y-81639300D01*
D10*
X178599250Y-62529150D02*
X178457010Y-62671390D01*
D12*
X87134550Y-80039110D02*
X87269180Y-79993380D01*
D10*
X161619350Y-65290130D02*
X161690470Y-65500960D01*
D12*
X67334490Y-81538520D02*
X67334490Y-81673130D01*
D10*
X141581290Y-61754460D02*
X141581290Y-62742520D01*
D12*
X87579050Y-123056540D02*
X87624780Y-123010830D01*
D11*
X94184840Y-99539490D02*
X94639490Y-99994150D01*
X95889180Y-104075940D02*
X95934900Y-104030210D01*
X94001950Y-102821180D02*
X94001950Y-102686550D01*
D10*
X135213510Y-61261700D02*
X134649630Y-62742520D01*
D12*
X80077650Y-96974120D02*
X80128450Y-96816640D01*
D11*
X94001950Y-82267490D02*
X94001950Y-82404650D01*
X94365180Y-121830540D02*
X94502340Y-121876260D01*
D10*
X143595510Y-64655130D02*
X143455810Y-64584020D01*
D12*
X80077730Y-76163880D02*
X80077730Y-75666040D01*
D10*
X173102690Y-64584020D02*
X173102690Y-65572070D01*
D12*
X86679840Y-105988960D02*
X87772040Y-105988960D01*
D10*
X137931250Y-67342460D02*
X137720430Y-67342460D01*
D11*
X96023790Y-116293330D02*
X96160950Y-116293330D01*
X96160950Y-102793230D02*
X96798490Y-102612890D01*
X96298110Y-117977360D02*
X96206680Y-118066260D01*
X94639490Y-89849390D02*
X94593770Y-89757960D01*
D10*
X165043270Y-66064830D02*
X164972150Y-66064830D01*
D11*
X94639490Y-82404650D02*
X94639490Y-82267490D01*
D14*
X134045060Y-56557620D02*
X134316840Y-56285830D01*
D10*
X143455810Y-64584020D02*
X143244990Y-64584020D01*
X189927650Y-62036390D02*
X189856530Y-61896700D01*
D12*
X87355430Y-86236730D02*
X87355430Y-85977650D01*
D11*
X93730180Y-106267960D02*
X93819080Y-106176520D01*
D12*
X80532390Y-76991910D02*
X80667010Y-76946200D01*
X80532390Y-75666040D02*
X80667010Y-75620310D01*
D11*
X96752770Y-103550150D02*
X96798490Y-103458710D01*
D12*
X87718650Y-89566670D02*
X87667850Y-89617470D01*
D11*
X96160950Y-103458710D02*
X96206680Y-103550150D01*
D12*
X87761930Y-123630590D02*
X87761930Y-123765200D01*
D11*
X94093400Y-112831310D02*
X94139110Y-112877040D01*
D14*
X138571340Y-56285830D02*
X138845650Y-56557620D01*
D12*
X80753290Y-94690660D02*
X80753290Y-94431580D01*
D10*
X175652850Y-65358710D02*
X175513150Y-65500960D01*
D12*
X64756390Y-80573310D02*
X64891020Y-80573310D01*
D11*
X95843450Y-113420600D02*
X96798490Y-113420600D01*
D12*
X80895610Y-75666040D02*
X80987050Y-75754940D01*
D11*
X93684450Y-119641050D02*
X94639490Y-119641050D01*
D10*
X174060270Y-64584020D02*
X174202510Y-64655130D01*
X136028850Y-61754460D02*
X135889150Y-61825570D01*
X130928530Y-61614750D02*
X130857410Y-61472520D01*
D11*
X93730180Y-111939780D02*
X93684450Y-112076940D01*
D12*
X80077650Y-119356600D02*
X80545010Y-119407400D01*
X80077650Y-103407940D02*
X80128450Y-103512080D01*
D10*
X143864700Y-67202750D02*
X143793580Y-67060520D01*
X145048390Y-64865960D02*
X145259210Y-64655130D01*
D12*
X80941330Y-77538020D02*
X80849890Y-77583730D01*
D10*
X166917790Y-65572070D02*
X167057490Y-65500960D01*
D11*
X93684450Y-105330700D02*
X93684450Y-105513570D01*
D10*
X159013310Y-62671390D02*
X159153010Y-62529150D01*
X150852290Y-64584020D02*
X150852290Y-65572070D01*
D12*
X65211050Y-81856020D02*
X65119620Y-81901730D01*
D10*
X140976770Y-61261700D02*
X141045350Y-61332810D01*
D14*
X175172740Y-56694780D02*
X174898420Y-57238330D01*
D10*
X168975190Y-65008200D02*
X169043770Y-64797380D01*
D12*
X80128450Y-86207060D02*
X80077650Y-86308660D01*
X87355430Y-97450830D02*
X87459570Y-97450830D01*
D11*
X95843450Y-120286210D02*
X95889180Y-120149050D01*
D12*
X80908230Y-94431580D02*
X80753290Y-94431580D01*
X80753290Y-88711500D02*
X80494210Y-88711500D01*
D10*
X136521610Y-61967810D02*
X136381910Y-61825570D01*
D12*
X80440870Y-90093260D02*
X80440870Y-90250740D01*
X87269180Y-75548380D02*
X87360620Y-75548380D01*
X87769450Y-97920730D02*
X87718650Y-98075670D01*
D14*
X177844810Y-55739730D02*
X177707650Y-56420460D01*
D11*
X94184840Y-121139650D02*
X94047680Y-121002490D01*
D10*
X198495070Y-61825570D02*
X198355370Y-61967810D01*
D12*
X66425180Y-80438700D02*
X66559790Y-80527600D01*
X87043120Y-81502140D02*
X87088840Y-81410700D01*
X86997390Y-79147560D02*
X87634930Y-79419350D01*
D11*
X96160950Y-100695200D02*
X96160950Y-100558040D01*
D12*
X62859020Y-79409990D02*
X62724390Y-79409990D01*
D11*
X94273740Y-93494290D02*
X94365180Y-93494290D01*
D12*
X87096350Y-89099310D02*
X87197950Y-88995170D01*
D10*
X151629530Y-62178630D02*
X151629530Y-62318330D01*
X184771450Y-61754460D02*
X184629210Y-61825570D01*
D12*
X80077650Y-97680240D02*
X81167310Y-97680240D01*
D11*
X94139110Y-92948200D02*
X94047680Y-93039630D01*
D12*
X80494210Y-95211360D02*
X80753290Y-95211360D01*
X69056620Y-80964470D02*
X69102340Y-80918760D01*
X67151620Y-80873040D02*
X67105890Y-80918760D01*
X87043010Y-87976630D02*
X87769450Y-88289050D01*
D11*
X94365180Y-85013230D02*
X94502340Y-85013230D01*
D10*
X174738450Y-62318330D02*
X174807030Y-62460570D01*
D11*
X94639490Y-93268230D02*
X94639490Y-93131070D01*
D12*
X81167310Y-90250740D02*
X81116510Y-90405680D01*
D10*
X131957180Y-67342460D02*
X131957180Y-68330520D01*
D11*
X96798490Y-119003520D02*
X96752770Y-118912070D01*
X94593770Y-90603780D02*
X94502340Y-90512330D01*
X94273740Y-111894050D02*
X94365180Y-111848330D01*
D10*
X130575470Y-61261700D02*
X130293530Y-61261700D01*
X146470790Y-62318330D02*
X146541910Y-62529150D01*
X161690470Y-65500960D02*
X161830170Y-65572070D01*
D14*
X131507590Y-53966810D02*
X131644750Y-54103970D01*
D11*
X93819080Y-119094960D02*
X93910520Y-119049230D01*
D13*
X87128740Y-110441280D02*
X87083020Y-110304120D01*
D10*
X150105530Y-64584020D02*
X150247770Y-64655130D01*
D11*
X94273740Y-94340120D02*
X94365180Y-94340120D01*
D10*
X185264210Y-64584020D02*
X185546150Y-65572070D01*
D11*
X93730180Y-85104680D02*
X93684450Y-85239290D01*
D10*
X153290690Y-61754460D02*
X153501510Y-61754460D01*
X175835730Y-62671390D02*
X176049090Y-62460570D01*
D11*
X93684450Y-119321020D02*
X93730180Y-119186390D01*
X94593770Y-88566700D02*
X94502340Y-88658130D01*
D10*
X145259210Y-64655130D02*
X145398910Y-64584020D01*
D11*
X96661340Y-105665970D02*
X96569900Y-105622790D01*
D12*
X87261550Y-122076110D02*
X87396180Y-122030380D01*
D10*
X174413330Y-65008200D02*
X174413330Y-65147890D01*
X130575470Y-62742520D02*
X130717710Y-62671390D01*
X143808870Y-65147890D02*
X143808870Y-65008200D01*
D12*
X80585680Y-124548330D02*
X80811740Y-124548330D01*
X80849890Y-76555040D02*
X80804170Y-76600760D01*
D14*
X146318340Y-55874360D02*
X146452950Y-56285830D01*
D12*
X69239490Y-81673130D02*
X69193780Y-81810290D01*
X80494210Y-89938320D02*
X80440870Y-90093260D01*
D10*
X142947750Y-68117150D02*
X143089990Y-68259390D01*
D12*
X87497780Y-80973830D02*
X87452050Y-80928110D01*
D11*
X95889180Y-115902180D02*
X95978080Y-115993620D01*
X94001950Y-103004050D02*
X94956990Y-103004050D01*
X96298110Y-116384780D02*
X96343840Y-116521940D01*
D10*
X141792110Y-61825570D02*
X141934350Y-61754460D01*
X138721250Y-64584020D02*
X138510430Y-64584020D01*
D12*
X80336730Y-95160560D02*
X80494210Y-95211360D01*
X87614510Y-100831570D02*
X87718650Y-100935710D01*
D10*
X197044730Y-61967810D02*
X196973610Y-62178630D01*
D11*
X95978080Y-105665970D02*
X95889180Y-105757410D01*
D12*
X87487620Y-123356270D02*
X87624780Y-123401980D01*
X80077650Y-93362240D02*
X81167310Y-93362240D01*
X80077650Y-110720600D02*
X80545010Y-110771400D01*
X80753290Y-86308660D02*
X80753290Y-86049580D01*
D10*
X152488050Y-66064830D02*
X152416930Y-66064830D01*
D12*
X65119620Y-80527600D02*
X65256780Y-80438700D01*
X68284460Y-79984040D02*
X68647680Y-80255810D01*
D10*
X171919050Y-61754460D02*
X171919050Y-62742520D01*
D12*
X80440950Y-75937810D02*
X80440950Y-75800650D01*
D14*
X134316840Y-56285830D02*
X134453990Y-55874360D01*
D12*
X68739120Y-79984040D02*
X68873730Y-79938310D01*
D10*
X171863170Y-65290130D02*
X171863170Y-65358710D01*
X186996490Y-65500960D02*
X187138730Y-65358710D01*
D12*
X65256780Y-80438700D02*
X65302490Y-80301540D01*
X81116510Y-88919780D02*
X81012370Y-88815640D01*
D10*
X142284870Y-65500960D02*
X142427110Y-65358710D01*
D12*
X86679790Y-102525750D02*
X87769450Y-102525750D01*
D10*
X186503730Y-64655130D02*
X186361490Y-64797380D01*
D12*
X80128450Y-99321080D02*
X80232590Y-99425220D01*
X80948900Y-124502620D02*
X81040340Y-124456890D01*
D11*
X94228020Y-111939780D02*
X94273740Y-111894050D01*
D10*
X179346010Y-62671390D02*
X179485710Y-62742520D01*
X165873850Y-62529150D02*
X166016090Y-62671390D01*
X157067670Y-61261700D02*
X157067670Y-62742520D01*
X146343740Y-66849700D02*
X146132920Y-66920810D01*
D12*
X80077650Y-89023920D02*
X80077650Y-89232200D01*
D11*
X94139110Y-82084620D02*
X94047680Y-82176050D01*
D10*
X184982270Y-62742520D02*
X185121970Y-62671390D01*
X151840350Y-62671390D02*
X151980050Y-62742520D01*
D12*
X80232590Y-103616220D02*
X80336730Y-103669560D01*
D11*
X93910520Y-91104150D02*
X94047680Y-91149880D01*
D10*
X130293530Y-61261700D02*
X130153830Y-61332810D01*
D12*
X87124390Y-121730670D02*
X87761930Y-121456350D01*
D10*
X133902870Y-64584020D02*
X134042570Y-64655130D01*
D12*
X81167310Y-99008660D02*
X81116510Y-98907060D01*
D11*
X95843450Y-108238990D02*
X96798490Y-108876540D01*
D10*
X131182530Y-65008200D02*
X131182530Y-65147890D01*
D12*
X86783930Y-118555690D02*
X86730590Y-118502350D01*
X71261340Y-79984040D02*
X71352770Y-80072940D01*
D10*
X171299290Y-65008200D02*
X171652350Y-65079310D01*
D11*
X93684450Y-98967990D02*
X94093400Y-99013710D01*
D10*
X137339490Y-62742520D02*
X137550310Y-62742520D01*
X146343740Y-68330520D02*
X146132920Y-68259390D01*
D12*
X80232590Y-102993920D02*
X80128450Y-103098060D01*
D10*
X143511630Y-68330520D02*
X143653880Y-68259390D01*
D12*
X80595810Y-110149100D02*
X80753290Y-110095760D01*
D11*
X94456610Y-98076460D02*
X94593770Y-97985020D01*
X95843450Y-109493760D02*
X96798490Y-109493760D01*
D12*
X80699950Y-116547360D02*
X80699950Y-115612640D01*
D10*
X187138730Y-64797380D02*
X186996490Y-64655130D01*
D12*
X80336730Y-102940580D02*
X80232590Y-102993920D01*
D10*
X159153010Y-61754460D02*
X159153010Y-62742520D01*
D11*
X94502340Y-102503680D02*
X94593770Y-102595120D01*
D12*
X87510370Y-94359650D02*
X87355430Y-94359650D01*
X80336730Y-103669560D02*
X80494210Y-103720360D01*
D11*
X95843450Y-115058890D02*
X96524180Y-115058890D01*
D14*
X171817400Y-56285830D02*
X172089180Y-56557620D01*
D10*
X169721950Y-61543630D02*
X169721950Y-62742520D01*
X172538810Y-65572070D02*
X172749630Y-65572070D01*
D12*
X80181790Y-90852720D02*
X80285930Y-90801920D01*
X62495790Y-80001810D02*
X62724390Y-80047540D01*
D10*
X179346010Y-61825570D02*
X179203770Y-61967810D01*
X129871840Y-66849700D02*
X129871840Y-68330520D01*
X186813610Y-61754460D02*
X187306370Y-61754460D01*
X175513150Y-65500960D02*
X175370910Y-65572070D01*
X174596210Y-62249750D02*
X174738450Y-62318330D01*
X191774230Y-64584020D02*
X191774230Y-65572070D01*
D12*
X87459570Y-88941830D02*
X87614510Y-88995170D01*
D10*
X182305110Y-65147890D02*
X182373690Y-65358710D01*
D11*
X94502340Y-76222290D02*
X94593770Y-76130860D01*
D12*
X86679790Y-86236730D02*
X86679790Y-86445010D01*
X87043120Y-80310880D02*
X87043120Y-80173720D01*
X86730590Y-103026130D02*
X86679790Y-103127730D01*
D10*
X133267870Y-64655130D02*
X133338990Y-64865960D01*
X146541910Y-62529150D02*
X146681610Y-62671390D01*
D12*
X87769450Y-89254250D02*
X87769450Y-89411730D01*
D10*
X179838770Y-61825570D02*
X179696530Y-61754460D01*
D12*
X86834730Y-83940570D02*
X86938870Y-83889770D01*
X86679790Y-114125930D02*
X86730590Y-114024330D01*
D10*
X131817470Y-68259390D02*
X131957180Y-68117150D01*
D11*
X93910520Y-78668310D02*
X93819080Y-78711490D01*
D10*
X131746410Y-61754460D02*
X131604170Y-61825570D01*
D12*
X67288780Y-81810290D02*
X67243050Y-81856020D01*
D11*
X94047680Y-102595120D02*
X94139110Y-102503680D01*
D12*
X86814520Y-78220460D02*
X87634930Y-78220460D01*
D10*
X144060330Y-62671390D02*
X144202570Y-62742520D01*
D12*
X80753290Y-89544620D02*
X80908230Y-89491280D01*
D14*
X174898420Y-57238330D02*
X174626630Y-57512650D01*
D11*
X96798490Y-103458710D02*
X96798490Y-103321550D01*
D10*
X171652350Y-65079310D02*
X171792050Y-65147890D01*
D14*
X149399360Y-54921860D02*
X149671130Y-54784700D01*
D10*
X193577630Y-64584020D02*
X193366810Y-64584020D01*
X162660750Y-62249750D02*
X162802990Y-62318330D01*
D12*
X80336730Y-89491280D02*
X80494210Y-89544620D01*
D10*
X162802990Y-62671390D02*
X162592170Y-62742520D01*
D12*
X69010890Y-80918760D02*
X69056620Y-80964470D01*
X66379460Y-81810290D02*
X66788390Y-81856020D01*
D10*
X150882770Y-61754460D02*
X150669410Y-61754460D01*
D11*
X94410900Y-119049230D02*
X94502340Y-119094960D01*
D10*
X193859570Y-65358710D02*
X193930690Y-65147890D01*
X138932070Y-64726250D02*
X138860950Y-64655130D01*
D12*
X81131770Y-122175970D02*
X81177490Y-122313130D01*
D10*
X151980050Y-61754460D02*
X151840350Y-61825570D01*
X166508850Y-62671390D02*
X166648550Y-62529150D01*
D12*
X80494210Y-83908360D02*
X80753290Y-83908360D01*
D11*
X94001950Y-88340630D02*
X94047680Y-88249200D01*
D12*
X86938870Y-83889770D02*
X87096350Y-83836430D01*
D11*
X96160950Y-119003520D02*
X96160950Y-119140680D01*
D10*
X151599050Y-64091250D02*
X151599050Y-65290130D01*
D12*
X87716210Y-123902360D02*
X87670500Y-123948090D01*
D11*
X94639490Y-112076940D02*
X94639490Y-112257280D01*
D12*
X64891020Y-83019330D02*
X64891020Y-82201460D01*
D10*
X167946490Y-65572070D02*
X168157310Y-65572070D01*
X132099470Y-62671390D02*
X132239170Y-62529150D01*
D11*
X94001950Y-102686550D02*
X94047680Y-102595120D01*
D10*
X171454230Y-62318330D02*
X171454230Y-62178630D01*
D12*
X80077730Y-75666040D02*
X80440950Y-75937810D01*
D10*
X166155790Y-62742520D02*
X166366610Y-62742520D01*
D12*
X87510370Y-92271770D02*
X87614510Y-92322570D01*
X80440870Y-109130560D02*
X81167310Y-109442980D01*
X86679790Y-92947410D02*
X87769450Y-92947410D01*
D11*
X94001950Y-87012210D02*
X94001950Y-86694710D01*
X93730180Y-124157180D02*
X93684450Y-124068280D01*
X93684450Y-96730260D02*
X94639490Y-96958860D01*
D12*
X81012370Y-99425220D02*
X81116510Y-99321080D01*
X80585680Y-121993100D02*
X80811740Y-121993100D01*
X69102340Y-81309910D02*
X69193780Y-81401360D01*
X87510370Y-86706630D02*
X87614510Y-86653290D01*
D10*
X143849510Y-62178630D02*
X143849510Y-62318330D01*
X152909690Y-65572070D02*
X152769990Y-65854020D01*
D14*
X147136220Y-56694780D02*
X147407990Y-56694780D01*
D10*
X137057550Y-62529150D02*
X137199790Y-62671390D01*
D11*
X94184840Y-103804150D02*
X94047680Y-103666990D01*
D10*
X146132920Y-67413570D02*
X146272610Y-67484700D01*
D14*
X140971630Y-54784700D02*
X140971630Y-56694780D01*
D10*
X130857410Y-61472520D02*
X130717710Y-61332810D01*
D12*
X63270490Y-79773210D02*
X63270490Y-79681780D01*
D11*
X94502340Y-85013230D02*
X94593770Y-85104680D01*
D10*
X166719670Y-62178630D02*
X166648550Y-61967810D01*
D12*
X81012370Y-110149100D02*
X81116510Y-110253240D01*
D10*
X168510370Y-64584020D02*
X168510370Y-65572070D01*
D12*
X62450070Y-81810290D02*
X62315460Y-81673130D01*
D11*
X93730180Y-76130860D02*
X93819080Y-76222290D01*
D14*
X177435880Y-56966550D02*
X177161560Y-57375490D01*
D10*
X139003190Y-64865960D02*
X138932070Y-64726250D01*
D14*
X171680240Y-55874360D02*
X171817400Y-56285830D01*
D10*
X193930690Y-65147890D02*
X193930690Y-65008200D01*
X162167990Y-62107520D02*
X162310230Y-62178630D01*
X184418390Y-62178630D02*
X184418390Y-62318330D01*
D11*
X94365180Y-82630710D02*
X94502340Y-82584990D01*
D12*
X87170120Y-122347880D02*
X87170120Y-122210720D01*
D10*
X199130070Y-62036390D02*
X199058950Y-61896700D01*
D11*
X93730180Y-99856990D02*
X93684450Y-99768100D01*
X94047680Y-81647730D02*
X94001950Y-81558830D01*
D12*
X86888070Y-117984190D02*
X86992210Y-117984190D01*
X80649150Y-91061000D02*
X80649150Y-91528360D01*
D10*
X193013750Y-65147890D02*
X193084870Y-65358710D01*
D11*
X94001950Y-102158230D02*
X94456610Y-102158230D01*
D10*
X192338110Y-64584020D02*
X192477810Y-64655130D01*
X177146370Y-61825570D02*
X177288610Y-61967810D01*
D11*
X94001950Y-89620790D02*
X94639490Y-89620790D01*
D10*
X147034670Y-62742520D02*
X147174370Y-62671390D01*
X195873790Y-62671390D02*
X196016030Y-62742520D01*
D12*
X80494210Y-89544620D02*
X80753290Y-89544620D01*
D10*
X166706970Y-64584020D02*
X166564730Y-64655130D01*
D12*
X80857430Y-89938320D02*
X80961570Y-89887520D01*
D10*
X134113690Y-64865960D02*
X134113690Y-65572070D01*
D11*
X96798490Y-119140680D02*
X96798490Y-119003520D01*
D12*
X80268180Y-124365460D02*
X80357080Y-124456890D01*
D11*
X94593770Y-76793790D02*
X94639490Y-76930960D01*
D12*
X87096350Y-97608310D02*
X87197950Y-97504170D01*
D11*
X95843450Y-115767550D02*
X95889180Y-115902180D01*
D12*
X80336730Y-98749580D02*
X80232590Y-98802920D01*
D10*
X182642930Y-61754460D02*
X182642930Y-62742520D01*
D12*
X67197340Y-80918760D02*
X67151620Y-80873040D01*
D11*
X93910520Y-76659180D02*
X94047680Y-76613460D01*
D12*
X80235210Y-81510700D02*
X80077730Y-81355760D01*
D11*
X96160950Y-120057620D02*
X96252400Y-120103330D01*
D14*
X141380580Y-54921860D02*
X141654900Y-54784700D01*
D12*
X80077650Y-92656120D02*
X80128450Y-92498640D01*
X86806890Y-122573950D02*
X86806890Y-122076110D01*
D11*
X94273740Y-119003520D02*
X94410900Y-119049230D01*
D12*
X86679790Y-103127730D02*
X86679790Y-103336010D01*
D10*
X145866270Y-62671390D02*
X146005970Y-62529150D01*
D12*
X86679790Y-98075670D02*
X87147150Y-98126470D01*
D11*
X96752770Y-119229570D02*
X96798490Y-119140680D01*
D12*
X69148050Y-80527600D02*
X69056620Y-80573310D01*
D11*
X93684450Y-77248460D02*
X94639490Y-77248460D01*
X94001950Y-98693680D02*
X94047680Y-98559050D01*
D12*
X81116510Y-86621080D02*
X81167310Y-86516940D01*
D10*
X182373690Y-64797380D02*
X182305110Y-65008200D01*
D12*
X87124390Y-121184560D02*
X87761930Y-121456350D01*
X63041890Y-80392970D02*
X63087620Y-80438700D01*
D10*
X196226850Y-61754460D02*
X196016030Y-61754460D01*
D12*
X87543500Y-80582670D02*
X87452050Y-80628380D01*
D10*
X198355370Y-61967810D02*
X198284250Y-62178630D01*
D13*
X87309080Y-111650320D02*
X87309080Y-110832440D01*
D12*
X80212350Y-78292390D02*
X81032770Y-78292390D01*
X81116510Y-99321080D02*
X81167310Y-99216940D01*
D14*
X129871840Y-53829650D02*
X131098650Y-53829650D01*
X136445360Y-54784700D02*
X135899250Y-56694780D01*
D12*
X64710680Y-81401360D02*
X64802120Y-81309910D01*
D11*
X96206680Y-101312410D02*
X96160950Y-101403860D01*
D12*
X80232590Y-92394500D02*
X80336730Y-92343700D01*
X81012370Y-86725220D02*
X81116510Y-86621080D01*
X71398490Y-81538520D02*
X71398490Y-81673130D01*
D10*
X188545890Y-61825570D02*
X188617010Y-62036390D01*
D11*
X93864790Y-94639830D02*
X94001950Y-94639830D01*
D12*
X80753290Y-118731760D02*
X80857430Y-118731760D01*
X80077650Y-86516940D02*
X80128450Y-86621080D01*
D14*
X141654900Y-54784700D02*
X142063840Y-54784700D01*
D10*
X146836490Y-68259390D02*
X146625680Y-68330520D01*
D11*
X96524180Y-101767070D02*
X96661340Y-101721360D01*
D10*
X142355990Y-62036390D02*
X142355990Y-62742520D01*
X145823090Y-64865960D02*
X145823090Y-65572070D01*
X130435770Y-65572070D02*
X130575470Y-65500960D01*
X175723970Y-65147890D02*
X175652850Y-65358710D01*
D14*
X161616750Y-53829650D02*
X161753920Y-53966810D01*
D12*
X62859020Y-83019330D02*
X62859020Y-82201460D01*
D11*
X96798490Y-103321550D02*
X96752770Y-103230120D01*
D10*
X196366550Y-62671390D02*
X196508790Y-62529150D01*
D12*
X87269180Y-79993380D02*
X87360620Y-79993380D01*
X87096350Y-113970990D02*
X87251290Y-114075130D01*
X68739120Y-81309910D02*
X68873730Y-81264200D01*
D13*
X87629120Y-110487000D02*
X87537680Y-110532720D01*
D12*
X80077650Y-91528360D02*
X81167310Y-91528360D01*
X68647680Y-80255810D02*
X68647680Y-80118650D01*
X87772040Y-106799220D02*
X87772040Y-106593480D01*
D10*
X150852290Y-64020130D02*
X150783710Y-64091250D01*
X134085750Y-61261700D02*
X134649630Y-62742520D01*
D11*
X93684450Y-78894380D02*
X93684450Y-79077260D01*
X94593770Y-101175260D02*
X94639490Y-101086360D01*
X96298110Y-103639050D02*
X96432740Y-103684780D01*
D10*
X176653610Y-62671390D02*
X176513910Y-62529150D01*
D12*
X86679790Y-85634750D02*
X87769450Y-84908310D01*
D11*
X94502340Y-111502890D02*
X94593770Y-111411460D01*
D12*
X87510370Y-102868650D02*
X87355430Y-102868650D01*
D11*
X94093400Y-99013710D02*
X94047680Y-98967990D01*
D12*
X68965180Y-79938310D02*
X69102340Y-79984040D01*
X87302090Y-116475430D02*
X87302090Y-115540710D01*
D10*
X130717710Y-62671390D02*
X130857410Y-62529150D01*
D12*
X87134550Y-81364980D02*
X87269180Y-81319270D01*
D10*
X154065390Y-61754460D02*
X154278750Y-61754460D01*
D12*
X81167310Y-89232200D02*
X81167310Y-89023920D01*
D14*
X138845650Y-54921860D02*
X138571340Y-55193630D01*
D11*
X94001950Y-88475260D02*
X94001950Y-88340630D01*
D10*
X187095550Y-62671390D02*
X187235250Y-62742520D01*
D11*
X94639490Y-102821180D02*
X94593770Y-102912620D01*
X93819080Y-90512330D02*
X93730180Y-90603780D01*
D14*
X138436720Y-55874360D02*
X138571340Y-56285830D01*
D10*
X185121970Y-63164150D02*
X184982270Y-63235280D01*
D11*
X96661340Y-118475200D02*
X96752770Y-118386290D01*
D12*
X86679840Y-105988960D02*
X86679840Y-105521600D01*
D10*
X182642930Y-61190570D02*
X182571810Y-61261700D01*
D12*
X80440900Y-104939540D02*
X81167340Y-105251960D01*
D14*
X134453990Y-55874360D02*
X134453990Y-55602570D01*
D10*
X165889090Y-64584020D02*
X165464910Y-65572070D01*
X156320910Y-62671390D02*
X156460610Y-62742520D01*
D12*
X81012370Y-96712500D02*
X81116510Y-96816640D01*
D11*
X93730180Y-75767630D02*
X93684450Y-75859070D01*
D10*
X146541910Y-61967810D02*
X146470790Y-62178630D01*
D11*
X93775900Y-99448050D02*
X93864790Y-99402330D01*
D12*
X80336730Y-92343700D02*
X80494210Y-92290360D01*
X62587230Y-80784130D02*
X62678680Y-80827310D01*
X80128450Y-103512080D02*
X80232590Y-103616220D01*
D11*
X94502340Y-118612360D02*
X94593770Y-118520910D01*
X96298110Y-118475200D02*
X96432740Y-118520910D01*
D12*
X80621290Y-78701330D02*
X80621290Y-77883460D01*
D11*
X96798490Y-118157700D02*
X96752770Y-118066260D01*
D10*
X184489510Y-62529150D02*
X184629210Y-62671390D01*
X152488050Y-64584020D02*
X152909690Y-65572070D01*
D11*
X95843450Y-104622040D02*
X96798490Y-104622040D01*
D12*
X80595810Y-89887520D02*
X80494210Y-89938320D01*
D11*
X96798490Y-114693130D02*
X96752770Y-114558520D01*
D14*
X141108790Y-55193630D02*
X141380580Y-54921860D01*
D10*
X173849450Y-65572070D02*
X173709750Y-65500960D01*
X171990170Y-61967810D02*
X172129870Y-61825570D01*
D12*
X65119620Y-79984040D02*
X64891020Y-79938310D01*
D13*
X87446240Y-109895180D02*
X87583400Y-109940900D01*
D12*
X70760950Y-79092490D02*
X71398490Y-79364280D01*
X80753290Y-99529360D02*
X80908230Y-99478560D01*
X80128450Y-84116640D02*
X80232590Y-84012500D01*
D10*
X134296520Y-68330520D02*
X134436220Y-68259390D01*
D12*
X86679790Y-114334210D02*
X86679790Y-114125930D01*
D10*
X167255610Y-62671390D02*
X167395310Y-62742520D01*
X191774230Y-64865960D02*
X191985050Y-64655130D01*
D14*
X159353610Y-55465410D02*
X159625400Y-55602570D01*
D10*
X196508790Y-61754460D02*
X196508790Y-62742520D01*
D12*
X80494210Y-88711500D02*
X80336730Y-88764840D01*
X66559790Y-80527600D02*
X66788390Y-80573310D01*
D11*
X94593770Y-93357130D02*
X94639490Y-93268230D01*
X94593770Y-90075460D02*
X94639490Y-89986550D01*
D12*
X80077650Y-102597680D02*
X81167310Y-101871240D01*
X87452050Y-76574540D02*
X87497780Y-76528830D01*
D11*
X93684450Y-95277380D02*
X93684450Y-94865890D01*
D10*
X163069690Y-64091250D02*
X163069690Y-65290130D01*
X167268310Y-65008200D02*
X167199730Y-64797380D01*
D12*
X86834730Y-103544290D02*
X86938870Y-103597630D01*
D11*
X94502340Y-75676200D02*
X94410900Y-75630470D01*
D14*
X139526380Y-56694780D02*
X139798150Y-56557620D01*
D12*
X80448520Y-122038810D02*
X80585680Y-121993100D01*
D14*
X137535020Y-54784700D02*
X136988920Y-56694780D01*
D11*
X96160950Y-103984490D02*
X96252400Y-104030210D01*
D12*
X87497780Y-81364980D02*
X87589210Y-81456430D01*
D11*
X94502340Y-106176520D02*
X94593770Y-106267960D01*
X96343840Y-120286210D02*
X96343840Y-120695150D01*
X94093400Y-112302990D02*
X94184840Y-112031210D01*
D12*
X87716210Y-123493430D02*
X87761930Y-123630590D01*
X87624780Y-123401980D02*
X87716210Y-123493430D01*
D10*
X189152950Y-61967810D02*
X189081830Y-62178630D01*
D11*
X94639490Y-76930960D02*
X94639490Y-77248460D01*
D14*
X165025430Y-56420460D02*
X165299750Y-56966550D01*
D12*
X87134550Y-75594110D02*
X87269180Y-75548380D01*
X87045600Y-105262520D02*
X87147200Y-105313320D01*
D11*
X94047680Y-91149880D02*
X94273740Y-91149880D01*
D10*
X176892370Y-65500960D02*
X177034610Y-65358710D01*
D11*
X95843450Y-106031730D02*
X95889180Y-106120630D01*
D10*
X138510430Y-65572070D02*
X138721250Y-65572070D01*
X131393350Y-62318330D02*
X131464470Y-62529150D01*
D12*
X70443450Y-79984040D02*
X70806680Y-80255810D01*
D11*
X95889180Y-106694680D02*
X95934900Y-106648960D01*
D10*
X129943010Y-64797380D02*
X129871890Y-65008200D01*
D11*
X94502340Y-98467620D02*
X94593770Y-98559050D01*
X94639490Y-78894380D02*
X94593770Y-78802940D01*
D10*
X184982270Y-61754460D02*
X184771450Y-61754460D01*
X175160090Y-64584020D02*
X175370910Y-64584020D01*
X169325710Y-64584020D02*
X169539070Y-64584020D01*
D12*
X80077680Y-106529570D02*
X80545040Y-106580380D01*
D10*
X185121970Y-62671390D02*
X185264210Y-62529150D01*
D12*
X66379460Y-80301540D02*
X66425180Y-80438700D01*
D10*
X164634330Y-63164150D02*
X164494630Y-63235280D01*
D11*
X94639490Y-94111520D02*
X94639490Y-93976890D01*
D10*
X193084870Y-65358710D02*
X193224570Y-65500960D01*
X145398910Y-64584020D02*
X145612270Y-64584020D01*
X194606330Y-64091250D02*
X194606330Y-65290130D01*
D12*
X80222450Y-122313130D02*
X80268180Y-122175970D01*
X86997390Y-79693670D02*
X87634930Y-79419350D01*
D14*
X129871840Y-53829650D02*
X129871840Y-56694780D01*
D11*
X94047680Y-90420890D02*
X93910520Y-90466620D01*
D10*
X171792050Y-65147890D02*
X171863170Y-65290130D01*
D14*
X156816150Y-54784700D02*
X156816150Y-56148680D01*
D11*
X94410900Y-76659180D02*
X94502340Y-76702360D01*
D12*
X80895610Y-76600760D02*
X80849890Y-76555040D01*
D10*
X130857410Y-62529150D02*
X130928530Y-62389460D01*
D11*
X93730180Y-85556790D02*
X93819080Y-85648230D01*
D12*
X80494290Y-80388020D02*
X80649230Y-80492160D01*
D16*
X97488870Y-125950160D02*
X77552920Y-125950160D01*
D11*
X93819080Y-79257600D02*
X93910520Y-79303310D01*
D12*
X81116510Y-90405680D02*
X81012370Y-90459020D01*
D10*
X135960270Y-65500960D02*
X136099970Y-65572070D01*
X179696530Y-61754460D02*
X179485710Y-61754460D01*
X160237590Y-65008200D02*
X160237590Y-65147890D01*
D14*
X132818240Y-55193630D02*
X132681080Y-55602570D01*
D12*
X87533340Y-123010830D02*
X87579050Y-123056540D01*
D11*
X95889180Y-119712180D02*
X95843450Y-119666460D01*
D12*
X87624780Y-123010830D02*
X87579050Y-122965110D01*
D11*
X95843450Y-116521940D02*
X95889180Y-116384780D01*
X96387020Y-115450050D02*
X96432740Y-115404330D01*
D10*
X162592170Y-61754460D02*
X162378810Y-61754460D01*
D11*
X96661340Y-117977360D02*
X96524180Y-117931630D01*
D12*
X86730590Y-103440150D02*
X86834730Y-103544290D01*
D10*
X145231270Y-61967810D02*
X145160150Y-62178630D01*
X132775110Y-64655130D02*
X132914810Y-64584020D01*
D12*
X80440900Y-106217150D02*
X80494240Y-106062210D01*
D11*
X94228020Y-78366050D02*
X94228020Y-77548180D01*
D10*
X138860950Y-64655130D02*
X138721250Y-64584020D01*
D12*
X71124180Y-81264200D02*
X71261340Y-81309910D01*
X68693390Y-81355630D02*
X68739120Y-81309910D01*
X87261550Y-123401980D02*
X87396180Y-123356270D01*
X87617100Y-107007500D02*
X87718700Y-106903360D01*
D10*
X182305110Y-65008200D02*
X182305110Y-65147890D01*
D12*
X70898110Y-79984040D02*
X71032740Y-79938310D01*
D14*
X166745020Y-56694780D02*
X168380770Y-56694780D01*
D12*
X80494240Y-106529570D02*
X80440900Y-106374630D01*
D10*
X133057050Y-63024460D02*
X132914810Y-63164150D01*
X135678330Y-62178630D02*
X135678330Y-62318330D01*
X165802730Y-62318330D02*
X165873850Y-62529150D01*
X137832250Y-61967810D02*
X137692550Y-61825570D01*
D12*
X87223460Y-78629400D02*
X87223460Y-77811530D01*
D10*
X199130070Y-62178630D02*
X199130070Y-62036390D01*
X149544190Y-64865960D02*
X149755010Y-64655130D01*
D12*
X62315460Y-81147360D02*
X62315460Y-80964470D01*
D10*
X146470790Y-62178630D02*
X146470790Y-62318330D01*
X168975190Y-64584020D02*
X168975190Y-65572070D01*
D11*
X94593770Y-105239260D02*
X94502340Y-105147810D01*
D12*
X80857430Y-114540760D02*
X81012370Y-114594100D01*
D11*
X93684450Y-92648470D02*
X94639490Y-92648470D01*
D12*
X80753290Y-92290360D02*
X80908230Y-92343700D01*
D10*
X141792110Y-64655130D02*
X141652410Y-64797380D01*
X192858810Y-61332810D02*
X192929930Y-61261700D01*
D14*
X139117430Y-56694780D02*
X139526380Y-56694780D01*
D12*
X81167310Y-119044180D02*
X81167310Y-119201660D01*
D10*
X167184490Y-62460570D02*
X167255610Y-62671390D01*
D12*
X86679790Y-118398210D02*
X86679790Y-118189930D01*
X81012370Y-102993920D02*
X80908230Y-102940580D01*
D11*
X96206680Y-100784100D02*
X96160950Y-100695200D01*
D10*
X180514410Y-62178630D02*
X180585530Y-61967810D01*
X157433430Y-64584020D02*
X157433430Y-65572070D01*
X185264210Y-64584020D02*
X184982270Y-65572070D01*
D12*
X67288780Y-80438700D02*
X67334490Y-80301540D01*
X80494210Y-90405680D02*
X80595810Y-90459020D01*
D10*
X189645710Y-62742520D02*
X189787950Y-62671390D01*
D12*
X68647680Y-81584230D02*
X68647680Y-81447070D01*
D10*
X189434890Y-62742520D02*
X189645710Y-62742520D01*
X136242210Y-61754460D02*
X136028850Y-61754460D01*
X165325210Y-65854020D02*
X165182970Y-65993710D01*
D11*
X94639490Y-105330700D02*
X94593770Y-105239260D01*
D12*
X86733180Y-106489340D02*
X86679840Y-106593480D01*
D11*
X94593770Y-87449100D02*
X94456610Y-87311940D01*
D10*
X143244990Y-62742520D02*
X143384690Y-62742520D01*
D12*
X87043010Y-117587950D02*
X87769450Y-117275530D01*
D16*
X77552920Y-74350310D02*
X97488870Y-74350310D01*
D12*
X87769450Y-86236730D02*
X87718650Y-86135130D01*
D10*
X136988970Y-62178630D02*
X136988970Y-62318330D01*
D12*
X80232590Y-98802920D02*
X80128450Y-98907060D01*
D10*
X189081830Y-62318330D02*
X189152950Y-62529150D01*
X175020390Y-64655130D02*
X175160090Y-64584020D01*
X135071270Y-65572070D02*
X134860450Y-65572070D01*
D11*
X96752770Y-118066260D02*
X96661340Y-117977360D01*
D10*
X130224950Y-65572070D02*
X130435770Y-65572070D01*
X177105730Y-65008200D02*
X177034610Y-64797380D01*
X137057550Y-61967810D02*
X136988970Y-62178630D01*
X141792110Y-65500960D02*
X141934350Y-65572070D01*
D14*
X136445360Y-54784700D02*
X136988920Y-56694780D01*
D11*
X95843450Y-122948130D02*
X96798490Y-122948130D01*
X96343840Y-116521940D02*
X96343840Y-116930880D01*
X96432740Y-106303520D02*
X96569900Y-106257790D01*
D12*
X87088840Y-75637280D02*
X87134550Y-75594110D01*
D11*
X94639490Y-124294330D02*
X94639490Y-123656790D01*
D12*
X62495790Y-79455710D02*
X62361180Y-79547150D01*
X64891020Y-79938310D02*
X64756390Y-79938310D01*
D14*
X165299750Y-53966810D02*
X165025430Y-54512910D01*
D12*
X81116510Y-114698240D02*
X81167310Y-114853180D01*
X80336730Y-94431580D02*
X80232590Y-94484920D01*
D10*
X160590650Y-65572070D02*
X160801470Y-65572070D01*
D11*
X94639490Y-82267490D02*
X94593770Y-82176050D01*
D12*
X80699950Y-90405680D02*
X80753290Y-90301540D01*
D10*
X136338680Y-67413570D02*
X136480920Y-67342460D01*
D11*
X94593770Y-85556790D02*
X94502340Y-85648230D01*
D10*
X145370970Y-62671390D02*
X145513210Y-62742520D01*
D12*
X87043010Y-112901650D02*
X87769450Y-113211530D01*
D11*
X94047680Y-121002490D02*
X94001950Y-120913600D01*
X96298110Y-118820630D02*
X96206680Y-118912070D01*
X93684450Y-122902410D02*
X94319450Y-123357070D01*
D12*
X64891020Y-80573310D02*
X65119620Y-80527600D01*
D11*
X94593770Y-79831630D02*
X94639490Y-79966260D01*
X95843450Y-122330910D02*
X96798490Y-121693380D01*
D10*
X151840350Y-61825570D02*
X151698110Y-61967810D01*
X137720430Y-67342460D02*
X137580740Y-67413570D01*
D12*
X70852400Y-80027210D02*
X70898110Y-79984040D01*
X81012400Y-105958070D02*
X81116540Y-106062210D01*
D10*
X169932770Y-61261700D02*
X169790530Y-61332810D01*
X189729530Y-65572070D02*
X189942890Y-65572070D01*
D11*
X96432740Y-103095490D02*
X96298110Y-103138680D01*
X94639490Y-90695210D02*
X94593770Y-90603780D01*
D12*
X87761930Y-122302170D02*
X87761930Y-122439330D01*
X86992210Y-113920190D02*
X87096350Y-113970990D01*
D10*
X129871890Y-61825570D02*
X129871890Y-62178630D01*
D12*
X87355430Y-100727430D02*
X87510370Y-100780770D01*
D10*
X142963050Y-64797380D02*
X142891930Y-65008200D01*
D12*
X80811740Y-121993100D02*
X80948900Y-122038810D01*
D11*
X95843450Y-110113520D02*
X96798490Y-110113520D01*
X96343840Y-101220970D02*
X96252400Y-101266700D01*
X93684450Y-101220970D02*
X94456610Y-101220970D01*
D12*
X87716210Y-122573950D02*
X87670500Y-122619670D01*
X80222450Y-122630630D02*
X80222450Y-122313130D01*
X80908230Y-83961700D02*
X81012370Y-84012500D01*
D10*
X153925690Y-61825570D02*
X154065390Y-61754460D01*
D12*
X80357080Y-123910790D02*
X80268180Y-124002230D01*
D10*
X190082590Y-64655130D02*
X189942890Y-64584020D01*
D12*
X80440870Y-110565660D02*
X80440870Y-110408180D01*
D10*
X136833970Y-67413570D02*
X136902560Y-67624390D01*
X194677450Y-65500960D02*
X194817150Y-65572070D01*
D11*
X93864790Y-124248620D02*
X93775900Y-124202890D01*
D12*
X80699970Y-107911330D02*
X80699970Y-106976620D01*
D10*
X151698110Y-61967810D02*
X151629530Y-62178630D01*
D11*
X93684450Y-105513570D02*
X93730180Y-105602470D01*
D10*
X187842310Y-62036390D02*
X188053130Y-61825570D01*
X159013310Y-61825570D02*
X158871070Y-61754460D01*
D11*
X94456610Y-86875050D02*
X94593770Y-86831880D01*
D10*
X166917790Y-64584020D02*
X166706970Y-64584020D01*
X176513910Y-61754460D02*
X176513910Y-63235280D01*
D11*
X96206680Y-118912070D02*
X96160950Y-119003520D01*
D14*
X149671130Y-54784700D02*
X150080080Y-54784700D01*
D11*
X96798490Y-118294860D02*
X96798490Y-118157700D01*
D10*
X197326670Y-63235280D02*
X197184430Y-63164150D01*
X182714050Y-61261700D02*
X182642930Y-61190570D01*
D11*
X94593770Y-90966990D02*
X94639490Y-90875550D01*
D10*
X144400630Y-66849700D02*
X144964520Y-67555810D01*
X144060330Y-61825570D02*
X143920630Y-61967810D01*
D12*
X87170120Y-123676300D02*
X87170120Y-123539140D01*
D10*
X171088470Y-64797380D02*
X171159590Y-64937070D01*
D11*
X94502340Y-110956790D02*
X94365180Y-110913620D01*
X94093400Y-93839730D02*
X94047680Y-93885460D01*
D12*
X80336730Y-99478560D02*
X80494210Y-99529360D01*
X86834730Y-100831570D02*
X86938870Y-100780770D01*
D10*
X193605570Y-61825570D02*
X193745270Y-61754460D01*
D11*
X93730180Y-108884150D02*
X93775900Y-108840970D01*
D12*
X87355480Y-106593480D02*
X87355480Y-106331860D01*
D10*
X174738450Y-62671390D02*
X174525090Y-62742520D01*
D11*
X93730180Y-90603780D02*
X93684450Y-90695210D01*
D10*
X163140810Y-65500960D02*
X163280510Y-65572070D01*
X135889150Y-62671390D02*
X136028850Y-62742520D01*
D12*
X65028180Y-81264200D02*
X65165340Y-81309910D01*
D10*
X133732630Y-67766630D02*
X134578450Y-67766630D01*
D11*
X96524180Y-114421360D02*
X95843450Y-114421360D01*
X94365180Y-102457960D02*
X94502340Y-102503680D01*
D12*
X64482070Y-82610390D02*
X65302490Y-82610390D01*
D11*
X94593770Y-76130860D02*
X94639490Y-76039410D01*
D12*
X80077650Y-114644900D02*
X80077650Y-115165600D01*
D14*
X172772430Y-56694780D02*
X173044220Y-56557620D01*
D11*
X93730180Y-118157700D02*
X93684450Y-118249130D01*
D10*
X139805770Y-67342460D02*
X139523840Y-68330520D01*
X131322180Y-67413570D02*
X131182470Y-67555810D01*
X183953570Y-62036390D02*
X183953570Y-62742520D01*
D12*
X80077650Y-118835900D02*
X80077650Y-119356600D01*
X81167310Y-115010660D02*
X81116510Y-115165600D01*
D10*
X146005970Y-61967810D02*
X145866270Y-61825570D01*
D11*
X96160950Y-116293330D02*
X96252400Y-116339050D01*
D10*
X181276410Y-64584020D02*
X180994470Y-65572070D01*
D12*
X80440950Y-77129070D02*
X80486670Y-77037630D01*
X80440950Y-75800650D02*
X80486670Y-75709210D01*
D10*
X130153830Y-61332810D02*
X130011590Y-61472520D01*
D12*
X70852400Y-81355630D02*
X70898110Y-81309910D01*
D10*
X129943010Y-62389460D02*
X130011590Y-62529150D01*
D12*
X64347460Y-81355630D02*
X64347460Y-81810290D01*
X86938870Y-100780770D02*
X87096350Y-100727430D01*
D11*
X93730180Y-78802940D02*
X93684450Y-78894380D01*
D10*
X150852290Y-64162380D02*
X150923410Y-64091250D01*
D12*
X62724390Y-80047540D02*
X62859020Y-80047540D01*
X87088840Y-80082280D02*
X87134550Y-80039110D01*
D10*
X180867470Y-61754460D02*
X181078290Y-61754460D01*
X187207310Y-65147890D02*
X187207310Y-65008200D01*
D11*
X94001950Y-83639100D02*
X94639490Y-83639100D01*
X96752770Y-118386290D02*
X96798490Y-118294860D01*
D10*
X171383110Y-62529150D02*
X171454230Y-62318330D01*
D11*
X94047680Y-79648760D02*
X94273740Y-79648760D01*
D10*
X142876630Y-67202750D02*
X142808060Y-67413570D01*
X170750650Y-62671390D02*
X170890350Y-62742520D01*
D11*
X93910520Y-109338810D02*
X93864790Y-109338810D01*
D12*
X86679790Y-89566670D02*
X87147150Y-89617470D01*
X69102340Y-79984040D02*
X69193780Y-80072940D01*
X80494210Y-103720360D02*
X80753290Y-103720360D01*
D11*
X93684450Y-111548620D02*
X94365180Y-111548620D01*
D12*
X81032770Y-77355130D02*
X80987050Y-77492290D01*
D10*
X175271850Y-61754460D02*
X175271850Y-62460570D01*
D12*
X71398490Y-81673130D02*
X71352770Y-81810290D01*
X80758450Y-76946200D02*
X80895610Y-76991910D01*
D11*
X95797740Y-119712180D02*
X95843450Y-119757890D01*
D10*
X165802730Y-62178630D02*
X165802730Y-62318330D01*
D11*
X93819080Y-111848330D02*
X93730180Y-111939780D01*
D12*
X80987050Y-77492290D02*
X80941330Y-77538020D01*
X87043120Y-81639300D02*
X87043120Y-81502140D01*
D11*
X93684450Y-116659100D02*
X94639490Y-117022310D01*
D10*
X161563470Y-61754460D02*
X160857350Y-62460570D01*
D12*
X80232590Y-95107220D02*
X80336730Y-95160560D01*
D11*
X93864790Y-112785600D02*
X94001950Y-112785600D01*
D12*
X81116510Y-89938320D02*
X81167310Y-90093260D01*
D10*
X173709750Y-64655130D02*
X173849450Y-64584020D01*
D11*
X94047680Y-76613460D02*
X94273740Y-76613460D01*
D14*
X172089180Y-56557620D02*
X172363490Y-56694780D01*
D12*
X86938870Y-92271770D02*
X87096350Y-92218430D01*
D11*
X95843450Y-112694150D02*
X96798490Y-112694150D01*
X93684450Y-83684810D02*
X93730180Y-83639100D01*
D10*
X172129870Y-61825570D02*
X172272110Y-61754460D01*
X177964250Y-61825570D02*
X178106490Y-61754460D01*
X194395510Y-64584020D02*
X194888270Y-64584020D01*
D12*
X80908230Y-96661700D02*
X81012370Y-96712500D01*
D10*
X165873850Y-61967810D02*
X165802730Y-62178630D01*
D12*
X87350460Y-125111400D02*
X87350460Y-124293530D01*
X81177490Y-124276550D02*
X81177490Y-124093680D01*
D11*
X96432740Y-101220970D02*
X96343840Y-101220970D01*
D10*
X177288610Y-62529150D02*
X177146370Y-62671390D01*
D11*
X95889180Y-106120630D02*
X95978080Y-106212070D01*
D12*
X80077650Y-84274120D02*
X80128450Y-84116640D01*
D10*
X146978740Y-67906330D02*
X146978740Y-68117150D01*
D11*
X95843450Y-104213100D02*
X95889180Y-104075940D01*
D10*
X188449370Y-64584020D02*
X188449370Y-65572070D01*
D12*
X87718650Y-94931150D02*
X87769450Y-94827010D01*
D11*
X95843450Y-120695150D02*
X96798490Y-120695150D01*
D10*
X141934350Y-64584020D02*
X141792110Y-64655130D01*
X199058950Y-61896700D02*
X198987830Y-61825570D01*
X184629210Y-62671390D02*
X184771450Y-62742520D01*
D11*
X93864790Y-109338810D02*
X93775900Y-109295630D01*
X93730180Y-105239260D02*
X93684450Y-105330700D01*
D12*
X87761930Y-123765200D02*
X87716210Y-123902360D01*
D11*
X94639490Y-88475260D02*
X94593770Y-88566700D01*
D10*
X143102750Y-62671390D02*
X143244990Y-62742520D01*
D12*
X81032770Y-75892100D02*
X81032770Y-76029260D01*
D11*
X94139110Y-93448570D02*
X94273740Y-93494290D01*
X96798490Y-101541020D02*
X96798490Y-101403860D01*
D12*
X80222450Y-122630630D02*
X81177490Y-122630630D01*
X64393180Y-80438700D02*
X64527790Y-80527600D01*
D10*
X141045350Y-61190570D02*
X140976770Y-61261700D01*
D11*
X94593770Y-98559050D02*
X94639490Y-98693680D01*
D10*
X160448410Y-64655130D02*
X160308710Y-64797380D01*
D12*
X80908230Y-99478560D02*
X81012370Y-99425220D01*
D10*
X189152950Y-62529150D02*
X189292650Y-62671390D01*
X141355180Y-66849700D02*
X142343240Y-66849700D01*
X187235250Y-62742520D02*
X187377490Y-62742520D01*
X149544190Y-64584020D02*
X149544190Y-65572070D01*
X150783710Y-64091250D02*
X150852290Y-64162380D01*
D11*
X94502340Y-105693910D02*
X94593770Y-105602470D01*
D12*
X86679790Y-101799310D02*
X87769450Y-101799310D01*
D10*
X141116470Y-61261700D02*
X141045350Y-61190570D01*
D12*
X62678680Y-80827310D02*
X62815840Y-80918760D01*
X81131770Y-124002230D02*
X81040340Y-123910790D01*
X81040340Y-123910790D02*
X80948900Y-123867620D01*
D10*
X134042570Y-64655130D02*
X134113690Y-64865960D01*
X188236010Y-65500960D02*
X188449370Y-65290130D01*
D11*
X94410900Y-79694470D02*
X94502340Y-79740200D01*
D12*
X86941460Y-107060840D02*
X87096400Y-107111640D01*
D10*
X176259910Y-64797380D02*
X176188790Y-65008200D01*
D12*
X86679890Y-80536950D02*
X86679890Y-80039110D01*
D10*
X160801470Y-64584020D02*
X160590650Y-64584020D01*
D12*
X86730590Y-86549150D02*
X86834730Y-86653290D01*
D10*
X187024430Y-62460570D02*
X187095550Y-62671390D01*
D12*
X80077730Y-81355760D02*
X81169930Y-81355760D01*
D11*
X94001950Y-93268230D02*
X94047680Y-93357130D01*
D10*
X158871070Y-61754460D02*
X158660250Y-61754460D01*
X183742750Y-61754460D02*
X183882450Y-61825570D01*
X152769990Y-65854020D02*
X152627750Y-65993710D01*
X150387470Y-62529150D02*
X150529710Y-62671390D01*
X143102750Y-65500960D02*
X143244990Y-65572070D01*
D11*
X94365180Y-111848330D02*
X94502340Y-111848330D01*
D10*
X129871890Y-62178630D02*
X129943010Y-62389460D01*
D12*
X87497780Y-76528830D02*
X87452050Y-76483110D01*
X87355430Y-94618730D02*
X87355430Y-94359650D01*
X80336730Y-100852700D02*
X80494210Y-100799360D01*
D14*
X139526380Y-54784700D02*
X139117430Y-54784700D01*
D10*
X144555630Y-61825570D02*
X144413390Y-61754460D01*
D12*
X80232590Y-89440480D02*
X80336730Y-89491280D01*
X80440870Y-90250740D02*
X80494210Y-90405680D01*
X81169930Y-81012860D02*
X81169930Y-80283880D01*
D10*
X157278490Y-61825570D02*
X157420730Y-61754460D01*
D11*
X93684450Y-106722620D02*
X93684450Y-106402570D01*
D10*
X146978740Y-68117150D02*
X146836490Y-68259390D01*
D12*
X70987020Y-83019330D02*
X70987020Y-82201460D01*
D11*
X94593770Y-105602470D02*
X94639490Y-105513570D01*
X94273740Y-91149880D02*
X94410900Y-91104150D01*
D10*
X150923410Y-64091250D02*
X150852290Y-64020130D01*
X146907610Y-67766630D02*
X146978740Y-67906330D01*
D12*
X80448520Y-124502620D02*
X80585680Y-124548330D01*
D11*
X96432740Y-115404330D02*
X96524180Y-115358620D01*
D10*
X188617010Y-62036390D02*
X188617010Y-62742520D01*
X160181710Y-61754460D02*
X160321410Y-61825570D01*
X162858870Y-64584020D02*
X163351630Y-64584020D01*
X170608410Y-61967810D02*
X170537290Y-62178630D01*
X133620930Y-61754460D02*
X133196750Y-62742520D01*
D14*
X171817400Y-55193630D02*
X171680240Y-55602570D01*
D10*
X178667830Y-62318330D02*
X178599250Y-62529150D01*
D11*
X94001950Y-103804150D02*
X94639490Y-103804150D01*
D14*
X177707650Y-54512910D02*
X177844810Y-55193630D01*
D10*
X130646540Y-67624390D02*
X130646540Y-68330520D01*
X137128670Y-64584020D02*
X137621430Y-64584020D01*
D11*
X96661340Y-115013180D02*
X96752770Y-114921730D01*
D10*
X171792050Y-65500960D02*
X171581230Y-65572070D01*
D11*
X94047680Y-118703790D02*
X94273740Y-118703790D01*
D12*
X87497780Y-80039110D02*
X87589210Y-80128010D01*
D11*
X93684450Y-97184910D02*
X94639490Y-96958860D01*
D10*
X147415670Y-64584020D02*
X147626490Y-64584020D01*
D12*
X80440870Y-88109520D02*
X80440870Y-87954580D01*
D10*
X129871840Y-67624390D02*
X130082650Y-67413570D01*
D11*
X93864790Y-123702520D02*
X93956240Y-123702520D01*
D10*
X136310790Y-65572070D02*
X136453030Y-65500960D01*
D11*
X94593770Y-75767630D02*
X94502340Y-75676200D01*
D10*
X152937630Y-62036390D02*
X153150990Y-61825570D01*
X137199790Y-61825570D02*
X137057550Y-61967810D01*
D14*
X149127580Y-55193630D02*
X149399360Y-54921860D01*
D11*
X94001950Y-92948200D02*
X94639490Y-92948200D01*
D10*
X150529710Y-61825570D02*
X150387470Y-61967810D01*
D11*
X93684450Y-106722620D02*
X94639490Y-106722620D01*
X96206680Y-103230120D02*
X96160950Y-103321550D01*
X96160950Y-111777210D02*
X96160950Y-111640050D01*
D10*
X153798690Y-65290130D02*
X153869810Y-65358710D01*
X153150990Y-61825570D02*
X153290690Y-61754460D01*
D12*
X71215610Y-80964470D02*
X71261340Y-80918760D01*
D14*
X173315990Y-55193630D02*
X173044220Y-54921860D01*
D12*
X86888120Y-105262520D02*
X87045600Y-105262520D01*
D11*
X94228020Y-97484630D02*
X94093400Y-97484630D01*
X94273740Y-82630710D02*
X94365180Y-82630710D01*
X93910520Y-106130790D02*
X94047680Y-106085070D01*
D10*
X150882770Y-62742520D02*
X151022470Y-62671390D01*
D11*
X94593770Y-111411460D02*
X94639490Y-111276830D01*
D10*
X137339490Y-64091250D02*
X137339490Y-65290130D01*
X166425030Y-65358710D02*
X166564730Y-65500960D01*
X134578450Y-67766630D02*
X134578450Y-67624390D01*
D11*
X94593770Y-89757960D02*
X94456610Y-89620790D01*
X94639490Y-79077260D02*
X94639490Y-78894380D01*
X93684450Y-97847860D02*
X93730180Y-97985020D01*
D12*
X87355430Y-95139430D02*
X87510370Y-95088630D01*
X87634930Y-81593590D02*
X87634930Y-81728200D01*
D10*
X183389690Y-61825570D02*
X183529390Y-61754460D01*
D11*
X96752770Y-103230120D02*
X96661340Y-103138680D01*
D10*
X182868990Y-64584020D02*
X182655630Y-64584020D01*
X145525860Y-66849700D02*
X144964520Y-67555810D01*
D12*
X80077650Y-99008660D02*
X80077650Y-99216940D01*
X80077650Y-98406680D02*
X81167310Y-98406680D01*
X66923020Y-79938310D02*
X66788390Y-79938310D01*
D10*
X160392530Y-62036390D02*
X160392530Y-62742520D01*
D11*
X96798490Y-101403860D02*
X96752770Y-101312410D01*
X93864790Y-108795260D02*
X93956240Y-108795260D01*
D14*
X139935310Y-55056470D02*
X139798150Y-54921860D01*
D12*
X80077650Y-91528360D02*
X80077650Y-91061000D01*
X87718650Y-100935710D02*
X87769450Y-101093190D01*
X86834730Y-115093670D02*
X86679790Y-114938730D01*
D10*
X172749630Y-65572070D02*
X172891870Y-65500960D01*
X144964520Y-67555810D02*
X144964520Y-68330520D01*
X177359730Y-62318330D02*
X177288610Y-62529150D01*
X136521610Y-61754460D02*
X136521610Y-62742520D01*
X131604170Y-61825570D02*
X131464470Y-61967810D01*
D11*
X94001950Y-81421680D02*
X94047680Y-81330230D01*
D12*
X66742680Y-81810290D02*
X66696960Y-81673130D01*
D14*
X135353150Y-54784700D02*
X135899250Y-56694780D01*
D10*
X137367380Y-67766630D02*
X138213200Y-67766630D01*
D12*
X87772040Y-106593480D02*
X87718700Y-106489340D01*
D10*
X167268310Y-65147890D02*
X167268310Y-65008200D01*
X177921070Y-64584020D02*
X178134430Y-64584020D01*
D11*
X93684450Y-113011650D02*
X93730180Y-112877040D01*
D10*
X164774030Y-63024460D02*
X164634330Y-63164150D01*
D14*
X160171490Y-54784700D02*
X159762560Y-54784700D01*
D11*
X94273740Y-85058960D02*
X94365180Y-85013230D01*
D10*
X149358770Y-61261700D02*
X149358770Y-62742520D01*
X177964250Y-62671390D02*
X177824550Y-62529150D01*
X173567510Y-64584020D02*
X173567510Y-66064830D01*
X195662970Y-62318330D02*
X195734090Y-62529150D01*
X133943450Y-67413570D02*
X133803750Y-67555810D01*
D11*
X94639490Y-98693680D02*
X94639490Y-98830830D01*
X94502340Y-93448570D02*
X94593770Y-93357130D01*
D12*
X80494210Y-114698240D02*
X80595810Y-114594100D01*
D14*
X157636580Y-56694780D02*
X157908360Y-56557620D01*
D11*
X93910520Y-99948440D02*
X93864790Y-99948440D01*
D12*
X80077650Y-84637340D02*
X80077650Y-84274120D01*
X80077650Y-94088680D02*
X81167310Y-94088680D01*
D10*
X147443560Y-68259390D02*
X147514680Y-68330520D01*
D11*
X94273740Y-92468130D02*
X94639490Y-92148100D01*
X93684450Y-115993620D02*
X93684450Y-115358620D01*
D12*
X87043120Y-75728720D02*
X87088840Y-75637280D01*
D11*
X96798490Y-105848860D02*
X96752770Y-105757410D01*
X96160950Y-119140680D02*
X96206680Y-119229570D01*
X93775900Y-108840970D02*
X93864790Y-108795260D01*
X93819080Y-85648230D02*
X93910520Y-85648230D01*
D12*
X81012370Y-88815640D02*
X80908230Y-88764840D01*
D10*
X189927650Y-62178630D02*
X189927650Y-62036390D01*
D11*
X94502340Y-76702360D02*
X94593770Y-76793790D01*
D10*
X142891930Y-65008200D02*
X142891930Y-65147890D01*
D12*
X87589210Y-81456430D02*
X87634930Y-81593590D01*
D10*
X154418450Y-61825570D02*
X154489570Y-62036390D01*
D12*
X80232590Y-94484920D02*
X80128450Y-94589060D01*
D11*
X93684450Y-99585210D02*
X93730180Y-99493780D01*
D10*
X150318890Y-64865960D02*
X150318890Y-65572070D01*
D12*
X87302090Y-90948430D02*
X87302090Y-90013710D01*
D10*
X166648550Y-61967810D02*
X166508850Y-61825570D01*
D11*
X93775900Y-124202890D02*
X93730180Y-124157180D01*
D12*
X86679790Y-89045970D02*
X86679790Y-89566670D01*
X81167310Y-99216940D02*
X81167310Y-99008660D01*
X86679890Y-80039110D02*
X87043120Y-80310880D01*
D10*
X171919050Y-62178630D02*
X171990170Y-61967810D01*
X162378810Y-62742520D02*
X162167990Y-62671390D01*
D12*
X80181870Y-80388020D02*
X80286010Y-80337220D01*
D11*
X94639490Y-122193760D02*
X94593770Y-122285200D01*
D12*
X87769450Y-114595830D02*
X87769450Y-113866850D01*
D10*
X135746910Y-61967810D02*
X135678330Y-62178630D01*
X175723970Y-65008200D02*
X175723970Y-65147890D01*
D12*
X87614510Y-86653290D02*
X87718650Y-86549150D01*
X80339350Y-80959520D02*
X80286010Y-80959520D01*
D11*
X94593770Y-106267960D02*
X94639490Y-106402570D01*
D12*
X80077650Y-89232200D02*
X80128450Y-89336340D01*
X87589210Y-80536950D02*
X87543500Y-80582670D01*
D10*
X170072470Y-61261700D02*
X169932770Y-61261700D01*
X142876630Y-67977460D02*
X142947750Y-68117150D01*
D11*
X96160950Y-118294860D02*
X96206680Y-118386290D01*
D14*
X172772430Y-54784700D02*
X172363490Y-54784700D01*
D12*
X80545010Y-119407400D02*
X80494210Y-119356600D01*
D10*
X192322870Y-61754460D02*
X191901230Y-62742520D01*
D12*
X80285930Y-90801920D02*
X80440870Y-90801920D01*
D10*
X186361490Y-64797380D02*
X186292910Y-65008200D01*
D12*
X87396180Y-122030380D02*
X87487620Y-122030380D01*
D11*
X93819080Y-76702360D02*
X93910520Y-76659180D01*
D12*
X87251340Y-105521600D02*
X87251340Y-105988960D01*
D10*
X143244990Y-65572070D02*
X143455810Y-65572070D01*
X130717710Y-61332810D02*
X130575470Y-61261700D01*
D11*
X94639490Y-109384540D02*
X94639490Y-108749540D01*
D10*
X176752670Y-64584020D02*
X176541850Y-64584020D01*
D12*
X80857430Y-118731760D02*
X81012370Y-118785100D01*
X87769450Y-94827010D02*
X87769450Y-94618730D01*
D11*
X94184840Y-93794020D02*
X94093400Y-93839730D01*
D12*
X86888070Y-119261810D02*
X86834730Y-119157670D01*
D11*
X94502340Y-111848330D02*
X94593770Y-111939780D01*
D10*
X144413390Y-61754460D02*
X144202570Y-61754460D01*
X196226850Y-62742520D02*
X196366550Y-62671390D01*
X135889150Y-65290130D02*
X135960270Y-65500960D01*
D12*
X70578080Y-82610390D02*
X71398490Y-82610390D01*
D10*
X180725230Y-61825570D02*
X180867470Y-61754460D01*
D12*
X87147200Y-105313320D02*
X87200540Y-105366660D01*
D11*
X93819080Y-75676200D02*
X93730180Y-75767630D01*
D10*
X151698110Y-62529150D02*
X151840350Y-62671390D01*
D12*
X86679790Y-118189930D02*
X86730590Y-118088330D01*
D11*
X95934900Y-104030210D02*
X96023790Y-103984490D01*
X93684450Y-109158470D02*
X93684450Y-108975600D01*
D12*
X87360620Y-79993380D02*
X87497780Y-80039110D01*
D11*
X93819080Y-76222290D02*
X93910520Y-76268020D01*
D10*
X132028350Y-65358710D02*
X132099470Y-65147890D01*
D14*
X149399360Y-56557620D02*
X149127580Y-56285830D01*
D12*
X86938870Y-102868650D02*
X86834730Y-102921990D01*
D10*
X134578450Y-67624390D02*
X134507340Y-67484700D01*
D14*
X134453990Y-55602570D02*
X134316840Y-55193630D01*
D10*
X149076830Y-64584020D02*
X149076830Y-65572070D01*
D11*
X94365180Y-88112040D02*
X94502340Y-88157760D01*
D10*
X192858810Y-61190570D02*
X192787690Y-61261700D01*
D12*
X87043010Y-96485630D02*
X87769450Y-96798050D01*
X64710680Y-81810290D02*
X64664960Y-81673130D01*
D13*
X87174460Y-110487000D02*
X87128740Y-110441280D01*
D11*
X96752770Y-105757410D02*
X96661340Y-105665970D01*
X96023790Y-120057620D02*
X96160950Y-120057620D01*
D12*
X87497780Y-76919980D02*
X87589210Y-77011430D01*
X80128450Y-88919780D02*
X80077650Y-89023920D01*
D14*
X165571540Y-57375490D02*
X165843310Y-57647280D01*
D12*
X80286010Y-81614840D02*
X80235210Y-81510700D01*
D11*
X95843450Y-105848860D02*
X95843450Y-106031730D01*
X93684450Y-106402570D02*
X93730180Y-106267960D01*
D12*
X80753290Y-99008660D02*
X80753290Y-98749580D01*
D10*
X178810070Y-65290130D02*
X178881190Y-65500960D01*
X175370910Y-64584020D02*
X175513150Y-64655130D01*
D12*
X80440870Y-113575560D02*
X81167310Y-113887980D01*
X80440870Y-110408180D02*
X80494210Y-110253240D01*
X87497780Y-75594110D02*
X87589210Y-75683010D01*
X80336730Y-86049580D02*
X80232590Y-86102920D01*
D10*
X145231270Y-62529150D02*
X145370970Y-62671390D01*
D11*
X96752770Y-101629910D02*
X96798490Y-101541020D01*
D14*
X165025430Y-54512910D02*
X164890810Y-55193630D01*
D12*
X68419070Y-82610390D02*
X69239490Y-82610390D01*
D14*
X176889770Y-53283550D02*
X177161560Y-53557880D01*
D10*
X179135190Y-62178630D02*
X179135190Y-62318330D01*
D11*
X94639490Y-85239290D02*
X94639490Y-85422180D01*
D12*
X87452050Y-81019540D02*
X87497780Y-80973830D01*
X80077650Y-91061000D02*
X80128450Y-90906060D01*
D14*
X173044220Y-54921860D02*
X172772430Y-54784700D01*
X174352310Y-57647280D02*
X174217700Y-57647280D01*
D10*
X137550310Y-62742520D02*
X137692550Y-62671390D01*
D12*
X86679890Y-77420360D02*
X86679890Y-76919980D01*
X64393180Y-80072940D02*
X64347460Y-80210100D01*
D10*
X134085700Y-68330520D02*
X134296520Y-68330520D01*
D11*
X94593770Y-89140730D02*
X94639490Y-89049290D01*
D12*
X87147150Y-89617470D02*
X87096350Y-89566670D01*
X87718650Y-86135130D02*
X87614510Y-86030990D01*
D10*
X148515490Y-65572070D02*
X148726310Y-65572070D01*
D14*
X150763340Y-55874360D02*
X150626180Y-56285830D01*
D10*
X180049590Y-62178630D02*
X179978470Y-61967810D01*
X148302130Y-64584020D02*
X148302130Y-65290130D01*
X193224570Y-65500960D02*
X193366810Y-65572070D01*
X167395310Y-62742520D02*
X167608670Y-62742520D01*
D15*
X208296620Y-69557330D02*
X208296620Y-126707330D01*
D10*
X195734090Y-62529150D02*
X195873790Y-62671390D01*
D12*
X86941520Y-124702460D02*
X87761930Y-124702460D01*
D10*
X197677190Y-63164150D02*
X197537490Y-63235280D01*
D12*
X80077650Y-99216940D02*
X80128450Y-99321080D01*
D10*
X186643430Y-64584020D02*
X186503730Y-64655130D01*
X187138730Y-65358710D02*
X187207310Y-65147890D01*
D13*
X86765520Y-109986620D02*
X86765520Y-110441280D01*
D12*
X62632960Y-79110280D02*
X63270490Y-78838490D01*
D11*
X94273740Y-76313730D02*
X94410900Y-76268020D01*
X94184840Y-85193570D02*
X94228020Y-85104680D01*
D12*
X86679790Y-84565410D02*
X87769450Y-84565410D01*
D10*
X161619350Y-64584020D02*
X161619350Y-65290130D01*
D14*
X164890810Y-55739730D02*
X165025430Y-56420460D01*
D11*
X94093400Y-98122180D02*
X94228020Y-98122180D01*
D12*
X80908230Y-102940580D02*
X80753290Y-102940580D01*
D10*
X161139290Y-62178630D02*
X161632050Y-62742520D01*
D12*
X62541520Y-81327700D02*
X62495790Y-81327700D01*
X87251290Y-114075130D02*
X87769450Y-114595830D01*
D10*
X189379010Y-65147890D02*
X189447590Y-65358710D01*
D13*
X87354800Y-109895180D02*
X87446240Y-109895180D01*
D12*
X80222450Y-123565360D02*
X81177490Y-123565360D01*
D11*
X93819080Y-79740200D02*
X93910520Y-79694470D01*
D10*
X180585530Y-61967810D02*
X180725230Y-61825570D01*
D11*
X93910520Y-112485880D02*
X94001950Y-112440150D01*
X93819080Y-105693910D02*
X93910520Y-105739630D01*
D10*
X143511630Y-66849700D02*
X143229700Y-66849700D01*
D11*
X94639490Y-118429470D02*
X94639490Y-118249130D01*
D10*
X174032330Y-61967810D02*
X174103450Y-62107520D01*
X141934350Y-65572070D02*
X142145170Y-65572070D01*
D12*
X71398490Y-80210100D02*
X71398490Y-80347260D01*
D10*
X160857350Y-61261700D02*
X160857350Y-62742520D01*
X186856790Y-64584020D02*
X186643430Y-64584020D01*
D12*
X62315460Y-79681780D02*
X62315460Y-79773210D01*
D10*
X177359730Y-62178630D02*
X177359730Y-62318330D01*
D14*
X139798150Y-56557620D02*
X140072470Y-56285830D01*
D11*
X96432740Y-101767070D02*
X96432740Y-101220970D01*
D12*
X69056620Y-80873040D02*
X69010890Y-80918760D01*
D10*
X184982270Y-63235280D02*
X184771450Y-63235280D01*
D12*
X86730590Y-94517130D02*
X86679790Y-94618730D01*
D13*
X87083020Y-110169500D02*
X87128740Y-110032340D01*
D12*
X80702570Y-82892460D02*
X80702570Y-81957740D01*
D14*
X161753920Y-53692490D02*
X161616750Y-53829650D01*
X150080080Y-54784700D02*
X150354400Y-54921860D01*
D12*
X87096350Y-100727430D02*
X87355430Y-100727430D01*
X86938870Y-114542490D02*
X86888070Y-114542490D01*
X80494210Y-118889240D02*
X80595810Y-118785100D01*
D10*
X174807030Y-61967810D02*
X174738450Y-61825570D01*
D12*
X80753290Y-103199660D02*
X80753290Y-102940580D01*
X80128450Y-96816640D02*
X80232590Y-96712500D01*
D11*
X96432740Y-117931630D02*
X96298110Y-117977360D01*
D10*
X157433430Y-64162380D02*
X157504550Y-64091250D01*
D12*
X65256780Y-81810290D02*
X65211050Y-81856020D01*
D11*
X96661340Y-114467070D02*
X96524180Y-114421360D01*
D10*
X138860950Y-65500960D02*
X139003190Y-65358710D01*
X162096870Y-61967810D02*
X162167990Y-62107520D01*
D12*
X80232590Y-96712500D02*
X80336730Y-96661700D01*
D10*
X147062610Y-64865960D02*
X147273430Y-64655130D01*
D11*
X93684450Y-118429470D02*
X93730180Y-118520910D01*
X94184840Y-123839680D02*
X94639490Y-124294330D01*
D10*
X163069690Y-65290130D02*
X163140810Y-65500960D01*
X134296520Y-67342460D02*
X134085700Y-67342460D01*
X175485210Y-62742520D02*
X175696030Y-62742520D01*
D12*
X86679790Y-103336010D02*
X86730590Y-103440150D01*
D11*
X95889180Y-112348710D02*
X95843450Y-112302990D01*
D10*
X150669410Y-62742520D02*
X150882770Y-62742520D01*
D12*
X80753290Y-86829360D02*
X80908230Y-86778560D01*
X86733180Y-105366660D02*
X86783980Y-105313320D01*
D10*
X171101170Y-62742520D02*
X171243410Y-62671390D01*
D11*
X94639490Y-86740440D02*
X94639490Y-86648990D01*
X95843450Y-107240780D02*
X96798490Y-107240780D01*
D10*
X155490330Y-64091250D02*
X155840850Y-65572070D01*
X147626490Y-64584020D02*
X147766190Y-64655130D01*
D11*
X93730180Y-79831630D02*
X93819080Y-79740200D01*
D12*
X87667850Y-98126470D02*
X87563710Y-98179810D01*
D10*
X176188790Y-65147890D02*
X176259910Y-65358710D01*
X193394750Y-61754460D02*
X193394750Y-62742520D01*
D12*
X87215840Y-122119280D02*
X87261550Y-122076110D01*
D10*
X166016090Y-61825570D02*
X165873850Y-61967810D01*
D12*
X66379460Y-81355630D02*
X66379460Y-81810290D01*
D10*
X198634770Y-61754460D02*
X198495070Y-61825570D01*
D12*
X87543500Y-81911090D02*
X87452050Y-81956800D01*
D14*
X160580430Y-54921860D02*
X160171490Y-54784700D01*
D12*
X87043010Y-97107930D02*
X87769450Y-96798050D01*
X87624780Y-122076110D02*
X87716210Y-122165010D01*
D10*
X195055910Y-62742520D02*
X195198150Y-62742520D01*
X178457010Y-61825570D02*
X178599250Y-61967810D01*
X192858810Y-61754460D02*
X192858810Y-62742520D01*
X148373250Y-65500960D02*
X148515490Y-65572070D01*
D11*
X96206680Y-115902180D02*
X96252400Y-115813280D01*
D14*
X159762560Y-56694780D02*
X159353610Y-56557620D01*
D10*
X156193910Y-64091250D02*
X156546970Y-65572070D01*
X136480920Y-67342460D02*
X136691740Y-67342460D01*
D12*
X81177490Y-122313130D02*
X81177490Y-122630630D01*
D11*
X96160950Y-102430020D02*
X96798490Y-102249680D01*
D10*
X141045350Y-61754460D02*
X141045350Y-62742520D01*
X131746410Y-64584020D02*
X131535590Y-64584020D01*
D11*
X94001950Y-87311940D02*
X94639490Y-87311940D01*
D10*
X171863170Y-64797380D02*
X171792050Y-64655130D01*
D11*
X94593770Y-85104680D02*
X94639490Y-85239290D01*
D10*
X139678830Y-64655130D02*
X139821070Y-64584020D01*
D12*
X86888070Y-118606490D02*
X86783930Y-118555690D01*
D11*
X94639490Y-90875550D02*
X94639490Y-90695210D01*
D10*
X130575470Y-65500960D02*
X130717710Y-65358710D01*
D12*
X65119620Y-80873040D02*
X65073890Y-80918760D01*
D10*
X185264210Y-61754460D02*
X185264210Y-62882210D01*
D12*
X87769450Y-89411730D02*
X87718650Y-89566670D01*
D14*
X133090020Y-56557620D02*
X133361790Y-56694780D01*
D10*
X137931250Y-68330520D02*
X138073490Y-68259390D01*
X188195370Y-61754460D02*
X188406190Y-61754460D01*
X169790530Y-61332810D02*
X169721950Y-61543630D01*
X169186010Y-64655130D02*
X169325710Y-64584020D01*
X139241900Y-67342460D02*
X139523840Y-68330520D01*
X194845090Y-61261700D02*
X194845090Y-62460570D01*
X172399110Y-65500960D02*
X172538810Y-65572070D01*
D11*
X93684450Y-96730260D02*
X94639490Y-96504200D01*
D12*
X86806890Y-123902360D02*
X86806890Y-123401980D01*
D10*
X162874110Y-62460570D02*
X162874110Y-62529150D01*
X143737750Y-65358710D02*
X143808870Y-65147890D01*
D11*
X95843450Y-108876540D02*
X96798490Y-108238990D01*
D12*
X87718650Y-103440150D02*
X87769450Y-103336010D01*
D10*
X174245690Y-62178630D02*
X174596210Y-62249750D01*
D12*
X69239490Y-80210100D02*
X69239490Y-80347260D01*
D11*
X96206680Y-111866120D02*
X96160950Y-111777210D01*
D10*
X162167990Y-61825570D02*
X162096870Y-61967810D01*
D12*
X81167310Y-86308660D02*
X81116510Y-86207060D01*
D11*
X94593770Y-118520910D02*
X94639490Y-118429470D01*
D10*
X160801470Y-65572070D02*
X160943710Y-65500960D01*
D12*
X81116510Y-94589060D02*
X81012370Y-94484920D01*
X87043010Y-89254250D02*
X87096350Y-89099310D01*
D10*
X178810070Y-64091250D02*
X178810070Y-65290130D01*
D12*
X87096350Y-83836430D02*
X87355430Y-83836430D01*
D10*
X176399610Y-64655130D02*
X176259910Y-64797380D01*
D11*
X96752770Y-114558520D02*
X96661340Y-114467070D01*
D12*
X70806680Y-81584230D02*
X70806680Y-81447070D01*
D11*
X94502340Y-91058440D02*
X94593770Y-90966990D01*
D16*
X97488870Y-74350310D02*
X97488870Y-125950160D01*
D11*
X93910520Y-118658070D02*
X94047680Y-118703790D01*
D10*
X145724030Y-63235280D02*
X145513210Y-63235280D01*
D12*
X86679790Y-94016750D02*
X87769450Y-93290310D01*
D11*
X94365180Y-111548620D02*
X94502340Y-111502890D01*
D12*
X80595810Y-114594100D02*
X80753290Y-114540760D01*
D10*
X176892370Y-64655130D02*
X176752670Y-64584020D01*
X174060270Y-65572070D02*
X173849450Y-65572070D01*
D12*
X87769450Y-86445010D02*
X87769450Y-86236730D01*
D11*
X94001950Y-122059130D02*
X94047680Y-121967700D01*
D12*
X81012370Y-92394500D02*
X81116510Y-92498640D01*
D10*
X146851790Y-64584020D02*
X146991490Y-64655130D01*
X162874110Y-62529150D02*
X162802990Y-62671390D01*
D12*
X80649150Y-88368600D02*
X80494210Y-88213660D01*
D10*
X133338990Y-64865960D02*
X133338990Y-65572070D01*
D12*
X86679790Y-85634750D02*
X87769450Y-85634750D01*
D10*
X197326670Y-62742520D02*
X197537490Y-62742520D01*
X188406190Y-61754460D02*
X188545890Y-61825570D01*
D11*
X93684450Y-76930960D02*
X93730180Y-76793790D01*
D10*
X143864700Y-67977460D02*
X143935810Y-67766630D01*
D11*
X94001950Y-103440940D02*
X94047680Y-103349490D01*
D10*
X183008690Y-64655130D02*
X182868990Y-64584020D01*
X170890350Y-61754460D02*
X170750650Y-61825570D01*
X175370910Y-65572070D02*
X175160090Y-65572070D01*
X176653610Y-61825570D02*
X176795850Y-61754460D01*
D12*
X81065710Y-119407400D02*
X80961570Y-119460740D01*
D10*
X130082650Y-67413570D02*
X130224900Y-67342460D01*
X145048390Y-64865960D02*
X145048390Y-65572070D01*
X193366810Y-65572070D02*
X193577630Y-65572070D01*
D14*
X148225880Y-55874360D02*
X148225880Y-53829650D01*
D10*
X156038970Y-61754460D02*
X156531730Y-61754460D01*
X182571810Y-61261700D02*
X182642930Y-61332810D01*
X187672130Y-65290130D02*
X187743250Y-65500960D01*
X178457010Y-62671390D02*
X178317310Y-62742520D01*
X146005970Y-62882210D02*
X145934850Y-63093040D01*
X167199730Y-64797380D02*
X167057490Y-64655130D01*
X130293530Y-62742520D02*
X130575470Y-62742520D01*
X175513150Y-64655130D02*
X175652850Y-64797380D01*
D11*
X96298110Y-104075940D02*
X96343840Y-104213100D01*
D10*
X196366550Y-61825570D02*
X196226850Y-61754460D01*
X181276410Y-64584020D02*
X181558350Y-65572070D01*
D11*
X94593770Y-93885460D02*
X94502340Y-93794020D01*
D10*
X131322180Y-68259390D02*
X131464420Y-68330520D01*
X144624210Y-64584020D02*
X144837570Y-64584020D01*
D12*
X69239490Y-80347260D02*
X69193780Y-80481880D01*
D11*
X94047680Y-112394440D02*
X94093400Y-112302990D01*
D10*
X145934850Y-63093040D02*
X145866270Y-63164150D01*
D14*
X170372130Y-56557620D02*
X170781080Y-56148680D01*
D12*
X80849890Y-76646470D02*
X80895610Y-76600760D01*
D11*
X94639490Y-97758960D02*
X94593770Y-97621790D01*
X93684450Y-98513330D02*
X93684450Y-98967990D01*
X94593770Y-122285200D02*
X94502340Y-122376630D01*
D10*
X181753930Y-61261700D02*
X181753930Y-62460570D01*
D14*
X157908360Y-56557620D02*
X158317290Y-56148680D01*
D11*
X93775900Y-94685550D02*
X93864790Y-94639830D01*
D12*
X86679790Y-119002730D02*
X87769450Y-119002730D01*
X87043120Y-77057140D02*
X87088840Y-76965700D01*
X87769450Y-84202190D02*
X87769450Y-84565410D01*
D10*
X188053130Y-61825570D02*
X188195370Y-61754460D01*
X145990680Y-67060520D02*
X145990680Y-67202750D01*
D14*
X159625400Y-55602570D02*
X160308650Y-55739730D01*
D10*
X135353210Y-65358710D02*
X135213510Y-65500960D01*
D14*
X131644750Y-54103970D02*
X131781920Y-54375750D01*
D11*
X94639490Y-118249130D02*
X94593770Y-118157700D01*
D10*
X146498730Y-64655130D02*
X146640970Y-64584020D01*
D11*
X95843450Y-113420600D02*
X96798490Y-113057380D01*
D12*
X81032770Y-76029260D02*
X80987050Y-76163880D01*
X66696960Y-79638600D02*
X67334490Y-79364280D01*
D11*
X94365180Y-94340120D02*
X94502340Y-94294390D01*
D10*
X137580740Y-67413570D02*
X137438490Y-67555810D01*
D12*
X87043010Y-89411730D02*
X87043010Y-89254250D01*
X86834730Y-119157670D02*
X86679790Y-119002730D01*
D11*
X93684450Y-108449810D02*
X94639490Y-108084050D01*
D12*
X87543500Y-77466090D02*
X87452050Y-77511800D01*
X87170120Y-122210720D02*
X87215840Y-122119280D01*
D11*
X94001950Y-122376630D02*
X94956990Y-122376630D01*
D12*
X80857450Y-105904730D02*
X81012400Y-105958070D01*
D10*
X172891870Y-65500960D02*
X173102690Y-65290130D01*
X131535590Y-65572070D02*
X131746410Y-65572070D01*
X183079810Y-64726250D02*
X183008690Y-64655130D01*
D11*
X93864790Y-109912860D02*
X93819080Y-109821410D01*
D12*
X62361180Y-79547150D02*
X62315460Y-79681780D01*
X86814520Y-82665460D02*
X87634930Y-82665460D01*
D10*
X135071270Y-64584020D02*
X135213510Y-64655130D01*
X188096310Y-65572070D02*
X188236010Y-65500960D01*
X178106490Y-62742520D02*
X177964250Y-62671390D01*
X143849510Y-62318330D02*
X143920630Y-62529150D01*
D12*
X81167310Y-114853180D02*
X81167310Y-115010660D01*
D14*
X131781920Y-54375750D02*
X131781920Y-54784700D01*
D12*
X87718650Y-84044710D02*
X87769450Y-84202190D01*
D14*
X177435880Y-53966810D02*
X177707650Y-54512910D01*
D12*
X62632960Y-78564180D02*
X63270490Y-78838490D01*
D11*
X96661340Y-119321020D02*
X96752770Y-119229570D01*
X95843450Y-112694150D02*
X96798490Y-113057380D01*
X93730180Y-97621790D02*
X93684450Y-97758960D01*
X94365180Y-98421890D02*
X94502340Y-98467620D01*
D12*
X81167310Y-84274120D02*
X81167310Y-84637340D01*
D14*
X175990610Y-54784700D02*
X175172740Y-56694780D01*
D10*
X131253650Y-65358710D02*
X131393350Y-65500960D01*
D12*
X80077650Y-84980240D02*
X81167310Y-84980240D01*
D11*
X93684450Y-115676120D02*
X94639490Y-115676120D01*
D12*
X71307060Y-81856020D02*
X71215610Y-81901730D01*
D11*
X94639490Y-119321020D02*
X94639490Y-119641050D01*
D10*
X174202510Y-65500960D02*
X174060270Y-65572070D01*
D12*
X80595810Y-118785100D02*
X80753290Y-118731760D01*
D10*
X145513210Y-62742520D02*
X145724030Y-62742520D01*
D11*
X95843450Y-115584680D02*
X95843450Y-115767550D01*
X94093400Y-94685550D02*
X94139110Y-94731280D01*
D12*
X62495790Y-81901730D02*
X62450070Y-81810290D01*
D10*
X197326670Y-61754460D02*
X197184430Y-61825570D01*
D11*
X96160950Y-115947890D02*
X96206680Y-115902180D01*
X95797740Y-111157460D02*
X95843450Y-111203180D01*
D12*
X67151620Y-79984040D02*
X66923020Y-79938310D01*
D11*
X95843450Y-119666460D02*
X95797740Y-119712180D01*
D10*
X187207310Y-65008200D02*
X187138730Y-64797380D01*
D12*
X80232590Y-99425220D02*
X80336730Y-99478560D01*
D10*
X189292650Y-61825570D02*
X189152950Y-61967810D01*
D11*
X95797740Y-112348710D02*
X95843450Y-112394440D01*
D12*
X81116510Y-103512080D02*
X81167310Y-103407940D01*
X69148050Y-81856020D02*
X69056620Y-81901730D01*
D10*
X153869810Y-65358710D02*
X153938390Y-65290130D01*
X160448410Y-65500960D02*
X160590650Y-65572070D01*
X193577630Y-65572070D02*
X193717330Y-65500960D01*
X171370410Y-65572070D02*
X171159590Y-65500960D01*
D11*
X94593770Y-102595120D02*
X94639490Y-102686550D01*
X94410900Y-105739630D02*
X94502340Y-105693910D01*
X94639490Y-101886460D02*
X94593770Y-101795020D01*
X96798490Y-106031730D02*
X96798490Y-105848860D01*
D10*
X152472810Y-61967810D02*
X152333110Y-61825570D01*
D11*
X94228020Y-98122180D02*
X94456610Y-98076460D01*
D12*
X67105890Y-80918760D02*
X67151620Y-80964470D01*
X80077650Y-85706680D02*
X81167310Y-84980240D01*
X86938870Y-103597630D02*
X87096350Y-103648430D01*
D10*
X167748370Y-62671390D02*
X167959190Y-62460570D01*
X167733130Y-65290130D02*
X167804250Y-65500960D01*
D11*
X94184840Y-120639280D02*
X94639490Y-120639280D01*
X96343840Y-106831830D02*
X96343840Y-107240780D01*
D10*
X137367380Y-67906330D02*
X137438490Y-68117150D01*
X143031630Y-62460570D02*
X143102750Y-62671390D01*
D12*
X87452050Y-76483110D02*
X87406340Y-76528830D01*
D10*
X152472810Y-61754460D02*
X152472810Y-62742520D01*
D12*
X87634930Y-77283200D02*
X87589210Y-77420360D01*
D10*
X178106490Y-61754460D02*
X178317310Y-61754460D01*
X135353210Y-64797380D02*
X135424330Y-65008200D01*
D12*
X80268180Y-122175970D02*
X80357080Y-122084540D01*
D14*
X161891080Y-53829650D02*
X161753920Y-53692490D01*
D10*
X151162170Y-62178630D02*
X151162170Y-62036390D01*
D12*
X68828020Y-83019330D02*
X68828020Y-82201460D01*
D11*
X94047680Y-105785360D02*
X94273740Y-105785360D01*
D10*
X160308710Y-64797380D02*
X160237590Y-65008200D01*
X168157310Y-65572070D02*
X168297010Y-65500960D01*
D12*
X80494210Y-99529360D02*
X80753290Y-99529360D01*
D14*
X146318340Y-53829650D02*
X146318340Y-55874360D01*
D11*
X95889180Y-105757410D02*
X95843450Y-105848860D01*
D12*
X87360620Y-81319270D02*
X87497780Y-81364980D01*
D10*
X177639130Y-64797380D02*
X177781370Y-64655130D01*
X198634770Y-62742520D02*
X198848130Y-62742520D01*
D14*
X169279930Y-56148680D02*
X169417090Y-56557620D01*
D10*
X183529390Y-61754460D02*
X183742750Y-61754460D01*
D12*
X80486670Y-75709210D02*
X80532390Y-75666040D01*
X80753290Y-96608360D02*
X80908230Y-96661700D01*
D11*
X94047680Y-82493550D02*
X94139110Y-82584990D01*
D10*
X189942890Y-64584020D02*
X189729530Y-64584020D01*
X197184430Y-62671390D02*
X197326670Y-62742520D01*
D12*
X86679790Y-84908310D02*
X87769450Y-84908310D01*
D11*
X96206680Y-118066260D02*
X96160950Y-118157700D01*
D12*
X81116510Y-95003080D02*
X81167310Y-94898940D01*
X81116540Y-106062210D02*
X81167340Y-106217150D01*
D10*
X171581230Y-65572070D02*
X171370410Y-65572070D01*
D12*
X64347460Y-80301540D02*
X64393180Y-80438700D01*
D11*
X94001950Y-93131070D02*
X94001950Y-93268230D01*
D10*
X158660250Y-62742520D02*
X158871070Y-62742520D01*
X143737750Y-64797380D02*
X143595510Y-64655130D01*
D11*
X94001950Y-84713520D02*
X94639490Y-84530630D01*
D10*
X153333870Y-64584020D02*
X152909690Y-65572070D01*
X142284870Y-64655130D02*
X142145170Y-64584020D01*
D12*
X80357080Y-124456890D02*
X80448520Y-124502620D01*
X66742680Y-81401360D02*
X66834120Y-81309910D01*
D11*
X96524180Y-103095490D02*
X96432740Y-103095490D01*
D10*
X166366610Y-61754460D02*
X166155790Y-61754460D01*
D14*
X131098650Y-53829650D02*
X131507590Y-53966810D01*
D12*
X81012370Y-86102920D02*
X80908230Y-86049580D01*
D13*
X86765520Y-110441280D02*
X87174460Y-110487000D01*
D12*
X87043120Y-80173720D02*
X87088840Y-80082280D01*
D11*
X94502340Y-94294390D02*
X94593770Y-94202960D01*
D12*
X80699950Y-120738360D02*
X80699950Y-119803640D01*
D10*
X157362310Y-64091250D02*
X157433430Y-64162380D01*
D12*
X65302490Y-81673130D02*
X65256780Y-81810290D01*
D11*
X96252400Y-115813280D02*
X96343840Y-115538960D01*
D10*
X143089990Y-66920810D02*
X142947750Y-67060520D01*
X166564730Y-65500960D02*
X166706970Y-65572070D01*
X174202510Y-64655130D02*
X174342210Y-64797380D01*
D11*
X94273740Y-106085070D02*
X94410900Y-106130790D01*
X94139110Y-103004050D02*
X94047680Y-102912620D01*
D12*
X87510370Y-100780770D02*
X87614510Y-100831570D01*
D10*
X131111360Y-67766630D02*
X131111360Y-67906330D01*
D12*
X87634930Y-75820170D02*
X87634930Y-75957330D01*
D10*
X161154530Y-65147890D02*
X161154530Y-65008200D01*
X150247770Y-64655130D02*
X150318890Y-64865960D01*
D11*
X94001950Y-92193810D02*
X94456610Y-92648470D01*
X94593770Y-86831880D02*
X94639490Y-86740440D01*
D12*
X80908230Y-92343700D02*
X81012370Y-92394500D01*
X81167310Y-90093260D02*
X81167310Y-90250740D01*
X80440870Y-90801920D02*
X80545010Y-90852720D01*
X80908230Y-98749580D02*
X80753290Y-98749580D01*
D11*
X96569900Y-106257790D02*
X96661340Y-106212070D01*
D12*
X86834730Y-95035290D02*
X86938870Y-95088630D01*
X80961570Y-89887520D02*
X81012370Y-89887520D01*
D10*
X162394050Y-64584020D02*
X162394050Y-65572070D01*
X186292910Y-65008200D02*
X186292910Y-65147890D01*
D13*
X86900140Y-111241380D02*
X87720560Y-111241380D01*
D14*
X156953310Y-56557620D02*
X157225090Y-56694780D01*
D11*
X95978080Y-115993620D02*
X96069520Y-115993620D01*
D12*
X67197340Y-81309910D02*
X67288780Y-81401360D01*
D11*
X93684450Y-123885390D02*
X93730180Y-123793960D01*
D12*
X87452050Y-80928110D02*
X87406340Y-80973830D01*
D10*
X178317310Y-61754460D02*
X178457010Y-61825570D01*
D12*
X87634930Y-80265170D02*
X87634930Y-80402330D01*
D10*
X132421990Y-67342460D02*
X132846180Y-68330520D01*
X145866270Y-61825570D02*
X145724030Y-61754460D01*
D11*
X94593770Y-119186390D02*
X94639490Y-119321020D01*
D10*
X143653880Y-66920810D02*
X143511630Y-66849700D01*
D12*
X80948900Y-122038810D02*
X81040340Y-122084540D01*
D10*
X188914190Y-64091250D02*
X188914190Y-65572070D01*
D12*
X80268180Y-124002230D02*
X80222450Y-124093680D01*
X80222450Y-124093680D02*
X80222450Y-124276550D01*
D10*
X132775110Y-61754460D02*
X133196750Y-62742520D01*
D14*
X139117430Y-54784700D02*
X138845650Y-54921860D01*
D11*
X94001950Y-85602520D02*
X94047680Y-85556790D01*
D14*
X150626180Y-56285830D02*
X150354400Y-56557620D01*
D12*
X65302490Y-81538520D02*
X65302490Y-81673130D01*
D10*
X143653880Y-68259390D02*
X143793580Y-68117150D01*
D12*
X80595810Y-90906060D02*
X80649150Y-91061000D01*
D10*
X131746410Y-65572070D02*
X131886110Y-65500960D01*
D12*
X87614510Y-95035290D02*
X87718650Y-94931150D01*
D10*
X162183230Y-65500960D02*
X162394050Y-65290130D01*
D14*
X174352310Y-54784700D02*
X175172740Y-56694780D01*
D10*
X141045350Y-61332810D02*
X141116470Y-61261700D01*
D11*
X94456610Y-87812310D02*
X94593770Y-87766600D01*
D10*
X152190870Y-62742520D02*
X152333110Y-62671390D01*
D12*
X62406890Y-80827310D02*
X62495790Y-80784130D01*
D10*
X181840290Y-64584020D02*
X181558350Y-65572070D01*
D12*
X80440870Y-117766560D02*
X81167310Y-118078980D01*
X80128450Y-86621080D02*
X80232590Y-86725220D01*
D11*
X93684450Y-83159040D02*
X94456610Y-83159040D01*
D10*
X145724030Y-62742520D02*
X145866270Y-62671390D01*
X135213510Y-65500960D02*
X135071270Y-65572070D01*
X160237590Y-65147890D02*
X160308710Y-65358710D01*
D12*
X81167310Y-86516940D02*
X81167310Y-86308660D01*
D10*
X133267810Y-67342460D02*
X132846180Y-68330520D01*
X142891930Y-65147890D02*
X142963050Y-65358710D01*
D11*
X94639490Y-112257280D02*
X94593770Y-112394440D01*
D10*
X148866010Y-65500960D02*
X149076830Y-65290130D01*
D12*
X66425180Y-80072940D02*
X66379460Y-80210100D01*
D10*
X157067670Y-62036390D02*
X157278490Y-61825570D01*
X137550310Y-65572070D02*
X137692550Y-65572070D01*
D11*
X93910520Y-85648230D02*
X94001950Y-85602520D01*
D12*
X64664960Y-79092490D02*
X65302490Y-79364280D01*
X80440870Y-88368600D02*
X81167310Y-88368600D01*
D11*
X93684450Y-80286290D02*
X94639490Y-80286290D01*
D12*
X80753290Y-90301540D02*
X80804090Y-90042460D01*
X87614510Y-92322570D02*
X87718650Y-92426710D01*
D11*
X93730180Y-123793960D02*
X93775900Y-123748230D01*
D12*
X80232590Y-120271000D02*
X81167310Y-120271000D01*
D10*
X131604170Y-62671390D02*
X131746410Y-62742520D01*
D12*
X86834730Y-98990070D02*
X87769450Y-98990070D01*
X81167310Y-94690660D02*
X81116510Y-94589060D01*
D10*
X196508790Y-61967810D02*
X196366550Y-61825570D01*
D11*
X94047680Y-122285200D02*
X94001950Y-122193760D01*
D12*
X80390150Y-80337220D02*
X80494290Y-80388020D01*
X80494210Y-92290360D02*
X80753290Y-92290360D01*
D11*
X94139110Y-98467620D02*
X94273740Y-98421890D01*
D10*
X146978740Y-67060520D02*
X146836490Y-66920810D01*
D12*
X81065710Y-115216400D02*
X80961570Y-115269740D01*
D11*
X93684450Y-104103880D02*
X94639490Y-104103880D01*
D10*
X162167990Y-62671390D02*
X162096870Y-62529150D01*
X146061790Y-67342460D02*
X146132920Y-67413570D01*
D12*
X63133340Y-80392970D02*
X63087620Y-80347260D01*
D14*
X169688880Y-56694780D02*
X170097810Y-56694780D01*
X158317290Y-54784700D02*
X158317290Y-56694780D01*
D12*
X70806680Y-81447070D02*
X70852400Y-81355630D01*
D11*
X94456610Y-101220970D02*
X94593770Y-101175260D01*
D12*
X87406340Y-76528830D02*
X87452050Y-76574540D01*
D13*
X87128740Y-110032340D02*
X87220180Y-109940900D01*
D12*
X80077650Y-110199900D02*
X80077650Y-110720600D01*
X86806890Y-122076110D02*
X87170120Y-122347880D01*
X86997390Y-74702560D02*
X87634930Y-74974350D01*
X69193780Y-80481880D02*
X69148050Y-80527600D01*
X70806680Y-80118650D02*
X70852400Y-80027210D01*
D10*
X157842370Y-62036390D02*
X157842370Y-62742520D01*
D12*
X80232590Y-86725220D02*
X80336730Y-86778560D01*
X81167340Y-106374630D02*
X81116540Y-106529570D01*
X87355430Y-103127730D02*
X87355430Y-102868650D01*
X80232590Y-100903500D02*
X80336730Y-100852700D01*
X87223460Y-83074400D02*
X87223460Y-82256530D01*
D10*
X135678330Y-62318330D02*
X135746910Y-62529150D01*
D12*
X81116510Y-84116640D02*
X81167310Y-84274120D01*
D14*
X164890810Y-55193630D02*
X164890810Y-55739730D01*
D10*
X198284250Y-62318330D02*
X198355370Y-62529150D01*
X139241900Y-67342460D02*
X138959950Y-68330520D01*
D11*
X93684450Y-118249130D02*
X93684450Y-118429470D01*
D10*
X129943010Y-65358710D02*
X130082710Y-65500960D01*
D11*
X94001950Y-112785600D02*
X94093400Y-112831310D01*
X93819080Y-109821410D02*
X93684450Y-109684260D01*
X93730180Y-112394440D02*
X93819080Y-112485880D01*
X94456610Y-90121180D02*
X94593770Y-90075460D01*
X93819080Y-78711490D02*
X93730180Y-78802940D01*
X94273740Y-98421890D02*
X94365180Y-98421890D01*
D10*
X171243410Y-61825570D02*
X171101170Y-61754460D01*
X177570550Y-64584020D02*
X177570550Y-65572070D01*
D12*
X87043010Y-88598930D02*
X87769450Y-88289050D01*
D11*
X94502340Y-90512330D02*
X94410900Y-90466620D01*
D12*
X80908230Y-95160560D02*
X81012370Y-95107220D01*
D11*
X94593770Y-97985020D02*
X94639490Y-97847860D01*
D12*
X69239490Y-81538520D02*
X69239490Y-81673130D01*
D10*
X194169450Y-62036390D02*
X194169450Y-62742520D01*
D14*
X150080080Y-56694780D02*
X149671130Y-56694780D01*
D11*
X95843450Y-112394440D02*
X95889180Y-112348710D01*
D10*
X168297010Y-65500960D02*
X168510370Y-65290130D01*
X138157370Y-65008200D02*
X138157370Y-65147890D01*
X189589830Y-65500960D02*
X189729530Y-65572070D01*
D12*
X86834730Y-90481070D02*
X87769450Y-90481070D01*
X80077650Y-94898940D02*
X80128450Y-95003080D01*
D10*
X176399610Y-65500960D02*
X176541850Y-65572070D01*
D11*
X94001950Y-84347760D02*
X94639490Y-84167410D01*
D12*
X80232590Y-84012500D02*
X80336730Y-83961700D01*
D10*
X176752670Y-65572070D02*
X176892370Y-65500960D01*
D12*
X66379460Y-80210100D02*
X66379460Y-80301540D01*
D10*
X182515930Y-65500960D02*
X182655630Y-65572070D01*
D11*
X96023790Y-106603230D02*
X96160950Y-106603230D01*
D10*
X146836490Y-66920810D02*
X146625680Y-66849700D01*
X137550310Y-61754460D02*
X137339490Y-61754460D01*
D11*
X94047680Y-99448050D02*
X94184840Y-99539490D01*
D10*
X149894710Y-64584020D02*
X150105530Y-64584020D01*
X159828650Y-61825570D02*
X159970890Y-61754460D01*
X159208890Y-64655130D02*
X159351130Y-64584020D01*
D14*
X133090020Y-54921860D02*
X132818240Y-55193630D01*
D12*
X87096350Y-92218430D02*
X87355430Y-92218430D01*
D11*
X94047680Y-103349490D02*
X94184840Y-103303780D01*
D12*
X80077650Y-94088680D02*
X81167310Y-93362240D01*
D11*
X94456610Y-83159040D02*
X94593770Y-83113310D01*
D12*
X80440870Y-119044180D02*
X80494210Y-118889240D01*
D11*
X94410900Y-76268020D02*
X94502340Y-76222290D01*
D10*
X132099470Y-65008200D02*
X132028350Y-64797380D01*
D13*
X87720560Y-110169500D02*
X87720560Y-110304120D01*
D12*
X80667010Y-76946200D02*
X80758450Y-76946200D01*
D10*
X147273430Y-64655130D02*
X147415670Y-64584020D01*
D11*
X94001950Y-120913600D02*
X94001950Y-120776440D01*
D12*
X87543500Y-76137670D02*
X87452050Y-76183380D01*
X63224780Y-79910380D02*
X63270490Y-79773210D01*
D10*
X192548930Y-64865960D02*
X192548930Y-65572070D01*
X167057490Y-64655130D02*
X166917790Y-64584020D01*
D11*
X94139110Y-94731280D02*
X94184840Y-94865890D01*
X93730180Y-121485100D02*
X93684450Y-121439380D01*
D10*
X134507340Y-67484700D02*
X134436220Y-67413570D01*
D12*
X87510370Y-85977650D02*
X87355430Y-85977650D01*
D10*
X152190870Y-61754460D02*
X151980050Y-61754460D01*
D12*
X63270490Y-79681780D02*
X63224780Y-79547150D01*
X87510370Y-95088630D02*
X87614510Y-95035290D01*
X80494210Y-110720600D02*
X80440870Y-110565660D01*
D10*
X156249790Y-62460570D02*
X156320910Y-62671390D01*
X189081830Y-62178630D02*
X189081830Y-62318330D01*
X175020390Y-65500960D02*
X174878150Y-65358710D01*
X174878150Y-64584020D02*
X174878150Y-66064830D01*
X159153010Y-61967810D02*
X159013310Y-61825570D01*
X151022470Y-61825570D02*
X150882770Y-61754460D01*
D12*
X64802120Y-81309910D02*
X64936730Y-81264200D01*
D11*
X94593770Y-112394440D02*
X94502340Y-112485880D01*
D12*
X63087620Y-80438700D02*
X63133340Y-80392970D01*
X86730590Y-114438350D02*
X86679790Y-114334210D01*
D11*
X93684450Y-113420600D02*
X94639490Y-113420600D01*
X95843450Y-121693380D02*
X96798490Y-122330910D01*
D12*
X80077650Y-85706680D02*
X81167310Y-85706680D01*
D11*
X94093400Y-85467890D02*
X94184840Y-85193570D01*
D12*
X80908230Y-103669560D02*
X81012370Y-103616220D01*
D10*
X170890350Y-62742520D02*
X171101170Y-62742520D01*
D11*
X96432740Y-103684780D02*
X96524180Y-103684780D01*
D10*
X162874110Y-61967810D02*
X162802990Y-61825570D01*
X174103450Y-61825570D02*
X174032330Y-61967810D01*
D12*
X87197950Y-97504170D02*
X87355430Y-97450830D01*
D11*
X94639490Y-101086360D02*
X94639490Y-100994910D01*
D10*
X144837570Y-64584020D02*
X144977270Y-64655130D01*
D12*
X87096350Y-89566670D02*
X87043010Y-89411730D01*
D11*
X96069520Y-106257790D02*
X96206680Y-106303520D01*
X96160950Y-119712180D02*
X96798490Y-119712180D01*
X94639490Y-122059130D02*
X94639490Y-122193760D01*
X94593770Y-111939780D02*
X94639490Y-112076940D01*
X93684450Y-99768100D02*
X93684450Y-99585210D01*
D10*
X174413330Y-65147890D02*
X174342210Y-65358710D01*
D12*
X81167310Y-96974120D02*
X81167310Y-97337340D01*
D11*
X96160950Y-100921260D02*
X96798490Y-100921260D01*
D12*
X87043010Y-113523950D02*
X87769450Y-113211530D01*
D11*
X95843450Y-123931120D02*
X96798490Y-124294330D01*
D12*
X87614510Y-86030990D02*
X87510370Y-85977650D01*
D10*
X167804250Y-65500960D02*
X167946490Y-65572070D01*
X136988970Y-62318330D02*
X137057550Y-62529150D01*
X171454230Y-62178630D02*
X171383110Y-61967810D01*
D11*
X94001950Y-94639830D02*
X94093400Y-94685550D01*
X93684450Y-124068280D02*
X93684450Y-123885390D01*
D10*
X139468010Y-64584020D02*
X139468010Y-65572070D01*
D12*
X86679890Y-76919980D02*
X87043120Y-77194300D01*
X80486670Y-77037630D02*
X80532390Y-76991910D01*
D10*
X186503730Y-65500960D02*
X186643430Y-65572070D01*
X167184490Y-61754460D02*
X167184490Y-62460570D01*
D11*
X96524180Y-103684780D02*
X96661340Y-103639050D01*
D12*
X80440870Y-114197860D02*
X81167310Y-113887980D01*
D11*
X96252400Y-120103330D02*
X96298110Y-120149050D01*
D10*
X177006670Y-61754460D02*
X177146370Y-61825570D01*
X187743250Y-65500960D02*
X187885490Y-65572070D01*
D12*
X81167310Y-101165120D02*
X81167310Y-101528340D01*
D10*
X183882450Y-61825570D02*
X183953570Y-62036390D01*
X174525090Y-61754460D02*
X174314270Y-61754460D01*
D14*
X160580430Y-56557620D02*
X160171490Y-56694780D01*
D10*
X143595510Y-65500960D02*
X143737750Y-65358710D01*
D12*
X86938870Y-95088630D02*
X87096350Y-95139430D01*
X81065740Y-106580380D02*
X80961590Y-106633710D01*
D11*
X93819080Y-118066260D02*
X93730180Y-118157700D01*
D10*
X146640970Y-64584020D02*
X146851790Y-64584020D01*
D12*
X80232590Y-88815640D02*
X80128450Y-88919780D01*
X86730590Y-114024330D02*
X86783930Y-113970990D01*
D14*
X147407990Y-56694780D02*
X147816930Y-56557620D01*
D10*
X193958630Y-61754460D02*
X194098330Y-61825570D01*
X141581290Y-62036390D02*
X141792110Y-61825570D01*
D12*
X87634930Y-80402330D02*
X87589210Y-80536950D01*
D10*
X142808060Y-67413570D02*
X142808060Y-67766630D01*
D12*
X62315460Y-79773210D02*
X62361180Y-79910380D01*
D11*
X94273740Y-79349040D02*
X94410900Y-79303310D01*
D10*
X189729530Y-64584020D02*
X189589830Y-64655130D01*
D12*
X80494210Y-100799360D02*
X80753290Y-100799360D01*
X81012370Y-94484920D02*
X80908230Y-94431580D01*
X81116510Y-86207060D02*
X81012370Y-86102920D01*
X80077650Y-97337340D02*
X81167310Y-97337340D01*
D11*
X94593770Y-101795020D02*
X94456610Y-101657860D01*
X95843450Y-119757890D02*
X95889180Y-119712180D01*
D12*
X80336730Y-96661700D02*
X80494210Y-96608360D01*
X87769450Y-118659830D02*
X87769450Y-117930850D01*
D11*
X93956240Y-99402330D02*
X94047680Y-99448050D01*
X94365180Y-110913620D02*
X93684450Y-110913620D01*
D10*
X196016030Y-62742520D02*
X196226850Y-62742520D01*
X189589830Y-64655130D02*
X189447590Y-64797380D01*
D11*
X96432740Y-100921260D02*
X96298110Y-100875540D01*
D12*
X80077650Y-101528340D02*
X81167310Y-101528340D01*
X80440950Y-79318680D02*
X81169930Y-79631100D01*
D10*
X184771450Y-62742520D02*
X184982270Y-62742520D01*
D12*
X80753290Y-83908360D02*
X80908230Y-83961700D01*
D10*
X190224830Y-64797380D02*
X190082590Y-64655130D01*
D11*
X94593770Y-83113310D02*
X94639490Y-83021880D01*
D10*
X137438490Y-67555810D02*
X137367380Y-67766630D01*
X135746910Y-62529150D02*
X135889150Y-62671390D01*
D11*
X96798490Y-115767550D02*
X96752770Y-115902180D01*
X94639490Y-98830830D02*
X94593770Y-98967990D01*
D10*
X131957180Y-67555810D02*
X131817470Y-67413570D01*
X174103450Y-62107520D02*
X174245690Y-62178630D01*
X187672130Y-64584020D02*
X187672130Y-65290130D01*
D11*
X96752770Y-101312410D02*
X96661340Y-101220970D01*
D12*
X87459570Y-97450830D02*
X87614510Y-97504170D01*
D10*
X166508850Y-61825570D02*
X166366610Y-61754460D01*
X137410610Y-65500960D02*
X137550310Y-65572070D01*
X156460610Y-62742520D02*
X156602850Y-62742520D01*
X170537290Y-62318330D02*
X170608410Y-62529150D01*
D12*
X68647680Y-80118650D02*
X68693390Y-80027210D01*
X62361180Y-81236260D02*
X62315460Y-81147360D01*
D10*
X180514410Y-61754460D02*
X180514410Y-62742520D01*
D11*
X94593770Y-94202960D02*
X94639490Y-94111520D01*
D10*
X170750650Y-61825570D02*
X170608410Y-61967810D01*
X133943450Y-68259390D02*
X134085700Y-68330520D01*
X145990680Y-67202750D02*
X146061790Y-67342460D01*
D12*
X67151620Y-80964470D02*
X67197340Y-80918760D01*
D10*
X140509410Y-61261700D02*
X139948070Y-62742520D01*
D12*
X64347460Y-80210100D02*
X64347460Y-80301540D01*
X80895610Y-76991910D02*
X80987050Y-77083360D01*
D11*
X94047680Y-119003520D02*
X94273740Y-119003520D01*
D10*
X137367380Y-67766630D02*
X137367380Y-67906330D01*
X180049590Y-62318330D02*
X180049590Y-62178630D01*
D12*
X80222450Y-122930360D02*
X81177490Y-122930360D01*
D10*
X133549810Y-64655130D02*
X133689510Y-64584020D01*
D11*
X93910520Y-79303310D02*
X94047680Y-79349040D01*
D10*
X137438490Y-68117150D02*
X137580740Y-68259390D01*
D14*
X131098650Y-55330790D02*
X129871840Y-55330790D01*
D12*
X67243050Y-81856020D02*
X67151620Y-81901730D01*
D11*
X94319450Y-123357070D02*
X94319450Y-122676360D01*
D10*
X174807030Y-62529150D02*
X174738450Y-62671390D01*
D11*
X93684450Y-97758960D02*
X93684450Y-97847860D01*
D10*
X143920630Y-61967810D02*
X143849510Y-62178630D01*
D11*
X94639490Y-99994150D02*
X94639490Y-99359150D01*
X96069520Y-105622790D02*
X95978080Y-105665970D01*
D10*
X133732630Y-67766630D02*
X133732630Y-67906330D01*
D12*
X67334490Y-80301540D02*
X67334490Y-80210100D01*
D10*
X139003190Y-65008200D02*
X139003190Y-64865960D01*
X198987830Y-62671390D02*
X199130070Y-62529150D01*
X134860450Y-64584020D02*
X135071270Y-64584020D01*
X166564730Y-64655130D02*
X166425030Y-64797380D01*
D11*
X94001950Y-83984540D02*
X94639490Y-84167410D01*
X94639490Y-75859070D02*
X94593770Y-75767630D01*
D12*
X86837320Y-107007500D02*
X86941460Y-107060840D01*
D11*
X94047680Y-93885460D02*
X94001950Y-93976890D01*
X95978080Y-106212070D02*
X96069520Y-106257790D01*
X94139110Y-82584990D02*
X94273740Y-82630710D01*
D12*
X80232590Y-116080000D02*
X81167310Y-116080000D01*
D14*
X131644750Y-55056470D02*
X131507590Y-55193630D01*
D12*
X87614510Y-97504170D02*
X87718650Y-97608310D01*
X81032770Y-77220520D02*
X81032770Y-77355130D01*
X87718700Y-106903360D02*
X87772040Y-106799220D01*
X66696960Y-81673130D02*
X66696960Y-81538520D01*
D10*
X141652410Y-64797380D02*
X141581290Y-65008200D01*
D12*
X87197950Y-88995170D02*
X87355430Y-88941830D01*
D10*
X174314270Y-61754460D02*
X174103450Y-61825570D01*
D11*
X94639490Y-87675150D02*
X94639490Y-87540540D01*
D12*
X80395230Y-74774490D02*
X81032770Y-75046280D01*
D10*
X171581230Y-64584020D02*
X171370410Y-64584020D01*
X146005970Y-61754460D02*
X146005970Y-62882210D01*
X144202570Y-62742520D02*
X144413390Y-62742520D01*
D14*
X156816150Y-56148680D02*
X156953310Y-56557620D01*
X150626180Y-55193630D02*
X150763340Y-55602570D01*
D12*
X86941460Y-106331860D02*
X86837320Y-106385200D01*
X62406890Y-81281970D02*
X62361180Y-81236260D01*
D10*
X134436220Y-68259390D02*
X134578450Y-68117150D01*
D14*
X160717590Y-55193630D02*
X160580430Y-54921860D01*
D12*
X80077730Y-76991910D02*
X80440950Y-77266230D01*
D10*
X154278750Y-61754460D02*
X154418450Y-61825570D01*
X143031630Y-61261700D02*
X143031630Y-62460570D01*
X151629530Y-62318330D02*
X151698110Y-62529150D01*
D14*
X133770740Y-56694780D02*
X134045060Y-56557620D01*
D12*
X66968730Y-81264200D02*
X67060180Y-81264200D01*
D10*
X194845090Y-62460570D02*
X194916210Y-62671390D01*
D11*
X94593770Y-79166150D02*
X94639490Y-79077260D01*
D10*
X136663850Y-64584020D02*
X136663850Y-65572070D01*
D11*
X93684450Y-122902410D02*
X94639490Y-122902410D01*
D15*
X101296840Y-126707330D02*
X101296840Y-69557330D01*
D14*
X149127580Y-54784700D02*
X149127580Y-57647280D01*
D10*
X147245490Y-61896700D02*
X147174370Y-61825570D01*
X186996490Y-64655130D02*
X186856790Y-64584020D01*
X130011590Y-61472520D02*
X129943010Y-61614750D01*
X143920630Y-62529150D02*
X144060330Y-62671390D01*
X139539130Y-64797380D02*
X139678830Y-64655130D01*
X189434890Y-61754460D02*
X189292650Y-61825570D01*
D12*
X80948900Y-123867620D02*
X80811740Y-123867620D01*
D11*
X95843450Y-116930880D02*
X96798490Y-116930880D01*
X96206680Y-111548620D02*
X96343840Y-111502890D01*
D10*
X172327990Y-65290130D02*
X172399110Y-65500960D01*
X137199790Y-62671390D02*
X137339490Y-62742520D01*
X175271850Y-62460570D02*
X175342970Y-62671390D01*
X169511130Y-61754460D02*
X170003890Y-61754460D01*
X167959190Y-61754460D02*
X167959190Y-62742520D01*
D12*
X87634930Y-77148590D02*
X87634930Y-77283200D01*
D14*
X177707650Y-56420460D02*
X177435880Y-56966550D01*
D10*
X158180190Y-65290130D02*
X158251310Y-65500960D01*
X131464420Y-67342460D02*
X131322180Y-67413570D01*
X147034670Y-61754460D02*
X146823850Y-61754460D01*
D12*
X80222450Y-124276550D02*
X80268180Y-124365460D01*
X71398490Y-80347260D02*
X71352770Y-80481880D01*
D11*
X93730180Y-118520910D02*
X93819080Y-118612360D01*
D12*
X86834730Y-94412990D02*
X86730590Y-94517130D01*
D10*
X166425030Y-64797380D02*
X166353910Y-65008200D01*
D14*
X138845650Y-56557620D02*
X139117430Y-56694780D01*
D10*
X143229700Y-68330520D02*
X143511630Y-68330520D01*
X153643750Y-61825570D02*
X153714870Y-62036390D01*
X151093590Y-61896700D02*
X151022470Y-61825570D01*
X143793580Y-68117150D02*
X143864700Y-67977460D01*
X172327990Y-64584020D02*
X172327990Y-65290130D01*
D12*
X81040340Y-124456890D02*
X81131770Y-124365460D01*
D11*
X96661340Y-103138680D02*
X96524180Y-103095490D01*
X96069520Y-115993620D02*
X96160950Y-115947890D01*
X93910520Y-124248620D02*
X93864790Y-124248620D01*
X96478450Y-124157180D02*
X96478450Y-123702520D01*
X94139110Y-88157760D02*
X94273740Y-88112040D01*
D10*
X137339490Y-61754460D02*
X137199790Y-61825570D01*
D12*
X86679790Y-94618730D02*
X86679790Y-94827010D01*
X80131070Y-80855380D02*
X80077730Y-80753780D01*
D10*
X131393350Y-65500960D02*
X131535590Y-65572070D01*
D12*
X62315460Y-81673130D02*
X63270490Y-81673130D01*
X87043010Y-116965650D02*
X87769450Y-117275530D01*
X62859020Y-80047540D02*
X63087620Y-80001810D01*
D14*
X166745020Y-53829650D02*
X166745020Y-56694780D01*
D11*
X94273740Y-118703790D02*
X94410900Y-118658070D01*
D12*
X86679790Y-94016750D02*
X87769450Y-94016750D01*
D11*
X94593770Y-118157700D02*
X94502340Y-118066260D01*
D10*
X136453030Y-65500960D02*
X136663850Y-65290130D01*
D11*
X93730180Y-97985020D02*
X93864790Y-98076460D01*
D10*
X134718210Y-64655130D02*
X134860450Y-64584020D01*
X167608670Y-62742520D02*
X167748370Y-62671390D01*
X137580740Y-68259390D02*
X137720430Y-68330520D01*
D11*
X94139110Y-112877040D02*
X94184840Y-113011650D01*
D10*
X181825050Y-62671390D02*
X181967290Y-62742520D01*
X130224900Y-67342460D02*
X130435720Y-67342460D01*
X166366610Y-62742520D02*
X166508850Y-62671390D01*
X156249790Y-61261700D02*
X156249790Y-62460570D01*
D12*
X86679790Y-101093190D02*
X86730590Y-100935710D01*
X86679790Y-97554970D02*
X86679790Y-98075670D01*
X70443450Y-80481880D02*
X70443450Y-79984040D01*
D10*
X146625680Y-68330520D02*
X146343740Y-68330520D01*
D11*
X94001950Y-87812310D02*
X94456610Y-87812310D01*
D12*
X63087620Y-79455710D02*
X62859020Y-79409990D01*
D11*
X93684450Y-89186460D02*
X94456610Y-89186460D01*
D10*
X167199730Y-65358710D02*
X167268310Y-65147890D01*
X167733130Y-64584020D02*
X167733130Y-65290130D01*
X160943710Y-64655130D02*
X160801470Y-64584020D01*
X139384190Y-61261700D02*
X139948070Y-62742520D01*
D11*
X93684450Y-80286290D02*
X93684450Y-79966260D01*
D10*
X143935810Y-67766630D02*
X143935810Y-67413570D01*
D12*
X87769450Y-92584190D02*
X87769450Y-92947410D01*
D10*
X182868990Y-65572070D02*
X183008690Y-65500960D01*
D11*
X93684450Y-119641050D02*
X93684450Y-119321020D01*
X93684450Y-121530810D02*
X93730180Y-121485100D01*
D10*
X157771250Y-61825570D02*
X157842370Y-62036390D01*
X193717330Y-65500960D02*
X193859570Y-65358710D01*
D11*
X94001950Y-101657860D02*
X94639490Y-101657860D01*
D12*
X81167310Y-103407940D02*
X81167310Y-103199660D01*
D11*
X93730180Y-90966990D02*
X93819080Y-91058440D01*
D10*
X176541850Y-65572070D02*
X176752670Y-65572070D01*
D12*
X66788390Y-80573310D02*
X66923020Y-80573310D01*
D11*
X93910520Y-90466620D02*
X93819080Y-90512330D01*
D10*
X158871070Y-62742520D02*
X159013310Y-62671390D01*
D11*
X93910520Y-119049230D02*
X94047680Y-119003520D01*
X94639490Y-88340630D02*
X94639490Y-88475260D01*
D12*
X69102340Y-80918760D02*
X69056620Y-80873040D01*
X68601960Y-79638600D02*
X69239490Y-79364280D01*
D11*
X94184840Y-81284520D02*
X94639490Y-81284520D01*
D10*
X152333110Y-61825570D02*
X152190870Y-61754460D01*
X138678020Y-67342460D02*
X138959950Y-68330520D01*
X129943010Y-61614750D02*
X129871890Y-61825570D01*
D12*
X63087620Y-80347260D02*
X63041890Y-80392970D01*
D11*
X93730180Y-94731280D02*
X93775900Y-94685550D01*
D12*
X81167310Y-92656120D02*
X81167310Y-93019340D01*
D14*
X150354400Y-54921860D02*
X150626180Y-55193630D01*
D10*
X131535590Y-64584020D02*
X131393350Y-64655130D01*
X173567510Y-64797380D02*
X173709750Y-64655130D01*
X197537490Y-63235280D02*
X197326670Y-63235280D01*
D12*
X81012370Y-118785100D02*
X81116510Y-118889240D01*
X64664960Y-81673130D02*
X64664960Y-81538520D01*
D11*
X94410900Y-90466620D02*
X94273740Y-90420890D01*
D12*
X80222450Y-123565360D02*
X81177490Y-122930360D01*
D11*
X94410900Y-118658070D02*
X94502340Y-118612360D01*
D10*
X197819430Y-62882210D02*
X197748310Y-63093040D01*
D11*
X95934900Y-120103330D02*
X96023790Y-120057620D01*
X96752770Y-106120630D02*
X96798490Y-106031730D01*
D10*
X145612270Y-64584020D02*
X145751970Y-64655130D01*
D12*
X86679790Y-101456410D02*
X86679790Y-101093190D01*
X80753290Y-100799360D02*
X80908230Y-100852700D01*
D10*
X161154530Y-65008200D02*
X161083410Y-64797380D01*
D12*
X80908230Y-88764840D02*
X80753290Y-88711500D01*
D10*
X174738450Y-61825570D02*
X174525090Y-61754460D01*
X134578510Y-64797380D02*
X134718210Y-64655130D01*
D14*
X147816930Y-56557620D02*
X148088720Y-56285830D01*
D12*
X71261340Y-81309910D02*
X71352770Y-81401360D01*
D11*
X94047680Y-79349040D02*
X94273740Y-79349040D01*
D10*
X138510430Y-64584020D02*
X138368190Y-64655130D01*
X171370410Y-64584020D02*
X171159590Y-64655130D01*
X132775110Y-63235280D02*
X132703990Y-63235280D01*
D12*
X66834120Y-81309910D02*
X66968730Y-81264200D01*
D11*
X94639490Y-89049290D02*
X94639490Y-88957860D01*
D10*
X165043270Y-64584020D02*
X165464910Y-65572070D01*
D12*
X81116510Y-101007640D02*
X81167310Y-101165120D01*
D11*
X94593770Y-82493550D02*
X94639490Y-82404650D01*
D10*
X139468010Y-65008200D02*
X139539130Y-64797380D01*
X147514680Y-68330520D02*
X147583250Y-68259390D01*
D12*
X80811740Y-124548330D02*
X80948900Y-124502620D01*
X80908230Y-89491280D02*
X81012370Y-89440480D01*
D10*
X131182470Y-67555810D02*
X131111360Y-67766630D01*
X184489510Y-61967810D02*
X184418390Y-62178630D01*
D11*
X93730180Y-109249910D02*
X93684450Y-109158470D01*
D10*
X159351130Y-64584020D02*
X159561950Y-64584020D01*
D12*
X80494210Y-110253240D02*
X80595810Y-110149100D01*
X87761930Y-122439330D02*
X87716210Y-122573950D01*
X86938870Y-86706630D02*
X87096350Y-86757430D01*
D10*
X144484510Y-64655130D02*
X144624210Y-64584020D01*
D12*
X87043010Y-97763250D02*
X87096350Y-97608310D01*
D11*
X93684450Y-116659100D02*
X94639490Y-116293330D01*
D10*
X136691740Y-67342460D02*
X136833970Y-67413570D01*
D11*
X96160950Y-106603230D02*
X96252400Y-106648960D01*
X95843450Y-104622040D02*
X95843450Y-104213100D01*
D10*
X132099470Y-61825570D02*
X131957230Y-61754460D01*
X186856790Y-65572070D02*
X186996490Y-65500960D01*
X144202570Y-61754460D02*
X144060330Y-61825570D01*
D11*
X96524180Y-117931630D02*
X96432740Y-117931630D01*
D12*
X65165340Y-80918760D02*
X65119620Y-80873040D01*
D10*
X142808060Y-67766630D02*
X142876630Y-67977460D01*
D11*
X96160950Y-118157700D02*
X96160950Y-118294860D01*
D12*
X68284460Y-81309910D02*
X68647680Y-81584230D01*
D10*
X176188790Y-65008200D02*
X176188790Y-65147890D01*
D14*
X132681080Y-55874360D02*
X132818240Y-56285830D01*
D11*
X94047680Y-76313730D02*
X94273740Y-76313730D01*
D10*
X177006670Y-62742520D02*
X176795850Y-62742520D01*
X181543110Y-61754460D02*
X182035870Y-61754460D01*
D12*
X87589210Y-77420360D02*
X87543500Y-77466090D01*
D10*
X192929930Y-61261700D02*
X192858810Y-61190570D01*
D12*
X80545040Y-106580380D02*
X80494240Y-106529570D01*
X80077650Y-101528340D02*
X80077650Y-101165120D01*
D13*
X87674840Y-110441280D02*
X87629120Y-110487000D01*
D11*
X96432740Y-119366730D02*
X96524180Y-119366730D01*
D12*
X86679790Y-84565410D02*
X86679790Y-84202190D01*
D11*
X94001950Y-81558830D02*
X94001950Y-81421680D01*
D10*
X189447590Y-65358710D02*
X189589830Y-65500960D01*
X190224830Y-64091250D02*
X190224830Y-65572070D01*
D12*
X86783980Y-105313320D02*
X86888120Y-105262520D01*
D11*
X94502340Y-79257600D02*
X94593770Y-79166150D01*
D12*
X81116540Y-106529570D02*
X81065740Y-106580380D01*
X70898110Y-81309910D02*
X71032740Y-81264200D01*
D11*
X93819080Y-118612360D02*
X93910520Y-118658070D01*
D10*
X176541850Y-64584020D02*
X176399610Y-64655130D01*
D12*
X81177490Y-124093680D02*
X81131770Y-124002230D01*
D11*
X93910520Y-79694470D02*
X94047680Y-79648760D01*
X94184840Y-112031210D02*
X94228020Y-111939780D01*
D10*
X131182530Y-65147890D02*
X131253650Y-65358710D01*
D12*
X86806890Y-123401980D02*
X87170120Y-123676300D01*
X65302490Y-80210100D02*
X65256780Y-80072940D01*
D11*
X94548060Y-99013710D02*
X94456610Y-99056890D01*
D12*
X87096350Y-118034990D02*
X87251290Y-118139130D01*
D10*
X182373690Y-65358710D02*
X182515930Y-65500960D01*
X136099970Y-65572070D02*
X136310790Y-65572070D01*
X141847930Y-66849700D02*
X141847930Y-68330520D01*
D11*
X96160950Y-101403860D02*
X96160950Y-101541020D01*
D14*
X148088720Y-56285830D02*
X148225880Y-55874360D01*
D12*
X87360620Y-75548380D02*
X87497780Y-75594110D01*
D14*
X150354400Y-56557620D02*
X150080080Y-56694780D01*
D10*
X161083410Y-65358710D02*
X161154530Y-65147890D01*
D14*
X134045060Y-54921860D02*
X133770740Y-54784700D01*
D10*
X192787690Y-61261700D02*
X192858810Y-61332810D01*
D11*
X95843450Y-111111730D02*
X95797740Y-111157460D01*
D10*
X147316610Y-62036390D02*
X147245490Y-61896700D01*
X133338990Y-64865960D02*
X133549810Y-64655130D01*
D11*
X94047680Y-85556790D02*
X94093400Y-85467890D01*
D12*
X86679840Y-106799220D02*
X86733180Y-106903360D01*
X80440870Y-87954580D02*
X80494210Y-87850440D01*
D10*
X183008690Y-65500960D02*
X183150930Y-65358710D01*
X141652410Y-65358710D02*
X141792110Y-65500960D01*
D12*
X87355430Y-88941830D02*
X87459570Y-88941830D01*
D10*
X198848130Y-62742520D02*
X198987830Y-62671390D01*
D12*
X71124180Y-79938310D02*
X71261340Y-79984040D01*
D11*
X93684450Y-75859070D02*
X93684450Y-76039410D01*
D12*
X87200540Y-105366660D02*
X87251340Y-105521600D01*
X80232590Y-86102920D02*
X80128450Y-86207060D01*
D11*
X96206680Y-118386290D02*
X96298110Y-118475200D01*
D12*
X87589210Y-77011430D02*
X87634930Y-77148590D01*
D11*
X96252400Y-101266700D02*
X96206680Y-101312410D01*
D10*
X146681610Y-61825570D02*
X146541910Y-61967810D01*
D12*
X64527790Y-79984040D02*
X64393180Y-80072940D01*
D10*
X198355370Y-62529150D02*
X198495070Y-62671390D01*
X157631550Y-61754460D02*
X157771250Y-61825570D01*
X156193910Y-64091250D02*
X155840850Y-65572070D01*
X134718210Y-65500960D02*
X134578510Y-65358710D01*
D12*
X86679790Y-92947410D02*
X86679790Y-92584190D01*
X80667010Y-75620310D02*
X80758450Y-75620310D01*
D11*
X93730180Y-105602470D02*
X93819080Y-105693910D01*
D10*
X193745270Y-61754460D02*
X193958630Y-61754460D01*
D12*
X81167310Y-94898940D02*
X81167310Y-94690660D01*
X80395230Y-75320600D02*
X81032770Y-75046280D01*
X81167310Y-110565660D02*
X81116510Y-110720600D01*
X80077650Y-101165120D02*
X80128450Y-101007640D01*
D10*
X189292650Y-62671390D02*
X189434890Y-62742520D01*
D12*
X80804170Y-76600760D02*
X80849890Y-76646470D01*
D11*
X94139110Y-121876260D02*
X94273740Y-121830540D01*
D12*
X86888070Y-114542490D02*
X86783930Y-114491690D01*
D10*
X144273690Y-64584020D02*
X144273690Y-65572070D01*
D12*
X87718650Y-98075670D02*
X87667850Y-98126470D01*
D14*
X159353610Y-54921860D02*
X159216450Y-55193630D01*
D10*
X145724030Y-61754460D02*
X145513210Y-61754460D01*
X136028850Y-62742520D02*
X136242210Y-62742520D01*
D12*
X80077650Y-115165600D02*
X80545010Y-115216400D01*
X87269180Y-76874270D02*
X87360620Y-76874270D01*
D10*
X176795850Y-62742520D02*
X176653610Y-62671390D01*
D12*
X80286010Y-80959520D02*
X80181870Y-80908720D01*
D14*
X160717590Y-56285830D02*
X160580430Y-56557620D01*
D10*
X171383110Y-61967810D02*
X171243410Y-61825570D01*
D12*
X87614510Y-103544290D02*
X87718650Y-103440150D01*
D10*
X146272610Y-67484700D02*
X146696790Y-67624390D01*
X165464910Y-65572070D02*
X165325210Y-65854020D01*
D12*
X87355430Y-92218430D02*
X87510370Y-92271770D01*
X86834730Y-86653290D02*
X86938870Y-86706630D01*
D10*
X151022470Y-62671390D02*
X151162170Y-62529150D01*
D12*
X86834730Y-116008070D02*
X87769450Y-116008070D01*
D13*
X87220180Y-109940900D02*
X87354800Y-109895180D01*
D11*
X96206680Y-119229570D02*
X96298110Y-119321020D01*
D10*
X190082590Y-65500960D02*
X190224830Y-65358710D01*
D12*
X86783930Y-114491690D02*
X86730590Y-114438350D01*
D10*
X196973610Y-62318330D02*
X197044730Y-62529150D01*
X177034610Y-64797380D02*
X176892370Y-64655130D01*
D12*
X81116510Y-110253240D02*
X81167310Y-110408180D01*
X80753310Y-105904730D02*
X80857450Y-105904730D01*
X68693390Y-80027210D02*
X68739120Y-79984040D01*
D11*
X93864790Y-98076460D02*
X94093400Y-98122180D01*
D12*
X80077650Y-101871240D02*
X81167310Y-101871240D01*
D14*
X169279930Y-54784700D02*
X169279930Y-56148680D01*
D10*
X147316610Y-62178630D02*
X147316610Y-62036390D01*
D11*
X96524180Y-115358620D02*
X96661340Y-115358620D01*
X94047680Y-106085070D02*
X94273740Y-106085070D01*
D12*
X80440870Y-109752860D02*
X81167310Y-109442980D01*
D10*
X138213200Y-67624390D02*
X138142080Y-67484700D01*
D12*
X86837320Y-106385200D02*
X86733180Y-106489340D01*
D10*
X148866010Y-61261700D02*
X149854070Y-61261700D01*
D11*
X93819080Y-91058440D02*
X93910520Y-91104150D01*
D12*
X80128450Y-90906060D02*
X80181790Y-90852720D01*
X62315460Y-80964470D02*
X62361180Y-80873040D01*
D11*
X93730180Y-99493780D02*
X93775900Y-99448050D01*
D12*
X71352770Y-81401360D02*
X71398490Y-81538520D01*
D10*
X160321410Y-61825570D02*
X160392530Y-62036390D01*
X132239170Y-61754460D02*
X132239170Y-62742520D01*
D14*
X146452950Y-56285830D02*
X146727270Y-56557620D01*
D12*
X86730590Y-94931150D02*
X86834730Y-95035290D01*
D11*
X94456610Y-97530360D02*
X94228020Y-97484630D01*
D12*
X86730590Y-92426710D02*
X86834730Y-92322570D01*
X71261340Y-80918760D02*
X71215610Y-80873040D01*
D11*
X93684450Y-85239290D02*
X93684450Y-85422180D01*
D12*
X81167310Y-119201660D02*
X81116510Y-119356600D01*
D11*
X94047680Y-93357130D02*
X94139110Y-93448570D01*
D12*
X81167310Y-103199660D02*
X81116510Y-103098060D01*
D11*
X93684450Y-107720830D02*
X94639490Y-108084050D01*
D10*
X179020890Y-65572070D02*
X179163130Y-65572070D01*
D12*
X64347460Y-81810290D02*
X64756390Y-81856020D01*
D10*
X179485710Y-62742520D02*
X179696530Y-62742520D01*
D14*
X161753920Y-53966810D02*
X161891080Y-53829650D01*
D11*
X94047680Y-98967990D02*
X94001950Y-98830830D01*
D14*
X140971630Y-55602570D02*
X141108790Y-55193630D01*
D11*
X96752770Y-115902180D02*
X96661340Y-115993620D01*
X93730180Y-119186390D02*
X93819080Y-119094960D01*
D12*
X87096400Y-107111640D02*
X87355480Y-107111640D01*
X81065710Y-110771400D02*
X80961570Y-110824740D01*
D10*
X151670170Y-65500960D02*
X151812410Y-65572070D01*
X174807030Y-62460570D02*
X174807030Y-62529150D01*
D11*
X94639490Y-93131070D02*
X94593770Y-93039630D01*
X94184840Y-103303780D02*
X94639490Y-103303780D01*
X94273740Y-105785360D02*
X94410900Y-105739630D01*
X93684450Y-95277380D02*
X94639490Y-95277380D01*
X94365180Y-93494290D02*
X94502340Y-93448570D01*
X95934900Y-116339050D02*
X96023790Y-116293330D01*
D10*
X183178870Y-61754460D02*
X183178870Y-62742520D01*
D12*
X63224780Y-79547150D02*
X63087620Y-79455710D01*
D10*
X143102750Y-64655130D02*
X142963050Y-64797380D01*
D12*
X80595810Y-90459020D02*
X80699950Y-90405680D01*
D10*
X173849450Y-64584020D02*
X174060270Y-64584020D01*
D11*
X95843450Y-106831830D02*
X95889180Y-106694680D01*
D12*
X71032740Y-81264200D02*
X71124180Y-81264200D01*
D11*
X94047680Y-123748230D02*
X94184840Y-123839680D01*
X94047680Y-94202960D02*
X94139110Y-94294390D01*
X94047680Y-88566700D02*
X94001950Y-88475260D01*
D10*
X189447590Y-64797380D02*
X189379010Y-65008200D01*
D11*
X94047680Y-103666990D02*
X94001950Y-103575550D01*
D12*
X81167310Y-89023920D02*
X81116510Y-88919780D01*
D10*
X177824550Y-61754460D02*
X177824550Y-63235280D01*
X130082710Y-65500960D02*
X130224950Y-65572070D01*
D17*
X104050901Y-63090865D02*
X104193758Y-63138484D01*
X104193758Y-63138484D02*
X104241377Y-63186103D01*
X104241377Y-63186103D02*
X104288996Y-63281341D01*
X104288996Y-63281341D02*
X104288996Y-63424198D01*
X104288996Y-63424198D02*
X104241377Y-63519436D01*
X104241377Y-63519436D02*
X104193758Y-63567056D01*
X104193758Y-63567056D02*
X104098520Y-63614675D01*
X104098520Y-63614675D02*
X103717568Y-63614675D01*
X103717568Y-63614675D02*
X103717568Y-62614675D01*
X103717568Y-62614675D02*
X104050901Y-62614675D01*
X104050901Y-62614675D02*
X104146139Y-62662294D01*
X104146139Y-62662294D02*
X104193758Y-62709913D01*
X104193758Y-62709913D02*
X104241377Y-62805151D01*
X104241377Y-62805151D02*
X104241377Y-62900389D01*
X104241377Y-62900389D02*
X104193758Y-62995627D01*
X104193758Y-62995627D02*
X104146139Y-63043246D01*
X104146139Y-63043246D02*
X104050901Y-63090865D01*
X104050901Y-63090865D02*
X103717568Y-63090865D01*
X105193758Y-63614675D02*
X104717568Y-63614675D01*
X104717568Y-63614675D02*
X104717568Y-62614675D01*
X105527092Y-63614675D02*
X105527092Y-62614675D01*
X106098520Y-63614675D02*
X105669949Y-63043246D01*
X106098520Y-62614675D02*
X105527092Y-63186103D01*
X104241377Y-64272238D02*
X104146139Y-64224619D01*
X104146139Y-64224619D02*
X104003282Y-64224619D01*
X104003282Y-64224619D02*
X103860425Y-64272238D01*
X103860425Y-64272238D02*
X103765187Y-64367476D01*
X103765187Y-64367476D02*
X103717568Y-64462714D01*
X103717568Y-64462714D02*
X103669949Y-64653190D01*
X103669949Y-64653190D02*
X103669949Y-64796047D01*
X103669949Y-64796047D02*
X103717568Y-64986523D01*
X103717568Y-64986523D02*
X103765187Y-65081761D01*
X103765187Y-65081761D02*
X103860425Y-65177000D01*
X103860425Y-65177000D02*
X104003282Y-65224619D01*
X104003282Y-65224619D02*
X104098520Y-65224619D01*
X104098520Y-65224619D02*
X104241377Y-65177000D01*
X104241377Y-65177000D02*
X104288996Y-65129380D01*
X104288996Y-65129380D02*
X104288996Y-64796047D01*
X104288996Y-64796047D02*
X104098520Y-64796047D01*
X104717568Y-65224619D02*
X104717568Y-64224619D01*
X104717568Y-64224619D02*
X105288996Y-65224619D01*
X105288996Y-65224619D02*
X105288996Y-64224619D01*
X105765187Y-65224619D02*
X105765187Y-64224619D01*
X105765187Y-64224619D02*
X106003282Y-64224619D01*
X106003282Y-64224619D02*
X106146139Y-64272238D01*
X106146139Y-64272238D02*
X106241377Y-64367476D01*
X106241377Y-64367476D02*
X106288996Y-64462714D01*
X106288996Y-64462714D02*
X106336615Y-64653190D01*
X106336615Y-64653190D02*
X106336615Y-64796047D01*
X106336615Y-64796047D02*
X106288996Y-64986523D01*
X106288996Y-64986523D02*
X106241377Y-65081761D01*
X106241377Y-65081761D02*
X106146139Y-65177000D01*
X106146139Y-65177000D02*
X106003282Y-65224619D01*
X106003282Y-65224619D02*
X105765187Y-65224619D01*
X58650187Y-109536238D02*
X58959711Y-110402904D01*
X58959711Y-110402904D02*
X59269234Y-109536238D01*
X60445425Y-110402904D02*
X59702568Y-110402904D01*
X60073996Y-110402904D02*
X60073996Y-109102904D01*
X60073996Y-109102904D02*
X59950187Y-109288619D01*
X59950187Y-109288619D02*
X59826377Y-109412428D01*
X59826377Y-109412428D02*
X59702568Y-109474333D01*
X61002567Y-110279095D02*
X61064472Y-110341000D01*
X61064472Y-110341000D02*
X61002567Y-110402904D01*
X61002567Y-110402904D02*
X60940663Y-110341000D01*
X60940663Y-110341000D02*
X61002567Y-110279095D01*
X61002567Y-110279095D02*
X61002567Y-110402904D01*
X62240663Y-109102904D02*
X61621615Y-109102904D01*
X61621615Y-109102904D02*
X61559711Y-109721952D01*
X61559711Y-109721952D02*
X61621615Y-109660047D01*
X61621615Y-109660047D02*
X61745425Y-109598142D01*
X61745425Y-109598142D02*
X62054949Y-109598142D01*
X62054949Y-109598142D02*
X62178758Y-109660047D01*
X62178758Y-109660047D02*
X62240663Y-109721952D01*
X62240663Y-109721952D02*
X62302568Y-109845761D01*
X62302568Y-109845761D02*
X62302568Y-110155285D01*
X62302568Y-110155285D02*
X62240663Y-110279095D01*
X62240663Y-110279095D02*
X62178758Y-110341000D01*
X62178758Y-110341000D02*
X62054949Y-110402904D01*
X62054949Y-110402904D02*
X61745425Y-110402904D01*
X61745425Y-110402904D02*
X61621615Y-110341000D01*
X61621615Y-110341000D02*
X61559711Y-110279095D01*
X63850186Y-109907666D02*
X64840663Y-109907666D01*
X66388282Y-109226714D02*
X66450186Y-109164809D01*
X66450186Y-109164809D02*
X66573996Y-109102904D01*
X66573996Y-109102904D02*
X66883520Y-109102904D01*
X66883520Y-109102904D02*
X67007329Y-109164809D01*
X67007329Y-109164809D02*
X67069234Y-109226714D01*
X67069234Y-109226714D02*
X67131139Y-109350523D01*
X67131139Y-109350523D02*
X67131139Y-109474333D01*
X67131139Y-109474333D02*
X67069234Y-109660047D01*
X67069234Y-109660047D02*
X66326377Y-110402904D01*
X66326377Y-110402904D02*
X67131139Y-110402904D01*
X67935900Y-109102904D02*
X68059710Y-109102904D01*
X68059710Y-109102904D02*
X68183519Y-109164809D01*
X68183519Y-109164809D02*
X68245424Y-109226714D01*
X68245424Y-109226714D02*
X68307329Y-109350523D01*
X68307329Y-109350523D02*
X68369234Y-109598142D01*
X68369234Y-109598142D02*
X68369234Y-109907666D01*
X68369234Y-109907666D02*
X68307329Y-110155285D01*
X68307329Y-110155285D02*
X68245424Y-110279095D01*
X68245424Y-110279095D02*
X68183519Y-110341000D01*
X68183519Y-110341000D02*
X68059710Y-110402904D01*
X68059710Y-110402904D02*
X67935900Y-110402904D01*
X67935900Y-110402904D02*
X67812091Y-110341000D01*
X67812091Y-110341000D02*
X67750186Y-110279095D01*
X67750186Y-110279095D02*
X67688281Y-110155285D01*
X67688281Y-110155285D02*
X67626377Y-109907666D01*
X67626377Y-109907666D02*
X67626377Y-109598142D01*
X67626377Y-109598142D02*
X67688281Y-109350523D01*
X67688281Y-109350523D02*
X67750186Y-109226714D01*
X67750186Y-109226714D02*
X67812091Y-109164809D01*
X67812091Y-109164809D02*
X67935900Y-109102904D01*
X68864472Y-109226714D02*
X68926376Y-109164809D01*
X68926376Y-109164809D02*
X69050186Y-109102904D01*
X69050186Y-109102904D02*
X69359710Y-109102904D01*
X69359710Y-109102904D02*
X69483519Y-109164809D01*
X69483519Y-109164809D02*
X69545424Y-109226714D01*
X69545424Y-109226714D02*
X69607329Y-109350523D01*
X69607329Y-109350523D02*
X69607329Y-109474333D01*
X69607329Y-109474333D02*
X69545424Y-109660047D01*
X69545424Y-109660047D02*
X68802567Y-110402904D01*
X68802567Y-110402904D02*
X69607329Y-110402904D01*
X70721614Y-109536238D02*
X70721614Y-110402904D01*
X70412090Y-109041000D02*
X70102567Y-109969571D01*
X70102567Y-109969571D02*
X70907328Y-109969571D01*
X120798949Y-62614675D02*
X120989425Y-62614675D01*
X120989425Y-62614675D02*
X121084663Y-62662294D01*
X121084663Y-62662294D02*
X121179901Y-62757532D01*
X121179901Y-62757532D02*
X121227520Y-62948008D01*
X121227520Y-62948008D02*
X121227520Y-63281341D01*
X121227520Y-63281341D02*
X121179901Y-63471817D01*
X121179901Y-63471817D02*
X121084663Y-63567056D01*
X121084663Y-63567056D02*
X120989425Y-63614675D01*
X120989425Y-63614675D02*
X120798949Y-63614675D01*
X120798949Y-63614675D02*
X120703711Y-63567056D01*
X120703711Y-63567056D02*
X120608473Y-63471817D01*
X120608473Y-63471817D02*
X120560854Y-63281341D01*
X120560854Y-63281341D02*
X120560854Y-62948008D01*
X120560854Y-62948008D02*
X120608473Y-62757532D01*
X120608473Y-62757532D02*
X120703711Y-62662294D01*
X120703711Y-62662294D02*
X120798949Y-62614675D01*
X122227520Y-63614675D02*
X121894187Y-63138484D01*
X121656092Y-63614675D02*
X121656092Y-62614675D01*
X121656092Y-62614675D02*
X122037044Y-62614675D01*
X122037044Y-62614675D02*
X122132282Y-62662294D01*
X122132282Y-62662294D02*
X122179901Y-62709913D01*
X122179901Y-62709913D02*
X122227520Y-62805151D01*
X122227520Y-62805151D02*
X122227520Y-62948008D01*
X122227520Y-62948008D02*
X122179901Y-63043246D01*
X122179901Y-63043246D02*
X122132282Y-63090865D01*
X122132282Y-63090865D02*
X122037044Y-63138484D01*
X122037044Y-63138484D02*
X121656092Y-63138484D01*
X123179901Y-62662294D02*
X123084663Y-62614675D01*
X123084663Y-62614675D02*
X122941806Y-62614675D01*
X122941806Y-62614675D02*
X122798949Y-62662294D01*
X122798949Y-62662294D02*
X122703711Y-62757532D01*
X122703711Y-62757532D02*
X122656092Y-62852770D01*
X122656092Y-62852770D02*
X122608473Y-63043246D01*
X122608473Y-63043246D02*
X122608473Y-63186103D01*
X122608473Y-63186103D02*
X122656092Y-63376579D01*
X122656092Y-63376579D02*
X122703711Y-63471817D01*
X122703711Y-63471817D02*
X122798949Y-63567056D01*
X122798949Y-63567056D02*
X122941806Y-63614675D01*
X122941806Y-63614675D02*
X123037044Y-63614675D01*
X123037044Y-63614675D02*
X123179901Y-63567056D01*
X123179901Y-63567056D02*
X123227520Y-63519436D01*
X123227520Y-63519436D02*
X123227520Y-63186103D01*
X123227520Y-63186103D02*
X123037044Y-63186103D01*
X119846568Y-64843666D02*
X120608473Y-64843666D01*
X120227520Y-65224619D02*
X120227520Y-64462714D01*
X121608472Y-65224619D02*
X121037044Y-65224619D01*
X121322758Y-65224619D02*
X121322758Y-64224619D01*
X121322758Y-64224619D02*
X121227520Y-64367476D01*
X121227520Y-64367476D02*
X121132282Y-64462714D01*
X121132282Y-64462714D02*
X121037044Y-64510333D01*
X121989425Y-64319857D02*
X122037044Y-64272238D01*
X122037044Y-64272238D02*
X122132282Y-64224619D01*
X122132282Y-64224619D02*
X122370377Y-64224619D01*
X122370377Y-64224619D02*
X122465615Y-64272238D01*
X122465615Y-64272238D02*
X122513234Y-64319857D01*
X122513234Y-64319857D02*
X122560853Y-64415095D01*
X122560853Y-64415095D02*
X122560853Y-64510333D01*
X122560853Y-64510333D02*
X122513234Y-64653190D01*
X122513234Y-64653190D02*
X121941806Y-65224619D01*
X121941806Y-65224619D02*
X122560853Y-65224619D01*
X122846568Y-64224619D02*
X123179901Y-65224619D01*
X123179901Y-65224619D02*
X123513234Y-64224619D01*
X116988996Y-63614675D02*
X116655663Y-63138484D01*
X116417568Y-63614675D02*
X116417568Y-62614675D01*
X116417568Y-62614675D02*
X116798520Y-62614675D01*
X116798520Y-62614675D02*
X116893758Y-62662294D01*
X116893758Y-62662294D02*
X116941377Y-62709913D01*
X116941377Y-62709913D02*
X116988996Y-62805151D01*
X116988996Y-62805151D02*
X116988996Y-62948008D01*
X116988996Y-62948008D02*
X116941377Y-63043246D01*
X116941377Y-63043246D02*
X116893758Y-63090865D01*
X116893758Y-63090865D02*
X116798520Y-63138484D01*
X116798520Y-63138484D02*
X116417568Y-63138484D01*
X117417568Y-63090865D02*
X117750901Y-63090865D01*
X117893758Y-63614675D02*
X117417568Y-63614675D01*
X117417568Y-63614675D02*
X117417568Y-62614675D01*
X117417568Y-62614675D02*
X117893758Y-62614675D01*
X118322330Y-63614675D02*
X118322330Y-62614675D01*
X118322330Y-62614675D02*
X118560425Y-62614675D01*
X118560425Y-62614675D02*
X118703282Y-62662294D01*
X118703282Y-62662294D02*
X118798520Y-62757532D01*
X118798520Y-62757532D02*
X118846139Y-62852770D01*
X118846139Y-62852770D02*
X118893758Y-63043246D01*
X118893758Y-63043246D02*
X118893758Y-63186103D01*
X118893758Y-63186103D02*
X118846139Y-63376579D01*
X118846139Y-63376579D02*
X118798520Y-63471817D01*
X118798520Y-63471817D02*
X118703282Y-63567056D01*
X118703282Y-63567056D02*
X118560425Y-63614675D01*
X118560425Y-63614675D02*
X118322330Y-63614675D01*
X116417568Y-64843666D02*
X117179473Y-64843666D01*
X116798520Y-65224619D02*
X116798520Y-64462714D01*
X118131853Y-64224619D02*
X117655663Y-64224619D01*
X117655663Y-64224619D02*
X117608044Y-64700809D01*
X117608044Y-64700809D02*
X117655663Y-64653190D01*
X117655663Y-64653190D02*
X117750901Y-64605571D01*
X117750901Y-64605571D02*
X117988996Y-64605571D01*
X117988996Y-64605571D02*
X118084234Y-64653190D01*
X118084234Y-64653190D02*
X118131853Y-64700809D01*
X118131853Y-64700809D02*
X118179472Y-64796047D01*
X118179472Y-64796047D02*
X118179472Y-65034142D01*
X118179472Y-65034142D02*
X118131853Y-65129380D01*
X118131853Y-65129380D02*
X118084234Y-65177000D01*
X118084234Y-65177000D02*
X117988996Y-65224619D01*
X117988996Y-65224619D02*
X117750901Y-65224619D01*
X117750901Y-65224619D02*
X117655663Y-65177000D01*
X117655663Y-65177000D02*
X117608044Y-65129380D01*
X118465187Y-64224619D02*
X118798520Y-65224619D01*
X118798520Y-65224619D02*
X119131853Y-64224619D01*
X117071139Y-56902238D02*
X116975901Y-56854619D01*
X116975901Y-56854619D02*
X116833044Y-56854619D01*
X116833044Y-56854619D02*
X116690187Y-56902238D01*
X116690187Y-56902238D02*
X116594949Y-56997476D01*
X116594949Y-56997476D02*
X116547330Y-57092714D01*
X116547330Y-57092714D02*
X116499711Y-57283190D01*
X116499711Y-57283190D02*
X116499711Y-57426047D01*
X116499711Y-57426047D02*
X116547330Y-57616523D01*
X116547330Y-57616523D02*
X116594949Y-57711761D01*
X116594949Y-57711761D02*
X116690187Y-57807000D01*
X116690187Y-57807000D02*
X116833044Y-57854619D01*
X116833044Y-57854619D02*
X116928282Y-57854619D01*
X116928282Y-57854619D02*
X117071139Y-57807000D01*
X117071139Y-57807000D02*
X117118758Y-57759380D01*
X117118758Y-57759380D02*
X117118758Y-57426047D01*
X117118758Y-57426047D02*
X116928282Y-57426047D01*
X117547330Y-57854619D02*
X117547330Y-56854619D01*
X117547330Y-56854619D02*
X118118758Y-57854619D01*
X118118758Y-57854619D02*
X118118758Y-56854619D01*
X118594949Y-57854619D02*
X118594949Y-56854619D01*
X118594949Y-56854619D02*
X118833044Y-56854619D01*
X118833044Y-56854619D02*
X118975901Y-56902238D01*
X118975901Y-56902238D02*
X119071139Y-56997476D01*
X119071139Y-56997476D02*
X119118758Y-57092714D01*
X119118758Y-57092714D02*
X119166377Y-57283190D01*
X119166377Y-57283190D02*
X119166377Y-57426047D01*
X119166377Y-57426047D02*
X119118758Y-57616523D01*
X119118758Y-57616523D02*
X119071139Y-57711761D01*
X119071139Y-57711761D02*
X118975901Y-57807000D01*
X118975901Y-57807000D02*
X118833044Y-57854619D01*
X118833044Y-57854619D02*
X118594949Y-57854619D01*
X121235901Y-52730809D02*
X121378758Y-52778428D01*
X121378758Y-52778428D02*
X121426377Y-52826047D01*
X121426377Y-52826047D02*
X121473996Y-52921285D01*
X121473996Y-52921285D02*
X121473996Y-53064142D01*
X121473996Y-53064142D02*
X121426377Y-53159380D01*
X121426377Y-53159380D02*
X121378758Y-53207000D01*
X121378758Y-53207000D02*
X121283520Y-53254619D01*
X121283520Y-53254619D02*
X120902568Y-53254619D01*
X120902568Y-53254619D02*
X120902568Y-52254619D01*
X120902568Y-52254619D02*
X121235901Y-52254619D01*
X121235901Y-52254619D02*
X121331139Y-52302238D01*
X121331139Y-52302238D02*
X121378758Y-52349857D01*
X121378758Y-52349857D02*
X121426377Y-52445095D01*
X121426377Y-52445095D02*
X121426377Y-52540333D01*
X121426377Y-52540333D02*
X121378758Y-52635571D01*
X121378758Y-52635571D02*
X121331139Y-52683190D01*
X121331139Y-52683190D02*
X121235901Y-52730809D01*
X121235901Y-52730809D02*
X120902568Y-52730809D01*
X122378758Y-53254619D02*
X121902568Y-53254619D01*
X121902568Y-53254619D02*
X121902568Y-52254619D01*
X122712092Y-53254619D02*
X122712092Y-52254619D01*
X123283520Y-53254619D02*
X122854949Y-52683190D01*
X123283520Y-52254619D02*
X122712092Y-52826047D01*
X116915901Y-52610809D02*
X117058758Y-52658428D01*
X117058758Y-52658428D02*
X117106377Y-52706047D01*
X117106377Y-52706047D02*
X117153996Y-52801285D01*
X117153996Y-52801285D02*
X117153996Y-52944142D01*
X117153996Y-52944142D02*
X117106377Y-53039380D01*
X117106377Y-53039380D02*
X117058758Y-53087000D01*
X117058758Y-53087000D02*
X116963520Y-53134619D01*
X116963520Y-53134619D02*
X116582568Y-53134619D01*
X116582568Y-53134619D02*
X116582568Y-52134619D01*
X116582568Y-52134619D02*
X116915901Y-52134619D01*
X116915901Y-52134619D02*
X117011139Y-52182238D01*
X117011139Y-52182238D02*
X117058758Y-52229857D01*
X117058758Y-52229857D02*
X117106377Y-52325095D01*
X117106377Y-52325095D02*
X117106377Y-52420333D01*
X117106377Y-52420333D02*
X117058758Y-52515571D01*
X117058758Y-52515571D02*
X117011139Y-52563190D01*
X117011139Y-52563190D02*
X116915901Y-52610809D01*
X116915901Y-52610809D02*
X116582568Y-52610809D01*
X118058758Y-53134619D02*
X117582568Y-53134619D01*
X117582568Y-53134619D02*
X117582568Y-52134619D01*
X118392092Y-53134619D02*
X118392092Y-52134619D01*
X118963520Y-53134619D02*
X118534949Y-52563190D01*
X118963520Y-52134619D02*
X118392092Y-52706047D01*
X112716377Y-52172238D02*
X112621139Y-52124619D01*
X112621139Y-52124619D02*
X112478282Y-52124619D01*
X112478282Y-52124619D02*
X112335425Y-52172238D01*
X112335425Y-52172238D02*
X112240187Y-52267476D01*
X112240187Y-52267476D02*
X112192568Y-52362714D01*
X112192568Y-52362714D02*
X112144949Y-52553190D01*
X112144949Y-52553190D02*
X112144949Y-52696047D01*
X112144949Y-52696047D02*
X112192568Y-52886523D01*
X112192568Y-52886523D02*
X112240187Y-52981761D01*
X112240187Y-52981761D02*
X112335425Y-53077000D01*
X112335425Y-53077000D02*
X112478282Y-53124619D01*
X112478282Y-53124619D02*
X112573520Y-53124619D01*
X112573520Y-53124619D02*
X112716377Y-53077000D01*
X112716377Y-53077000D02*
X112763996Y-53029380D01*
X112763996Y-53029380D02*
X112763996Y-52696047D01*
X112763996Y-52696047D02*
X112573520Y-52696047D01*
X113763996Y-53124619D02*
X113430663Y-52648428D01*
X113192568Y-53124619D02*
X113192568Y-52124619D01*
X113192568Y-52124619D02*
X113573520Y-52124619D01*
X113573520Y-52124619D02*
X113668758Y-52172238D01*
X113668758Y-52172238D02*
X113716377Y-52219857D01*
X113716377Y-52219857D02*
X113763996Y-52315095D01*
X113763996Y-52315095D02*
X113763996Y-52457952D01*
X113763996Y-52457952D02*
X113716377Y-52553190D01*
X113716377Y-52553190D02*
X113668758Y-52600809D01*
X113668758Y-52600809D02*
X113573520Y-52648428D01*
X113573520Y-52648428D02*
X113192568Y-52648428D01*
X114192568Y-53124619D02*
X114192568Y-52124619D01*
X114192568Y-52124619D02*
X114763996Y-53124619D01*
X114763996Y-53124619D02*
X114763996Y-52124619D01*
X111357330Y-57473666D02*
X112119235Y-57473666D01*
X113119234Y-57854619D02*
X112547806Y-57854619D01*
X112833520Y-57854619D02*
X112833520Y-56854619D01*
X112833520Y-56854619D02*
X112738282Y-56997476D01*
X112738282Y-56997476D02*
X112643044Y-57092714D01*
X112643044Y-57092714D02*
X112547806Y-57140333D01*
X113500187Y-56949857D02*
X113547806Y-56902238D01*
X113547806Y-56902238D02*
X113643044Y-56854619D01*
X113643044Y-56854619D02*
X113881139Y-56854619D01*
X113881139Y-56854619D02*
X113976377Y-56902238D01*
X113976377Y-56902238D02*
X114023996Y-56949857D01*
X114023996Y-56949857D02*
X114071615Y-57045095D01*
X114071615Y-57045095D02*
X114071615Y-57140333D01*
X114071615Y-57140333D02*
X114023996Y-57283190D01*
X114023996Y-57283190D02*
X113452568Y-57854619D01*
X113452568Y-57854619D02*
X114071615Y-57854619D01*
X114357330Y-56854619D02*
X114690663Y-57854619D01*
X114690663Y-57854619D02*
X115023996Y-56854619D01*
X108172568Y-57834619D02*
X108172568Y-56834619D01*
X108172568Y-56834619D02*
X108553520Y-56834619D01*
X108553520Y-56834619D02*
X108648758Y-56882238D01*
X108648758Y-56882238D02*
X108696377Y-56929857D01*
X108696377Y-56929857D02*
X108743996Y-57025095D01*
X108743996Y-57025095D02*
X108743996Y-57167952D01*
X108743996Y-57167952D02*
X108696377Y-57263190D01*
X108696377Y-57263190D02*
X108648758Y-57310809D01*
X108648758Y-57310809D02*
X108553520Y-57358428D01*
X108553520Y-57358428D02*
X108172568Y-57358428D01*
X109505901Y-57310809D02*
X109172568Y-57310809D01*
X109172568Y-57834619D02*
X109172568Y-56834619D01*
X109172568Y-56834619D02*
X109648758Y-56834619D01*
X109934473Y-56834619D02*
X110172568Y-57834619D01*
X110172568Y-57834619D02*
X110363044Y-57120333D01*
X110363044Y-57120333D02*
X110553520Y-57834619D01*
X110553520Y-57834619D02*
X110791616Y-56834619D01*
X104010664Y-52608428D02*
X104010664Y-53084619D01*
X103677331Y-52084619D02*
X104010664Y-52608428D01*
X104010664Y-52608428D02*
X104343997Y-52084619D01*
X105153521Y-53084619D02*
X104677331Y-53084619D01*
X104677331Y-53084619D02*
X104677331Y-52084619D01*
X105391617Y-52084619D02*
X105629712Y-53084619D01*
X105629712Y-53084619D02*
X105820188Y-52370333D01*
X105820188Y-52370333D02*
X106010664Y-53084619D01*
X106010664Y-53084619D02*
X106248760Y-52084619D01*
D10*
X65790225Y-89132257D02*
X65647368Y-89060828D01*
X65647368Y-89060828D02*
X65433082Y-89060828D01*
X65433082Y-89060828D02*
X65218796Y-89132257D01*
X65218796Y-89132257D02*
X65075939Y-89275114D01*
X65075939Y-89275114D02*
X65004510Y-89417971D01*
X65004510Y-89417971D02*
X64933082Y-89703685D01*
X64933082Y-89703685D02*
X64933082Y-89917971D01*
X64933082Y-89917971D02*
X65004510Y-90203685D01*
X65004510Y-90203685D02*
X65075939Y-90346542D01*
X65075939Y-90346542D02*
X65218796Y-90489400D01*
X65218796Y-90489400D02*
X65433082Y-90560828D01*
X65433082Y-90560828D02*
X65575939Y-90560828D01*
X65575939Y-90560828D02*
X65790225Y-90489400D01*
X65790225Y-90489400D02*
X65861653Y-90417971D01*
X65861653Y-90417971D02*
X65861653Y-89917971D01*
X65861653Y-89917971D02*
X65575939Y-89917971D01*
X66504510Y-90560828D02*
X66504510Y-89060828D01*
X66504510Y-89060828D02*
X67361653Y-90560828D01*
X67361653Y-90560828D02*
X67361653Y-89060828D01*
X68075939Y-90560828D02*
X68075939Y-89060828D01*
X68075939Y-89060828D02*
X68433082Y-89060828D01*
X68433082Y-89060828D02*
X68647368Y-89132257D01*
X68647368Y-89132257D02*
X68790225Y-89275114D01*
X68790225Y-89275114D02*
X68861654Y-89417971D01*
X68861654Y-89417971D02*
X68933082Y-89703685D01*
X68933082Y-89703685D02*
X68933082Y-89917971D01*
X68933082Y-89917971D02*
X68861654Y-90203685D01*
X68861654Y-90203685D02*
X68790225Y-90346542D01*
X68790225Y-90346542D02*
X68647368Y-90489400D01*
X68647368Y-90489400D02*
X68433082Y-90560828D01*
X68433082Y-90560828D02*
X68075939Y-90560828D01*
D17*
X121368759Y-56902238D02*
X121273521Y-56854619D01*
X121273521Y-56854619D02*
X121130664Y-56854619D01*
X121130664Y-56854619D02*
X120987807Y-56902238D01*
X120987807Y-56902238D02*
X120892569Y-56997476D01*
X120892569Y-56997476D02*
X120844950Y-57092714D01*
X120844950Y-57092714D02*
X120797331Y-57283190D01*
X120797331Y-57283190D02*
X120797331Y-57426047D01*
X120797331Y-57426047D02*
X120844950Y-57616523D01*
X120844950Y-57616523D02*
X120892569Y-57711761D01*
X120892569Y-57711761D02*
X120987807Y-57807000D01*
X120987807Y-57807000D02*
X121130664Y-57854619D01*
X121130664Y-57854619D02*
X121225902Y-57854619D01*
X121225902Y-57854619D02*
X121368759Y-57807000D01*
X121368759Y-57807000D02*
X121416378Y-57759380D01*
X121416378Y-57759380D02*
X121416378Y-57426047D01*
X121416378Y-57426047D02*
X121225902Y-57426047D01*
X121844950Y-57854619D02*
X121844950Y-56854619D01*
X121844950Y-56854619D02*
X122416378Y-57854619D01*
X122416378Y-57854619D02*
X122416378Y-56854619D01*
X122892569Y-57854619D02*
X122892569Y-56854619D01*
X122892569Y-56854619D02*
X123130664Y-56854619D01*
X123130664Y-56854619D02*
X123273521Y-56902238D01*
X123273521Y-56902238D02*
X123368759Y-56997476D01*
X123368759Y-56997476D02*
X123416378Y-57092714D01*
X123416378Y-57092714D02*
X123463997Y-57283190D01*
X123463997Y-57283190D02*
X123463997Y-57426047D01*
X123463997Y-57426047D02*
X123416378Y-57616523D01*
X123416378Y-57616523D02*
X123368759Y-57711761D01*
X123368759Y-57711761D02*
X123273521Y-57807000D01*
X123273521Y-57807000D02*
X123130664Y-57854619D01*
X123130664Y-57854619D02*
X122892569Y-57854619D01*
X112797996Y-63614675D02*
X112464663Y-63138484D01*
X112226568Y-63614675D02*
X112226568Y-62614675D01*
X112226568Y-62614675D02*
X112607520Y-62614675D01*
X112607520Y-62614675D02*
X112702758Y-62662294D01*
X112702758Y-62662294D02*
X112750377Y-62709913D01*
X112750377Y-62709913D02*
X112797996Y-62805151D01*
X112797996Y-62805151D02*
X112797996Y-62948008D01*
X112797996Y-62948008D02*
X112750377Y-63043246D01*
X112750377Y-63043246D02*
X112702758Y-63090865D01*
X112702758Y-63090865D02*
X112607520Y-63138484D01*
X112607520Y-63138484D02*
X112226568Y-63138484D01*
X113226568Y-63090865D02*
X113559901Y-63090865D01*
X113702758Y-63614675D02*
X113226568Y-63614675D01*
X113226568Y-63614675D02*
X113226568Y-62614675D01*
X113226568Y-62614675D02*
X113702758Y-62614675D01*
X114131330Y-63614675D02*
X114131330Y-62614675D01*
X114131330Y-62614675D02*
X114369425Y-62614675D01*
X114369425Y-62614675D02*
X114512282Y-62662294D01*
X114512282Y-62662294D02*
X114607520Y-62757532D01*
X114607520Y-62757532D02*
X114655139Y-62852770D01*
X114655139Y-62852770D02*
X114702758Y-63043246D01*
X114702758Y-63043246D02*
X114702758Y-63186103D01*
X114702758Y-63186103D02*
X114655139Y-63376579D01*
X114655139Y-63376579D02*
X114607520Y-63471817D01*
X114607520Y-63471817D02*
X114512282Y-63567056D01*
X114512282Y-63567056D02*
X114369425Y-63614675D01*
X114369425Y-63614675D02*
X114131330Y-63614675D01*
X112226568Y-64843666D02*
X112988473Y-64843666D01*
X112607520Y-65224619D02*
X112607520Y-64462714D01*
X113940853Y-64224619D02*
X113464663Y-64224619D01*
X113464663Y-64224619D02*
X113417044Y-64700809D01*
X113417044Y-64700809D02*
X113464663Y-64653190D01*
X113464663Y-64653190D02*
X113559901Y-64605571D01*
X113559901Y-64605571D02*
X113797996Y-64605571D01*
X113797996Y-64605571D02*
X113893234Y-64653190D01*
X113893234Y-64653190D02*
X113940853Y-64700809D01*
X113940853Y-64700809D02*
X113988472Y-64796047D01*
X113988472Y-64796047D02*
X113988472Y-65034142D01*
X113988472Y-65034142D02*
X113940853Y-65129380D01*
X113940853Y-65129380D02*
X113893234Y-65177000D01*
X113893234Y-65177000D02*
X113797996Y-65224619D01*
X113797996Y-65224619D02*
X113559901Y-65224619D01*
X113559901Y-65224619D02*
X113464663Y-65177000D01*
X113464663Y-65177000D02*
X113417044Y-65129380D01*
X114274187Y-64224619D02*
X114607520Y-65224619D01*
X114607520Y-65224619D02*
X114940853Y-64224619D01*
X108479996Y-63614675D02*
X108146663Y-63138484D01*
X107908568Y-63614675D02*
X107908568Y-62614675D01*
X107908568Y-62614675D02*
X108289520Y-62614675D01*
X108289520Y-62614675D02*
X108384758Y-62662294D01*
X108384758Y-62662294D02*
X108432377Y-62709913D01*
X108432377Y-62709913D02*
X108479996Y-62805151D01*
X108479996Y-62805151D02*
X108479996Y-62948008D01*
X108479996Y-62948008D02*
X108432377Y-63043246D01*
X108432377Y-63043246D02*
X108384758Y-63090865D01*
X108384758Y-63090865D02*
X108289520Y-63138484D01*
X108289520Y-63138484D02*
X107908568Y-63138484D01*
X108908568Y-63090865D02*
X109241901Y-63090865D01*
X109384758Y-63614675D02*
X108908568Y-63614675D01*
X108908568Y-63614675D02*
X108908568Y-62614675D01*
X108908568Y-62614675D02*
X109384758Y-62614675D01*
X109813330Y-63614675D02*
X109813330Y-62614675D01*
X109813330Y-62614675D02*
X110051425Y-62614675D01*
X110051425Y-62614675D02*
X110194282Y-62662294D01*
X110194282Y-62662294D02*
X110289520Y-62757532D01*
X110289520Y-62757532D02*
X110337139Y-62852770D01*
X110337139Y-62852770D02*
X110384758Y-63043246D01*
X110384758Y-63043246D02*
X110384758Y-63186103D01*
X110384758Y-63186103D02*
X110337139Y-63376579D01*
X110337139Y-63376579D02*
X110289520Y-63471817D01*
X110289520Y-63471817D02*
X110194282Y-63567056D01*
X110194282Y-63567056D02*
X110051425Y-63614675D01*
X110051425Y-63614675D02*
X109813330Y-63614675D01*
X107908568Y-64843666D02*
X108670473Y-64843666D01*
X108289520Y-65224619D02*
X108289520Y-64462714D01*
X109622853Y-64224619D02*
X109146663Y-64224619D01*
X109146663Y-64224619D02*
X109099044Y-64700809D01*
X109099044Y-64700809D02*
X109146663Y-64653190D01*
X109146663Y-64653190D02*
X109241901Y-64605571D01*
X109241901Y-64605571D02*
X109479996Y-64605571D01*
X109479996Y-64605571D02*
X109575234Y-64653190D01*
X109575234Y-64653190D02*
X109622853Y-64700809D01*
X109622853Y-64700809D02*
X109670472Y-64796047D01*
X109670472Y-64796047D02*
X109670472Y-65034142D01*
X109670472Y-65034142D02*
X109622853Y-65129380D01*
X109622853Y-65129380D02*
X109575234Y-65177000D01*
X109575234Y-65177000D02*
X109479996Y-65224619D01*
X109479996Y-65224619D02*
X109241901Y-65224619D01*
X109241901Y-65224619D02*
X109146663Y-65177000D01*
X109146663Y-65177000D02*
X109099044Y-65129380D01*
X109956187Y-64224619D02*
X110289520Y-65224619D01*
X110289520Y-65224619D02*
X110622853Y-64224619D01*
X102664950Y-57473666D02*
X103426855Y-57473666D01*
X103045902Y-57854619D02*
X103045902Y-57092714D01*
X104379235Y-56854619D02*
X103903045Y-56854619D01*
X103903045Y-56854619D02*
X103855426Y-57330809D01*
X103855426Y-57330809D02*
X103903045Y-57283190D01*
X103903045Y-57283190D02*
X103998283Y-57235571D01*
X103998283Y-57235571D02*
X104236378Y-57235571D01*
X104236378Y-57235571D02*
X104331616Y-57283190D01*
X104331616Y-57283190D02*
X104379235Y-57330809D01*
X104379235Y-57330809D02*
X104426854Y-57426047D01*
X104426854Y-57426047D02*
X104426854Y-57664142D01*
X104426854Y-57664142D02*
X104379235Y-57759380D01*
X104379235Y-57759380D02*
X104331616Y-57807000D01*
X104331616Y-57807000D02*
X104236378Y-57854619D01*
X104236378Y-57854619D02*
X103998283Y-57854619D01*
X103998283Y-57854619D02*
X103903045Y-57807000D01*
X103903045Y-57807000D02*
X103855426Y-57759380D01*
X104712569Y-56854619D02*
X105045902Y-57854619D01*
X105045902Y-57854619D02*
X105379235Y-56854619D01*
X105664950Y-57807000D02*
X105807807Y-57854619D01*
X105807807Y-57854619D02*
X106045902Y-57854619D01*
X106045902Y-57854619D02*
X106141140Y-57807000D01*
X106141140Y-57807000D02*
X106188759Y-57759380D01*
X106188759Y-57759380D02*
X106236378Y-57664142D01*
X106236378Y-57664142D02*
X106236378Y-57568904D01*
X106236378Y-57568904D02*
X106188759Y-57473666D01*
X106188759Y-57473666D02*
X106141140Y-57426047D01*
X106141140Y-57426047D02*
X106045902Y-57378428D01*
X106045902Y-57378428D02*
X105855426Y-57330809D01*
X105855426Y-57330809D02*
X105760188Y-57283190D01*
X105760188Y-57283190D02*
X105712569Y-57235571D01*
X105712569Y-57235571D02*
X105664950Y-57140333D01*
X105664950Y-57140333D02*
X105664950Y-57045095D01*
X105664950Y-57045095D02*
X105712569Y-56949857D01*
X105712569Y-56949857D02*
X105760188Y-56902238D01*
X105760188Y-56902238D02*
X105855426Y-56854619D01*
X105855426Y-56854619D02*
X106093521Y-56854619D01*
X106093521Y-56854619D02*
X106236378Y-56902238D01*
X106998283Y-57330809D02*
X107141140Y-57378428D01*
X107141140Y-57378428D02*
X107188759Y-57426047D01*
X107188759Y-57426047D02*
X107236378Y-57521285D01*
X107236378Y-57521285D02*
X107236378Y-57664142D01*
X107236378Y-57664142D02*
X107188759Y-57759380D01*
X107188759Y-57759380D02*
X107141140Y-57807000D01*
X107141140Y-57807000D02*
X107045902Y-57854619D01*
X107045902Y-57854619D02*
X106664950Y-57854619D01*
X106664950Y-57854619D02*
X106664950Y-56854619D01*
X106664950Y-56854619D02*
X106998283Y-56854619D01*
X106998283Y-56854619D02*
X107093521Y-56902238D01*
X107093521Y-56902238D02*
X107141140Y-56949857D01*
X107141140Y-56949857D02*
X107188759Y-57045095D01*
X107188759Y-57045095D02*
X107188759Y-57140333D01*
X107188759Y-57140333D02*
X107141140Y-57235571D01*
X107141140Y-57235571D02*
X107093521Y-57283190D01*
X107093521Y-57283190D02*
X106998283Y-57330809D01*
X106998283Y-57330809D02*
X106664950Y-57330809D01*
X108032568Y-52114619D02*
X108270663Y-53114619D01*
X108270663Y-53114619D02*
X108461139Y-52400333D01*
X108461139Y-52400333D02*
X108651615Y-53114619D01*
X108651615Y-53114619D02*
X108889711Y-52114619D01*
X109270663Y-53114619D02*
X109270663Y-52114619D01*
X109270663Y-52590809D02*
X109842091Y-52590809D01*
X109842091Y-53114619D02*
X109842091Y-52114619D01*
X110175425Y-52114619D02*
X110746853Y-52114619D01*
X110461139Y-53114619D02*
X110461139Y-52114619D01*
D18*
X74409523Y-86399580D02*
X74361904Y-86447200D01*
X74361904Y-86447200D02*
X74219047Y-86494819D01*
X74219047Y-86494819D02*
X74123809Y-86494819D01*
X74123809Y-86494819D02*
X73980952Y-86447200D01*
X73980952Y-86447200D02*
X73885714Y-86351961D01*
X73885714Y-86351961D02*
X73838095Y-86256723D01*
X73838095Y-86256723D02*
X73790476Y-86066247D01*
X73790476Y-86066247D02*
X73790476Y-85923390D01*
X73790476Y-85923390D02*
X73838095Y-85732914D01*
X73838095Y-85732914D02*
X73885714Y-85637676D01*
X73885714Y-85637676D02*
X73980952Y-85542438D01*
X73980952Y-85542438D02*
X74123809Y-85494819D01*
X74123809Y-85494819D02*
X74219047Y-85494819D01*
X74219047Y-85494819D02*
X74361904Y-85542438D01*
X74361904Y-85542438D02*
X74409523Y-85590057D01*
X74838095Y-86494819D02*
X74838095Y-85494819D01*
X74838095Y-85494819D02*
X75409523Y-86494819D01*
X75409523Y-86494819D02*
X75409523Y-85494819D01*
X75838095Y-85590057D02*
X75885714Y-85542438D01*
X75885714Y-85542438D02*
X75980952Y-85494819D01*
X75980952Y-85494819D02*
X76219047Y-85494819D01*
X76219047Y-85494819D02*
X76314285Y-85542438D01*
X76314285Y-85542438D02*
X76361904Y-85590057D01*
X76361904Y-85590057D02*
X76409523Y-85685295D01*
X76409523Y-85685295D02*
X76409523Y-85780533D01*
X76409523Y-85780533D02*
X76361904Y-85923390D01*
X76361904Y-85923390D02*
X75790476Y-86494819D01*
X75790476Y-86494819D02*
X76409523Y-86494819D01*
X69302083Y-76479819D02*
X68968750Y-76003628D01*
X68730655Y-76479819D02*
X68730655Y-75479819D01*
X68730655Y-75479819D02*
X69111607Y-75479819D01*
X69111607Y-75479819D02*
X69206845Y-75527438D01*
X69206845Y-75527438D02*
X69254464Y-75575057D01*
X69254464Y-75575057D02*
X69302083Y-75670295D01*
X69302083Y-75670295D02*
X69302083Y-75813152D01*
X69302083Y-75813152D02*
X69254464Y-75908390D01*
X69254464Y-75908390D02*
X69206845Y-75956009D01*
X69206845Y-75956009D02*
X69111607Y-76003628D01*
X69111607Y-76003628D02*
X68730655Y-76003628D01*
X70254464Y-76479819D02*
X69683036Y-76479819D01*
X69968750Y-76479819D02*
X69968750Y-75479819D01*
X69968750Y-75479819D02*
X69873512Y-75622676D01*
X69873512Y-75622676D02*
X69778274Y-75717914D01*
X69778274Y-75717914D02*
X69683036Y-75765533D01*
X66976666Y-54318819D02*
X66976666Y-55033104D01*
X66976666Y-55033104D02*
X66929047Y-55175961D01*
X66929047Y-55175961D02*
X66833809Y-55271200D01*
X66833809Y-55271200D02*
X66690952Y-55318819D01*
X66690952Y-55318819D02*
X66595714Y-55318819D01*
X67357619Y-54318819D02*
X67976666Y-54318819D01*
X67976666Y-54318819D02*
X67643333Y-54699771D01*
X67643333Y-54699771D02*
X67786190Y-54699771D01*
X67786190Y-54699771D02*
X67881428Y-54747390D01*
X67881428Y-54747390D02*
X67929047Y-54795009D01*
X67929047Y-54795009D02*
X67976666Y-54890247D01*
X67976666Y-54890247D02*
X67976666Y-55128342D01*
X67976666Y-55128342D02*
X67929047Y-55223580D01*
X67929047Y-55223580D02*
X67881428Y-55271200D01*
X67881428Y-55271200D02*
X67786190Y-55318819D01*
X67786190Y-55318819D02*
X67500476Y-55318819D01*
X67500476Y-55318819D02*
X67405238Y-55271200D01*
X67405238Y-55271200D02*
X67357619Y-55223580D01*
X98159219Y-104117733D02*
X98873504Y-104117733D01*
X98873504Y-104117733D02*
X99016361Y-104165352D01*
X99016361Y-104165352D02*
X99111600Y-104260590D01*
X99111600Y-104260590D02*
X99159219Y-104403447D01*
X99159219Y-104403447D02*
X99159219Y-104498685D01*
X99159219Y-103117733D02*
X99159219Y-103689161D01*
X99159219Y-103403447D02*
X98159219Y-103403447D01*
X98159219Y-103403447D02*
X98302076Y-103498685D01*
X98302076Y-103498685D02*
X98397314Y-103593923D01*
X98397314Y-103593923D02*
X98444933Y-103689161D01*
X66430655Y-76379819D02*
X66430655Y-75379819D01*
X66430655Y-75379819D02*
X66668750Y-75379819D01*
X66668750Y-75379819D02*
X66811607Y-75427438D01*
X66811607Y-75427438D02*
X66906845Y-75522676D01*
X66906845Y-75522676D02*
X66954464Y-75617914D01*
X66954464Y-75617914D02*
X67002083Y-75808390D01*
X67002083Y-75808390D02*
X67002083Y-75951247D01*
X67002083Y-75951247D02*
X66954464Y-76141723D01*
X66954464Y-76141723D02*
X66906845Y-76236961D01*
X66906845Y-76236961D02*
X66811607Y-76332200D01*
X66811607Y-76332200D02*
X66668750Y-76379819D01*
X66668750Y-76379819D02*
X66430655Y-76379819D01*
X67954464Y-76379819D02*
X67383036Y-76379819D01*
X67668750Y-76379819D02*
X67668750Y-75379819D01*
X67668750Y-75379819D02*
X67573512Y-75522676D01*
X67573512Y-75522676D02*
X67478274Y-75617914D01*
X67478274Y-75617914D02*
X67383036Y-75665533D01*
X62404761Y-69050057D02*
X62309523Y-69002438D01*
X62309523Y-69002438D02*
X62214285Y-68907200D01*
X62214285Y-68907200D02*
X62071428Y-68764342D01*
X62071428Y-68764342D02*
X61976190Y-68716723D01*
X61976190Y-68716723D02*
X61880952Y-68716723D01*
X61928571Y-68954819D02*
X61833333Y-68907200D01*
X61833333Y-68907200D02*
X61738095Y-68811961D01*
X61738095Y-68811961D02*
X61690476Y-68621485D01*
X61690476Y-68621485D02*
X61690476Y-68288152D01*
X61690476Y-68288152D02*
X61738095Y-68097676D01*
X61738095Y-68097676D02*
X61833333Y-68002438D01*
X61833333Y-68002438D02*
X61928571Y-67954819D01*
X61928571Y-67954819D02*
X62119047Y-67954819D01*
X62119047Y-67954819D02*
X62214285Y-68002438D01*
X62214285Y-68002438D02*
X62309523Y-68097676D01*
X62309523Y-68097676D02*
X62357142Y-68288152D01*
X62357142Y-68288152D02*
X62357142Y-68621485D01*
X62357142Y-68621485D02*
X62309523Y-68811961D01*
X62309523Y-68811961D02*
X62214285Y-68907200D01*
X62214285Y-68907200D02*
X62119047Y-68954819D01*
X62119047Y-68954819D02*
X61928571Y-68954819D01*
X63309523Y-68954819D02*
X62738095Y-68954819D01*
X63023809Y-68954819D02*
X63023809Y-67954819D01*
X63023809Y-67954819D02*
X62928571Y-68097676D01*
X62928571Y-68097676D02*
X62833333Y-68192914D01*
X62833333Y-68192914D02*
X62738095Y-68240533D01*
X68033333Y-64454819D02*
X67700000Y-63978628D01*
X67461905Y-64454819D02*
X67461905Y-63454819D01*
X67461905Y-63454819D02*
X67842857Y-63454819D01*
X67842857Y-63454819D02*
X67938095Y-63502438D01*
X67938095Y-63502438D02*
X67985714Y-63550057D01*
X67985714Y-63550057D02*
X68033333Y-63645295D01*
X68033333Y-63645295D02*
X68033333Y-63788152D01*
X68033333Y-63788152D02*
X67985714Y-63883390D01*
X67985714Y-63883390D02*
X67938095Y-63931009D01*
X67938095Y-63931009D02*
X67842857Y-63978628D01*
X67842857Y-63978628D02*
X67461905Y-63978628D01*
X68414286Y-63550057D02*
X68461905Y-63502438D01*
X68461905Y-63502438D02*
X68557143Y-63454819D01*
X68557143Y-63454819D02*
X68795238Y-63454819D01*
X68795238Y-63454819D02*
X68890476Y-63502438D01*
X68890476Y-63502438D02*
X68938095Y-63550057D01*
X68938095Y-63550057D02*
X68985714Y-63645295D01*
X68985714Y-63645295D02*
X68985714Y-63740533D01*
X68985714Y-63740533D02*
X68938095Y-63883390D01*
X68938095Y-63883390D02*
X68366667Y-64454819D01*
X68366667Y-64454819D02*
X68985714Y-64454819D01*
D19*
%TO.C,CN2*%
X73505000Y-83545000D02*
X73505000Y-84875000D01*
X72175000Y-83545000D02*
X73505000Y-83545000D01*
X70905000Y-83545000D02*
X60685000Y-83545000D01*
X70905000Y-83545000D02*
X70905000Y-86145000D01*
X60685000Y-83545000D02*
X60685000Y-88745000D01*
X73505000Y-86145000D02*
X73505000Y-88745000D01*
X70905000Y-86145000D02*
X73505000Y-86145000D01*
X73505000Y-88745000D02*
X60685000Y-88745000D01*
%TO.C,R1*%
X68946250Y-73862258D02*
X68946250Y-73387742D01*
X69991250Y-73862258D02*
X69991250Y-73387742D01*
%TO.C,J3*%
X74075600Y-55820000D02*
X74075600Y-57150000D01*
X72745600Y-55820000D02*
X74075600Y-55820000D01*
X71475600Y-55820000D02*
X61255600Y-55820000D01*
X71475600Y-55820000D02*
X71475600Y-58480000D01*
X61255600Y-55820000D02*
X61255600Y-58480000D01*
X71475600Y-58480000D02*
X61255600Y-58480000D01*
D20*
%TO.C,J1*%
X83775000Y-73132800D02*
X84175000Y-72432800D01*
X83375000Y-72432800D02*
X83775000Y-73132800D01*
X84175000Y-72432800D02*
X83375000Y-72432800D01*
D19*
%TO.C,D1*%
X66283750Y-75135000D02*
X68203750Y-75135000D01*
X68203750Y-75135000D02*
X68203750Y-72450000D01*
X66283750Y-72450000D02*
X66283750Y-75135000D01*
%TO.C,Q1*%
X69100000Y-66710000D02*
X65500000Y-66710000D01*
X69656400Y-69658807D02*
G75*
G02*
X67300000Y-71160000I-2356400J1098807D01*
G01*
X69100000Y-66710000D02*
G75*
G02*
X69624184Y-67437205I-1800000J-1850000D01*
G01*
X67300000Y-71160000D02*
G75*
G02*
X64943600Y-69658807I0J2600000D01*
G01*
X64975816Y-67437205D02*
G75*
G02*
X65500000Y-66710000I2324184J-1122795D01*
G01*
%TO.C,R2*%
X68437258Y-66222500D02*
X67962742Y-66222500D01*
X68437258Y-65177500D02*
X67962742Y-65177500D01*
%TD*%
M02*
