%TF.GenerationSoftware,KiCad,Pcbnew,8.0.3*%
%TF.CreationDate,2024-11-03T21:09:01+01:00*%
%TF.ProjectId,IIsi_ATX,49497369-5f41-4545-982e-6b696361645f,rev?*%
%TF.SameCoordinates,Original*%
%TF.FileFunction,Soldermask,Top*%
%TF.FilePolarity,Negative*%
%FSLAX46Y46*%
G04 Gerber Fmt 4.6, Leading zero omitted, Abs format (unit mm)*
G04 Created by KiCad (PCBNEW 8.0.3) date 2024-11-03 21:09:01*
%MOMM*%
%LPD*%
G01*
G04 APERTURE LIST*
G04 Aperture macros list*
%AMRoundRect*
0 Rectangle with rounded corners*
0 $1 Rounding radius*
0 $2 $3 $4 $5 $6 $7 $8 $9 X,Y pos of 4 corners*
0 Add a 4 corners polygon primitive as box body*
4,1,4,$2,$3,$4,$5,$6,$7,$8,$9,$2,$3,0*
0 Add four circle primitives for the rounded corners*
1,1,$1+$1,$2,$3*
1,1,$1+$1,$4,$5*
1,1,$1+$1,$6,$7*
1,1,$1+$1,$8,$9*
0 Add four rect primitives between the rounded corners*
20,1,$1+$1,$2,$3,$4,$5,0*
20,1,$1+$1,$4,$5,$6,$7,0*
20,1,$1+$1,$6,$7,$8,$9,0*
20,1,$1+$1,$8,$9,$2,$3,0*%
G04 Aperture macros list end*
%ADD10C,1.576200*%
%ADD11C,1.026200*%
%ADD12C,0.010000*%
%ADD13C,1.226200*%
%ADD14R,1.700000X1.700000*%
%ADD15O,1.700000X1.700000*%
%ADD16RoundRect,0.200000X0.275000X-0.200000X0.275000X0.200000X-0.275000X0.200000X-0.275000X-0.200000X0*%
%ADD17C,3.000000*%
%ADD18RoundRect,0.243750X0.456250X-0.243750X0.456250X0.243750X-0.456250X0.243750X-0.456250X-0.243750X0*%
%ADD19R,1.500000X1.500000*%
%ADD20C,1.500000*%
%ADD21RoundRect,0.200000X0.200000X0.275000X-0.200000X0.275000X-0.200000X-0.275000X0.200000X-0.275000X0*%
G04 APERTURE END LIST*
D10*
%TO.C,J1*%
X91878300Y-123252600D02*
G75*
G02*
X90302100Y-123252600I-788100J0D01*
G01*
X90302100Y-123252600D02*
G75*
G02*
X91878300Y-123252600I788100J0D01*
G01*
D11*
X78788100Y-123250000D02*
G75*
G02*
X77761900Y-123250000I-513100J0D01*
G01*
X77761900Y-123250000D02*
G75*
G02*
X78788100Y-123250000I513100J0D01*
G01*
X84288100Y-123250000D02*
G75*
G02*
X83261900Y-123250000I-513100J0D01*
G01*
X83261900Y-123250000D02*
G75*
G02*
X84288100Y-123250000I513100J0D01*
G01*
X78788100Y-119050000D02*
G75*
G02*
X77761900Y-119050000I-513100J0D01*
G01*
X77761900Y-119050000D02*
G75*
G02*
X78788100Y-119050000I513100J0D01*
G01*
X84288100Y-119050000D02*
G75*
G02*
X83261900Y-119050000I-513100J0D01*
G01*
X83261900Y-119050000D02*
G75*
G02*
X84288100Y-119050000I513100J0D01*
G01*
X78788100Y-114850000D02*
G75*
G02*
X77761900Y-114850000I-513100J0D01*
G01*
X77761900Y-114850000D02*
G75*
G02*
X78788100Y-114850000I513100J0D01*
G01*
X84288100Y-114850000D02*
G75*
G02*
X83261900Y-114850000I-513100J0D01*
G01*
X83261900Y-114850000D02*
G75*
G02*
X84288100Y-114850000I513100J0D01*
G01*
X78788100Y-110650000D02*
G75*
G02*
X77761900Y-110650000I-513100J0D01*
G01*
X77761900Y-110650000D02*
G75*
G02*
X78788100Y-110650000I513100J0D01*
G01*
X84288100Y-110650000D02*
G75*
G02*
X83261900Y-110650000I-513100J0D01*
G01*
X83261900Y-110650000D02*
G75*
G02*
X84288100Y-110650000I513100J0D01*
G01*
X78788100Y-106450000D02*
G75*
G02*
X77761900Y-106450000I-513100J0D01*
G01*
X77761900Y-106450000D02*
G75*
G02*
X78788100Y-106450000I513100J0D01*
G01*
X84288100Y-106450000D02*
G75*
G02*
X83261900Y-106450000I-513100J0D01*
G01*
X83261900Y-106450000D02*
G75*
G02*
X84288100Y-106450000I513100J0D01*
G01*
X78788100Y-102250000D02*
G75*
G02*
X77761900Y-102250000I-513100J0D01*
G01*
X77761900Y-102250000D02*
G75*
G02*
X78788100Y-102250000I513100J0D01*
G01*
X84288100Y-102250000D02*
G75*
G02*
X83261900Y-102250000I-513100J0D01*
G01*
X83261900Y-102250000D02*
G75*
G02*
X84288100Y-102250000I513100J0D01*
G01*
X78788100Y-98050000D02*
G75*
G02*
X77761900Y-98050000I-513100J0D01*
G01*
X77761900Y-98050000D02*
G75*
G02*
X78788100Y-98050000I513100J0D01*
G01*
X84288100Y-98050000D02*
G75*
G02*
X83261900Y-98050000I-513100J0D01*
G01*
X83261900Y-98050000D02*
G75*
G02*
X84288100Y-98050000I513100J0D01*
G01*
X78788100Y-93850000D02*
G75*
G02*
X77761900Y-93850000I-513100J0D01*
G01*
X77761900Y-93850000D02*
G75*
G02*
X78788100Y-93850000I513100J0D01*
G01*
X84288100Y-93850000D02*
G75*
G02*
X83261900Y-93850000I-513100J0D01*
G01*
X83261900Y-93850000D02*
G75*
G02*
X84288100Y-93850000I513100J0D01*
G01*
X78788100Y-89650000D02*
G75*
G02*
X77761900Y-89650000I-513100J0D01*
G01*
X77761900Y-89650000D02*
G75*
G02*
X78788100Y-89650000I513100J0D01*
G01*
X84288100Y-89650000D02*
G75*
G02*
X83261900Y-89650000I-513100J0D01*
G01*
X83261900Y-89650000D02*
G75*
G02*
X84288100Y-89650000I513100J0D01*
G01*
X78788100Y-85450000D02*
G75*
G02*
X77761900Y-85450000I-513100J0D01*
G01*
X77761900Y-85450000D02*
G75*
G02*
X78788100Y-85450000I513100J0D01*
G01*
X84288100Y-85450000D02*
G75*
G02*
X83261900Y-85450000I-513100J0D01*
G01*
X83261900Y-85450000D02*
G75*
G02*
X84288100Y-85450000I513100J0D01*
G01*
X78788100Y-81250000D02*
G75*
G02*
X77761900Y-81250000I-513100J0D01*
G01*
X77761900Y-81250000D02*
G75*
G02*
X78788100Y-81250000I513100J0D01*
G01*
X84288100Y-81250000D02*
G75*
G02*
X83261900Y-81250000I-513100J0D01*
G01*
X83261900Y-81250000D02*
G75*
G02*
X84288100Y-81250000I513100J0D01*
G01*
X78788100Y-77050000D02*
G75*
G02*
X77761900Y-77050000I-513100J0D01*
G01*
X77761900Y-77050000D02*
G75*
G02*
X78788100Y-77050000I513100J0D01*
G01*
D10*
X91852900Y-77024600D02*
G75*
G02*
X90276700Y-77024600I-788100J0D01*
G01*
X90276700Y-77024600D02*
G75*
G02*
X91852900Y-77024600I788100J0D01*
G01*
D12*
X84801200Y-78076200D02*
X82748800Y-78076200D01*
X82748800Y-76023800D01*
X84801200Y-76023800D01*
X84801200Y-78076200D01*
G36*
X84801200Y-78076200D02*
G01*
X82748800Y-78076200D01*
X82748800Y-76023800D01*
X84801200Y-76023800D01*
X84801200Y-78076200D01*
G37*
%TO.C,J2*%
D13*
X122504450Y-55075000D02*
G75*
G02*
X121278250Y-55075000I-613100J0D01*
G01*
X121278250Y-55075000D02*
G75*
G02*
X122504450Y-55075000I613100J0D01*
G01*
X118304450Y-60575000D02*
G75*
G02*
X117078250Y-60575000I-613100J0D01*
G01*
X117078250Y-60575000D02*
G75*
G02*
X118304450Y-60575000I613100J0D01*
G01*
X118304450Y-55075000D02*
G75*
G02*
X117078250Y-55075000I-613100J0D01*
G01*
X117078250Y-55075000D02*
G75*
G02*
X118304450Y-55075000I613100J0D01*
G01*
X114104450Y-60575000D02*
G75*
G02*
X112878250Y-60575000I-613100J0D01*
G01*
X112878250Y-60575000D02*
G75*
G02*
X114104450Y-60575000I613100J0D01*
G01*
X114104450Y-55075000D02*
G75*
G02*
X112878250Y-55075000I-613100J0D01*
G01*
X112878250Y-55075000D02*
G75*
G02*
X114104450Y-55075000I613100J0D01*
G01*
X109904450Y-60575000D02*
G75*
G02*
X108678250Y-60575000I-613100J0D01*
G01*
X108678250Y-60575000D02*
G75*
G02*
X109904450Y-60575000I613100J0D01*
G01*
X109904450Y-55075000D02*
G75*
G02*
X108678250Y-55075000I-613100J0D01*
G01*
X108678250Y-55075000D02*
G75*
G02*
X109904450Y-55075000I613100J0D01*
G01*
X105704450Y-60575000D02*
G75*
G02*
X104478250Y-60575000I-613100J0D01*
G01*
X104478250Y-60575000D02*
G75*
G02*
X105704450Y-60575000I613100J0D01*
G01*
X105704450Y-55075000D02*
G75*
G02*
X104478250Y-55075000I-613100J0D01*
G01*
X104478250Y-55075000D02*
G75*
G02*
X105704450Y-55075000I613100J0D01*
G01*
D12*
X123417550Y-62101200D02*
X120365150Y-62101200D01*
X120365150Y-59048800D01*
X123417550Y-59048800D01*
X123417550Y-62101200D01*
G36*
X123417550Y-62101200D02*
G01*
X120365150Y-62101200D01*
X120365150Y-59048800D01*
X123417550Y-59048800D01*
X123417550Y-62101200D01*
G37*
%TD*%
D14*
%TO.C,CN2*%
X72175000Y-84875000D03*
D15*
X72175000Y-87415000D03*
X69635000Y-84875000D03*
X69635000Y-87415000D03*
X67095000Y-84875000D03*
X67095000Y-87415000D03*
X64555000Y-84875000D03*
X64555000Y-87415000D03*
X62015000Y-84875000D03*
X62015000Y-87415000D03*
%TD*%
D16*
%TO.C,R1*%
X69468750Y-74450000D03*
X69468750Y-72800000D03*
%TD*%
D14*
%TO.C,J3*%
X72745600Y-57150000D03*
D15*
X70205600Y-57150000D03*
X67665600Y-57150000D03*
X65125600Y-57150000D03*
X62585600Y-57150000D03*
%TD*%
D17*
%TO.C,J1*%
X91090200Y-123252600D03*
X91064800Y-77024600D03*
%TD*%
D18*
%TO.C,D1*%
X67243750Y-74387500D03*
X67243750Y-72512500D03*
%TD*%
D19*
%TO.C,Q1*%
X69840000Y-68560000D03*
D20*
X67300000Y-68560000D03*
X64760000Y-68560000D03*
%TD*%
D21*
%TO.C,R2*%
X69025000Y-65700000D03*
X67375000Y-65700000D03*
%TD*%
M02*
