%TF.GenerationSoftware,KiCad,Pcbnew,8.0.3*%
%TF.CreationDate,2024-11-03T21:09:01+01:00*%
%TF.ProjectId,IIsi_ATX,49497369-5f41-4545-982e-6b696361645f,rev?*%
%TF.SameCoordinates,Original*%
%TF.FileFunction,Copper,L2,Bot*%
%TF.FilePolarity,Positive*%
%FSLAX46Y46*%
G04 Gerber Fmt 4.6, Leading zero omitted, Abs format (unit mm)*
G04 Created by KiCad (PCBNEW 8.0.3) date 2024-11-03 21:09:01*
%MOMM*%
%LPD*%
G01*
G04 APERTURE LIST*
%TA.AperFunction,ComponentPad*%
%ADD10R,1.700000X1.700000*%
%TD*%
%TA.AperFunction,ComponentPad*%
%ADD11O,1.700000X1.700000*%
%TD*%
%TA.AperFunction,ComponentPad*%
%ADD12R,1.900000X1.900000*%
%TD*%
%TA.AperFunction,ComponentPad*%
%ADD13C,1.900000*%
%TD*%
%TA.AperFunction,ComponentPad*%
%ADD14R,1.500000X1.500000*%
%TD*%
%TA.AperFunction,ComponentPad*%
%ADD15C,1.500000*%
%TD*%
%TA.AperFunction,ComponentPad*%
%ADD16R,3.250000X3.250000*%
%TD*%
%TA.AperFunction,ComponentPad*%
%ADD17C,3.250000*%
%TD*%
%TA.AperFunction,ViaPad*%
%ADD18C,0.800000*%
%TD*%
%TA.AperFunction,Conductor*%
%ADD19C,0.250000*%
%TD*%
%TA.AperFunction,Conductor*%
%ADD20C,1.000000*%
%TD*%
%TA.AperFunction,Conductor*%
%ADD21C,1.500000*%
%TD*%
%TA.AperFunction,Conductor*%
%ADD22C,0.800000*%
%TD*%
%TA.AperFunction,Conductor*%
%ADD23C,2.000000*%
%TD*%
%TA.AperFunction,Conductor*%
%ADD24C,0.500000*%
%TD*%
%TA.AperFunction,Conductor*%
%ADD25C,0.400000*%
%TD*%
G04 APERTURE END LIST*
D10*
%TO.P,CN2,1,Pin_1*%
%TO.N,+3V3*%
X72175000Y-84875000D03*
D11*
%TO.P,CN2,2,Pin_2*%
%TO.N,GND*%
X72175000Y-87415000D03*
%TO.P,CN2,3,Pin_3*%
%TO.N,+3V3*%
X69635000Y-84875000D03*
%TO.P,CN2,4,Pin_4*%
%TO.N,GND*%
X69635000Y-87415000D03*
%TO.P,CN2,5,Pin_5*%
%TO.N,+5V*%
X67095000Y-84875000D03*
%TO.P,CN2,6,Pin_6*%
%TO.N,GND*%
X67095000Y-87415000D03*
%TO.P,CN2,7,Pin_7*%
%TO.N,+5V*%
X64555000Y-84875000D03*
%TO.P,CN2,8,Pin_8*%
%TO.N,GND*%
X64555000Y-87415000D03*
%TO.P,CN2,9,Pin_9*%
%TO.N,+12V*%
X62015000Y-84875000D03*
%TO.P,CN2,10,Pin_10*%
%TO.N,GND*%
X62015000Y-87415000D03*
%TD*%
D10*
%TO.P,J3,1,Pin_1*%
%TO.N,+5V*%
X72745600Y-57150000D03*
D11*
%TO.P,J3,2,Pin_2*%
%TO.N,unconnected-(J3-Pin_2-Pad2)*%
X70205600Y-57150000D03*
%TO.P,J3,3,Pin_3*%
%TO.N,unconnected-(J3-Pin_3-Pad3)*%
X67665600Y-57150000D03*
%TO.P,J3,4,Pin_4*%
%TO.N,unconnected-(J3-Pin_4-Pad4)*%
X65125600Y-57150000D03*
%TO.P,J3,5,Pin_5*%
%TO.N,GND*%
X62585600Y-57150000D03*
%TD*%
D12*
%TO.P,J1,1,1*%
%TO.N,unconnected-(J1-Pad1)*%
X83775000Y-77050000D03*
D13*
%TO.P,J1,2,2*%
%TO.N,unconnected-(J1-Pad2)*%
X83775000Y-81250000D03*
%TO.P,J1,3,3*%
%TO.N,GND*%
X83775000Y-85450000D03*
%TO.P,J1,4,4*%
%TO.N,+5V*%
X83775000Y-89650000D03*
%TO.P,J1,5,5*%
%TO.N,GND*%
X83775000Y-93850000D03*
%TO.P,J1,6,6*%
%TO.N,+5V*%
X83775000Y-98050000D03*
%TO.P,J1,7,7*%
%TO.N,GND*%
X83775000Y-102250000D03*
%TO.P,J1,8,8*%
%TO.N,PGOOD*%
X83775000Y-106450000D03*
%TO.P,J1,9,9*%
%TO.N,+5VD*%
X83775000Y-110650000D03*
%TO.P,J1,10,10*%
%TO.N,+12V*%
X83775000Y-114850000D03*
%TO.P,J1,11,11*%
X83775000Y-119050000D03*
%TO.P,J1,12,12*%
%TO.N,unconnected-(J1-Pad12)*%
X83775000Y-123250000D03*
%TO.P,J1,13,13*%
%TO.N,+3V3*%
X78275000Y-77050000D03*
%TO.P,J1,14,14*%
%TO.N,-12V*%
X78275000Y-81250000D03*
%TO.P,J1,15,15*%
%TO.N,GND*%
X78275000Y-85450000D03*
%TO.P,J1,16,16*%
%TO.N,~{MAC-ON}*%
X78275000Y-89650000D03*
%TO.P,J1,17,17*%
%TO.N,GND*%
X78275000Y-93850000D03*
%TO.P,J1,18,18*%
X78275000Y-98050000D03*
%TO.P,J1,19,19*%
X78275000Y-102250000D03*
%TO.P,J1,20,20*%
%TO.N,unconnected-(J1-Pad20)*%
X78275000Y-106450000D03*
%TO.P,J1,21,21*%
%TO.N,+5V*%
X78275000Y-110650000D03*
%TO.P,J1,22,22*%
X78275000Y-114850000D03*
%TO.P,J1,23,23*%
X78275000Y-119050000D03*
%TO.P,J1,24,24*%
%TO.N,GND*%
X78275000Y-123250000D03*
%TD*%
D14*
%TO.P,Q1,1,E*%
%TO.N,~{MAC-ON}*%
X69840000Y-68560000D03*
D15*
%TO.P,Q1,2,B*%
%TO.N,Net-(Q1-B)*%
X67300000Y-68560000D03*
%TO.P,Q1,3,C*%
%TO.N,GND*%
X64760000Y-68560000D03*
%TD*%
D16*
%TO.P,J2,1,1*%
%TO.N,+12V*%
X121891350Y-60575000D03*
D17*
%TO.P,J2,2,2*%
%TO.N,+5V*%
X117691350Y-60575000D03*
%TO.P,J2,3,3*%
X113491350Y-60575000D03*
%TO.P,J2,4,4*%
X109291350Y-60575000D03*
%TO.P,J2,5,5*%
%TO.N,GND*%
X105091350Y-60575000D03*
%TO.P,J2,6,6*%
X121891350Y-55075000D03*
%TO.P,J2,7,7*%
X117691350Y-55075000D03*
%TO.P,J2,8,8*%
%TO.N,-12V*%
X113491350Y-55075000D03*
%TO.P,J2,9,9*%
%TO.N,MAC-ON*%
X109291350Y-55075000D03*
%TO.P,J2,10,10*%
%TO.N,+5VD*%
X105091350Y-55075000D03*
%TD*%
D18*
%TO.N,PGOOD*%
X69500000Y-77165400D03*
%TO.N,GND*%
X81800000Y-68326000D03*
X116586000Y-67310000D03*
X93989000Y-68302200D03*
X125730000Y-59690000D03*
X125730000Y-63500000D03*
X81791000Y-65428800D03*
X93980000Y-65405000D03*
X125730000Y-52070000D03*
X100330000Y-55880000D03*
X100330000Y-52070000D03*
X125730000Y-55880000D03*
X81260000Y-88360000D03*
X100330000Y-59690000D03*
X125730000Y-67310000D03*
X100330000Y-63500000D03*
%TO.N,+5VD*%
X85200000Y-74400000D03*
%TO.N,+5V*%
X89179400Y-70866000D03*
X87680800Y-72364600D03*
%TD*%
D19*
%TO.N,PGOOD*%
X85050000Y-92728123D02*
X85050000Y-105175000D01*
X82190000Y-87350000D02*
X82190000Y-89868123D01*
X69500000Y-77165400D02*
X72005400Y-77165400D01*
X82190000Y-89868123D02*
X85050000Y-92728123D01*
X72005400Y-77165400D02*
X82190000Y-87350000D01*
X85050000Y-105175000D02*
X83775000Y-106450000D01*
%TO.N,+5VD*%
X95200000Y-72000000D02*
X95200000Y-69800000D01*
X102900000Y-57266350D02*
X105091350Y-55075000D01*
X99500000Y-65500000D02*
X101700000Y-65500000D01*
X101700000Y-65500000D02*
X102900000Y-64300000D01*
X89100000Y-73200000D02*
X94000000Y-73200000D01*
X95200000Y-69800000D02*
X99500000Y-65500000D01*
X87900000Y-74400000D02*
X89100000Y-73200000D01*
X94000000Y-73200000D02*
X95200000Y-72000000D01*
X85200000Y-74400000D02*
X87900000Y-74400000D01*
X102900000Y-64300000D02*
X102900000Y-57266350D01*
D20*
%TO.N,+5V*%
X83159600Y-72364600D02*
X72745600Y-61950600D01*
D21*
X110596350Y-67670000D02*
X100260000Y-67670000D01*
D22*
X78275000Y-110650000D02*
X81051400Y-107873600D01*
D20*
X87680800Y-72364600D02*
X83159600Y-72364600D01*
D21*
X117691350Y-60575000D02*
X110596350Y-67670000D01*
D22*
X81051400Y-107873600D02*
X81051400Y-100773600D01*
D20*
X72745600Y-61950600D02*
X72745600Y-57150000D01*
D23*
X113491350Y-60575000D02*
X117691350Y-60575000D01*
D21*
X97540000Y-75885000D02*
X83775000Y-89650000D01*
D20*
X89179400Y-70866000D02*
X87680800Y-72364600D01*
D22*
X81051400Y-100773600D02*
X83775000Y-98050000D01*
D21*
X97540000Y-70390000D02*
X97540000Y-75885000D01*
X100260000Y-67670000D02*
X97540000Y-70390000D01*
D24*
%TO.N,+12V*%
X117954000Y-68990000D02*
X101190000Y-68990000D01*
X121891350Y-65052650D02*
X117954000Y-68990000D01*
X101190000Y-68990000D02*
X99314000Y-70866000D01*
X99314000Y-70866000D02*
X99314000Y-99311000D01*
X121891350Y-60575000D02*
X121891350Y-65052650D01*
X99314000Y-99311000D02*
X83775000Y-114850000D01*
D25*
%TO.N,-12V*%
X94690000Y-74240000D02*
X96012000Y-72918000D01*
X78275000Y-81250000D02*
X80285000Y-79240000D01*
X80285000Y-79240000D02*
X84760000Y-79240000D01*
X109474000Y-66294000D02*
X111370000Y-64398000D01*
X89760000Y-74240000D02*
X94690000Y-74240000D01*
X96012000Y-70070827D02*
X99788827Y-66294000D01*
X111370000Y-64398000D02*
X111370000Y-57196350D01*
X84760000Y-79240000D02*
X89760000Y-74240000D01*
X99788827Y-66294000D02*
X109474000Y-66294000D01*
X96012000Y-72918000D02*
X96012000Y-70070827D01*
X111370000Y-57196350D02*
X113491350Y-55075000D01*
%TD*%
%TA.AperFunction,Conductor*%
%TO.N,GND*%
G36*
X64089075Y-87222007D02*
G01*
X64055000Y-87349174D01*
X64055000Y-87480826D01*
X64089075Y-87607993D01*
X64121988Y-87665000D01*
X62448012Y-87665000D01*
X62480925Y-87607993D01*
X62515000Y-87480826D01*
X62515000Y-87349174D01*
X62480925Y-87222007D01*
X62448012Y-87165000D01*
X64121988Y-87165000D01*
X64089075Y-87222007D01*
G37*
%TD.AperFunction*%
%TA.AperFunction,Conductor*%
G36*
X66629075Y-87222007D02*
G01*
X66595000Y-87349174D01*
X66595000Y-87480826D01*
X66629075Y-87607993D01*
X66661988Y-87665000D01*
X64988012Y-87665000D01*
X65020925Y-87607993D01*
X65055000Y-87480826D01*
X65055000Y-87349174D01*
X65020925Y-87222007D01*
X64988012Y-87165000D01*
X66661988Y-87165000D01*
X66629075Y-87222007D01*
G37*
%TD.AperFunction*%
%TA.AperFunction,Conductor*%
G36*
X69169075Y-87222007D02*
G01*
X69135000Y-87349174D01*
X69135000Y-87480826D01*
X69169075Y-87607993D01*
X69201988Y-87665000D01*
X67528012Y-87665000D01*
X67560925Y-87607993D01*
X67595000Y-87480826D01*
X67595000Y-87349174D01*
X67560925Y-87222007D01*
X67528012Y-87165000D01*
X69201988Y-87165000D01*
X69169075Y-87222007D01*
G37*
%TD.AperFunction*%
%TA.AperFunction,Conductor*%
G36*
X71709075Y-87222007D02*
G01*
X71675000Y-87349174D01*
X71675000Y-87480826D01*
X71709075Y-87607993D01*
X71741988Y-87665000D01*
X70068012Y-87665000D01*
X70100925Y-87607993D01*
X70135000Y-87480826D01*
X70135000Y-87349174D01*
X70100925Y-87222007D01*
X70068012Y-87165000D01*
X71741988Y-87165000D01*
X71709075Y-87222007D01*
G37*
%TD.AperFunction*%
%TA.AperFunction,Conductor*%
G36*
X76661843Y-50804518D02*
G01*
X76728881Y-50824203D01*
X76774635Y-50877008D01*
X76785840Y-50928518D01*
X76785840Y-64276558D01*
X76766155Y-64343597D01*
X76713351Y-64389352D01*
X76644193Y-64399296D01*
X76580637Y-64370271D01*
X76574159Y-64364239D01*
X73782419Y-61572499D01*
X73748934Y-61511176D01*
X73746100Y-61484818D01*
X73746100Y-58564141D01*
X73765785Y-58497102D01*
X73818589Y-58451347D01*
X73826749Y-58447966D01*
X73837931Y-58443796D01*
X73865133Y-58423433D01*
X73876047Y-58415261D01*
X73953146Y-58357546D01*
X74039396Y-58242331D01*
X74089691Y-58107483D01*
X74096100Y-58047873D01*
X74096099Y-56252128D01*
X74089691Y-56192517D01*
X74088410Y-56189083D01*
X74039397Y-56057671D01*
X74039393Y-56057664D01*
X73953147Y-55942455D01*
X73953144Y-55942452D01*
X73837935Y-55856206D01*
X73837928Y-55856202D01*
X73703082Y-55805908D01*
X73703083Y-55805908D01*
X73643483Y-55799501D01*
X73643481Y-55799500D01*
X73643473Y-55799500D01*
X73643464Y-55799500D01*
X71847729Y-55799500D01*
X71847723Y-55799501D01*
X71788116Y-55805908D01*
X71653271Y-55856202D01*
X71653264Y-55856206D01*
X71538055Y-55942452D01*
X71538052Y-55942455D01*
X71451806Y-56057664D01*
X71451803Y-56057669D01*
X71402789Y-56189083D01*
X71360917Y-56245016D01*
X71295453Y-56269433D01*
X71227180Y-56254581D01*
X71198926Y-56233430D01*
X71077002Y-56111506D01*
X71076995Y-56111501D01*
X70883434Y-55975967D01*
X70883430Y-55975965D01*
X70883428Y-55975964D01*
X70669263Y-55876097D01*
X70669259Y-55876096D01*
X70669255Y-55876094D01*
X70441013Y-55814938D01*
X70441003Y-55814936D01*
X70205601Y-55794341D01*
X70205599Y-55794341D01*
X69970196Y-55814936D01*
X69970186Y-55814938D01*
X69741944Y-55876094D01*
X69741935Y-55876098D01*
X69527771Y-55975964D01*
X69527769Y-55975965D01*
X69334197Y-56111505D01*
X69167105Y-56278597D01*
X69037175Y-56464158D01*
X68982598Y-56507783D01*
X68913100Y-56514977D01*
X68850745Y-56483454D01*
X68834025Y-56464158D01*
X68704094Y-56278597D01*
X68537002Y-56111506D01*
X68536995Y-56111501D01*
X68343434Y-55975967D01*
X68343430Y-55975965D01*
X68343428Y-55975964D01*
X68129263Y-55876097D01*
X68129259Y-55876096D01*
X68129255Y-55876094D01*
X67901013Y-55814938D01*
X67901003Y-55814936D01*
X67665601Y-55794341D01*
X67665599Y-55794341D01*
X67430196Y-55814936D01*
X67430186Y-55814938D01*
X67201944Y-55876094D01*
X67201935Y-55876098D01*
X66987771Y-55975964D01*
X66987769Y-55975965D01*
X66794197Y-56111505D01*
X66627105Y-56278597D01*
X66497175Y-56464158D01*
X66442598Y-56507783D01*
X66373100Y-56514977D01*
X66310745Y-56483454D01*
X66294025Y-56464158D01*
X66164094Y-56278597D01*
X65997002Y-56111506D01*
X65996995Y-56111501D01*
X65803434Y-55975967D01*
X65803430Y-55975965D01*
X65803428Y-55975964D01*
X65589263Y-55876097D01*
X65589259Y-55876096D01*
X65589255Y-55876094D01*
X65361013Y-55814938D01*
X65361003Y-55814936D01*
X65125601Y-55794341D01*
X65125599Y-55794341D01*
X64890196Y-55814936D01*
X64890186Y-55814938D01*
X64661944Y-55876094D01*
X64661935Y-55876098D01*
X64447771Y-55975964D01*
X64447769Y-55975965D01*
X64254197Y-56111505D01*
X64087108Y-56278594D01*
X63956869Y-56464595D01*
X63902292Y-56508219D01*
X63832793Y-56515412D01*
X63770439Y-56483890D01*
X63753719Y-56464594D01*
X63623713Y-56278926D01*
X63623708Y-56278920D01*
X63456682Y-56111894D01*
X63263178Y-55976399D01*
X63049092Y-55876570D01*
X63049086Y-55876567D01*
X62835600Y-55819364D01*
X62835600Y-56716988D01*
X62778593Y-56684075D01*
X62651426Y-56650000D01*
X62519774Y-56650000D01*
X62392607Y-56684075D01*
X62335600Y-56716988D01*
X62335600Y-55819364D01*
X62335599Y-55819364D01*
X62122113Y-55876567D01*
X62122107Y-55876570D01*
X61908022Y-55976399D01*
X61908020Y-55976400D01*
X61714526Y-56111886D01*
X61714520Y-56111891D01*
X61547491Y-56278920D01*
X61547486Y-56278926D01*
X61412000Y-56472420D01*
X61411999Y-56472422D01*
X61312170Y-56686507D01*
X61312167Y-56686513D01*
X61254964Y-56899999D01*
X61254964Y-56900000D01*
X62152588Y-56900000D01*
X62119675Y-56957007D01*
X62085600Y-57084174D01*
X62085600Y-57215826D01*
X62119675Y-57342993D01*
X62152588Y-57400000D01*
X61254964Y-57400000D01*
X61312167Y-57613486D01*
X61312170Y-57613492D01*
X61411999Y-57827578D01*
X61547494Y-58021082D01*
X61714517Y-58188105D01*
X61908021Y-58323600D01*
X62122107Y-58423429D01*
X62122116Y-58423433D01*
X62335600Y-58480634D01*
X62335600Y-57583012D01*
X62392607Y-57615925D01*
X62519774Y-57650000D01*
X62651426Y-57650000D01*
X62778593Y-57615925D01*
X62835600Y-57583012D01*
X62835600Y-58480633D01*
X63049083Y-58423433D01*
X63049092Y-58423429D01*
X63263178Y-58323600D01*
X63456682Y-58188105D01*
X63623705Y-58021082D01*
X63753719Y-57835405D01*
X63808296Y-57791781D01*
X63877795Y-57784588D01*
X63940149Y-57816110D01*
X63956869Y-57835405D01*
X64087105Y-58021401D01*
X64254199Y-58188495D01*
X64350984Y-58256265D01*
X64447765Y-58324032D01*
X64447767Y-58324033D01*
X64447770Y-58324035D01*
X64661937Y-58423903D01*
X64890192Y-58485063D01*
X65078518Y-58501539D01*
X65125599Y-58505659D01*
X65125600Y-58505659D01*
X65125601Y-58505659D01*
X65164834Y-58502226D01*
X65361008Y-58485063D01*
X65589263Y-58423903D01*
X65803430Y-58324035D01*
X65997001Y-58188495D01*
X66164095Y-58021401D01*
X66294025Y-57835842D01*
X66348602Y-57792217D01*
X66418100Y-57785023D01*
X66480455Y-57816546D01*
X66497175Y-57835842D01*
X66626881Y-58021082D01*
X66627105Y-58021401D01*
X66794199Y-58188495D01*
X66890984Y-58256265D01*
X66987765Y-58324032D01*
X66987767Y-58324033D01*
X66987770Y-58324035D01*
X67201937Y-58423903D01*
X67430192Y-58485063D01*
X67618518Y-58501539D01*
X67665599Y-58505659D01*
X67665600Y-58505659D01*
X67665601Y-58505659D01*
X67704834Y-58502226D01*
X67901008Y-58485063D01*
X68129263Y-58423903D01*
X68343430Y-58324035D01*
X68537001Y-58188495D01*
X68704095Y-58021401D01*
X68834025Y-57835842D01*
X68888602Y-57792217D01*
X68958100Y-57785023D01*
X69020455Y-57816546D01*
X69037175Y-57835842D01*
X69166881Y-58021082D01*
X69167105Y-58021401D01*
X69334199Y-58188495D01*
X69430984Y-58256265D01*
X69527765Y-58324032D01*
X69527767Y-58324033D01*
X69527770Y-58324035D01*
X69741937Y-58423903D01*
X69970192Y-58485063D01*
X70158518Y-58501539D01*
X70205599Y-58505659D01*
X70205600Y-58505659D01*
X70205601Y-58505659D01*
X70244834Y-58502226D01*
X70441008Y-58485063D01*
X70669263Y-58423903D01*
X70883430Y-58324035D01*
X71077001Y-58188495D01*
X71198929Y-58066566D01*
X71260248Y-58033084D01*
X71329940Y-58038068D01*
X71385874Y-58079939D01*
X71402789Y-58110917D01*
X71451802Y-58242328D01*
X71451806Y-58242335D01*
X71538052Y-58357544D01*
X71538055Y-58357547D01*
X71653265Y-58443794D01*
X71653267Y-58443794D01*
X71653269Y-58443796D01*
X71664430Y-58447958D01*
X71720364Y-58489826D01*
X71744784Y-58555289D01*
X71745100Y-58564141D01*
X71745100Y-62049141D01*
X71745100Y-62049143D01*
X71745099Y-62049143D01*
X71783547Y-62242429D01*
X71783550Y-62242439D01*
X71858964Y-62424507D01*
X71858971Y-62424520D01*
X71968460Y-62588381D01*
X71968463Y-62588385D01*
X72112137Y-62732059D01*
X72112159Y-62732079D01*
X82379335Y-72999255D01*
X82379364Y-72999286D01*
X82521814Y-73141736D01*
X82521818Y-73141739D01*
X82685679Y-73251228D01*
X82685692Y-73251235D01*
X82814433Y-73304561D01*
X82857344Y-73322335D01*
X82867764Y-73326651D01*
X82964412Y-73345875D01*
X83012735Y-73355487D01*
X83061058Y-73365100D01*
X84727088Y-73365100D01*
X84794127Y-73384785D01*
X84839882Y-73437589D01*
X84849826Y-73506747D01*
X84820801Y-73570303D01*
X84777524Y-73602379D01*
X84747270Y-73615849D01*
X84747265Y-73615851D01*
X84594129Y-73727111D01*
X84467466Y-73867785D01*
X84372821Y-74031715D01*
X84372818Y-74031722D01*
X84314327Y-74211740D01*
X84314326Y-74211744D01*
X84294540Y-74400000D01*
X84314326Y-74588256D01*
X84314327Y-74588259D01*
X84372818Y-74768277D01*
X84372821Y-74768284D01*
X84467467Y-74932216D01*
X84571521Y-75047779D01*
X84594129Y-75072888D01*
X84747265Y-75184148D01*
X84747270Y-75184151D01*
X84920192Y-75261142D01*
X84920197Y-75261144D01*
X85105354Y-75300500D01*
X85105355Y-75300500D01*
X85294644Y-75300500D01*
X85294646Y-75300500D01*
X85479803Y-75261144D01*
X85652730Y-75184151D01*
X85805871Y-75072888D01*
X85808788Y-75069647D01*
X85811600Y-75066526D01*
X85871087Y-75029879D01*
X85903748Y-75025500D01*
X87684480Y-75025500D01*
X87751519Y-75045185D01*
X87797274Y-75097989D01*
X87807218Y-75167147D01*
X87778193Y-75230703D01*
X87772161Y-75237181D01*
X85437180Y-77572162D01*
X85375857Y-77605647D01*
X85306165Y-77600663D01*
X85250232Y-77558791D01*
X85225815Y-77493327D01*
X85225499Y-77484481D01*
X85225499Y-76052129D01*
X85225498Y-76052123D01*
X85225497Y-76052116D01*
X85219091Y-75992517D01*
X85180473Y-75888978D01*
X85168797Y-75857671D01*
X85168793Y-75857664D01*
X85082547Y-75742455D01*
X85082544Y-75742452D01*
X84967335Y-75656206D01*
X84967328Y-75656202D01*
X84832482Y-75605908D01*
X84832483Y-75605908D01*
X84772883Y-75599501D01*
X84772881Y-75599500D01*
X84772873Y-75599500D01*
X84772864Y-75599500D01*
X82777129Y-75599500D01*
X82777123Y-75599501D01*
X82717516Y-75605908D01*
X82582671Y-75656202D01*
X82582664Y-75656206D01*
X82467455Y-75742452D01*
X82467452Y-75742455D01*
X82381206Y-75857664D01*
X82381202Y-75857671D01*
X82330908Y-75992517D01*
X82324730Y-76049988D01*
X82324501Y-76052123D01*
X82324500Y-76052135D01*
X82324500Y-78047870D01*
X82324501Y-78047876D01*
X82330908Y-78107483D01*
X82381202Y-78242328D01*
X82381204Y-78242331D01*
X82455209Y-78341189D01*
X82479627Y-78406653D01*
X82464776Y-78474926D01*
X82415371Y-78524332D01*
X82355943Y-78539500D01*
X80216003Y-78539500D01*
X80107590Y-78561065D01*
X80107589Y-78561065D01*
X80080671Y-78566420D01*
X79953190Y-78619224D01*
X79838454Y-78695887D01*
X78731403Y-79802938D01*
X78670080Y-79836423D01*
X78623313Y-79837566D01*
X78395192Y-79799500D01*
X78154808Y-79799500D01*
X78107387Y-79807413D01*
X77917699Y-79839066D01*
X77690347Y-79917116D01*
X77690342Y-79917118D01*
X77478930Y-80031529D01*
X77478924Y-80031533D01*
X77289242Y-80179169D01*
X77289239Y-80179172D01*
X77126430Y-80356029D01*
X77126427Y-80356033D01*
X76994951Y-80557270D01*
X76898389Y-80777409D01*
X76871866Y-80882149D01*
X76836326Y-80942304D01*
X76773905Y-80973696D01*
X76704422Y-80966358D01*
X76663979Y-80939389D01*
X72774584Y-77049994D01*
X76819529Y-77049994D01*
X76819529Y-77050005D01*
X76839379Y-77289559D01*
X76898389Y-77522589D01*
X76994951Y-77742729D01*
X77057384Y-77838289D01*
X77126429Y-77943969D01*
X77289236Y-78120825D01*
X77289239Y-78120827D01*
X77289242Y-78120830D01*
X77478924Y-78268466D01*
X77478930Y-78268470D01*
X77478933Y-78268472D01*
X77690344Y-78382882D01*
X77690347Y-78382883D01*
X77917699Y-78460933D01*
X77917701Y-78460933D01*
X77917703Y-78460934D01*
X78154808Y-78500500D01*
X78154809Y-78500500D01*
X78395191Y-78500500D01*
X78395192Y-78500500D01*
X78632297Y-78460934D01*
X78859656Y-78382882D01*
X79071067Y-78268472D01*
X79260764Y-78120825D01*
X79423571Y-77943969D01*
X79555049Y-77742728D01*
X79651610Y-77522591D01*
X79710620Y-77289563D01*
X79723068Y-77139341D01*
X79730471Y-77050005D01*
X79730471Y-77049994D01*
X79710620Y-76810440D01*
X79710620Y-76810437D01*
X79651610Y-76577409D01*
X79555049Y-76357272D01*
X79520412Y-76304257D01*
X79423572Y-76156033D01*
X79423571Y-76156031D01*
X79260764Y-75979175D01*
X79260759Y-75979171D01*
X79260757Y-75979169D01*
X79071075Y-75831533D01*
X79071069Y-75831529D01*
X78859657Y-75717118D01*
X78859652Y-75717116D01*
X78632300Y-75639066D01*
X78433593Y-75605908D01*
X78395192Y-75599500D01*
X78154808Y-75599500D01*
X78116407Y-75605908D01*
X77917699Y-75639066D01*
X77690347Y-75717116D01*
X77690342Y-75717118D01*
X77478930Y-75831529D01*
X77478924Y-75831533D01*
X77289242Y-75979169D01*
X77289239Y-75979172D01*
X77126430Y-76156029D01*
X77126427Y-76156033D01*
X76994951Y-76357270D01*
X76898390Y-76577409D01*
X76839379Y-76810440D01*
X76819529Y-77049994D01*
X72774584Y-77049994D01*
X72498328Y-76773738D01*
X72498325Y-76773734D01*
X72498325Y-76773735D01*
X72491258Y-76766668D01*
X72491258Y-76766667D01*
X72404133Y-76679542D01*
X72404132Y-76679541D01*
X72404131Y-76679540D01*
X72352909Y-76645315D01*
X72301686Y-76611088D01*
X72301683Y-76611086D01*
X72301680Y-76611085D01*
X72220376Y-76577409D01*
X72187853Y-76563937D01*
X72177827Y-76561943D01*
X72127429Y-76551918D01*
X72067010Y-76539900D01*
X72067007Y-76539900D01*
X72067006Y-76539900D01*
X70203748Y-76539900D01*
X70136709Y-76520215D01*
X70111600Y-76498874D01*
X70105873Y-76492514D01*
X70105869Y-76492510D01*
X69952734Y-76381251D01*
X69952729Y-76381248D01*
X69779807Y-76304257D01*
X69779802Y-76304255D01*
X69634001Y-76273265D01*
X69594646Y-76264900D01*
X69405354Y-76264900D01*
X69372897Y-76271798D01*
X69220197Y-76304255D01*
X69220192Y-76304257D01*
X69047270Y-76381248D01*
X69047265Y-76381251D01*
X68894129Y-76492511D01*
X68767466Y-76633185D01*
X68672821Y-76797115D01*
X68672818Y-76797122D01*
X68632734Y-76920489D01*
X68614326Y-76977144D01*
X68594540Y-77165400D01*
X68614326Y-77353656D01*
X68614327Y-77353659D01*
X68672818Y-77533677D01*
X68672821Y-77533684D01*
X68767467Y-77697616D01*
X68869185Y-77810585D01*
X68894129Y-77838288D01*
X69047265Y-77949548D01*
X69047270Y-77949551D01*
X69220192Y-78026542D01*
X69220197Y-78026544D01*
X69405354Y-78065900D01*
X69405355Y-78065900D01*
X69594644Y-78065900D01*
X69594646Y-78065900D01*
X69779803Y-78026544D01*
X69952730Y-77949551D01*
X70105871Y-77838288D01*
X70108788Y-77835047D01*
X70111600Y-77831926D01*
X70171087Y-77795279D01*
X70203748Y-77790900D01*
X71694948Y-77790900D01*
X71761987Y-77810585D01*
X71782629Y-77827219D01*
X77834786Y-83879376D01*
X77868271Y-83940699D01*
X77863287Y-84010391D01*
X77821415Y-84066324D01*
X77787369Y-84084338D01*
X77690546Y-84117578D01*
X77690544Y-84117578D01*
X77479209Y-84231948D01*
X77440571Y-84262019D01*
X77989242Y-84810690D01*
X77943426Y-84829668D01*
X77828776Y-84906274D01*
X77731274Y-85003776D01*
X77654668Y-85118426D01*
X77635690Y-85164243D01*
X77087688Y-84616241D01*
X76995392Y-84757511D01*
X76898865Y-84977571D01*
X76839874Y-85210523D01*
X76820031Y-85449994D01*
X76820031Y-85450005D01*
X76839874Y-85689476D01*
X76898865Y-85922428D01*
X76995392Y-86142488D01*
X77087687Y-86283757D01*
X77635689Y-85735756D01*
X77654668Y-85781574D01*
X77731274Y-85896224D01*
X77828776Y-85993726D01*
X77943426Y-86070332D01*
X77989242Y-86089309D01*
X77440572Y-86637979D01*
X77479208Y-86668051D01*
X77690544Y-86782421D01*
X77690550Y-86782423D01*
X77917823Y-86860446D01*
X78154851Y-86900000D01*
X78395149Y-86900000D01*
X78632176Y-86860446D01*
X78859449Y-86782423D01*
X78859455Y-86782421D01*
X79070794Y-86668049D01*
X79070795Y-86668048D01*
X79109426Y-86637980D01*
X79109427Y-86637979D01*
X78560757Y-86089309D01*
X78606574Y-86070332D01*
X78721224Y-85993726D01*
X78818726Y-85896224D01*
X78895332Y-85781574D01*
X78914309Y-85735757D01*
X79462310Y-86283758D01*
X79554608Y-86142485D01*
X79647352Y-85931050D01*
X79692308Y-85877564D01*
X79759044Y-85856874D01*
X79826371Y-85875548D01*
X79848589Y-85893179D01*
X81528181Y-87572771D01*
X81561666Y-87634094D01*
X81564500Y-87660452D01*
X81564500Y-89929734D01*
X81588535Y-90050567D01*
X81588540Y-90050584D01*
X81635685Y-90164403D01*
X81635690Y-90164412D01*
X81669914Y-90215630D01*
X81669915Y-90215632D01*
X81704141Y-90266856D01*
X81795586Y-90358301D01*
X81795608Y-90358321D01*
X83640857Y-92203570D01*
X83674342Y-92264893D01*
X83669358Y-92334585D01*
X83627486Y-92390518D01*
X83573587Y-92413560D01*
X83417822Y-92439553D01*
X83190550Y-92517576D01*
X83190544Y-92517578D01*
X82979209Y-92631948D01*
X82940571Y-92662019D01*
X83489242Y-93210690D01*
X83443426Y-93229668D01*
X83328776Y-93306274D01*
X83231274Y-93403776D01*
X83154668Y-93518426D01*
X83135690Y-93564243D01*
X82587688Y-93016241D01*
X82495392Y-93157511D01*
X82398865Y-93377571D01*
X82339874Y-93610523D01*
X82320031Y-93849994D01*
X82320031Y-93850005D01*
X82339874Y-94089476D01*
X82398865Y-94322428D01*
X82495392Y-94542488D01*
X82587687Y-94683757D01*
X83135689Y-94135756D01*
X83154668Y-94181574D01*
X83231274Y-94296224D01*
X83328776Y-94393726D01*
X83443426Y-94470332D01*
X83489241Y-94489309D01*
X82940572Y-95037979D01*
X82979208Y-95068051D01*
X83190544Y-95182421D01*
X83190550Y-95182423D01*
X83417823Y-95260446D01*
X83654851Y-95300000D01*
X83895149Y-95300000D01*
X84132176Y-95260446D01*
X84260237Y-95216483D01*
X84330035Y-95213333D01*
X84390457Y-95248419D01*
X84422317Y-95310601D01*
X84424500Y-95333764D01*
X84424500Y-96565706D01*
X84404815Y-96632745D01*
X84352011Y-96678500D01*
X84282853Y-96688444D01*
X84260237Y-96682987D01*
X84132300Y-96639066D01*
X83954468Y-96609391D01*
X83895192Y-96599500D01*
X83654808Y-96599500D01*
X83607387Y-96607413D01*
X83417699Y-96639066D01*
X83190347Y-96717116D01*
X83190342Y-96717118D01*
X82978930Y-96831529D01*
X82978924Y-96831533D01*
X82789242Y-96979169D01*
X82789239Y-96979172D01*
X82626430Y-97156029D01*
X82626427Y-97156033D01*
X82494951Y-97357270D01*
X82398389Y-97577410D01*
X82339379Y-97810440D01*
X82319529Y-98049994D01*
X82319529Y-98050000D01*
X82325242Y-98118944D01*
X82328707Y-98160767D01*
X82314625Y-98229203D01*
X82292811Y-98258687D01*
X80351937Y-100199561D01*
X80312464Y-100258639D01*
X80312463Y-100258640D01*
X80253385Y-100347055D01*
X80219446Y-100428993D01*
X80185506Y-100510929D01*
X80185503Y-100510941D01*
X80150900Y-100684903D01*
X80150900Y-107449238D01*
X80131215Y-107516277D01*
X80114581Y-107536919D01*
X78488294Y-109163205D01*
X78426971Y-109196690D01*
X78400321Y-109198453D01*
X78400321Y-109199500D01*
X78395192Y-109199500D01*
X78154808Y-109199500D01*
X78107387Y-109207413D01*
X77917699Y-109239066D01*
X77690347Y-109317116D01*
X77690342Y-109317118D01*
X77478930Y-109431529D01*
X77478924Y-109431533D01*
X77289242Y-109579169D01*
X77289239Y-109579172D01*
X77126430Y-109756029D01*
X77126427Y-109756033D01*
X76994951Y-109957270D01*
X76898389Y-110177410D01*
X76839379Y-110410440D01*
X76819529Y-110649994D01*
X76819529Y-110650005D01*
X76839379Y-110889559D01*
X76898389Y-111122589D01*
X76994951Y-111342729D01*
X77126427Y-111543966D01*
X77126429Y-111543969D01*
X77289236Y-111720825D01*
X77289239Y-111720827D01*
X77289242Y-111720830D01*
X77478924Y-111868466D01*
X77478930Y-111868470D01*
X77478933Y-111868472D01*
X77690344Y-111982882D01*
X77690347Y-111982883D01*
X77917699Y-112060933D01*
X77917701Y-112060933D01*
X77917703Y-112060934D01*
X78154808Y-112100500D01*
X78154809Y-112100500D01*
X78395191Y-112100500D01*
X78395192Y-112100500D01*
X78632297Y-112060934D01*
X78859656Y-111982882D01*
X79071067Y-111868472D01*
X79260764Y-111720825D01*
X79423571Y-111543969D01*
X79555049Y-111342728D01*
X79651610Y-111122591D01*
X79710620Y-110889563D01*
X79730471Y-110650000D01*
X79730471Y-110649994D01*
X82319529Y-110649994D01*
X82319529Y-110650005D01*
X82339379Y-110889559D01*
X82398389Y-111122589D01*
X82494951Y-111342729D01*
X82626427Y-111543966D01*
X82626429Y-111543969D01*
X82789236Y-111720825D01*
X82789239Y-111720827D01*
X82789242Y-111720830D01*
X82978924Y-111868466D01*
X82978930Y-111868470D01*
X82978933Y-111868472D01*
X83190344Y-111982882D01*
X83190347Y-111982883D01*
X83417699Y-112060933D01*
X83417701Y-112060933D01*
X83417703Y-112060934D01*
X83654808Y-112100500D01*
X83654809Y-112100500D01*
X83895191Y-112100500D01*
X83895192Y-112100500D01*
X84132297Y-112060934D01*
X84359656Y-111982882D01*
X84571067Y-111868472D01*
X84760764Y-111720825D01*
X84923571Y-111543969D01*
X85055049Y-111342728D01*
X85151610Y-111122591D01*
X85210620Y-110889563D01*
X85230471Y-110650000D01*
X85221292Y-110539233D01*
X85210620Y-110410440D01*
X85210620Y-110410437D01*
X85151610Y-110177409D01*
X85055049Y-109957272D01*
X84923571Y-109756031D01*
X84760764Y-109579175D01*
X84760759Y-109579171D01*
X84760757Y-109579169D01*
X84571075Y-109431533D01*
X84571069Y-109431529D01*
X84359657Y-109317118D01*
X84359652Y-109317116D01*
X84132300Y-109239066D01*
X83943876Y-109207624D01*
X83895192Y-109199500D01*
X83654808Y-109199500D01*
X83607387Y-109207413D01*
X83417699Y-109239066D01*
X83190347Y-109317116D01*
X83190342Y-109317118D01*
X82978930Y-109431529D01*
X82978924Y-109431533D01*
X82789242Y-109579169D01*
X82789239Y-109579172D01*
X82626430Y-109756029D01*
X82626427Y-109756033D01*
X82494951Y-109957270D01*
X82398389Y-110177410D01*
X82339379Y-110410440D01*
X82319529Y-110649994D01*
X79730471Y-110649994D01*
X79721292Y-110539231D01*
X79735372Y-110470797D01*
X79757184Y-110441314D01*
X81750864Y-108447635D01*
X81849413Y-108300147D01*
X81869295Y-108252147D01*
X81917295Y-108136266D01*
X81951900Y-107962291D01*
X81951900Y-107784908D01*
X81951900Y-101197961D01*
X81971585Y-101130922D01*
X81988214Y-101110285D01*
X83561706Y-99536792D01*
X83623027Y-99503309D01*
X83649679Y-99501582D01*
X83649679Y-99500500D01*
X83895191Y-99500500D01*
X83895192Y-99500500D01*
X84132297Y-99460934D01*
X84260238Y-99417011D01*
X84330035Y-99413862D01*
X84390457Y-99448948D01*
X84422317Y-99511130D01*
X84424500Y-99534293D01*
X84424500Y-100766235D01*
X84404815Y-100833274D01*
X84352011Y-100879029D01*
X84282853Y-100888973D01*
X84260238Y-100883516D01*
X84132178Y-100839553D01*
X83895149Y-100800000D01*
X83654851Y-100800000D01*
X83417823Y-100839553D01*
X83190550Y-100917576D01*
X83190544Y-100917578D01*
X82979209Y-101031948D01*
X82940571Y-101062019D01*
X83489242Y-101610690D01*
X83443426Y-101629668D01*
X83328776Y-101706274D01*
X83231274Y-101803776D01*
X83154668Y-101918426D01*
X83135690Y-101964243D01*
X82587688Y-101416241D01*
X82495392Y-101557511D01*
X82398865Y-101777571D01*
X82339874Y-102010523D01*
X82320031Y-102249994D01*
X82320031Y-102250005D01*
X82339874Y-102489476D01*
X82398865Y-102722428D01*
X82495392Y-102942488D01*
X82587687Y-103083757D01*
X83135689Y-102535756D01*
X83154668Y-102581574D01*
X83231274Y-102696224D01*
X83328776Y-102793726D01*
X83443426Y-102870332D01*
X83489241Y-102889309D01*
X82940572Y-103437979D01*
X82979208Y-103468051D01*
X83190544Y-103582421D01*
X83190550Y-103582423D01*
X83417823Y-103660446D01*
X83654851Y-103700000D01*
X83895149Y-103700000D01*
X84132176Y-103660446D01*
X84260237Y-103616483D01*
X84330035Y-103613333D01*
X84390457Y-103648419D01*
X84422317Y-103710601D01*
X84424500Y-103733764D01*
X84424500Y-104864546D01*
X84404815Y-104931585D01*
X84388181Y-104952228D01*
X84312873Y-105027535D01*
X84251549Y-105061019D01*
X84184929Y-105057134D01*
X84132300Y-105039066D01*
X83954468Y-105009391D01*
X83895192Y-104999500D01*
X83654808Y-104999500D01*
X83607387Y-105007413D01*
X83417699Y-105039066D01*
X83190347Y-105117116D01*
X83190342Y-105117118D01*
X82978930Y-105231529D01*
X82978924Y-105231533D01*
X82789242Y-105379169D01*
X82789239Y-105379172D01*
X82626430Y-105556029D01*
X82626427Y-105556033D01*
X82494951Y-105757270D01*
X82398389Y-105977410D01*
X82339379Y-106210440D01*
X82319529Y-106449994D01*
X82319529Y-106450005D01*
X82339379Y-106689559D01*
X82398389Y-106922589D01*
X82494951Y-107142729D01*
X82626427Y-107343966D01*
X82626429Y-107343969D01*
X82789236Y-107520825D01*
X82789239Y-107520827D01*
X82789242Y-107520830D01*
X82978924Y-107668466D01*
X82978930Y-107668470D01*
X82978933Y-107668472D01*
X83190344Y-107782882D01*
X83190347Y-107782883D01*
X83417699Y-107860933D01*
X83417701Y-107860933D01*
X83417703Y-107860934D01*
X83654808Y-107900500D01*
X83654809Y-107900500D01*
X83895191Y-107900500D01*
X83895192Y-107900500D01*
X84132297Y-107860934D01*
X84359656Y-107782882D01*
X84571067Y-107668472D01*
X84760764Y-107520825D01*
X84923571Y-107343969D01*
X85055049Y-107142728D01*
X85151610Y-106922591D01*
X85210620Y-106689563D01*
X85230471Y-106450000D01*
X85210620Y-106210437D01*
X85164979Y-106030202D01*
X85167604Y-105960385D01*
X85197502Y-105912086D01*
X85448729Y-105660860D01*
X85448733Y-105660858D01*
X85535858Y-105573733D01*
X85604311Y-105471286D01*
X85651463Y-105357452D01*
X85675500Y-105236606D01*
X85675500Y-92666517D01*
X85651463Y-92545671D01*
X85651461Y-92545666D01*
X85631962Y-92498591D01*
X85631947Y-92498558D01*
X85631932Y-92498520D01*
X85604312Y-92431838D01*
X85587256Y-92406313D01*
X85535858Y-92329390D01*
X85535856Y-92329387D01*
X85445637Y-92239168D01*
X85445606Y-92239139D01*
X84366739Y-91160272D01*
X84333254Y-91098949D01*
X84338238Y-91029257D01*
X84380110Y-90973324D01*
X84395396Y-90963540D01*
X84571067Y-90868472D01*
X84760764Y-90720825D01*
X84923571Y-90543969D01*
X85055049Y-90342728D01*
X85151610Y-90122591D01*
X85170602Y-90047586D01*
X85203125Y-89990347D01*
X98351821Y-76841652D01*
X98413142Y-76808169D01*
X98482834Y-76813153D01*
X98538767Y-76855025D01*
X98563184Y-76920489D01*
X98563500Y-76929335D01*
X98563500Y-98948769D01*
X98543815Y-99015808D01*
X98527181Y-99036450D01*
X84170804Y-113392826D01*
X84109481Y-113426311D01*
X84062714Y-113427454D01*
X83895192Y-113399500D01*
X83654808Y-113399500D01*
X83607387Y-113407413D01*
X83417699Y-113439066D01*
X83190347Y-113517116D01*
X83190342Y-113517118D01*
X82978930Y-113631529D01*
X82978924Y-113631533D01*
X82789242Y-113779169D01*
X82789239Y-113779172D01*
X82626430Y-113956029D01*
X82626427Y-113956033D01*
X82494951Y-114157270D01*
X82398389Y-114377410D01*
X82339379Y-114610440D01*
X82319529Y-114849994D01*
X82319529Y-114850005D01*
X82339379Y-115089559D01*
X82398389Y-115322589D01*
X82494951Y-115542729D01*
X82626427Y-115743966D01*
X82626429Y-115743969D01*
X82789236Y-115920825D01*
X82789239Y-115920827D01*
X82789242Y-115920830D01*
X82978924Y-116068466D01*
X82978930Y-116068470D01*
X82978933Y-116068472D01*
X83190344Y-116182882D01*
X83190347Y-116182883D01*
X83417699Y-116260933D01*
X83417701Y-116260933D01*
X83417703Y-116260934D01*
X83654808Y-116300500D01*
X83654809Y-116300500D01*
X83895191Y-116300500D01*
X83895192Y-116300500D01*
X84132297Y-116260934D01*
X84359656Y-116182882D01*
X84571067Y-116068472D01*
X84760764Y-115920825D01*
X84923571Y-115743969D01*
X85055049Y-115542728D01*
X85151610Y-115322591D01*
X85210620Y-115089563D01*
X85230471Y-114850000D01*
X85210620Y-114610437D01*
X85200700Y-114571263D01*
X85203324Y-114501445D01*
X85233222Y-114453144D01*
X99896952Y-99789415D01*
X99924205Y-99748627D01*
X99979084Y-99666495D01*
X100002518Y-99609920D01*
X100035659Y-99529912D01*
X100064500Y-99384917D01*
X100064500Y-99237082D01*
X100064500Y-71228229D01*
X100084185Y-71161190D01*
X100100819Y-71140548D01*
X100473912Y-70767455D01*
X101087223Y-70154143D01*
X101148544Y-70120660D01*
X101218235Y-70125644D01*
X101274169Y-70167516D01*
X101298586Y-70232980D01*
X101298901Y-70241452D01*
X101470944Y-127344956D01*
X101451462Y-127412055D01*
X101398796Y-127457969D01*
X101346945Y-127469330D01*
X73479188Y-127469330D01*
X73412149Y-127449645D01*
X73366394Y-127396841D01*
X73355188Y-127345272D01*
X73357091Y-123249994D01*
X76820031Y-123249994D01*
X76820031Y-123250005D01*
X76839874Y-123489476D01*
X76898865Y-123722428D01*
X76995392Y-123942488D01*
X77087687Y-124083757D01*
X77635689Y-123535756D01*
X77654668Y-123581574D01*
X77731274Y-123696224D01*
X77828776Y-123793726D01*
X77943426Y-123870332D01*
X77989242Y-123889309D01*
X77440572Y-124437979D01*
X77479208Y-124468051D01*
X77690544Y-124582421D01*
X77690550Y-124582423D01*
X77917823Y-124660446D01*
X78154851Y-124700000D01*
X78395149Y-124700000D01*
X78632176Y-124660446D01*
X78859449Y-124582423D01*
X78859455Y-124582421D01*
X79070794Y-124468049D01*
X79070795Y-124468048D01*
X79109426Y-124437980D01*
X79109427Y-124437979D01*
X78560757Y-123889309D01*
X78606574Y-123870332D01*
X78721224Y-123793726D01*
X78818726Y-123696224D01*
X78895332Y-123581574D01*
X78914309Y-123535757D01*
X79462310Y-124083758D01*
X79554608Y-123942485D01*
X79651134Y-123722428D01*
X79710125Y-123489476D01*
X79729969Y-123250005D01*
X79729969Y-123249994D01*
X82319529Y-123249994D01*
X82319529Y-123250005D01*
X82339379Y-123489559D01*
X82398389Y-123722589D01*
X82494951Y-123942729D01*
X82550973Y-124028476D01*
X82626429Y-124143969D01*
X82789236Y-124320825D01*
X82789239Y-124320827D01*
X82789242Y-124320830D01*
X82978924Y-124468466D01*
X82978930Y-124468470D01*
X82978933Y-124468472D01*
X83190344Y-124582882D01*
X83190347Y-124582883D01*
X83417699Y-124660933D01*
X83417701Y-124660933D01*
X83417703Y-124660934D01*
X83654808Y-124700500D01*
X83654809Y-124700500D01*
X83895191Y-124700500D01*
X83895192Y-124700500D01*
X84132297Y-124660934D01*
X84359656Y-124582882D01*
X84571067Y-124468472D01*
X84571611Y-124468049D01*
X84647141Y-124409261D01*
X84760764Y-124320825D01*
X84923571Y-124143969D01*
X85055049Y-123942728D01*
X85151610Y-123722591D01*
X85210620Y-123489563D01*
X85230471Y-123250000D01*
X85221179Y-123137858D01*
X89339700Y-123137858D01*
X89339700Y-123367341D01*
X89355792Y-123489563D01*
X89369652Y-123594838D01*
X89403883Y-123722591D01*
X89429042Y-123816487D01*
X89516850Y-124028476D01*
X89516857Y-124028490D01*
X89631592Y-124227217D01*
X89771281Y-124409261D01*
X89771289Y-124409270D01*
X89933530Y-124571511D01*
X89933538Y-124571518D01*
X89933539Y-124571519D01*
X89948349Y-124582883D01*
X90115582Y-124711207D01*
X90115585Y-124711208D01*
X90115588Y-124711211D01*
X90314312Y-124825944D01*
X90314317Y-124825946D01*
X90314323Y-124825949D01*
X90405680Y-124863790D01*
X90526313Y-124913758D01*
X90747962Y-124973148D01*
X90975466Y-125003100D01*
X90975473Y-125003100D01*
X91204927Y-125003100D01*
X91204934Y-125003100D01*
X91432438Y-124973148D01*
X91654087Y-124913758D01*
X91866088Y-124825944D01*
X92064812Y-124711211D01*
X92246861Y-124571519D01*
X92246865Y-124571514D01*
X92246870Y-124571511D01*
X92409111Y-124409270D01*
X92409114Y-124409265D01*
X92409119Y-124409261D01*
X92548811Y-124227212D01*
X92663544Y-124028488D01*
X92751358Y-123816487D01*
X92810748Y-123594838D01*
X92840700Y-123367334D01*
X92840700Y-123137866D01*
X92810748Y-122910362D01*
X92751358Y-122688713D01*
X92663544Y-122476712D01*
X92548811Y-122277988D01*
X92548808Y-122277985D01*
X92548807Y-122277982D01*
X92409118Y-122095938D01*
X92409111Y-122095930D01*
X92246870Y-121933689D01*
X92246861Y-121933681D01*
X92064817Y-121793992D01*
X91866090Y-121679257D01*
X91866076Y-121679250D01*
X91654087Y-121591442D01*
X91432438Y-121532052D01*
X91394415Y-121527046D01*
X91204941Y-121502100D01*
X91204934Y-121502100D01*
X90975466Y-121502100D01*
X90975458Y-121502100D01*
X90758915Y-121530609D01*
X90747962Y-121532052D01*
X90654276Y-121557154D01*
X90526312Y-121591442D01*
X90314323Y-121679250D01*
X90314309Y-121679257D01*
X90115582Y-121793992D01*
X89933538Y-121933681D01*
X89771281Y-122095938D01*
X89631592Y-122277982D01*
X89516857Y-122476709D01*
X89516850Y-122476723D01*
X89429042Y-122688712D01*
X89405276Y-122777409D01*
X89373381Y-122896447D01*
X89369653Y-122910359D01*
X89369651Y-122910370D01*
X89339700Y-123137858D01*
X85221179Y-123137858D01*
X85210620Y-123010437D01*
X85151610Y-122777409D01*
X85055049Y-122557272D01*
X84923571Y-122356031D01*
X84760764Y-122179175D01*
X84760759Y-122179171D01*
X84760757Y-122179169D01*
X84571075Y-122031533D01*
X84571069Y-122031529D01*
X84359657Y-121917118D01*
X84359652Y-121917116D01*
X84132300Y-121839066D01*
X83954468Y-121809391D01*
X83895192Y-121799500D01*
X83654808Y-121799500D01*
X83607387Y-121807413D01*
X83417699Y-121839066D01*
X83190347Y-121917116D01*
X83190342Y-121917118D01*
X82978930Y-122031529D01*
X82978924Y-122031533D01*
X82789242Y-122179169D01*
X82789239Y-122179172D01*
X82626430Y-122356029D01*
X82626427Y-122356033D01*
X82494951Y-122557270D01*
X82398389Y-122777410D01*
X82339379Y-123010440D01*
X82319529Y-123249994D01*
X79729969Y-123249994D01*
X79710125Y-123010523D01*
X79651134Y-122777571D01*
X79554607Y-122557511D01*
X79462310Y-122416240D01*
X78914309Y-122964241D01*
X78895332Y-122918426D01*
X78818726Y-122803776D01*
X78721224Y-122706274D01*
X78606574Y-122629668D01*
X78560756Y-122610690D01*
X79109426Y-122062019D01*
X79109426Y-122062017D01*
X79070801Y-122031954D01*
X79070795Y-122031950D01*
X78859455Y-121917578D01*
X78859449Y-121917576D01*
X78632176Y-121839553D01*
X78395149Y-121800000D01*
X78154851Y-121800000D01*
X77917823Y-121839553D01*
X77690550Y-121917576D01*
X77690544Y-121917578D01*
X77479209Y-122031948D01*
X77440571Y-122062019D01*
X77989242Y-122610690D01*
X77943426Y-122629668D01*
X77828776Y-122706274D01*
X77731274Y-122803776D01*
X77654668Y-122918426D01*
X77635690Y-122964243D01*
X77087688Y-122416241D01*
X76995392Y-122557511D01*
X76898865Y-122777571D01*
X76839874Y-123010523D01*
X76820031Y-123249994D01*
X73357091Y-123249994D01*
X73359042Y-119049994D01*
X76819529Y-119049994D01*
X76819529Y-119050005D01*
X76839379Y-119289559D01*
X76898389Y-119522589D01*
X76994951Y-119742729D01*
X77126427Y-119943966D01*
X77126429Y-119943969D01*
X77289236Y-120120825D01*
X77289239Y-120120827D01*
X77289242Y-120120830D01*
X77478924Y-120268466D01*
X77478930Y-120268470D01*
X77478933Y-120268472D01*
X77690344Y-120382882D01*
X77690347Y-120382883D01*
X77917699Y-120460933D01*
X77917701Y-120460933D01*
X77917703Y-120460934D01*
X78154808Y-120500500D01*
X78154809Y-120500500D01*
X78395191Y-120500500D01*
X78395192Y-120500500D01*
X78632297Y-120460934D01*
X78859656Y-120382882D01*
X79071067Y-120268472D01*
X79260764Y-120120825D01*
X79423571Y-119943969D01*
X79555049Y-119742728D01*
X79651610Y-119522591D01*
X79710620Y-119289563D01*
X79730471Y-119050000D01*
X79730471Y-119049994D01*
X82319529Y-119049994D01*
X82319529Y-119050005D01*
X82339379Y-119289559D01*
X82398389Y-119522589D01*
X82494951Y-119742729D01*
X82626427Y-119943966D01*
X82626429Y-119943969D01*
X82789236Y-120120825D01*
X82789239Y-120120827D01*
X82789242Y-120120830D01*
X82978924Y-120268466D01*
X82978930Y-120268470D01*
X82978933Y-120268472D01*
X83190344Y-120382882D01*
X83190347Y-120382883D01*
X83417699Y-120460933D01*
X83417701Y-120460933D01*
X83417703Y-120460934D01*
X83654808Y-120500500D01*
X83654809Y-120500500D01*
X83895191Y-120500500D01*
X83895192Y-120500500D01*
X84132297Y-120460934D01*
X84359656Y-120382882D01*
X84571067Y-120268472D01*
X84760764Y-120120825D01*
X84923571Y-119943969D01*
X85055049Y-119742728D01*
X85151610Y-119522591D01*
X85210620Y-119289563D01*
X85230471Y-119050000D01*
X85210620Y-118810437D01*
X85151610Y-118577409D01*
X85055049Y-118357272D01*
X84923571Y-118156031D01*
X84760764Y-117979175D01*
X84760759Y-117979171D01*
X84760757Y-117979169D01*
X84571075Y-117831533D01*
X84571069Y-117831529D01*
X84359657Y-117717118D01*
X84359652Y-117717116D01*
X84132300Y-117639066D01*
X83954468Y-117609391D01*
X83895192Y-117599500D01*
X83654808Y-117599500D01*
X83607387Y-117607413D01*
X83417699Y-117639066D01*
X83190347Y-117717116D01*
X83190342Y-117717118D01*
X82978930Y-117831529D01*
X82978924Y-117831533D01*
X82789242Y-117979169D01*
X82789239Y-117979172D01*
X82626430Y-118156029D01*
X82626427Y-118156033D01*
X82494951Y-118357270D01*
X82398389Y-118577410D01*
X82339379Y-118810440D01*
X82319529Y-119049994D01*
X79730471Y-119049994D01*
X79710620Y-118810437D01*
X79651610Y-118577409D01*
X79555049Y-118357272D01*
X79423571Y-118156031D01*
X79260764Y-117979175D01*
X79260759Y-117979171D01*
X79260757Y-117979169D01*
X79071075Y-117831533D01*
X79071069Y-117831529D01*
X78859657Y-117717118D01*
X78859652Y-117717116D01*
X78632300Y-117639066D01*
X78454468Y-117609391D01*
X78395192Y-117599500D01*
X78154808Y-117599500D01*
X78107387Y-117607413D01*
X77917699Y-117639066D01*
X77690347Y-117717116D01*
X77690342Y-117717118D01*
X77478930Y-117831529D01*
X77478924Y-117831533D01*
X77289242Y-117979169D01*
X77289239Y-117979172D01*
X77126430Y-118156029D01*
X77126427Y-118156033D01*
X76994951Y-118357270D01*
X76898389Y-118577410D01*
X76839379Y-118810440D01*
X76819529Y-119049994D01*
X73359042Y-119049994D01*
X73360993Y-114849994D01*
X76819529Y-114849994D01*
X76819529Y-114850005D01*
X76839379Y-115089559D01*
X76898389Y-115322589D01*
X76994951Y-115542729D01*
X77126427Y-115743966D01*
X77126429Y-115743969D01*
X77289236Y-115920825D01*
X77289239Y-115920827D01*
X77289242Y-115920830D01*
X77478924Y-116068466D01*
X77478930Y-116068470D01*
X77478933Y-116068472D01*
X77690344Y-116182882D01*
X77690347Y-116182883D01*
X77917699Y-116260933D01*
X77917701Y-116260933D01*
X77917703Y-116260934D01*
X78154808Y-116300500D01*
X78154809Y-116300500D01*
X78395191Y-116300500D01*
X78395192Y-116300500D01*
X78632297Y-116260934D01*
X78859656Y-116182882D01*
X79071067Y-116068472D01*
X79260764Y-115920825D01*
X79423571Y-115743969D01*
X79555049Y-115542728D01*
X79651610Y-115322591D01*
X79710620Y-115089563D01*
X79730471Y-114850000D01*
X79710620Y-114610437D01*
X79651610Y-114377409D01*
X79555049Y-114157272D01*
X79423571Y-113956031D01*
X79260764Y-113779175D01*
X79260759Y-113779171D01*
X79260757Y-113779169D01*
X79071075Y-113631533D01*
X79071069Y-113631529D01*
X78859657Y-113517118D01*
X78859652Y-113517116D01*
X78632300Y-113439066D01*
X78454468Y-113409391D01*
X78395192Y-113399500D01*
X78154808Y-113399500D01*
X78107387Y-113407413D01*
X77917699Y-113439066D01*
X77690347Y-113517116D01*
X77690342Y-113517118D01*
X77478930Y-113631529D01*
X77478924Y-113631533D01*
X77289242Y-113779169D01*
X77289239Y-113779172D01*
X77126430Y-113956029D01*
X77126427Y-113956033D01*
X76994951Y-114157270D01*
X76898389Y-114377410D01*
X76839379Y-114610440D01*
X76819529Y-114849994D01*
X73360993Y-114849994D01*
X73362800Y-110959330D01*
X73362799Y-110959329D01*
X57899711Y-110954369D01*
X57832678Y-110934663D01*
X57786940Y-110881844D01*
X57775751Y-110830460D01*
X57772629Y-106449994D01*
X76819529Y-106449994D01*
X76819529Y-106450005D01*
X76839379Y-106689559D01*
X76898389Y-106922589D01*
X76994951Y-107142729D01*
X77126427Y-107343966D01*
X77126429Y-107343969D01*
X77289236Y-107520825D01*
X77289239Y-107520827D01*
X77289242Y-107520830D01*
X77478924Y-107668466D01*
X77478930Y-107668470D01*
X77478933Y-107668472D01*
X77690344Y-107782882D01*
X77690347Y-107782883D01*
X77917699Y-107860933D01*
X77917701Y-107860933D01*
X77917703Y-107860934D01*
X78154808Y-107900500D01*
X78154809Y-107900500D01*
X78395191Y-107900500D01*
X78395192Y-107900500D01*
X78632297Y-107860934D01*
X78859656Y-107782882D01*
X79071067Y-107668472D01*
X79260764Y-107520825D01*
X79423571Y-107343969D01*
X79555049Y-107142728D01*
X79651610Y-106922591D01*
X79710620Y-106689563D01*
X79730471Y-106450000D01*
X79710620Y-106210437D01*
X79651610Y-105977409D01*
X79555049Y-105757272D01*
X79423571Y-105556031D01*
X79260764Y-105379175D01*
X79260759Y-105379171D01*
X79260757Y-105379169D01*
X79071075Y-105231533D01*
X79071069Y-105231529D01*
X78859657Y-105117118D01*
X78859652Y-105117116D01*
X78632300Y-105039066D01*
X78454468Y-105009391D01*
X78395192Y-104999500D01*
X78154808Y-104999500D01*
X78107387Y-105007413D01*
X77917699Y-105039066D01*
X77690347Y-105117116D01*
X77690342Y-105117118D01*
X77478930Y-105231529D01*
X77478924Y-105231533D01*
X77289242Y-105379169D01*
X77289239Y-105379172D01*
X77126430Y-105556029D01*
X77126427Y-105556033D01*
X76994951Y-105757270D01*
X76898389Y-105977410D01*
X76839379Y-106210440D01*
X76819529Y-106449994D01*
X57772629Y-106449994D01*
X57769636Y-102249994D01*
X76820031Y-102249994D01*
X76820031Y-102250005D01*
X76839874Y-102489476D01*
X76898865Y-102722428D01*
X76995392Y-102942488D01*
X77087687Y-103083757D01*
X77635689Y-102535756D01*
X77654668Y-102581574D01*
X77731274Y-102696224D01*
X77828776Y-102793726D01*
X77943426Y-102870332D01*
X77989242Y-102889309D01*
X77440572Y-103437979D01*
X77479208Y-103468051D01*
X77690544Y-103582421D01*
X77690550Y-103582423D01*
X77917823Y-103660446D01*
X78154851Y-103700000D01*
X78395149Y-103700000D01*
X78632176Y-103660446D01*
X78859449Y-103582423D01*
X78859455Y-103582421D01*
X79070794Y-103468049D01*
X79070795Y-103468048D01*
X79109426Y-103437980D01*
X79109427Y-103437979D01*
X78560757Y-102889309D01*
X78606574Y-102870332D01*
X78721224Y-102793726D01*
X78818726Y-102696224D01*
X78895332Y-102581574D01*
X78914309Y-102535757D01*
X79462310Y-103083758D01*
X79554608Y-102942485D01*
X79651134Y-102722428D01*
X79710125Y-102489476D01*
X79729969Y-102250005D01*
X79729969Y-102249994D01*
X79710125Y-102010523D01*
X79651134Y-101777571D01*
X79554607Y-101557511D01*
X79462310Y-101416240D01*
X78914309Y-101964241D01*
X78895332Y-101918426D01*
X78818726Y-101803776D01*
X78721224Y-101706274D01*
X78606574Y-101629668D01*
X78560756Y-101610690D01*
X79109426Y-101062019D01*
X79109426Y-101062017D01*
X79070801Y-101031954D01*
X79070795Y-101031950D01*
X78859455Y-100917578D01*
X78859449Y-100917576D01*
X78632176Y-100839553D01*
X78395149Y-100800000D01*
X78154851Y-100800000D01*
X77917823Y-100839553D01*
X77690550Y-100917576D01*
X77690544Y-100917578D01*
X77479209Y-101031948D01*
X77440571Y-101062019D01*
X77989242Y-101610690D01*
X77943426Y-101629668D01*
X77828776Y-101706274D01*
X77731274Y-101803776D01*
X77654668Y-101918426D01*
X77635690Y-101964243D01*
X77087688Y-101416241D01*
X76995392Y-101557511D01*
X76898865Y-101777571D01*
X76839874Y-102010523D01*
X76820031Y-102249994D01*
X57769636Y-102249994D01*
X57766643Y-98049994D01*
X76820031Y-98049994D01*
X76820031Y-98050005D01*
X76839874Y-98289476D01*
X76898865Y-98522428D01*
X76995392Y-98742488D01*
X77087687Y-98883757D01*
X77635689Y-98335756D01*
X77654668Y-98381574D01*
X77731274Y-98496224D01*
X77828776Y-98593726D01*
X77943426Y-98670332D01*
X77989242Y-98689309D01*
X77440572Y-99237979D01*
X77479208Y-99268051D01*
X77690544Y-99382421D01*
X77690550Y-99382423D01*
X77917823Y-99460446D01*
X78154851Y-99500000D01*
X78395149Y-99500000D01*
X78632176Y-99460446D01*
X78859449Y-99382423D01*
X78859455Y-99382421D01*
X79070794Y-99268049D01*
X79070795Y-99268048D01*
X79109426Y-99237980D01*
X79109427Y-99237979D01*
X78560757Y-98689309D01*
X78606574Y-98670332D01*
X78721224Y-98593726D01*
X78818726Y-98496224D01*
X78895332Y-98381574D01*
X78914309Y-98335757D01*
X79462310Y-98883758D01*
X79554608Y-98742485D01*
X79651134Y-98522428D01*
X79710125Y-98289476D01*
X79729969Y-98050005D01*
X79729969Y-98049994D01*
X79710125Y-97810523D01*
X79651134Y-97577571D01*
X79554607Y-97357511D01*
X79462310Y-97216240D01*
X78914309Y-97764241D01*
X78895332Y-97718426D01*
X78818726Y-97603776D01*
X78721224Y-97506274D01*
X78606574Y-97429668D01*
X78560756Y-97410690D01*
X79109426Y-96862019D01*
X79109426Y-96862017D01*
X79070801Y-96831954D01*
X79070795Y-96831950D01*
X78859455Y-96717578D01*
X78859449Y-96717576D01*
X78632176Y-96639553D01*
X78395149Y-96600000D01*
X78154851Y-96600000D01*
X77917823Y-96639553D01*
X77690550Y-96717576D01*
X77690544Y-96717578D01*
X77479209Y-96831948D01*
X77440571Y-96862019D01*
X77989242Y-97410690D01*
X77943426Y-97429668D01*
X77828776Y-97506274D01*
X77731274Y-97603776D01*
X77654668Y-97718426D01*
X77635690Y-97764243D01*
X77087688Y-97216241D01*
X76995392Y-97357511D01*
X76898865Y-97577571D01*
X76839874Y-97810523D01*
X76820031Y-98049994D01*
X57766643Y-98049994D01*
X57763650Y-93849994D01*
X76820031Y-93849994D01*
X76820031Y-93850005D01*
X76839874Y-94089476D01*
X76898865Y-94322428D01*
X76995392Y-94542488D01*
X77087687Y-94683757D01*
X77635689Y-94135756D01*
X77654668Y-94181574D01*
X77731274Y-94296224D01*
X77828776Y-94393726D01*
X77943426Y-94470332D01*
X77989242Y-94489309D01*
X77440572Y-95037979D01*
X77479208Y-95068051D01*
X77690544Y-95182421D01*
X77690550Y-95182423D01*
X77917823Y-95260446D01*
X78154851Y-95300000D01*
X78395149Y-95300000D01*
X78632176Y-95260446D01*
X78859449Y-95182423D01*
X78859455Y-95182421D01*
X79070794Y-95068049D01*
X79070795Y-95068048D01*
X79109426Y-95037980D01*
X79109427Y-95037979D01*
X78560757Y-94489309D01*
X78606574Y-94470332D01*
X78721224Y-94393726D01*
X78818726Y-94296224D01*
X78895332Y-94181574D01*
X78914309Y-94135757D01*
X79462310Y-94683758D01*
X79554608Y-94542485D01*
X79651134Y-94322428D01*
X79710125Y-94089476D01*
X79729969Y-93850005D01*
X79729969Y-93849994D01*
X79710125Y-93610523D01*
X79651134Y-93377571D01*
X79554607Y-93157511D01*
X79462310Y-93016240D01*
X78914309Y-93564241D01*
X78895332Y-93518426D01*
X78818726Y-93403776D01*
X78721224Y-93306274D01*
X78606574Y-93229668D01*
X78560756Y-93210690D01*
X79109426Y-92662019D01*
X79109426Y-92662017D01*
X79070801Y-92631954D01*
X79070795Y-92631950D01*
X78859455Y-92517578D01*
X78859449Y-92517576D01*
X78632176Y-92439553D01*
X78395149Y-92400000D01*
X78154851Y-92400000D01*
X77917823Y-92439553D01*
X77690550Y-92517576D01*
X77690544Y-92517578D01*
X77479209Y-92631948D01*
X77440571Y-92662019D01*
X77989242Y-93210690D01*
X77943426Y-93229668D01*
X77828776Y-93306274D01*
X77731274Y-93403776D01*
X77654668Y-93518426D01*
X77635690Y-93564243D01*
X77087688Y-93016241D01*
X76995392Y-93157511D01*
X76898865Y-93377571D01*
X76839874Y-93610523D01*
X76820031Y-93849994D01*
X57763650Y-93849994D01*
X57760657Y-89649994D01*
X76819529Y-89649994D01*
X76819529Y-89650005D01*
X76839379Y-89889559D01*
X76898389Y-90122589D01*
X76994951Y-90342729D01*
X77002304Y-90353983D01*
X77126429Y-90543969D01*
X77289236Y-90720825D01*
X77289239Y-90720827D01*
X77289242Y-90720830D01*
X77478924Y-90868466D01*
X77478930Y-90868470D01*
X77478933Y-90868472D01*
X77690344Y-90982882D01*
X77690347Y-90982883D01*
X77917699Y-91060933D01*
X77917701Y-91060933D01*
X77917703Y-91060934D01*
X78154808Y-91100500D01*
X78154809Y-91100500D01*
X78395191Y-91100500D01*
X78395192Y-91100500D01*
X78632297Y-91060934D01*
X78859656Y-90982882D01*
X79071067Y-90868472D01*
X79260764Y-90720825D01*
X79423571Y-90543969D01*
X79555049Y-90342728D01*
X79651610Y-90122591D01*
X79710620Y-89889563D01*
X79730471Y-89650000D01*
X79710620Y-89410437D01*
X79651610Y-89177409D01*
X79555049Y-88957272D01*
X79423571Y-88756031D01*
X79260764Y-88579175D01*
X79260759Y-88579171D01*
X79260757Y-88579169D01*
X79071075Y-88431533D01*
X79071069Y-88431529D01*
X78859657Y-88317118D01*
X78859652Y-88317116D01*
X78632300Y-88239066D01*
X78454468Y-88209391D01*
X78395192Y-88199500D01*
X78154808Y-88199500D01*
X78107387Y-88207413D01*
X77917699Y-88239066D01*
X77690347Y-88317116D01*
X77690342Y-88317118D01*
X77478930Y-88431529D01*
X77478924Y-88431533D01*
X77289242Y-88579169D01*
X77289239Y-88579172D01*
X77126430Y-88756029D01*
X77126427Y-88756033D01*
X76994951Y-88957270D01*
X76898389Y-89177410D01*
X76839379Y-89410440D01*
X76819529Y-89649994D01*
X57760657Y-89649994D01*
X57757254Y-84874999D01*
X60659341Y-84874999D01*
X60659341Y-84875000D01*
X60679936Y-85110403D01*
X60679938Y-85110413D01*
X60741094Y-85338655D01*
X60741096Y-85338659D01*
X60741097Y-85338663D01*
X60793015Y-85450001D01*
X60840965Y-85552830D01*
X60840967Y-85552834D01*
X60936646Y-85689476D01*
X60976501Y-85746396D01*
X60976506Y-85746402D01*
X61143597Y-85913493D01*
X61143603Y-85913498D01*
X61329594Y-86043730D01*
X61373219Y-86098307D01*
X61380413Y-86167805D01*
X61348890Y-86230160D01*
X61329595Y-86246880D01*
X61143922Y-86376890D01*
X61143920Y-86376891D01*
X60976891Y-86543920D01*
X60976886Y-86543926D01*
X60841400Y-86737420D01*
X60841399Y-86737422D01*
X60741570Y-86951507D01*
X60741567Y-86951513D01*
X60684364Y-87164999D01*
X60684364Y-87165000D01*
X61581988Y-87165000D01*
X61549075Y-87222007D01*
X61515000Y-87349174D01*
X61515000Y-87480826D01*
X61549075Y-87607993D01*
X61581988Y-87665000D01*
X60684364Y-87665000D01*
X60741567Y-87878486D01*
X60741570Y-87878492D01*
X60841399Y-88092578D01*
X60976894Y-88286082D01*
X61143917Y-88453105D01*
X61337421Y-88588600D01*
X61551507Y-88688429D01*
X61551516Y-88688433D01*
X61765000Y-88745634D01*
X61765000Y-87848012D01*
X61822007Y-87880925D01*
X61949174Y-87915000D01*
X62080826Y-87915000D01*
X62207993Y-87880925D01*
X62265000Y-87848012D01*
X62265000Y-88745633D01*
X62478483Y-88688433D01*
X62478492Y-88688429D01*
X62692578Y-88588600D01*
X62886082Y-88453105D01*
X63053105Y-88286082D01*
X63183425Y-88099968D01*
X63238002Y-88056344D01*
X63307501Y-88049151D01*
X63369855Y-88080673D01*
X63386575Y-88099968D01*
X63516894Y-88286082D01*
X63683917Y-88453105D01*
X63877421Y-88588600D01*
X64091507Y-88688429D01*
X64091516Y-88688433D01*
X64305000Y-88745634D01*
X64305000Y-87848012D01*
X64362007Y-87880925D01*
X64489174Y-87915000D01*
X64620826Y-87915000D01*
X64747993Y-87880925D01*
X64805000Y-87848012D01*
X64805000Y-88745633D01*
X65018483Y-88688433D01*
X65018492Y-88688429D01*
X65232578Y-88588600D01*
X65426082Y-88453105D01*
X65593105Y-88286082D01*
X65723425Y-88099968D01*
X65778002Y-88056344D01*
X65847501Y-88049151D01*
X65909855Y-88080673D01*
X65926575Y-88099968D01*
X66056894Y-88286082D01*
X66223917Y-88453105D01*
X66417421Y-88588600D01*
X66631507Y-88688429D01*
X66631516Y-88688433D01*
X66845000Y-88745634D01*
X66845000Y-87848012D01*
X66902007Y-87880925D01*
X67029174Y-87915000D01*
X67160826Y-87915000D01*
X67287993Y-87880925D01*
X67345000Y-87848012D01*
X67345000Y-88745633D01*
X67558483Y-88688433D01*
X67558492Y-88688429D01*
X67772578Y-88588600D01*
X67966082Y-88453105D01*
X68133105Y-88286082D01*
X68263425Y-88099968D01*
X68318002Y-88056344D01*
X68387501Y-88049151D01*
X68449855Y-88080673D01*
X68466575Y-88099968D01*
X68596894Y-88286082D01*
X68763917Y-88453105D01*
X68957421Y-88588600D01*
X69171507Y-88688429D01*
X69171516Y-88688433D01*
X69385000Y-88745634D01*
X69385000Y-87848012D01*
X69442007Y-87880925D01*
X69569174Y-87915000D01*
X69700826Y-87915000D01*
X69827993Y-87880925D01*
X69885000Y-87848012D01*
X69885000Y-88745633D01*
X70098483Y-88688433D01*
X70098492Y-88688429D01*
X70312578Y-88588600D01*
X70506082Y-88453105D01*
X70673105Y-88286082D01*
X70803425Y-88099968D01*
X70858002Y-88056344D01*
X70927501Y-88049151D01*
X70989855Y-88080673D01*
X71006575Y-88099968D01*
X71136894Y-88286082D01*
X71303917Y-88453105D01*
X71497421Y-88588600D01*
X71711507Y-88688429D01*
X71711516Y-88688433D01*
X71925000Y-88745634D01*
X71925000Y-87848012D01*
X71982007Y-87880925D01*
X72109174Y-87915000D01*
X72240826Y-87915000D01*
X72367993Y-87880925D01*
X72425000Y-87848012D01*
X72425000Y-88745633D01*
X72638483Y-88688433D01*
X72638492Y-88688429D01*
X72852578Y-88588600D01*
X73046082Y-88453105D01*
X73213105Y-88286082D01*
X73348600Y-88092578D01*
X73448429Y-87878492D01*
X73448432Y-87878486D01*
X73505636Y-87665000D01*
X72608012Y-87665000D01*
X72640925Y-87607993D01*
X72675000Y-87480826D01*
X72675000Y-87349174D01*
X72640925Y-87222007D01*
X72608012Y-87165000D01*
X73505636Y-87165000D01*
X73505635Y-87164999D01*
X73448432Y-86951513D01*
X73448429Y-86951507D01*
X73348600Y-86737422D01*
X73348599Y-86737420D01*
X73213113Y-86543926D01*
X73213108Y-86543920D01*
X73091053Y-86421865D01*
X73057568Y-86360542D01*
X73062552Y-86290850D01*
X73104424Y-86234917D01*
X73135400Y-86218002D01*
X73267331Y-86168796D01*
X73382546Y-86082546D01*
X73468796Y-85967331D01*
X73519091Y-85832483D01*
X73525500Y-85772873D01*
X73525499Y-83977128D01*
X73519091Y-83917517D01*
X73517810Y-83914083D01*
X73468797Y-83782671D01*
X73468793Y-83782664D01*
X73382547Y-83667455D01*
X73382544Y-83667452D01*
X73267335Y-83581206D01*
X73267328Y-83581202D01*
X73132482Y-83530908D01*
X73132483Y-83530908D01*
X73072883Y-83524501D01*
X73072881Y-83524500D01*
X73072873Y-83524500D01*
X73072864Y-83524500D01*
X71277129Y-83524500D01*
X71277123Y-83524501D01*
X71217516Y-83530908D01*
X71082671Y-83581202D01*
X71082664Y-83581206D01*
X70967455Y-83667452D01*
X70967452Y-83667455D01*
X70881206Y-83782664D01*
X70881203Y-83782669D01*
X70832189Y-83914083D01*
X70790317Y-83970016D01*
X70724853Y-83994433D01*
X70656580Y-83979581D01*
X70628326Y-83958430D01*
X70506402Y-83836506D01*
X70506395Y-83836501D01*
X70312834Y-83700967D01*
X70312830Y-83700965D01*
X70312828Y-83700964D01*
X70098663Y-83601097D01*
X70098659Y-83601096D01*
X70098655Y-83601094D01*
X69870413Y-83539938D01*
X69870403Y-83539936D01*
X69635001Y-83519341D01*
X69634999Y-83519341D01*
X69399596Y-83539936D01*
X69399586Y-83539938D01*
X69171344Y-83601094D01*
X69171335Y-83601098D01*
X68957171Y-83700964D01*
X68957169Y-83700965D01*
X68763597Y-83836505D01*
X68596505Y-84003597D01*
X68466575Y-84189158D01*
X68411998Y-84232783D01*
X68342500Y-84239977D01*
X68280145Y-84208454D01*
X68263425Y-84189158D01*
X68133494Y-84003597D01*
X67966402Y-83836506D01*
X67966395Y-83836501D01*
X67772834Y-83700967D01*
X67772830Y-83700965D01*
X67772828Y-83700964D01*
X67558663Y-83601097D01*
X67558659Y-83601096D01*
X67558655Y-83601094D01*
X67330413Y-83539938D01*
X67330403Y-83539936D01*
X67095001Y-83519341D01*
X67094999Y-83519341D01*
X66859596Y-83539936D01*
X66859586Y-83539938D01*
X66631344Y-83601094D01*
X66631335Y-83601098D01*
X66417171Y-83700964D01*
X66417169Y-83700965D01*
X66223597Y-83836505D01*
X66056505Y-84003597D01*
X65926575Y-84189158D01*
X65871998Y-84232783D01*
X65802500Y-84239977D01*
X65740145Y-84208454D01*
X65723425Y-84189158D01*
X65593494Y-84003597D01*
X65426402Y-83836506D01*
X65426395Y-83836501D01*
X65232834Y-83700967D01*
X65232830Y-83700965D01*
X65232828Y-83700964D01*
X65018663Y-83601097D01*
X65018659Y-83601096D01*
X65018655Y-83601094D01*
X64790413Y-83539938D01*
X64790403Y-83539936D01*
X64555001Y-83519341D01*
X64554999Y-83519341D01*
X64319596Y-83539936D01*
X64319586Y-83539938D01*
X64091344Y-83601094D01*
X64091335Y-83601098D01*
X63877171Y-83700964D01*
X63877169Y-83700965D01*
X63683597Y-83836505D01*
X63516505Y-84003597D01*
X63386575Y-84189158D01*
X63331998Y-84232783D01*
X63262500Y-84239977D01*
X63200145Y-84208454D01*
X63183425Y-84189158D01*
X63053494Y-84003597D01*
X62886402Y-83836506D01*
X62886395Y-83836501D01*
X62692834Y-83700967D01*
X62692830Y-83700965D01*
X62692828Y-83700964D01*
X62478663Y-83601097D01*
X62478659Y-83601096D01*
X62478655Y-83601094D01*
X62250413Y-83539938D01*
X62250403Y-83539936D01*
X62015001Y-83519341D01*
X62014999Y-83519341D01*
X61779596Y-83539936D01*
X61779586Y-83539938D01*
X61551344Y-83601094D01*
X61551335Y-83601098D01*
X61337171Y-83700964D01*
X61337169Y-83700965D01*
X61143597Y-83836505D01*
X60976505Y-84003597D01*
X60840965Y-84197169D01*
X60840964Y-84197171D01*
X60741098Y-84411335D01*
X60741094Y-84411344D01*
X60679938Y-84639586D01*
X60679936Y-84639596D01*
X60659341Y-84874999D01*
X57757254Y-84874999D01*
X57751217Y-76403200D01*
X61109896Y-76403200D01*
X61125856Y-76611085D01*
X61129870Y-76663359D01*
X61129870Y-76663364D01*
X61189322Y-76917421D01*
X61189325Y-76917431D01*
X61286856Y-77159425D01*
X61286861Y-77159433D01*
X61420200Y-77383718D01*
X61586212Y-77585020D01*
X61687803Y-77675557D01*
X61781007Y-77758620D01*
X61781016Y-77758627D01*
X62000015Y-77900450D01*
X62000018Y-77900450D01*
X62000020Y-77900452D01*
X62238116Y-78007189D01*
X62489716Y-78076329D01*
X62748920Y-78106253D01*
X63009655Y-78096259D01*
X63265809Y-78046581D01*
X63321599Y-78026544D01*
X63511374Y-77958385D01*
X63511372Y-77958385D01*
X63511377Y-77958384D01*
X63740604Y-77833734D01*
X63948117Y-77675554D01*
X64129052Y-77487551D01*
X64279168Y-77274131D01*
X64394946Y-77040298D01*
X64473673Y-76791532D01*
X64513503Y-76533663D01*
X64516000Y-76403200D01*
X64513503Y-76272737D01*
X64473673Y-76014868D01*
X64394946Y-75766102D01*
X64279168Y-75532269D01*
X64279166Y-75532266D01*
X64279166Y-75532265D01*
X64129059Y-75318858D01*
X64129051Y-75318848D01*
X64073516Y-75261144D01*
X63948117Y-75130846D01*
X63905013Y-75097989D01*
X63740605Y-74972666D01*
X63740600Y-74972663D01*
X63511381Y-74848017D01*
X63511374Y-74848014D01*
X63265815Y-74759820D01*
X63265811Y-74759819D01*
X63009651Y-74710140D01*
X63009656Y-74710140D01*
X62748920Y-74700147D01*
X62489718Y-74730070D01*
X62238112Y-74799212D01*
X62000019Y-74905948D01*
X62000015Y-74905949D01*
X61781016Y-75047772D01*
X61781007Y-75047779D01*
X61586211Y-75221381D01*
X61420199Y-75422683D01*
X61286856Y-75646974D01*
X61189325Y-75888968D01*
X61189322Y-75888978D01*
X61129870Y-76143035D01*
X61129870Y-76143040D01*
X61117493Y-76304255D01*
X61109896Y-76403200D01*
X57751217Y-76403200D01*
X57745628Y-68559999D01*
X63505225Y-68559999D01*
X63505225Y-68560000D01*
X63524287Y-68777884D01*
X63524289Y-68777894D01*
X63580894Y-68989150D01*
X63580898Y-68989159D01*
X63673333Y-69187387D01*
X63716874Y-69249571D01*
X64360000Y-68606445D01*
X64360000Y-68612661D01*
X64387259Y-68714394D01*
X64439920Y-68805606D01*
X64514394Y-68880080D01*
X64605606Y-68932741D01*
X64707339Y-68960000D01*
X64713553Y-68960000D01*
X64070427Y-69603124D01*
X64132612Y-69646666D01*
X64330840Y-69739101D01*
X64330849Y-69739105D01*
X64542105Y-69795710D01*
X64542115Y-69795712D01*
X64759999Y-69814775D01*
X64760001Y-69814775D01*
X64977884Y-69795712D01*
X64977894Y-69795710D01*
X65189150Y-69739105D01*
X65189164Y-69739100D01*
X65387383Y-69646669D01*
X65387385Y-69646668D01*
X65449571Y-69603124D01*
X64806448Y-68960000D01*
X64812661Y-68960000D01*
X64914394Y-68932741D01*
X65005606Y-68880080D01*
X65080080Y-68805606D01*
X65132741Y-68714394D01*
X65160000Y-68612661D01*
X65160000Y-68606446D01*
X65803124Y-69249570D01*
X65846666Y-69187388D01*
X65917340Y-69035825D01*
X65963512Y-68983386D01*
X66030706Y-68964233D01*
X66097587Y-68984448D01*
X66142105Y-69035824D01*
X66212897Y-69187638D01*
X66237998Y-69223486D01*
X66338402Y-69366877D01*
X66493123Y-69521598D01*
X66672361Y-69647102D01*
X66870670Y-69739575D01*
X67082023Y-69796207D01*
X67264926Y-69812208D01*
X67299998Y-69815277D01*
X67300000Y-69815277D01*
X67300002Y-69815277D01*
X67328254Y-69812805D01*
X67517977Y-69796207D01*
X67729330Y-69739575D01*
X67927639Y-69647102D01*
X68106877Y-69521598D01*
X68261598Y-69366877D01*
X68363928Y-69220734D01*
X68418502Y-69177112D01*
X68488000Y-69169918D01*
X68550355Y-69201441D01*
X68585769Y-69261670D01*
X68589500Y-69291858D01*
X68589500Y-69357869D01*
X68589501Y-69357876D01*
X68595908Y-69417483D01*
X68646202Y-69552328D01*
X68646206Y-69552335D01*
X68732452Y-69667544D01*
X68732455Y-69667547D01*
X68847664Y-69753793D01*
X68847671Y-69753797D01*
X68982517Y-69804091D01*
X68982516Y-69804091D01*
X68989444Y-69804835D01*
X69042127Y-69810500D01*
X70637872Y-69810499D01*
X70697483Y-69804091D01*
X70832331Y-69753796D01*
X70947546Y-69667546D01*
X71033796Y-69552331D01*
X71084091Y-69417483D01*
X71090500Y-69357873D01*
X71090499Y-67762128D01*
X71084091Y-67702517D01*
X71033796Y-67567669D01*
X71033795Y-67567668D01*
X71033793Y-67567664D01*
X70947547Y-67452455D01*
X70947544Y-67452452D01*
X70832335Y-67366206D01*
X70832328Y-67366202D01*
X70697482Y-67315908D01*
X70697483Y-67315908D01*
X70637883Y-67309501D01*
X70637881Y-67309500D01*
X70637873Y-67309500D01*
X70637864Y-67309500D01*
X69042129Y-67309500D01*
X69042123Y-67309501D01*
X68982516Y-67315908D01*
X68847671Y-67366202D01*
X68847664Y-67366206D01*
X68732455Y-67452452D01*
X68732452Y-67452455D01*
X68646206Y-67567664D01*
X68646202Y-67567671D01*
X68595908Y-67702517D01*
X68590468Y-67753121D01*
X68589501Y-67762123D01*
X68589500Y-67762135D01*
X68589500Y-67828138D01*
X68569815Y-67895177D01*
X68517011Y-67940932D01*
X68447853Y-67950876D01*
X68384297Y-67921851D01*
X68363925Y-67899261D01*
X68261599Y-67753124D01*
X68210991Y-67702516D01*
X68106877Y-67598402D01*
X67968978Y-67501844D01*
X67927638Y-67472897D01*
X67828484Y-67426661D01*
X67729330Y-67380425D01*
X67729326Y-67380424D01*
X67729322Y-67380422D01*
X67517977Y-67323793D01*
X67300002Y-67304723D01*
X67299998Y-67304723D01*
X67172151Y-67315908D01*
X67082023Y-67323793D01*
X67082020Y-67323793D01*
X66870677Y-67380422D01*
X66870668Y-67380426D01*
X66672361Y-67472898D01*
X66672357Y-67472900D01*
X66493121Y-67598402D01*
X66338402Y-67753121D01*
X66212900Y-67932357D01*
X66212900Y-67932358D01*
X66212898Y-67932361D01*
X66212898Y-67932362D01*
X66208902Y-67940932D01*
X66142105Y-68084176D01*
X66095932Y-68136615D01*
X66028738Y-68155766D01*
X65961857Y-68135550D01*
X65917341Y-68084175D01*
X65846667Y-67932614D01*
X65846666Y-67932612D01*
X65803124Y-67870428D01*
X65803124Y-67870427D01*
X65160000Y-68513551D01*
X65160000Y-68507339D01*
X65132741Y-68405606D01*
X65080080Y-68314394D01*
X65005606Y-68239920D01*
X64914394Y-68187259D01*
X64812661Y-68160000D01*
X64806447Y-68160000D01*
X65449571Y-67516874D01*
X65387387Y-67473333D01*
X65189159Y-67380898D01*
X65189150Y-67380894D01*
X64977894Y-67324289D01*
X64977884Y-67324287D01*
X64760001Y-67305225D01*
X64759999Y-67305225D01*
X64542115Y-67324287D01*
X64542105Y-67324289D01*
X64330849Y-67380894D01*
X64330840Y-67380898D01*
X64132613Y-67473333D01*
X64070428Y-67516874D01*
X64713554Y-68160000D01*
X64707339Y-68160000D01*
X64605606Y-68187259D01*
X64514394Y-68239920D01*
X64439920Y-68314394D01*
X64387259Y-68405606D01*
X64360000Y-68507339D01*
X64360000Y-68513554D01*
X63716874Y-67870428D01*
X63673333Y-67932613D01*
X63580898Y-68130840D01*
X63580894Y-68130849D01*
X63524289Y-68342105D01*
X63524287Y-68342115D01*
X63505225Y-68559999D01*
X57745628Y-68559999D01*
X57735928Y-54949416D01*
X57755565Y-54882365D01*
X57808336Y-54836572D01*
X57859928Y-54825330D01*
X59259840Y-54825330D01*
X59259840Y-50928331D01*
X59279525Y-50861292D01*
X59332329Y-50815537D01*
X59383839Y-50804331D01*
X76661843Y-50804518D01*
G37*
%TD.AperFunction*%
%TA.AperFunction,Conductor*%
G36*
X96208833Y-73814336D02*
G01*
X96264767Y-73856207D01*
X96289184Y-73921672D01*
X96289500Y-73930518D01*
X96289500Y-75315663D01*
X96269815Y-75382702D01*
X96253181Y-75403344D01*
X83437617Y-88218907D01*
X83390199Y-88248507D01*
X83190351Y-88317115D01*
X83190337Y-88317121D01*
X82998517Y-88420929D01*
X82930189Y-88435524D01*
X82864817Y-88410861D01*
X82823156Y-88354771D01*
X82815500Y-88311874D01*
X82815500Y-87288393D01*
X82815499Y-87288389D01*
X82791464Y-87167555D01*
X82791463Y-87167548D01*
X82744311Y-87053714D01*
X82744310Y-87053713D01*
X82744307Y-87053707D01*
X82675859Y-86951268D01*
X82639591Y-86915000D01*
X82588733Y-86864142D01*
X82588732Y-86864141D01*
X81174585Y-85449994D01*
X82320031Y-85449994D01*
X82320031Y-85450005D01*
X82339874Y-85689476D01*
X82398865Y-85922428D01*
X82495392Y-86142488D01*
X82587687Y-86283757D01*
X83135689Y-85735756D01*
X83154668Y-85781574D01*
X83231274Y-85896224D01*
X83328776Y-85993726D01*
X83443426Y-86070332D01*
X83489242Y-86089309D01*
X82940572Y-86637979D01*
X82979208Y-86668051D01*
X83190544Y-86782421D01*
X83190550Y-86782423D01*
X83417823Y-86860446D01*
X83654851Y-86900000D01*
X83895149Y-86900000D01*
X84132176Y-86860446D01*
X84359449Y-86782423D01*
X84359455Y-86782421D01*
X84570794Y-86668049D01*
X84570795Y-86668048D01*
X84609426Y-86637980D01*
X84609427Y-86637979D01*
X84060757Y-86089309D01*
X84106574Y-86070332D01*
X84221224Y-85993726D01*
X84318726Y-85896224D01*
X84395332Y-85781574D01*
X84414309Y-85735757D01*
X84962310Y-86283758D01*
X85054608Y-86142485D01*
X85151134Y-85922428D01*
X85210125Y-85689476D01*
X85229969Y-85450005D01*
X85229969Y-85449994D01*
X85210125Y-85210523D01*
X85151134Y-84977571D01*
X85054607Y-84757511D01*
X84962310Y-84616240D01*
X84414309Y-85164241D01*
X84395332Y-85118426D01*
X84318726Y-85003776D01*
X84221224Y-84906274D01*
X84106574Y-84829668D01*
X84060756Y-84810690D01*
X84609426Y-84262019D01*
X84609426Y-84262017D01*
X84570801Y-84231954D01*
X84570795Y-84231950D01*
X84359455Y-84117578D01*
X84359449Y-84117576D01*
X84132176Y-84039553D01*
X83895149Y-84000000D01*
X83654851Y-84000000D01*
X83417823Y-84039553D01*
X83190550Y-84117576D01*
X83190544Y-84117578D01*
X82979209Y-84231948D01*
X82940571Y-84262019D01*
X83489242Y-84810690D01*
X83443426Y-84829668D01*
X83328776Y-84906274D01*
X83231274Y-85003776D01*
X83154668Y-85118426D01*
X83135690Y-85164243D01*
X82587688Y-84616241D01*
X82495392Y-84757511D01*
X82398865Y-84977571D01*
X82339874Y-85210523D01*
X82320031Y-85449994D01*
X81174585Y-85449994D01*
X78589052Y-82864462D01*
X78555568Y-82803140D01*
X78560552Y-82733448D01*
X78602424Y-82677515D01*
X78636472Y-82659501D01*
X78695946Y-82639083D01*
X78859656Y-82582882D01*
X79071067Y-82468472D01*
X79260764Y-82320825D01*
X79423571Y-82143969D01*
X79555049Y-81942728D01*
X79651610Y-81722591D01*
X79710620Y-81489563D01*
X79730471Y-81250000D01*
X79710620Y-81010437D01*
X79686412Y-80914840D01*
X79689036Y-80845020D01*
X79718934Y-80796721D01*
X80538838Y-79976819D01*
X80600161Y-79943334D01*
X80626519Y-79940500D01*
X82734686Y-79940500D01*
X82801725Y-79960185D01*
X82847480Y-80012989D01*
X82857424Y-80082147D01*
X82828399Y-80145703D01*
X82810848Y-80162353D01*
X82789242Y-80179169D01*
X82789239Y-80179172D01*
X82626430Y-80356029D01*
X82626427Y-80356033D01*
X82494951Y-80557270D01*
X82398389Y-80777410D01*
X82339379Y-81010440D01*
X82319529Y-81249994D01*
X82319529Y-81250005D01*
X82339379Y-81489559D01*
X82398389Y-81722589D01*
X82494951Y-81942729D01*
X82626427Y-82143966D01*
X82626429Y-82143969D01*
X82789236Y-82320825D01*
X82789239Y-82320827D01*
X82789242Y-82320830D01*
X82978924Y-82468466D01*
X82978930Y-82468470D01*
X82978933Y-82468472D01*
X83190344Y-82582882D01*
X83190347Y-82582883D01*
X83417699Y-82660933D01*
X83417701Y-82660933D01*
X83417703Y-82660934D01*
X83654808Y-82700500D01*
X83654809Y-82700500D01*
X83895191Y-82700500D01*
X83895192Y-82700500D01*
X84132297Y-82660934D01*
X84359656Y-82582882D01*
X84571067Y-82468472D01*
X84760764Y-82320825D01*
X84923571Y-82143969D01*
X85055049Y-81942728D01*
X85151610Y-81722591D01*
X85210620Y-81489563D01*
X85230471Y-81250000D01*
X85210620Y-81010437D01*
X85151610Y-80777409D01*
X85055049Y-80557272D01*
X84923571Y-80356031D01*
X84760764Y-80179175D01*
X84760759Y-80179171D01*
X84760757Y-80179169D01*
X84739152Y-80162353D01*
X84698339Y-80105643D01*
X84694664Y-80035870D01*
X84729296Y-79975187D01*
X84791237Y-79942860D01*
X84815314Y-79940500D01*
X84828996Y-79940500D01*
X84920040Y-79922389D01*
X84964328Y-79913580D01*
X85028069Y-79887177D01*
X85091807Y-79860777D01*
X85091808Y-79860776D01*
X85091811Y-79860775D01*
X85206543Y-79784114D01*
X88080799Y-76909858D01*
X89314300Y-76909858D01*
X89314300Y-77139341D01*
X89334078Y-77289559D01*
X89344252Y-77366838D01*
X89388956Y-77533677D01*
X89403642Y-77588487D01*
X89491450Y-77800476D01*
X89491457Y-77800490D01*
X89606192Y-77999217D01*
X89745881Y-78181261D01*
X89745889Y-78181270D01*
X89908130Y-78343511D01*
X89908138Y-78343518D01*
X90090182Y-78483207D01*
X90090185Y-78483208D01*
X90090188Y-78483211D01*
X90288912Y-78597944D01*
X90288917Y-78597946D01*
X90288923Y-78597949D01*
X90380280Y-78635790D01*
X90500913Y-78685758D01*
X90722562Y-78745148D01*
X90950066Y-78775100D01*
X90950073Y-78775100D01*
X91179527Y-78775100D01*
X91179534Y-78775100D01*
X91407038Y-78745148D01*
X91628687Y-78685758D01*
X91840688Y-78597944D01*
X92039412Y-78483211D01*
X92221461Y-78343519D01*
X92221465Y-78343514D01*
X92221470Y-78343511D01*
X92383711Y-78181270D01*
X92383714Y-78181265D01*
X92383719Y-78181261D01*
X92523411Y-77999212D01*
X92638144Y-77800488D01*
X92725958Y-77588487D01*
X92785348Y-77366838D01*
X92815300Y-77139334D01*
X92815300Y-76909866D01*
X92785348Y-76682362D01*
X92725958Y-76460713D01*
X92648096Y-76272737D01*
X92638149Y-76248723D01*
X92638146Y-76248717D01*
X92638144Y-76248712D01*
X92523411Y-76049988D01*
X92523408Y-76049985D01*
X92523407Y-76049982D01*
X92383718Y-75867938D01*
X92383711Y-75867930D01*
X92221470Y-75705689D01*
X92221461Y-75705681D01*
X92039417Y-75565992D01*
X91840690Y-75451257D01*
X91840676Y-75451250D01*
X91628687Y-75363442D01*
X91407038Y-75304052D01*
X91369015Y-75299046D01*
X91179541Y-75274100D01*
X91179534Y-75274100D01*
X90950066Y-75274100D01*
X90950058Y-75274100D01*
X90733515Y-75302609D01*
X90722562Y-75304052D01*
X90679229Y-75315663D01*
X90500912Y-75363442D01*
X90288923Y-75451250D01*
X90288909Y-75451257D01*
X90090182Y-75565992D01*
X89908138Y-75705681D01*
X89745881Y-75867938D01*
X89606192Y-76049982D01*
X89491457Y-76248709D01*
X89491450Y-76248723D01*
X89403642Y-76460712D01*
X89372374Y-76577409D01*
X89349343Y-76663364D01*
X89344253Y-76682359D01*
X89344251Y-76682370D01*
X89314300Y-76909858D01*
X88080799Y-76909858D01*
X90013838Y-74976819D01*
X90075161Y-74943334D01*
X90101519Y-74940500D01*
X94758996Y-74940500D01*
X94850040Y-74922389D01*
X94894328Y-74913580D01*
X94958069Y-74887177D01*
X95021807Y-74860777D01*
X95021808Y-74860776D01*
X95021811Y-74860775D01*
X95136543Y-74784114D01*
X96077819Y-73842836D01*
X96139142Y-73809352D01*
X96208833Y-73814336D01*
G37*
%TD.AperFunction*%
%TA.AperFunction,Conductor*%
G36*
X127578039Y-50819685D02*
G01*
X127623794Y-50872489D01*
X127635000Y-50924000D01*
X127635000Y-69402761D01*
X127615315Y-69469800D01*
X127562511Y-69515555D01*
X127511145Y-69526761D01*
X118767916Y-69536957D01*
X118700853Y-69517351D01*
X118655037Y-69464600D01*
X118645013Y-69395453D01*
X118673963Y-69331864D01*
X118680076Y-69325291D01*
X122474302Y-65531066D01*
X122494667Y-65500585D01*
X122536215Y-65438406D01*
X122536217Y-65438401D01*
X122536223Y-65438393D01*
X122556434Y-65408145D01*
X122613008Y-65271563D01*
X122641850Y-65126568D01*
X122641850Y-62824499D01*
X122661535Y-62757460D01*
X122714339Y-62711705D01*
X122765850Y-62700499D01*
X123564221Y-62700499D01*
X123564222Y-62700499D01*
X123623833Y-62694091D01*
X123758681Y-62643796D01*
X123873896Y-62557546D01*
X123960146Y-62442331D01*
X124010441Y-62307483D01*
X124016850Y-62247873D01*
X124016849Y-58902128D01*
X124010441Y-58842517D01*
X124007625Y-58834968D01*
X123960147Y-58707671D01*
X123960143Y-58707664D01*
X123873897Y-58592455D01*
X123873894Y-58592452D01*
X123758685Y-58506206D01*
X123758678Y-58506202D01*
X123623832Y-58455908D01*
X123623833Y-58455908D01*
X123564233Y-58449501D01*
X123564231Y-58449500D01*
X123564223Y-58449500D01*
X123564214Y-58449500D01*
X120218479Y-58449500D01*
X120218473Y-58449501D01*
X120158866Y-58455908D01*
X120024021Y-58506202D01*
X120024014Y-58506206D01*
X119908805Y-58592452D01*
X119908802Y-58592455D01*
X119822556Y-58707664D01*
X119822552Y-58707671D01*
X119772258Y-58842517D01*
X119765851Y-58902116D01*
X119765851Y-58902123D01*
X119765850Y-58902135D01*
X119765850Y-59449768D01*
X119746165Y-59516807D01*
X119693361Y-59562562D01*
X119624203Y-59572506D01*
X119560647Y-59543481D01*
X119531752Y-59506816D01*
X119511661Y-59468042D01*
X119511657Y-59468036D01*
X119343982Y-59230494D01*
X119343978Y-59230490D01*
X119343977Y-59230488D01*
X119145507Y-59017978D01*
X119145500Y-59017972D01*
X119145499Y-59017971D01*
X118919954Y-58834477D01*
X118919943Y-58834470D01*
X118671501Y-58683388D01*
X118404804Y-58567545D01*
X118124812Y-58489095D01*
X118124807Y-58489094D01*
X118124806Y-58489094D01*
X117980772Y-58469297D01*
X117836739Y-58449500D01*
X117836738Y-58449500D01*
X117545962Y-58449500D01*
X117545961Y-58449500D01*
X117257894Y-58489094D01*
X117257887Y-58489095D01*
X116977895Y-58567545D01*
X116711198Y-58683388D01*
X116462756Y-58834470D01*
X116462745Y-58834477D01*
X116237199Y-59017972D01*
X116237185Y-59017985D01*
X116221167Y-59035137D01*
X116161023Y-59070696D01*
X116130544Y-59074500D01*
X115052156Y-59074500D01*
X114985117Y-59054815D01*
X114961533Y-59035137D01*
X114945514Y-59017985D01*
X114945510Y-59017981D01*
X114945507Y-59017978D01*
X114945500Y-59017972D01*
X114719954Y-58834477D01*
X114719943Y-58834470D01*
X114471501Y-58683388D01*
X114204804Y-58567545D01*
X113924812Y-58489095D01*
X113924807Y-58489094D01*
X113924806Y-58489094D01*
X113780772Y-58469297D01*
X113636739Y-58449500D01*
X113636738Y-58449500D01*
X113345962Y-58449500D01*
X113345961Y-58449500D01*
X113057894Y-58489094D01*
X113057887Y-58489095D01*
X112777895Y-58567545D01*
X112511198Y-58683388D01*
X112259132Y-58836674D01*
X112258094Y-58834968D01*
X112199482Y-58854769D01*
X112131705Y-58837793D01*
X112083866Y-58786870D01*
X112070500Y-58730869D01*
X112070500Y-57537868D01*
X112090185Y-57470829D01*
X112106815Y-57450191D01*
X112506738Y-57050267D01*
X112568059Y-57016784D01*
X112637750Y-57021768D01*
X112643819Y-57024216D01*
X112703799Y-57050269D01*
X112777900Y-57082456D01*
X113057894Y-57160906D01*
X113311151Y-57195715D01*
X113345961Y-57200500D01*
X113345962Y-57200500D01*
X113636739Y-57200500D01*
X113667795Y-57196231D01*
X113924806Y-57160906D01*
X114204800Y-57082456D01*
X114416289Y-56990593D01*
X114471501Y-56966611D01*
X114472241Y-56966161D01*
X114719948Y-56815527D01*
X114945507Y-56632022D01*
X115143977Y-56419512D01*
X115311662Y-56181956D01*
X115445438Y-55923780D01*
X115474775Y-55841232D01*
X115515772Y-55784658D01*
X115580850Y-55759227D01*
X115649345Y-55773017D01*
X115699511Y-55821649D01*
X115708455Y-55841233D01*
X115737722Y-55923580D01*
X115871467Y-56181697D01*
X115871471Y-56181703D01*
X116020279Y-56392515D01*
X116020280Y-56392516D01*
X116864824Y-55547972D01*
X116953437Y-55680590D01*
X117085760Y-55812913D01*
X117218377Y-55901524D01*
X116375777Y-56744123D01*
X116463040Y-56815115D01*
X116463043Y-56815118D01*
X116711423Y-56966161D01*
X116978064Y-57081981D01*
X117257989Y-57160413D01*
X117257996Y-57160414D01*
X117545995Y-57200000D01*
X117836705Y-57200000D01*
X118124703Y-57160414D01*
X118124710Y-57160413D01*
X118404635Y-57081981D01*
X118671276Y-56966161D01*
X118919655Y-56815119D01*
X119006921Y-56744123D01*
X118164322Y-55901525D01*
X118296940Y-55812913D01*
X118429263Y-55680590D01*
X118517875Y-55547972D01*
X119362418Y-56392515D01*
X119511232Y-56181696D01*
X119644978Y-55923578D01*
X119674510Y-55840486D01*
X119715508Y-55783909D01*
X119780585Y-55758479D01*
X119849081Y-55772270D01*
X119899247Y-55820902D01*
X119908190Y-55840486D01*
X119937721Y-55923578D01*
X120071467Y-56181697D01*
X120071471Y-56181703D01*
X120220279Y-56392515D01*
X120220280Y-56392516D01*
X121064824Y-55547972D01*
X121153437Y-55680590D01*
X121285760Y-55812913D01*
X121418377Y-55901524D01*
X120575777Y-56744123D01*
X120663040Y-56815115D01*
X120663043Y-56815118D01*
X120911423Y-56966161D01*
X121178064Y-57081981D01*
X121457989Y-57160413D01*
X121457996Y-57160414D01*
X121745995Y-57200000D01*
X122036705Y-57200000D01*
X122324703Y-57160414D01*
X122324710Y-57160413D01*
X122604635Y-57081981D01*
X122871276Y-56966161D01*
X123119655Y-56815119D01*
X123206921Y-56744123D01*
X122364322Y-55901525D01*
X122496940Y-55812913D01*
X122629263Y-55680590D01*
X122717875Y-55547972D01*
X123562418Y-56392515D01*
X123711232Y-56181696D01*
X123844978Y-55923578D01*
X123942328Y-55649663D01*
X123942329Y-55649660D01*
X124001476Y-55365024D01*
X124021314Y-55075000D01*
X124001476Y-54784975D01*
X123942329Y-54500339D01*
X123942328Y-54500336D01*
X123844978Y-54226421D01*
X123711232Y-53968303D01*
X123562418Y-53757483D01*
X122717874Y-54602026D01*
X122629263Y-54469410D01*
X122496940Y-54337087D01*
X122364322Y-54248474D01*
X123206921Y-53405875D01*
X123119667Y-53334889D01*
X123119656Y-53334881D01*
X122871276Y-53183838D01*
X122604635Y-53068018D01*
X122324710Y-52989586D01*
X122324703Y-52989585D01*
X122036705Y-52950000D01*
X121745995Y-52950000D01*
X121457996Y-52989585D01*
X121457989Y-52989586D01*
X121178064Y-53068018D01*
X120911423Y-53183838D01*
X120663046Y-53334880D01*
X120663036Y-53334886D01*
X120575777Y-53405875D01*
X121418377Y-54248474D01*
X121285760Y-54337087D01*
X121153437Y-54469410D01*
X121064825Y-54602027D01*
X120220280Y-53757482D01*
X120071471Y-53968296D01*
X120071467Y-53968302D01*
X119937721Y-54226421D01*
X119908190Y-54309513D01*
X119867192Y-54366090D01*
X119802114Y-54391520D01*
X119733619Y-54377729D01*
X119683453Y-54329097D01*
X119674510Y-54309513D01*
X119644978Y-54226421D01*
X119511232Y-53968303D01*
X119362418Y-53757483D01*
X118517874Y-54602026D01*
X118429263Y-54469410D01*
X118296940Y-54337087D01*
X118164322Y-54248474D01*
X119006921Y-53405875D01*
X118919667Y-53334889D01*
X118919656Y-53334881D01*
X118671276Y-53183838D01*
X118404635Y-53068018D01*
X118124710Y-52989586D01*
X118124703Y-52989585D01*
X117836705Y-52950000D01*
X117545995Y-52950000D01*
X117257996Y-52989585D01*
X117257989Y-52989586D01*
X116978064Y-53068018D01*
X116711423Y-53183838D01*
X116463046Y-53334880D01*
X116463036Y-53334886D01*
X116375777Y-53405875D01*
X117218377Y-54248474D01*
X117085760Y-54337087D01*
X116953437Y-54469410D01*
X116864825Y-54602027D01*
X116020280Y-53757482D01*
X115871471Y-53968296D01*
X115871467Y-53968302D01*
X115737722Y-54226419D01*
X115708455Y-54308766D01*
X115667456Y-54365343D01*
X115602378Y-54390772D01*
X115533883Y-54376981D01*
X115483718Y-54328348D01*
X115474775Y-54308765D01*
X115445439Y-54226223D01*
X115445440Y-54226223D01*
X115311661Y-53968042D01*
X115311657Y-53968036D01*
X115143982Y-53730494D01*
X115143978Y-53730490D01*
X115143977Y-53730488D01*
X114945507Y-53517978D01*
X114945500Y-53517973D01*
X114945499Y-53517971D01*
X114719954Y-53334477D01*
X114719943Y-53334470D01*
X114471501Y-53183388D01*
X114204804Y-53067545D01*
X113924812Y-52989095D01*
X113924807Y-52989094D01*
X113924806Y-52989094D01*
X113780772Y-52969297D01*
X113636739Y-52949500D01*
X113636738Y-52949500D01*
X113345962Y-52949500D01*
X113345961Y-52949500D01*
X113057894Y-52989094D01*
X113057887Y-52989095D01*
X112777895Y-53067545D01*
X112511198Y-53183388D01*
X112262756Y-53334470D01*
X112262745Y-53334477D01*
X112037200Y-53517971D01*
X111838717Y-53730494D01*
X111671042Y-53968036D01*
X111671038Y-53968042D01*
X111537261Y-54226221D01*
X111508190Y-54308018D01*
X111467192Y-54364594D01*
X111402114Y-54390024D01*
X111333619Y-54376233D01*
X111283453Y-54327600D01*
X111274510Y-54308018D01*
X111255357Y-54254130D01*
X111245438Y-54226220D01*
X111111662Y-53968044D01*
X111111661Y-53968042D01*
X111111657Y-53968036D01*
X110943982Y-53730494D01*
X110943978Y-53730490D01*
X110943977Y-53730488D01*
X110745507Y-53517978D01*
X110745500Y-53517973D01*
X110745499Y-53517971D01*
X110519954Y-53334477D01*
X110519943Y-53334470D01*
X110271501Y-53183388D01*
X110004804Y-53067545D01*
X109724812Y-52989095D01*
X109724807Y-52989094D01*
X109724806Y-52989094D01*
X109580772Y-52969297D01*
X109436739Y-52949500D01*
X109436738Y-52949500D01*
X109145962Y-52949500D01*
X109145961Y-52949500D01*
X108857894Y-52989094D01*
X108857887Y-52989095D01*
X108577895Y-53067545D01*
X108311198Y-53183388D01*
X108062756Y-53334470D01*
X108062745Y-53334477D01*
X107837200Y-53517971D01*
X107638717Y-53730494D01*
X107471042Y-53968036D01*
X107471038Y-53968042D01*
X107337261Y-54226221D01*
X107308190Y-54308018D01*
X107267192Y-54364594D01*
X107202114Y-54390024D01*
X107133619Y-54376233D01*
X107083453Y-54327600D01*
X107074510Y-54308018D01*
X107055357Y-54254130D01*
X107045438Y-54226220D01*
X106911662Y-53968044D01*
X106911661Y-53968042D01*
X106911657Y-53968036D01*
X106743982Y-53730494D01*
X106743978Y-53730490D01*
X106743977Y-53730488D01*
X106545507Y-53517978D01*
X106545500Y-53517973D01*
X106545499Y-53517971D01*
X106319954Y-53334477D01*
X106319943Y-53334470D01*
X106071501Y-53183388D01*
X105804804Y-53067545D01*
X105524812Y-52989095D01*
X105524807Y-52989094D01*
X105524806Y-52989094D01*
X105380772Y-52969297D01*
X105236739Y-52949500D01*
X105236738Y-52949500D01*
X104945962Y-52949500D01*
X104945961Y-52949500D01*
X104657894Y-52989094D01*
X104657887Y-52989095D01*
X104377895Y-53067545D01*
X104111198Y-53183388D01*
X103862756Y-53334470D01*
X103862745Y-53334477D01*
X103637200Y-53517971D01*
X103438717Y-53730494D01*
X103271042Y-53968036D01*
X103271038Y-53968042D01*
X103137259Y-54226223D01*
X103039887Y-54500201D01*
X103039882Y-54500217D01*
X102980726Y-54784898D01*
X102980725Y-54784900D01*
X102960883Y-55075000D01*
X102980725Y-55365099D01*
X102980726Y-55365101D01*
X103039882Y-55649782D01*
X103039887Y-55649798D01*
X103137260Y-55923776D01*
X103137259Y-55923776D01*
X103170848Y-55988598D01*
X103184213Y-56057177D01*
X103158379Y-56122096D01*
X103148431Y-56133327D01*
X102817601Y-56464158D01*
X102501270Y-56780489D01*
X102501267Y-56780492D01*
X102473950Y-56807809D01*
X102414142Y-56867616D01*
X102382754Y-56914592D01*
X102382753Y-56914591D01*
X102345689Y-56970061D01*
X102345685Y-56970068D01*
X102312466Y-57050269D01*
X102312347Y-57050557D01*
X102306823Y-57063893D01*
X102298537Y-57083895D01*
X102298537Y-57083899D01*
X102274500Y-57204739D01*
X102274500Y-63989548D01*
X102254815Y-64056587D01*
X102238181Y-64077229D01*
X101477229Y-64838181D01*
X101415906Y-64871666D01*
X101389548Y-64874500D01*
X99438389Y-64874500D01*
X99377971Y-64886518D01*
X99334743Y-64895116D01*
X99317546Y-64898537D01*
X99203716Y-64945687D01*
X99203707Y-64945692D01*
X99101268Y-65014140D01*
X99057705Y-65057703D01*
X99014142Y-65101267D01*
X99014139Y-65101270D01*
X94801270Y-69314139D01*
X94801267Y-69314142D01*
X94757704Y-69357704D01*
X94714142Y-69401266D01*
X94703307Y-69417483D01*
X94681545Y-69450052D01*
X94657584Y-69485910D01*
X94645687Y-69503715D01*
X94645685Y-69503718D01*
X94598540Y-69617538D01*
X94598535Y-69617554D01*
X94575255Y-69734596D01*
X94575254Y-69734604D01*
X94574500Y-69738389D01*
X94574500Y-71689548D01*
X94554815Y-71756587D01*
X94538181Y-71777229D01*
X93777229Y-72538181D01*
X93715906Y-72571666D01*
X93689548Y-72574500D01*
X89185182Y-72574500D01*
X89118143Y-72554815D01*
X89072388Y-72502011D01*
X89062444Y-72432853D01*
X89091469Y-72369297D01*
X89097501Y-72362819D01*
X89956536Y-71503785D01*
X89956536Y-71503784D01*
X89956539Y-71503782D01*
X90066031Y-71339915D01*
X90141451Y-71157836D01*
X90179900Y-70964541D01*
X90179900Y-70767460D01*
X90179900Y-70767457D01*
X90179899Y-70767455D01*
X90141452Y-70574172D01*
X90141451Y-70574165D01*
X90066031Y-70392086D01*
X90066030Y-70392085D01*
X90066027Y-70392079D01*
X89956539Y-70228219D01*
X89956536Y-70228215D01*
X89817184Y-70088863D01*
X89817180Y-70088860D01*
X89653320Y-69979372D01*
X89653311Y-69979367D01*
X89471235Y-69903949D01*
X89471227Y-69903947D01*
X89277943Y-69865500D01*
X89277940Y-69865500D01*
X89080859Y-69865500D01*
X89080856Y-69865500D01*
X88887571Y-69903947D01*
X88887563Y-69903949D01*
X88705487Y-69979367D01*
X88705478Y-69979372D01*
X88541618Y-70088860D01*
X88541614Y-70088863D01*
X87302699Y-71327781D01*
X87241376Y-71361266D01*
X87215018Y-71364100D01*
X83625382Y-71364100D01*
X83558343Y-71344415D01*
X83537701Y-71327781D01*
X76771931Y-64562011D01*
X76738446Y-64500688D01*
X76743430Y-64430996D01*
X76785302Y-64375063D01*
X76850766Y-64350646D01*
X76859612Y-64350330D01*
X98756840Y-64350330D01*
X98756840Y-50924000D01*
X98776525Y-50856961D01*
X98829329Y-50811206D01*
X98880840Y-50800000D01*
X127511000Y-50800000D01*
X127578039Y-50819685D01*
G37*
%TD.AperFunction*%
%TA.AperFunction,Conductor*%
G36*
X119713984Y-61599371D02*
G01*
X119757062Y-61654380D01*
X119765850Y-61700230D01*
X119765850Y-62247870D01*
X119765851Y-62247876D01*
X119772258Y-62307483D01*
X119822552Y-62442328D01*
X119822556Y-62442335D01*
X119908802Y-62557544D01*
X119908805Y-62557547D01*
X120024014Y-62643793D01*
X120024021Y-62643797D01*
X120158867Y-62694091D01*
X120158866Y-62694091D01*
X120165794Y-62694835D01*
X120218477Y-62700500D01*
X121016850Y-62700499D01*
X121083889Y-62720183D01*
X121129644Y-62772987D01*
X121140850Y-62824499D01*
X121140850Y-64690420D01*
X121121165Y-64757459D01*
X121104531Y-64778101D01*
X117679451Y-68203181D01*
X117618128Y-68236666D01*
X117591770Y-68239500D01*
X112094686Y-68239500D01*
X112027647Y-68219815D01*
X111981892Y-68167011D01*
X111971948Y-68097853D01*
X112000973Y-68034297D01*
X112007005Y-68027819D01*
X112730101Y-67304723D01*
X117316348Y-62718474D01*
X117377669Y-62684991D01*
X117420910Y-62683312D01*
X117499333Y-62694091D01*
X117545961Y-62700500D01*
X117545962Y-62700500D01*
X117836739Y-62700500D01*
X117867795Y-62696231D01*
X118124806Y-62660906D01*
X118404800Y-62582456D01*
X118582602Y-62505225D01*
X118671501Y-62466611D01*
X118711421Y-62442335D01*
X118919948Y-62315527D01*
X119145507Y-62132022D01*
X119343977Y-61919512D01*
X119511662Y-61681956D01*
X119531753Y-61643181D01*
X119580071Y-61592716D01*
X119648005Y-61576383D01*
X119713984Y-61599371D01*
G37*
%TD.AperFunction*%
%TA.AperFunction,Conductor*%
G36*
X106762418Y-61892515D02*
G01*
X106911232Y-61681696D01*
X107044978Y-61423578D01*
X107074244Y-61341234D01*
X107115242Y-61284657D01*
X107180319Y-61259227D01*
X107248814Y-61273017D01*
X107298981Y-61321650D01*
X107307924Y-61341233D01*
X107337261Y-61423778D01*
X107471038Y-61681957D01*
X107471042Y-61681963D01*
X107638717Y-61919505D01*
X107638721Y-61919509D01*
X107638723Y-61919512D01*
X107837193Y-62132022D01*
X107837198Y-62132026D01*
X107837200Y-62132028D01*
X108062745Y-62315522D01*
X108062748Y-62315524D01*
X108062752Y-62315527D01*
X108122879Y-62352091D01*
X108311198Y-62466611D01*
X108576806Y-62581981D01*
X108577900Y-62582456D01*
X108857894Y-62660906D01*
X109099333Y-62694091D01*
X109145961Y-62700500D01*
X109145962Y-62700500D01*
X109436739Y-62700500D01*
X109467795Y-62696231D01*
X109724806Y-62660906D01*
X110004800Y-62582456D01*
X110271503Y-62466610D01*
X110481072Y-62339167D01*
X110548579Y-62321154D01*
X110615109Y-62342497D01*
X110659539Y-62396421D01*
X110669500Y-62445116D01*
X110669500Y-64056481D01*
X110649815Y-64123520D01*
X110633181Y-64144162D01*
X109220162Y-65557181D01*
X109158839Y-65590666D01*
X109132481Y-65593500D01*
X102790452Y-65593500D01*
X102723413Y-65573815D01*
X102677658Y-65521011D01*
X102667714Y-65451853D01*
X102696739Y-65388297D01*
X102702771Y-65381819D01*
X103138902Y-64945687D01*
X103298729Y-64785860D01*
X103298733Y-64785858D01*
X103385858Y-64698733D01*
X103454311Y-64596286D01*
X103501463Y-64482452D01*
X103513481Y-64422029D01*
X103525500Y-64361607D01*
X103525500Y-64238394D01*
X103525500Y-62301241D01*
X103545185Y-62234202D01*
X103597989Y-62188447D01*
X103667147Y-62178503D01*
X103727755Y-62205053D01*
X103863044Y-62315119D01*
X104111423Y-62466161D01*
X104378064Y-62581981D01*
X104657989Y-62660413D01*
X104657996Y-62660414D01*
X104945995Y-62700000D01*
X105236705Y-62700000D01*
X105524703Y-62660414D01*
X105524710Y-62660413D01*
X105804635Y-62581981D01*
X106071276Y-62466161D01*
X106319655Y-62315119D01*
X106406921Y-62244123D01*
X105564322Y-61401524D01*
X105696940Y-61312913D01*
X105829263Y-61180590D01*
X105917875Y-61047972D01*
X106762418Y-61892515D01*
G37*
%TD.AperFunction*%
%TA.AperFunction,Conductor*%
G36*
X107249081Y-55773766D02*
G01*
X107299247Y-55822398D01*
X107308190Y-55841982D01*
X107337260Y-55923776D01*
X107337259Y-55923776D01*
X107471038Y-56181957D01*
X107471042Y-56181963D01*
X107638717Y-56419505D01*
X107638721Y-56419509D01*
X107638723Y-56419512D01*
X107837193Y-56632022D01*
X107837198Y-56632026D01*
X107837200Y-56632028D01*
X108062745Y-56815522D01*
X108062748Y-56815524D01*
X108062752Y-56815527D01*
X108107918Y-56842993D01*
X108311198Y-56966611D01*
X108576806Y-57081981D01*
X108577900Y-57082456D01*
X108857894Y-57160906D01*
X109111151Y-57195715D01*
X109145961Y-57200500D01*
X109145962Y-57200500D01*
X109436739Y-57200500D01*
X109467795Y-57196231D01*
X109724806Y-57160906D01*
X110004800Y-57082456D01*
X110216289Y-56990593D01*
X110271501Y-56966611D01*
X110278438Y-56962393D01*
X110519948Y-56815527D01*
X110519958Y-56815518D01*
X110522611Y-56813646D01*
X110588730Y-56791062D01*
X110656563Y-56807809D01*
X110704574Y-56858570D01*
X110717519Y-56927230D01*
X110708692Y-56962393D01*
X110696420Y-56992021D01*
X110696420Y-56992022D01*
X110678145Y-57083898D01*
X110678145Y-57083899D01*
X110669500Y-57127356D01*
X110669500Y-58704883D01*
X110649815Y-58771922D01*
X110597011Y-58817677D01*
X110527853Y-58827621D01*
X110481072Y-58810831D01*
X110271501Y-58683388D01*
X110004804Y-58567545D01*
X109724812Y-58489095D01*
X109724807Y-58489094D01*
X109724806Y-58489094D01*
X109580772Y-58469297D01*
X109436739Y-58449500D01*
X109436738Y-58449500D01*
X109145962Y-58449500D01*
X109145961Y-58449500D01*
X108857894Y-58489094D01*
X108857887Y-58489095D01*
X108577895Y-58567545D01*
X108311198Y-58683388D01*
X108062756Y-58834470D01*
X108062745Y-58834477D01*
X107837200Y-59017971D01*
X107837194Y-59017976D01*
X107837193Y-59017978D01*
X107730324Y-59132406D01*
X107638717Y-59230494D01*
X107471042Y-59468036D01*
X107471038Y-59468042D01*
X107337261Y-59726221D01*
X107307924Y-59808766D01*
X107266925Y-59865342D01*
X107201848Y-59890772D01*
X107133353Y-59876981D01*
X107083187Y-59828348D01*
X107074244Y-59808765D01*
X107044978Y-59726421D01*
X106911232Y-59468303D01*
X106762418Y-59257483D01*
X105917874Y-60102026D01*
X105829263Y-59969410D01*
X105696940Y-59837087D01*
X105564322Y-59748474D01*
X106406921Y-58905875D01*
X106319667Y-58834889D01*
X106319656Y-58834881D01*
X106071276Y-58683838D01*
X105804635Y-58568018D01*
X105524710Y-58489586D01*
X105524703Y-58489585D01*
X105236705Y-58450000D01*
X104945995Y-58450000D01*
X104657996Y-58489585D01*
X104657989Y-58489586D01*
X104378064Y-58568018D01*
X104111423Y-58683838D01*
X103863044Y-58834880D01*
X103727755Y-58944946D01*
X103663329Y-58971985D01*
X103594512Y-58959899D01*
X103543154Y-58912527D01*
X103525500Y-58848758D01*
X103525500Y-57576801D01*
X103545185Y-57509762D01*
X103561815Y-57489124D01*
X104032791Y-57018147D01*
X104094112Y-56984664D01*
X104163803Y-56989648D01*
X104169863Y-56992092D01*
X104377900Y-57082456D01*
X104657894Y-57160906D01*
X104911151Y-57195715D01*
X104945961Y-57200500D01*
X104945962Y-57200500D01*
X105236739Y-57200500D01*
X105267795Y-57196231D01*
X105524806Y-57160906D01*
X105804800Y-57082456D01*
X106016289Y-56990593D01*
X106071501Y-56966611D01*
X106072241Y-56966161D01*
X106319948Y-56815527D01*
X106545507Y-56632022D01*
X106743977Y-56419512D01*
X106911662Y-56181956D01*
X107045438Y-55923780D01*
X107045438Y-55923779D01*
X107045440Y-55923776D01*
X107074510Y-55841982D01*
X107115508Y-55785405D01*
X107180586Y-55759975D01*
X107249081Y-55773766D01*
G37*
%TD.AperFunction*%
%TD*%
M02*
