%TF.GenerationSoftware,KiCad,Pcbnew,8.0.3*%
%TF.CreationDate,2024-11-03T21:09:02+01:00*%
%TF.ProjectId,IIsi_ATX,49497369-5f41-4545-982e-6b696361645f,rev?*%
%TF.SameCoordinates,Original*%
%TF.FileFunction,Profile,NP*%
%FSLAX46Y46*%
G04 Gerber Fmt 4.6, Leading zero omitted, Abs format (unit mm)*
G04 Created by KiCad (PCBNEW 8.0.3) date 2024-11-03 21:09:02*
%MOMM*%
%LPD*%
G01*
G04 APERTURE LIST*
%TA.AperFunction,Profile*%
%ADD10C,0.100000*%
%TD*%
G04 APERTURE END LIST*
D10*
X73362800Y-110959330D02*
X57775840Y-110954330D01*
X107650000Y-74250000D02*
G75*
G02*
X104850000Y-74250000I-1400000J0D01*
G01*
X104850000Y-74250000D02*
G75*
G02*
X107650000Y-74250000I1400000J0D01*
G01*
X76785840Y-50804520D02*
X76785840Y-64350330D01*
X208992840Y-127469330D02*
X73355130Y-127469330D01*
X59259840Y-50804330D02*
X76785840Y-50804520D01*
X107625000Y-121625000D02*
G75*
G02*
X104825000Y-121625000I-1400000J0D01*
G01*
X104825000Y-121625000D02*
G75*
G02*
X107625000Y-121625000I1400000J0D01*
G01*
X205950000Y-121750000D02*
G75*
G02*
X203150000Y-121750000I-1400000J0D01*
G01*
X203150000Y-121750000D02*
G75*
G02*
X205950000Y-121750000I1400000J0D01*
G01*
X208992840Y-124929330D02*
X208992840Y-127469330D01*
X232725000Y-54925000D02*
G75*
G02*
X229725000Y-54925000I-1500000J0D01*
G01*
X229725000Y-54925000D02*
G75*
G02*
X232725000Y-54925000I1500000J0D01*
G01*
X205950000Y-74375000D02*
G75*
G02*
X203150000Y-74375000I-1400000J0D01*
G01*
X203150000Y-74375000D02*
G75*
G02*
X205950000Y-74375000I1400000J0D01*
G01*
X232725000Y-123025000D02*
G75*
G02*
X229725000Y-123025000I-1500000J0D01*
G01*
X229725000Y-123025000D02*
G75*
G02*
X232725000Y-123025000I1500000J0D01*
G01*
X59259840Y-54825330D02*
X59259840Y-50804330D01*
X223724840Y-127469330D02*
X223724890Y-124929330D01*
X57735840Y-54825330D02*
X59259840Y-54825330D01*
X223724890Y-124929330D02*
X208992840Y-124929330D01*
X64516000Y-76403200D02*
G75*
G02*
X61112400Y-76403200I-1701800J0D01*
G01*
X61112400Y-76403200D02*
G75*
G02*
X64516000Y-76403200I1701800J0D01*
G01*
X76785840Y-64350330D02*
X98756840Y-64350330D01*
X98756840Y-50779330D02*
X239726840Y-50824830D01*
X239726840Y-127469330D02*
X223724840Y-127469330D01*
X239726840Y-50824830D02*
X239726840Y-127469330D01*
X57775840Y-110954330D02*
X57735840Y-54825330D01*
X73355130Y-127469330D02*
X73362800Y-110959330D01*
X98756840Y-64350330D02*
X98756840Y-50779330D01*
M02*
