%TF.GenerationSoftware,KiCad,Pcbnew,8.0.3*%
%TF.CreationDate,2024-11-03T21:09:01+01:00*%
%TF.ProjectId,IIsi_ATX,49497369-5f41-4545-982e-6b696361645f,rev?*%
%TF.SameCoordinates,Original*%
%TF.FileFunction,Legend,Bot*%
%TF.FilePolarity,Positive*%
%FSLAX46Y46*%
G04 Gerber Fmt 4.6, Leading zero omitted, Abs format (unit mm)*
G04 Created by KiCad (PCBNEW 8.0.3) date 2024-11-03 21:09:01*
%MOMM*%
%LPD*%
G01*
G04 APERTURE LIST*
%ADD10C,0.300000*%
%ADD11C,0.152000*%
%ADD12C,0.500000*%
%ADD13C,0.130000*%
%ADD14C,0.250000*%
%ADD15C,0.150000*%
%ADD16C,0.127000*%
G04 APERTURE END LIST*
D10*
X159888346Y-108643055D02*
X159959774Y-108714484D01*
X159959774Y-108714484D02*
X160174060Y-108785912D01*
X160174060Y-108785912D02*
X160316917Y-108785912D01*
X160316917Y-108785912D02*
X160531203Y-108714484D01*
X160531203Y-108714484D02*
X160674060Y-108571626D01*
X160674060Y-108571626D02*
X160745489Y-108428769D01*
X160745489Y-108428769D02*
X160816917Y-108143055D01*
X160816917Y-108143055D02*
X160816917Y-107928769D01*
X160816917Y-107928769D02*
X160745489Y-107643055D01*
X160745489Y-107643055D02*
X160674060Y-107500198D01*
X160674060Y-107500198D02*
X160531203Y-107357341D01*
X160531203Y-107357341D02*
X160316917Y-107285912D01*
X160316917Y-107285912D02*
X160174060Y-107285912D01*
X160174060Y-107285912D02*
X159959774Y-107357341D01*
X159959774Y-107357341D02*
X159888346Y-107428769D01*
X159245489Y-108785912D02*
X159245489Y-107785912D01*
X159245489Y-108071626D02*
X159174060Y-107928769D01*
X159174060Y-107928769D02*
X159102632Y-107857341D01*
X159102632Y-107857341D02*
X158959774Y-107785912D01*
X158959774Y-107785912D02*
X158816917Y-107785912D01*
X157745489Y-108714484D02*
X157888346Y-108785912D01*
X157888346Y-108785912D02*
X158174061Y-108785912D01*
X158174061Y-108785912D02*
X158316918Y-108714484D01*
X158316918Y-108714484D02*
X158388346Y-108571626D01*
X158388346Y-108571626D02*
X158388346Y-108000198D01*
X158388346Y-108000198D02*
X158316918Y-107857341D01*
X158316918Y-107857341D02*
X158174061Y-107785912D01*
X158174061Y-107785912D02*
X157888346Y-107785912D01*
X157888346Y-107785912D02*
X157745489Y-107857341D01*
X157745489Y-107857341D02*
X157674061Y-108000198D01*
X157674061Y-108000198D02*
X157674061Y-108143055D01*
X157674061Y-108143055D02*
X158388346Y-108285912D01*
X156388347Y-108785912D02*
X156388347Y-108000198D01*
X156388347Y-108000198D02*
X156459775Y-107857341D01*
X156459775Y-107857341D02*
X156602632Y-107785912D01*
X156602632Y-107785912D02*
X156888347Y-107785912D01*
X156888347Y-107785912D02*
X157031204Y-107857341D01*
X156388347Y-108714484D02*
X156531204Y-108785912D01*
X156531204Y-108785912D02*
X156888347Y-108785912D01*
X156888347Y-108785912D02*
X157031204Y-108714484D01*
X157031204Y-108714484D02*
X157102632Y-108571626D01*
X157102632Y-108571626D02*
X157102632Y-108428769D01*
X157102632Y-108428769D02*
X157031204Y-108285912D01*
X157031204Y-108285912D02*
X156888347Y-108214484D01*
X156888347Y-108214484D02*
X156531204Y-108214484D01*
X156531204Y-108214484D02*
X156388347Y-108143055D01*
X155888346Y-107785912D02*
X155316918Y-107785912D01*
X155674061Y-107285912D02*
X155674061Y-108571626D01*
X155674061Y-108571626D02*
X155602632Y-108714484D01*
X155602632Y-108714484D02*
X155459775Y-108785912D01*
X155459775Y-108785912D02*
X155316918Y-108785912D01*
X154245489Y-108714484D02*
X154388346Y-108785912D01*
X154388346Y-108785912D02*
X154674061Y-108785912D01*
X154674061Y-108785912D02*
X154816918Y-108714484D01*
X154816918Y-108714484D02*
X154888346Y-108571626D01*
X154888346Y-108571626D02*
X154888346Y-108000198D01*
X154888346Y-108000198D02*
X154816918Y-107857341D01*
X154816918Y-107857341D02*
X154674061Y-107785912D01*
X154674061Y-107785912D02*
X154388346Y-107785912D01*
X154388346Y-107785912D02*
X154245489Y-107857341D01*
X154245489Y-107857341D02*
X154174061Y-108000198D01*
X154174061Y-108000198D02*
X154174061Y-108143055D01*
X154174061Y-108143055D02*
X154888346Y-108285912D01*
X152888347Y-108785912D02*
X152888347Y-107285912D01*
X152888347Y-108714484D02*
X153031204Y-108785912D01*
X153031204Y-108785912D02*
X153316918Y-108785912D01*
X153316918Y-108785912D02*
X153459775Y-108714484D01*
X153459775Y-108714484D02*
X153531204Y-108643055D01*
X153531204Y-108643055D02*
X153602632Y-108500198D01*
X153602632Y-108500198D02*
X153602632Y-108071626D01*
X153602632Y-108071626D02*
X153531204Y-107928769D01*
X153531204Y-107928769D02*
X153459775Y-107857341D01*
X153459775Y-107857341D02*
X153316918Y-107785912D01*
X153316918Y-107785912D02*
X153031204Y-107785912D01*
X153031204Y-107785912D02*
X152888347Y-107857341D01*
X151031204Y-108785912D02*
X151031204Y-107285912D01*
X151031204Y-107857341D02*
X150888347Y-107785912D01*
X150888347Y-107785912D02*
X150602632Y-107785912D01*
X150602632Y-107785912D02*
X150459775Y-107857341D01*
X150459775Y-107857341D02*
X150388347Y-107928769D01*
X150388347Y-107928769D02*
X150316918Y-108071626D01*
X150316918Y-108071626D02*
X150316918Y-108500198D01*
X150316918Y-108500198D02*
X150388347Y-108643055D01*
X150388347Y-108643055D02*
X150459775Y-108714484D01*
X150459775Y-108714484D02*
X150602632Y-108785912D01*
X150602632Y-108785912D02*
X150888347Y-108785912D01*
X150888347Y-108785912D02*
X151031204Y-108714484D01*
X149816918Y-107785912D02*
X149459775Y-108785912D01*
X149102632Y-107785912D02*
X149459775Y-108785912D01*
X149459775Y-108785912D02*
X149602632Y-109143055D01*
X149602632Y-109143055D02*
X149674061Y-109214484D01*
X149674061Y-109214484D02*
X149816918Y-109285912D01*
X146531204Y-108643055D02*
X146602632Y-108714484D01*
X146602632Y-108714484D02*
X146816918Y-108785912D01*
X146816918Y-108785912D02*
X146959775Y-108785912D01*
X146959775Y-108785912D02*
X147174061Y-108714484D01*
X147174061Y-108714484D02*
X147316918Y-108571626D01*
X147316918Y-108571626D02*
X147388347Y-108428769D01*
X147388347Y-108428769D02*
X147459775Y-108143055D01*
X147459775Y-108143055D02*
X147459775Y-107928769D01*
X147459775Y-107928769D02*
X147388347Y-107643055D01*
X147388347Y-107643055D02*
X147316918Y-107500198D01*
X147316918Y-107500198D02*
X147174061Y-107357341D01*
X147174061Y-107357341D02*
X146959775Y-107285912D01*
X146959775Y-107285912D02*
X146816918Y-107285912D01*
X146816918Y-107285912D02*
X146602632Y-107357341D01*
X146602632Y-107357341D02*
X146531204Y-107428769D01*
X145245490Y-108785912D02*
X145245490Y-108000198D01*
X145245490Y-108000198D02*
X145316918Y-107857341D01*
X145316918Y-107857341D02*
X145459775Y-107785912D01*
X145459775Y-107785912D02*
X145745490Y-107785912D01*
X145745490Y-107785912D02*
X145888347Y-107857341D01*
X145245490Y-108714484D02*
X145388347Y-108785912D01*
X145388347Y-108785912D02*
X145745490Y-108785912D01*
X145745490Y-108785912D02*
X145888347Y-108714484D01*
X145888347Y-108714484D02*
X145959775Y-108571626D01*
X145959775Y-108571626D02*
X145959775Y-108428769D01*
X145959775Y-108428769D02*
X145888347Y-108285912D01*
X145888347Y-108285912D02*
X145745490Y-108214484D01*
X145745490Y-108214484D02*
X145388347Y-108214484D01*
X145388347Y-108214484D02*
X145245490Y-108143055D01*
X144674061Y-107785912D02*
X144316918Y-108785912D01*
X143959775Y-107785912D02*
X144316918Y-108785912D01*
X144316918Y-108785912D02*
X144459775Y-109143055D01*
X144459775Y-109143055D02*
X144531204Y-109214484D01*
X144531204Y-109214484D02*
X144674061Y-109285912D01*
X143388347Y-108785912D02*
X143388347Y-107285912D01*
X143388347Y-107285912D02*
X142888347Y-108357341D01*
X142888347Y-108357341D02*
X142388347Y-107285912D01*
X142388347Y-107285912D02*
X142388347Y-108785912D01*
X141031204Y-108785912D02*
X141031204Y-108000198D01*
X141031204Y-108000198D02*
X141102632Y-107857341D01*
X141102632Y-107857341D02*
X141245489Y-107785912D01*
X141245489Y-107785912D02*
X141531204Y-107785912D01*
X141531204Y-107785912D02*
X141674061Y-107857341D01*
X141031204Y-108714484D02*
X141174061Y-108785912D01*
X141174061Y-108785912D02*
X141531204Y-108785912D01*
X141531204Y-108785912D02*
X141674061Y-108714484D01*
X141674061Y-108714484D02*
X141745489Y-108571626D01*
X141745489Y-108571626D02*
X141745489Y-108428769D01*
X141745489Y-108428769D02*
X141674061Y-108285912D01*
X141674061Y-108285912D02*
X141531204Y-108214484D01*
X141531204Y-108214484D02*
X141174061Y-108214484D01*
X141174061Y-108214484D02*
X141031204Y-108143055D01*
X139674061Y-108714484D02*
X139816918Y-108785912D01*
X139816918Y-108785912D02*
X140102632Y-108785912D01*
X140102632Y-108785912D02*
X140245489Y-108714484D01*
X140245489Y-108714484D02*
X140316918Y-108643055D01*
X140316918Y-108643055D02*
X140388346Y-108500198D01*
X140388346Y-108500198D02*
X140388346Y-108071626D01*
X140388346Y-108071626D02*
X140316918Y-107928769D01*
X140316918Y-107928769D02*
X140245489Y-107857341D01*
X140245489Y-107857341D02*
X140102632Y-107785912D01*
X140102632Y-107785912D02*
X139816918Y-107785912D01*
X139816918Y-107785912D02*
X139674061Y-107857341D01*
X138102632Y-107285912D02*
X137602632Y-108785912D01*
X137602632Y-108785912D02*
X137102632Y-107285912D01*
X136602633Y-108785912D02*
X136602633Y-107785912D01*
X136602633Y-107285912D02*
X136674061Y-107357341D01*
X136674061Y-107357341D02*
X136602633Y-107428769D01*
X136602633Y-107428769D02*
X136531204Y-107357341D01*
X136531204Y-107357341D02*
X136602633Y-107285912D01*
X136602633Y-107285912D02*
X136602633Y-107428769D01*
X135888347Y-107785912D02*
X135888347Y-108785912D01*
X135888347Y-107928769D02*
X135816918Y-107857341D01*
X135816918Y-107857341D02*
X135674061Y-107785912D01*
X135674061Y-107785912D02*
X135459775Y-107785912D01*
X135459775Y-107785912D02*
X135316918Y-107857341D01*
X135316918Y-107857341D02*
X135245490Y-108000198D01*
X135245490Y-108000198D02*
X135245490Y-108785912D01*
X134745489Y-107785912D02*
X134174061Y-107785912D01*
X134531204Y-107285912D02*
X134531204Y-108571626D01*
X134531204Y-108571626D02*
X134459775Y-108714484D01*
X134459775Y-108714484D02*
X134316918Y-108785912D01*
X134316918Y-108785912D02*
X134174061Y-108785912D01*
X133031204Y-108785912D02*
X133031204Y-108000198D01*
X133031204Y-108000198D02*
X133102632Y-107857341D01*
X133102632Y-107857341D02*
X133245489Y-107785912D01*
X133245489Y-107785912D02*
X133531204Y-107785912D01*
X133531204Y-107785912D02*
X133674061Y-107857341D01*
X133031204Y-108714484D02*
X133174061Y-108785912D01*
X133174061Y-108785912D02*
X133531204Y-108785912D01*
X133531204Y-108785912D02*
X133674061Y-108714484D01*
X133674061Y-108714484D02*
X133745489Y-108571626D01*
X133745489Y-108571626D02*
X133745489Y-108428769D01*
X133745489Y-108428769D02*
X133674061Y-108285912D01*
X133674061Y-108285912D02*
X133531204Y-108214484D01*
X133531204Y-108214484D02*
X133174061Y-108214484D01*
X133174061Y-108214484D02*
X133031204Y-108143055D01*
X131674061Y-107785912D02*
X131674061Y-109000198D01*
X131674061Y-109000198D02*
X131745489Y-109143055D01*
X131745489Y-109143055D02*
X131816918Y-109214484D01*
X131816918Y-109214484D02*
X131959775Y-109285912D01*
X131959775Y-109285912D02*
X132174061Y-109285912D01*
X132174061Y-109285912D02*
X132316918Y-109214484D01*
X131674061Y-108714484D02*
X131816918Y-108785912D01*
X131816918Y-108785912D02*
X132102632Y-108785912D01*
X132102632Y-108785912D02*
X132245489Y-108714484D01*
X132245489Y-108714484D02*
X132316918Y-108643055D01*
X132316918Y-108643055D02*
X132388346Y-108500198D01*
X132388346Y-108500198D02*
X132388346Y-108071626D01*
X132388346Y-108071626D02*
X132316918Y-107928769D01*
X132316918Y-107928769D02*
X132245489Y-107857341D01*
X132245489Y-107857341D02*
X132102632Y-107785912D01*
X132102632Y-107785912D02*
X131816918Y-107785912D01*
X131816918Y-107785912D02*
X131674061Y-107857341D01*
X130388346Y-108714484D02*
X130531203Y-108785912D01*
X130531203Y-108785912D02*
X130816918Y-108785912D01*
X130816918Y-108785912D02*
X130959775Y-108714484D01*
X130959775Y-108714484D02*
X131031203Y-108571626D01*
X131031203Y-108571626D02*
X131031203Y-108000198D01*
X131031203Y-108000198D02*
X130959775Y-107857341D01*
X130959775Y-107857341D02*
X130816918Y-107785912D01*
X130816918Y-107785912D02*
X130531203Y-107785912D01*
X130531203Y-107785912D02*
X130388346Y-107857341D01*
X130388346Y-107857341D02*
X130316918Y-108000198D01*
X130316918Y-108000198D02*
X130316918Y-108143055D01*
X130316918Y-108143055D02*
X131031203Y-108285912D01*
X128745489Y-107285912D02*
X127888347Y-107285912D01*
X128316918Y-108785912D02*
X128316918Y-107285912D01*
X126816918Y-108714484D02*
X126959775Y-108785912D01*
X126959775Y-108785912D02*
X127245490Y-108785912D01*
X127245490Y-108785912D02*
X127388347Y-108714484D01*
X127388347Y-108714484D02*
X127459775Y-108571626D01*
X127459775Y-108571626D02*
X127459775Y-108000198D01*
X127459775Y-108000198D02*
X127388347Y-107857341D01*
X127388347Y-107857341D02*
X127245490Y-107785912D01*
X127245490Y-107785912D02*
X126959775Y-107785912D01*
X126959775Y-107785912D02*
X126816918Y-107857341D01*
X126816918Y-107857341D02*
X126745490Y-108000198D01*
X126745490Y-108000198D02*
X126745490Y-108143055D01*
X126745490Y-108143055D02*
X127459775Y-108285912D01*
X125459776Y-108785912D02*
X125459776Y-108000198D01*
X125459776Y-108000198D02*
X125531204Y-107857341D01*
X125531204Y-107857341D02*
X125674061Y-107785912D01*
X125674061Y-107785912D02*
X125959776Y-107785912D01*
X125959776Y-107785912D02*
X126102633Y-107857341D01*
X125459776Y-108714484D02*
X125602633Y-108785912D01*
X125602633Y-108785912D02*
X125959776Y-108785912D01*
X125959776Y-108785912D02*
X126102633Y-108714484D01*
X126102633Y-108714484D02*
X126174061Y-108571626D01*
X126174061Y-108571626D02*
X126174061Y-108428769D01*
X126174061Y-108428769D02*
X126102633Y-108285912D01*
X126102633Y-108285912D02*
X125959776Y-108214484D01*
X125959776Y-108214484D02*
X125602633Y-108214484D01*
X125602633Y-108214484D02*
X125459776Y-108143055D01*
X124745490Y-108785912D02*
X124745490Y-107785912D01*
X124745490Y-107928769D02*
X124674061Y-107857341D01*
X124674061Y-107857341D02*
X124531204Y-107785912D01*
X124531204Y-107785912D02*
X124316918Y-107785912D01*
X124316918Y-107785912D02*
X124174061Y-107857341D01*
X124174061Y-107857341D02*
X124102633Y-108000198D01*
X124102633Y-108000198D02*
X124102633Y-108785912D01*
X124102633Y-108000198D02*
X124031204Y-107857341D01*
X124031204Y-107857341D02*
X123888347Y-107785912D01*
X123888347Y-107785912D02*
X123674061Y-107785912D01*
X123674061Y-107785912D02*
X123531204Y-107857341D01*
X123531204Y-107857341D02*
X123459775Y-108000198D01*
X123459775Y-108000198D02*
X123459775Y-108785912D01*
X160031203Y-111200828D02*
X160745489Y-111200828D01*
X160745489Y-111200828D02*
X160745489Y-109700828D01*
X159531203Y-111200828D02*
X159531203Y-110200828D01*
X159531203Y-109700828D02*
X159602631Y-109772257D01*
X159602631Y-109772257D02*
X159531203Y-109843685D01*
X159531203Y-109843685D02*
X159459774Y-109772257D01*
X159459774Y-109772257D02*
X159531203Y-109700828D01*
X159531203Y-109700828D02*
X159531203Y-109843685D01*
X158174060Y-111129400D02*
X158316917Y-111200828D01*
X158316917Y-111200828D02*
X158602631Y-111200828D01*
X158602631Y-111200828D02*
X158745488Y-111129400D01*
X158745488Y-111129400D02*
X158816917Y-111057971D01*
X158816917Y-111057971D02*
X158888345Y-110915114D01*
X158888345Y-110915114D02*
X158888345Y-110486542D01*
X158888345Y-110486542D02*
X158816917Y-110343685D01*
X158816917Y-110343685D02*
X158745488Y-110272257D01*
X158745488Y-110272257D02*
X158602631Y-110200828D01*
X158602631Y-110200828D02*
X158316917Y-110200828D01*
X158316917Y-110200828D02*
X158174060Y-110272257D01*
X156959774Y-111129400D02*
X157102631Y-111200828D01*
X157102631Y-111200828D02*
X157388346Y-111200828D01*
X157388346Y-111200828D02*
X157531203Y-111129400D01*
X157531203Y-111129400D02*
X157602631Y-110986542D01*
X157602631Y-110986542D02*
X157602631Y-110415114D01*
X157602631Y-110415114D02*
X157531203Y-110272257D01*
X157531203Y-110272257D02*
X157388346Y-110200828D01*
X157388346Y-110200828D02*
X157102631Y-110200828D01*
X157102631Y-110200828D02*
X156959774Y-110272257D01*
X156959774Y-110272257D02*
X156888346Y-110415114D01*
X156888346Y-110415114D02*
X156888346Y-110557971D01*
X156888346Y-110557971D02*
X157602631Y-110700828D01*
X156245489Y-110200828D02*
X156245489Y-111200828D01*
X156245489Y-110343685D02*
X156174060Y-110272257D01*
X156174060Y-110272257D02*
X156031203Y-110200828D01*
X156031203Y-110200828D02*
X155816917Y-110200828D01*
X155816917Y-110200828D02*
X155674060Y-110272257D01*
X155674060Y-110272257D02*
X155602632Y-110415114D01*
X155602632Y-110415114D02*
X155602632Y-111200828D01*
X154959774Y-111129400D02*
X154816917Y-111200828D01*
X154816917Y-111200828D02*
X154531203Y-111200828D01*
X154531203Y-111200828D02*
X154388346Y-111129400D01*
X154388346Y-111129400D02*
X154316917Y-110986542D01*
X154316917Y-110986542D02*
X154316917Y-110915114D01*
X154316917Y-110915114D02*
X154388346Y-110772257D01*
X154388346Y-110772257D02*
X154531203Y-110700828D01*
X154531203Y-110700828D02*
X154745489Y-110700828D01*
X154745489Y-110700828D02*
X154888346Y-110629400D01*
X154888346Y-110629400D02*
X154959774Y-110486542D01*
X154959774Y-110486542D02*
X154959774Y-110415114D01*
X154959774Y-110415114D02*
X154888346Y-110272257D01*
X154888346Y-110272257D02*
X154745489Y-110200828D01*
X154745489Y-110200828D02*
X154531203Y-110200828D01*
X154531203Y-110200828D02*
X154388346Y-110272257D01*
X153102631Y-111129400D02*
X153245488Y-111200828D01*
X153245488Y-111200828D02*
X153531203Y-111200828D01*
X153531203Y-111200828D02*
X153674060Y-111129400D01*
X153674060Y-111129400D02*
X153745488Y-110986542D01*
X153745488Y-110986542D02*
X153745488Y-110415114D01*
X153745488Y-110415114D02*
X153674060Y-110272257D01*
X153674060Y-110272257D02*
X153531203Y-110200828D01*
X153531203Y-110200828D02*
X153245488Y-110200828D01*
X153245488Y-110200828D02*
X153102631Y-110272257D01*
X153102631Y-110272257D02*
X153031203Y-110415114D01*
X153031203Y-110415114D02*
X153031203Y-110557971D01*
X153031203Y-110557971D02*
X153745488Y-110700828D01*
X152388346Y-111057971D02*
X152316917Y-111129400D01*
X152316917Y-111129400D02*
X152388346Y-111200828D01*
X152388346Y-111200828D02*
X152459774Y-111129400D01*
X152459774Y-111129400D02*
X152388346Y-111057971D01*
X152388346Y-111057971D02*
X152388346Y-111200828D01*
X152388346Y-110272257D02*
X152316917Y-110343685D01*
X152316917Y-110343685D02*
X152388346Y-110415114D01*
X152388346Y-110415114D02*
X152459774Y-110343685D01*
X152459774Y-110343685D02*
X152388346Y-110272257D01*
X152388346Y-110272257D02*
X152388346Y-110415114D01*
X149674060Y-111057971D02*
X149745488Y-111129400D01*
X149745488Y-111129400D02*
X149959774Y-111200828D01*
X149959774Y-111200828D02*
X150102631Y-111200828D01*
X150102631Y-111200828D02*
X150316917Y-111129400D01*
X150316917Y-111129400D02*
X150459774Y-110986542D01*
X150459774Y-110986542D02*
X150531203Y-110843685D01*
X150531203Y-110843685D02*
X150602631Y-110557971D01*
X150602631Y-110557971D02*
X150602631Y-110343685D01*
X150602631Y-110343685D02*
X150531203Y-110057971D01*
X150531203Y-110057971D02*
X150459774Y-109915114D01*
X150459774Y-109915114D02*
X150316917Y-109772257D01*
X150316917Y-109772257D02*
X150102631Y-109700828D01*
X150102631Y-109700828D02*
X149959774Y-109700828D01*
X149959774Y-109700828D02*
X149745488Y-109772257D01*
X149745488Y-109772257D02*
X149674060Y-109843685D01*
X148174060Y-111057971D02*
X148245488Y-111129400D01*
X148245488Y-111129400D02*
X148459774Y-111200828D01*
X148459774Y-111200828D02*
X148602631Y-111200828D01*
X148602631Y-111200828D02*
X148816917Y-111129400D01*
X148816917Y-111129400D02*
X148959774Y-110986542D01*
X148959774Y-110986542D02*
X149031203Y-110843685D01*
X149031203Y-110843685D02*
X149102631Y-110557971D01*
X149102631Y-110557971D02*
X149102631Y-110343685D01*
X149102631Y-110343685D02*
X149031203Y-110057971D01*
X149031203Y-110057971D02*
X148959774Y-109915114D01*
X148959774Y-109915114D02*
X148816917Y-109772257D01*
X148816917Y-109772257D02*
X148602631Y-109700828D01*
X148602631Y-109700828D02*
X148459774Y-109700828D01*
X148459774Y-109700828D02*
X148245488Y-109772257D01*
X148245488Y-109772257D02*
X148174060Y-109843685D01*
X145745489Y-110200828D02*
X145745489Y-111200828D01*
X146102631Y-109629400D02*
X146459774Y-110700828D01*
X146459774Y-110700828D02*
X145531203Y-110700828D01*
X144959775Y-111057971D02*
X144888346Y-111129400D01*
X144888346Y-111129400D02*
X144959775Y-111200828D01*
X144959775Y-111200828D02*
X145031203Y-111129400D01*
X145031203Y-111129400D02*
X144959775Y-111057971D01*
X144959775Y-111057971D02*
X144959775Y-111200828D01*
X143959774Y-109700828D02*
X143816917Y-109700828D01*
X143816917Y-109700828D02*
X143674060Y-109772257D01*
X143674060Y-109772257D02*
X143602632Y-109843685D01*
X143602632Y-109843685D02*
X143531203Y-109986542D01*
X143531203Y-109986542D02*
X143459774Y-110272257D01*
X143459774Y-110272257D02*
X143459774Y-110629400D01*
X143459774Y-110629400D02*
X143531203Y-110915114D01*
X143531203Y-110915114D02*
X143602632Y-111057971D01*
X143602632Y-111057971D02*
X143674060Y-111129400D01*
X143674060Y-111129400D02*
X143816917Y-111200828D01*
X143816917Y-111200828D02*
X143959774Y-111200828D01*
X143959774Y-111200828D02*
X144102632Y-111129400D01*
X144102632Y-111129400D02*
X144174060Y-111057971D01*
X144174060Y-111057971D02*
X144245489Y-110915114D01*
X144245489Y-110915114D02*
X144316917Y-110629400D01*
X144316917Y-110629400D02*
X144316917Y-110272257D01*
X144316917Y-110272257D02*
X144245489Y-109986542D01*
X144245489Y-109986542D02*
X144174060Y-109843685D01*
X144174060Y-109843685D02*
X144102632Y-109772257D01*
X144102632Y-109772257D02*
X143959774Y-109700828D01*
X141174061Y-110415114D02*
X140959775Y-110486542D01*
X140959775Y-110486542D02*
X140888346Y-110557971D01*
X140888346Y-110557971D02*
X140816918Y-110700828D01*
X140816918Y-110700828D02*
X140816918Y-110915114D01*
X140816918Y-110915114D02*
X140888346Y-111057971D01*
X140888346Y-111057971D02*
X140959775Y-111129400D01*
X140959775Y-111129400D02*
X141102632Y-111200828D01*
X141102632Y-111200828D02*
X141674061Y-111200828D01*
X141674061Y-111200828D02*
X141674061Y-109700828D01*
X141674061Y-109700828D02*
X141174061Y-109700828D01*
X141174061Y-109700828D02*
X141031204Y-109772257D01*
X141031204Y-109772257D02*
X140959775Y-109843685D01*
X140959775Y-109843685D02*
X140888346Y-109986542D01*
X140888346Y-109986542D02*
X140888346Y-110129400D01*
X140888346Y-110129400D02*
X140959775Y-110272257D01*
X140959775Y-110272257D02*
X141031204Y-110343685D01*
X141031204Y-110343685D02*
X141174061Y-110415114D01*
X141174061Y-110415114D02*
X141674061Y-110415114D01*
X139888346Y-110486542D02*
X139888346Y-111200828D01*
X140388346Y-109700828D02*
X139888346Y-110486542D01*
X139888346Y-110486542D02*
X139388346Y-109700828D01*
X138888347Y-110629400D02*
X137745490Y-110629400D01*
X137031204Y-111200828D02*
X137031204Y-109700828D01*
X137031204Y-109700828D02*
X136174061Y-111200828D01*
X136174061Y-111200828D02*
X136174061Y-109700828D01*
X134602632Y-111057971D02*
X134674060Y-111129400D01*
X134674060Y-111129400D02*
X134888346Y-111200828D01*
X134888346Y-111200828D02*
X135031203Y-111200828D01*
X135031203Y-111200828D02*
X135245489Y-111129400D01*
X135245489Y-111129400D02*
X135388346Y-110986542D01*
X135388346Y-110986542D02*
X135459775Y-110843685D01*
X135459775Y-110843685D02*
X135531203Y-110557971D01*
X135531203Y-110557971D02*
X135531203Y-110343685D01*
X135531203Y-110343685D02*
X135459775Y-110057971D01*
X135459775Y-110057971D02*
X135388346Y-109915114D01*
X135388346Y-109915114D02*
X135245489Y-109772257D01*
X135245489Y-109772257D02*
X135031203Y-109700828D01*
X135031203Y-109700828D02*
X134888346Y-109700828D01*
X134888346Y-109700828D02*
X134674060Y-109772257D01*
X134674060Y-109772257D02*
X134602632Y-109843685D01*
X133959775Y-110629400D02*
X132816918Y-110629400D01*
X132102632Y-111200828D02*
X132102632Y-109700828D01*
X132102632Y-109700828D02*
X131245489Y-111200828D01*
X131245489Y-111200828D02*
X131245489Y-109700828D01*
X130531203Y-111200828D02*
X130531203Y-109700828D01*
X130531203Y-109700828D02*
X130174060Y-109700828D01*
X130174060Y-109700828D02*
X129959774Y-109772257D01*
X129959774Y-109772257D02*
X129816917Y-109915114D01*
X129816917Y-109915114D02*
X129745488Y-110057971D01*
X129745488Y-110057971D02*
X129674060Y-110343685D01*
X129674060Y-110343685D02*
X129674060Y-110557971D01*
X129674060Y-110557971D02*
X129745488Y-110843685D01*
X129745488Y-110843685D02*
X129816917Y-110986542D01*
X129816917Y-110986542D02*
X129959774Y-111129400D01*
X129959774Y-111129400D02*
X130174060Y-111200828D01*
X130174060Y-111200828D02*
X130531203Y-111200828D01*
X138873240Y-121039320D02*
X138714160Y-121198410D01*
X159014650Y-95036330D02*
X158855570Y-95115880D01*
D11*
X80336730Y-93070090D02*
X80232590Y-93016750D01*
D10*
X138189600Y-84378820D02*
X138348680Y-84219710D01*
X132795980Y-120641590D02*
X132875540Y-120402950D01*
D12*
X153028300Y-73545060D02*
X153255580Y-73658700D01*
D10*
X137139740Y-87692710D02*
X137298850Y-87613150D01*
X131634620Y-120164320D02*
X131475540Y-120243870D01*
X154130640Y-88090420D02*
X154130640Y-87931340D01*
X134896560Y-88090420D02*
X134896560Y-88249530D01*
X137998230Y-120164320D02*
X137998230Y-121437040D01*
D11*
X87572880Y-89749500D02*
X87623680Y-89594560D01*
D10*
X122185190Y-81224060D02*
X122026110Y-81303620D01*
D11*
X86851550Y-78200140D02*
X87489090Y-78474460D01*
D10*
X152714660Y-81701330D02*
X152555580Y-81780880D01*
D11*
X86899810Y-107403080D02*
X87001410Y-107352280D01*
X87313800Y-89906980D02*
X87468740Y-89853640D01*
D10*
X127912450Y-91404310D02*
X127753350Y-91563390D01*
X131444090Y-84458370D02*
X131444090Y-85253820D01*
X148498820Y-87692710D02*
X148339720Y-87613150D01*
D11*
X86534020Y-86028400D02*
X87623680Y-86028400D01*
D10*
X144632870Y-94320430D02*
X144632870Y-95115880D01*
X147416910Y-84219710D02*
X147576020Y-84378820D01*
D12*
X158051030Y-75022350D02*
X157823750Y-75135960D01*
D10*
X130091980Y-94479510D02*
X130091980Y-94638620D01*
D11*
X86534050Y-77356860D02*
X86534050Y-77854700D01*
D10*
X123473880Y-87613150D02*
X123712510Y-87613150D01*
X142628250Y-84617450D02*
X142628250Y-84776560D01*
X148339670Y-92199760D02*
X148498770Y-92120210D01*
X121819270Y-94797700D02*
X121898830Y-94718140D01*
D11*
X87572880Y-94931100D02*
X87623680Y-94773620D01*
X87364600Y-84616160D02*
X87209660Y-84616160D01*
D10*
X127037450Y-90767940D02*
X127196530Y-90608860D01*
D12*
X159255570Y-72976890D02*
X159141930Y-73204170D01*
D10*
X138189600Y-84140190D02*
X138189600Y-85253820D01*
X136089700Y-80746800D02*
X136248780Y-80905880D01*
X136582900Y-94479510D02*
X136582900Y-94320430D01*
X131571530Y-94479510D02*
X131571530Y-94638620D01*
X123887440Y-91404310D02*
X124046550Y-91563390D01*
X147655540Y-84617450D02*
X147655540Y-84776560D01*
D11*
X80234320Y-80718980D02*
X80076840Y-80873920D01*
D10*
X159189100Y-120164320D02*
X158870940Y-121277960D01*
X147019200Y-84140190D02*
X147257830Y-84140190D01*
X151155590Y-94877250D02*
X151235110Y-95036330D01*
X156978310Y-81780880D02*
X156819200Y-81780880D01*
X132255680Y-87613150D02*
X132255680Y-88726790D01*
D12*
X152687380Y-73545060D02*
X153028300Y-73545060D01*
D10*
X132382880Y-80110430D02*
X132382880Y-81780880D01*
X141371510Y-95115880D02*
X141291950Y-95036330D01*
D11*
X80908230Y-89755390D02*
X81012370Y-89806190D01*
D10*
X124046550Y-90608860D02*
X123887440Y-90767940D01*
D12*
X145778330Y-75022350D02*
X145551050Y-74795070D01*
X159710100Y-72749610D02*
X159369210Y-72863250D01*
D11*
X86534020Y-103282620D02*
X86584820Y-103440100D01*
X87077560Y-79391400D02*
X87077560Y-80209280D01*
D10*
X135230070Y-121039320D02*
X135070990Y-121198410D01*
X142389620Y-84219710D02*
X142548700Y-84378820D01*
D11*
X80128450Y-86494030D02*
X80232590Y-86598170D01*
D10*
X143757860Y-80667240D02*
X143519230Y-80667240D01*
D11*
X80076840Y-81475900D02*
X80076840Y-81684180D01*
D10*
X134260220Y-87613150D02*
X134498850Y-87613150D01*
X126942000Y-80667240D02*
X126942000Y-81780880D01*
D11*
X80987050Y-76100380D02*
X80941330Y-76054650D01*
X80128450Y-89910330D02*
X80232590Y-89806190D01*
D10*
X147941950Y-92120210D02*
X148101030Y-92199760D01*
X140194140Y-84776560D02*
X140273690Y-85015190D01*
X154273210Y-120164320D02*
X154511840Y-120164320D01*
X138714160Y-120243870D02*
X138873240Y-120402950D01*
D11*
X86534020Y-84959060D02*
X87623680Y-84959060D01*
D10*
X121723820Y-90529300D02*
X120848820Y-91642940D01*
D11*
X80649150Y-88185670D02*
X80649150Y-87718310D01*
D10*
X135214700Y-90529300D02*
X135373810Y-90608860D01*
D11*
X80440870Y-88995930D02*
X80494210Y-88840990D01*
X80077650Y-119465770D02*
X80077650Y-118945070D01*
X87397650Y-122591720D02*
X87306210Y-122546010D01*
D10*
X154289720Y-87692710D02*
X154448800Y-87613150D01*
D11*
X81012370Y-83885450D02*
X81116510Y-83989590D01*
D10*
X148673780Y-93445430D02*
X148753310Y-93365870D01*
X144266900Y-83583370D02*
X143550980Y-83583370D01*
X153191400Y-121198410D02*
X153032320Y-121277960D01*
X143996500Y-90847490D02*
X143996500Y-91642940D01*
X157853340Y-88249530D02*
X157773810Y-88408610D01*
D13*
X86897170Y-110727490D02*
X86988610Y-110818930D01*
D10*
X123378380Y-94240880D02*
X123457900Y-94479510D01*
D11*
X80440870Y-110748490D02*
X80494210Y-110903430D01*
X80494210Y-99402310D02*
X80753290Y-99402310D01*
D10*
X146112470Y-87613150D02*
X146112470Y-88726790D01*
D12*
X125891990Y-74226870D02*
X125891990Y-74454150D01*
D10*
X148116400Y-120800690D02*
X148036870Y-121039320D01*
D12*
X156914660Y-74226870D02*
X157028300Y-73885980D01*
D10*
X141116420Y-121277960D02*
X140957330Y-121277960D01*
X147830600Y-95036330D02*
X147671490Y-95115880D01*
D12*
X131551080Y-73885980D02*
X131551080Y-74340510D01*
D11*
X86587390Y-105762240D02*
X86691530Y-105658100D01*
D10*
X139335190Y-87931340D02*
X139096560Y-87692710D01*
X147480050Y-120164320D02*
X147718690Y-120164320D01*
D11*
X86950580Y-100727380D02*
X87209660Y-100727380D01*
X80494210Y-119412430D02*
X80595810Y-119516570D01*
D10*
X134355060Y-120402950D02*
X134514170Y-120243870D01*
D11*
X80440900Y-107835130D02*
X81167340Y-107522710D01*
D10*
X122248810Y-91165670D02*
X122248810Y-91006570D01*
X123473880Y-88726790D02*
X123712510Y-88726790D01*
X153860130Y-85174270D02*
X153701050Y-85253820D01*
D11*
X80758450Y-76646470D02*
X80895610Y-76600760D01*
X80336730Y-97261090D02*
X80232590Y-97207750D01*
D10*
X158139650Y-90608860D02*
X158060120Y-90847490D01*
X138969250Y-91642940D02*
X138730620Y-91642940D01*
X123346550Y-81144510D02*
X123426100Y-80905880D01*
D11*
X80128450Y-92912610D02*
X80077650Y-92811010D01*
X80440870Y-91137150D02*
X80440870Y-91292090D01*
D12*
X151141950Y-73658700D02*
X150914670Y-73545060D01*
D10*
X136137480Y-88647240D02*
X135978400Y-88726790D01*
D11*
X81116510Y-92498590D02*
X81167310Y-92602730D01*
D10*
X157455570Y-90052040D02*
X157376020Y-89972480D01*
D11*
X87623680Y-98103560D02*
X87623680Y-97946080D01*
X87209660Y-103648380D02*
X87364600Y-103595040D01*
D10*
X159698750Y-80269530D02*
X159619200Y-80428610D01*
X148036870Y-121039320D02*
X147877770Y-121198410D01*
D11*
X80440870Y-112026110D02*
X81167310Y-111713690D01*
D10*
X122487450Y-90608860D02*
X122646550Y-90529300D01*
D11*
X86688960Y-92322520D02*
X86793100Y-92269180D01*
X80232590Y-89806190D02*
X80336730Y-89755390D01*
D10*
X152316950Y-80667240D02*
X152555580Y-80667240D01*
X139636890Y-121198410D02*
X139477780Y-121039320D01*
D11*
X80486670Y-76555040D02*
X80532390Y-76600760D01*
D10*
X160207890Y-83583370D02*
X160207890Y-85253820D01*
D11*
X86534050Y-107144000D02*
X86587390Y-107298940D01*
D10*
X135421580Y-87056330D02*
X135421580Y-88726790D01*
X149230600Y-81701330D02*
X149071490Y-81780880D01*
X155498780Y-84458370D02*
X155498780Y-85253820D01*
X159046530Y-84697010D02*
X158887420Y-84776560D01*
D11*
X80077650Y-94482330D02*
X80077650Y-94845550D01*
D10*
X137537480Y-88726790D02*
X137298850Y-88726790D01*
X157455570Y-80110430D02*
X157455570Y-81303620D01*
D11*
X81116510Y-92912610D02*
X81012370Y-93016750D01*
D10*
X140401050Y-80985430D02*
X140401050Y-81780880D01*
X159094200Y-80349060D02*
X159094200Y-80508160D01*
X160350460Y-120164320D02*
X160668650Y-121277960D01*
X135309620Y-120641590D02*
X135309620Y-120800690D01*
X135214700Y-91642940D02*
X134976070Y-91642940D01*
D11*
X80076960Y-123118520D02*
X81031520Y-123118520D01*
X81032770Y-77700570D02*
X81032770Y-77563410D01*
D10*
X122821560Y-95115880D02*
X122662450Y-95036330D01*
D11*
X80595810Y-88340610D02*
X80649150Y-88185670D01*
D10*
X155530580Y-90608860D02*
X155689670Y-90529300D01*
X134260220Y-88726790D02*
X134101110Y-88647240D01*
X152380580Y-84219710D02*
X152539660Y-84378820D01*
X156851030Y-89972480D02*
X156851030Y-91642940D01*
D11*
X81116510Y-110903430D02*
X81167310Y-110748490D01*
D10*
X152316950Y-81780880D02*
X152157850Y-81701330D01*
D11*
X87397650Y-77311140D02*
X87306210Y-77265430D01*
D10*
X142755600Y-81144510D02*
X142755600Y-81303620D01*
X146191940Y-95036330D02*
X146032860Y-94877250D01*
X133162300Y-85174270D02*
X133003200Y-85253820D01*
D13*
X87351830Y-110818930D02*
X87443270Y-110727490D01*
D11*
X86688960Y-117450740D02*
X87623680Y-117450740D01*
D10*
X127753350Y-91563390D02*
X127594270Y-91642940D01*
D11*
X80212350Y-75300280D02*
X81032770Y-75300280D01*
X86897220Y-82154930D02*
X86897220Y-82292090D01*
D10*
X157248790Y-87056330D02*
X157169270Y-87135890D01*
X124205630Y-91642940D02*
X124444260Y-91642940D01*
X155928350Y-87613150D02*
X156166980Y-87613150D01*
X152141950Y-90608860D02*
X152221500Y-90767940D01*
D12*
X125778370Y-74795070D02*
X125551090Y-75022350D01*
X123664740Y-73545060D02*
X122982920Y-75135960D01*
X159141930Y-73204170D02*
X159141930Y-73545060D01*
D10*
X151426050Y-90608860D02*
X151664680Y-90529300D01*
X139287410Y-90767940D02*
X139366960Y-91006570D01*
X135421530Y-94002240D02*
X135660160Y-94002240D01*
X158616940Y-94002240D02*
X158855570Y-94002240D01*
X149739660Y-90529300D02*
X149501030Y-90529300D01*
X129789720Y-81701330D02*
X129630640Y-81542250D01*
X155928350Y-88726790D02*
X155769270Y-88647240D01*
D11*
X80336730Y-95157970D02*
X80494210Y-95211310D01*
D10*
X137935190Y-88090420D02*
X137935190Y-88249530D01*
X140210190Y-87931340D02*
X139971560Y-87692710D01*
X160414650Y-94002240D02*
X160176020Y-94002240D01*
X131460220Y-87692710D02*
X131380670Y-87931340D01*
X153144230Y-84378820D02*
X153303310Y-84219710D01*
X149516400Y-120482510D02*
X149516400Y-121277960D01*
X154511840Y-120164320D02*
X154670950Y-120243870D01*
D11*
X80077680Y-106765790D02*
X80077680Y-106245100D01*
X86534020Y-94773620D02*
X86584820Y-94931100D01*
D10*
X154019230Y-85015190D02*
X153860130Y-85174270D01*
X131110160Y-80110430D02*
X131746530Y-81780880D01*
D11*
X80440950Y-77654860D02*
X80440950Y-77792020D01*
X87468740Y-86653240D02*
X87572880Y-86549100D01*
D10*
X135262430Y-95036330D02*
X135103350Y-94877250D01*
X130776080Y-94081800D02*
X130935160Y-94002240D01*
D12*
X157823750Y-75135960D02*
X157482850Y-75135960D01*
D10*
X149660190Y-88408610D02*
X149580630Y-88647240D01*
D11*
X87214770Y-77900430D02*
X87351930Y-77854700D01*
D10*
X135421530Y-95115880D02*
X135262430Y-95036330D01*
X144791950Y-80746800D02*
X144632870Y-80667240D01*
X138905500Y-85174270D02*
X138746420Y-85253820D01*
X156755020Y-120164320D02*
X157073200Y-121277960D01*
X149580560Y-83583370D02*
X149660110Y-83503810D01*
X141291950Y-94081800D02*
X141371510Y-94002240D01*
X155769270Y-87692710D02*
X155928350Y-87613150D01*
D11*
X87443320Y-81928860D02*
X87397600Y-81883140D01*
X86534020Y-86391620D02*
X86584820Y-86549100D01*
X86942940Y-81055110D02*
X86988660Y-81100830D01*
X80076840Y-81684180D02*
X80130180Y-81788320D01*
D10*
X147751050Y-80746800D02*
X147910130Y-80905880D01*
D11*
X87572880Y-98258500D02*
X87623680Y-98103560D01*
D10*
X158219200Y-94638620D02*
X158219200Y-94479510D01*
X135978400Y-87613150D02*
X136137480Y-87692710D01*
X157057840Y-94002240D02*
X156739650Y-95115880D01*
D11*
X81012370Y-97207750D02*
X80908230Y-97261090D01*
D10*
X142516970Y-80746800D02*
X142676050Y-80905880D01*
X149580630Y-88647240D02*
X149421550Y-88726790D01*
D11*
X80232590Y-92394450D02*
X80336730Y-92341110D01*
D10*
X142087410Y-93524980D02*
X142246510Y-93445430D01*
X137139690Y-94002240D02*
X137298790Y-94081800D01*
D11*
X86950580Y-92218380D02*
X87209660Y-92218380D01*
D10*
X153350480Y-121039320D02*
X153191400Y-121198410D01*
D12*
X143891950Y-73545060D02*
X143664700Y-73658700D01*
D11*
X87572880Y-89282140D02*
X87522080Y-89231340D01*
X81167310Y-110748490D02*
X81167310Y-110591010D01*
D10*
X158537390Y-90529300D02*
X158298750Y-90529300D01*
X158807870Y-85015190D02*
X158887420Y-85174270D01*
D11*
X80440870Y-110591010D02*
X80440870Y-110748490D01*
D10*
X129551130Y-87135890D02*
X129471580Y-87056330D01*
X131173810Y-95115880D02*
X130935160Y-95115880D01*
D12*
X127891980Y-74681430D02*
X127778370Y-75022350D01*
D10*
X131921390Y-84140190D02*
X131682730Y-84140190D01*
X128310170Y-81701330D02*
X128151090Y-81542250D01*
X155976050Y-84140190D02*
X155737420Y-84140190D01*
X121421560Y-80985430D02*
X121182900Y-80746800D01*
X132032890Y-90847490D02*
X132032890Y-91642940D01*
X123282900Y-91165670D02*
X123203370Y-91404310D01*
D11*
X80077650Y-115020770D02*
X80077650Y-114500070D01*
D10*
X129296520Y-94081800D02*
X129455630Y-94002240D01*
X132907900Y-90529300D02*
X132907900Y-91642940D01*
X158123800Y-83583370D02*
X158203330Y-83503810D01*
X136677790Y-120243870D02*
X136836900Y-120164320D01*
X124619270Y-95115880D02*
X124380630Y-95115880D01*
D11*
X86688960Y-83940520D02*
X86793100Y-83887180D01*
X87156320Y-112665380D02*
X87156320Y-113600100D01*
X87623680Y-86391620D02*
X87623680Y-86028400D01*
X86897240Y-97946080D02*
X86897240Y-98103560D01*
D10*
X123346550Y-81303620D02*
X123346550Y-81144510D01*
X123060190Y-94002240D02*
X123219270Y-94081800D01*
D11*
X80077650Y-84903990D02*
X81167310Y-85630430D01*
X81012370Y-100903450D02*
X81116510Y-101007590D01*
D12*
X147028320Y-74454150D02*
X146914680Y-74795070D01*
D11*
X81065710Y-110385270D02*
X80961570Y-110331930D01*
X87572910Y-106176260D02*
X87471310Y-106280400D01*
D10*
X147320950Y-121198410D02*
X147161870Y-121039320D01*
X138412430Y-90767940D02*
X138571510Y-90608860D01*
D11*
X80128450Y-83989590D02*
X80232590Y-83885450D01*
D10*
X141610140Y-94240880D02*
X141769250Y-94638620D01*
X150916400Y-120164320D02*
X151393660Y-121277960D01*
D11*
X86638160Y-115169820D02*
X86742300Y-115220620D01*
D10*
X130282730Y-85253820D02*
X130123650Y-85174270D01*
X155610160Y-87851790D02*
X155769270Y-87692710D01*
D11*
X80857430Y-119569910D02*
X81012370Y-119516570D01*
D10*
X151107910Y-87613150D02*
X151426100Y-88726790D01*
X146175990Y-84935640D02*
X146096440Y-85015190D01*
X158696470Y-90608860D02*
X158537390Y-90529300D01*
D11*
X80908230Y-83832110D02*
X81012370Y-83885450D01*
X86897270Y-77582930D02*
X86897270Y-77720090D01*
D10*
X136901110Y-88090420D02*
X136980660Y-87851790D01*
D11*
X81167310Y-90014470D02*
X81167310Y-90222750D01*
D10*
X149469230Y-81303620D02*
X149389680Y-81542250D01*
D11*
X87351880Y-82426700D02*
X87443320Y-82337800D01*
X87623680Y-92530800D02*
X87623680Y-92739080D01*
D10*
X122487450Y-91563390D02*
X122328370Y-91404310D01*
X148832860Y-80667240D02*
X149071490Y-80667240D01*
D13*
X86533950Y-111164370D02*
X87488990Y-111527590D01*
D10*
X137537430Y-94479510D02*
X136582900Y-94479510D01*
X156485170Y-88488160D02*
X156326090Y-88647240D01*
X139541970Y-94479510D02*
X139541970Y-94638620D01*
X142087410Y-95036330D02*
X142246510Y-95115880D01*
D11*
X81167310Y-101111730D02*
X81167310Y-101320010D01*
D10*
X139636890Y-120243870D02*
X139795970Y-120164320D01*
D11*
X81167310Y-119100010D02*
X81116510Y-118945070D01*
D10*
X122503370Y-81780880D02*
X122742000Y-81701330D01*
D11*
X80077730Y-76600760D02*
X80440950Y-76326440D01*
D10*
X132032360Y-120243870D02*
X131873250Y-120164320D01*
D12*
X143437420Y-73885980D02*
X143323780Y-74226870D01*
D11*
X81065740Y-106194290D02*
X80961590Y-106140960D01*
D10*
X135070990Y-121198410D02*
X134911880Y-121277960D01*
X133830070Y-120800690D02*
X133750520Y-121039320D01*
X124857900Y-94002240D02*
X124857900Y-94797700D01*
X155816940Y-94877250D02*
X155657840Y-95036330D01*
X142007880Y-93843160D02*
X142007880Y-93684060D01*
X158696470Y-80110430D02*
X158935100Y-80189980D01*
X150519220Y-81303620D02*
X150598770Y-81542250D01*
D11*
X87489090Y-124237640D02*
X87489090Y-124100480D01*
D10*
X148753310Y-93524980D02*
X148673780Y-93445430D01*
D11*
X87489090Y-77628640D02*
X87489090Y-77491480D01*
D12*
X144460150Y-75022350D02*
X144687400Y-74795070D01*
D10*
X156326040Y-91006570D02*
X155371480Y-91006570D01*
D11*
X86584820Y-119434480D02*
X86638160Y-119487820D01*
X80077650Y-84093730D02*
X80128450Y-83989590D01*
D10*
X146907870Y-94240880D02*
X146987400Y-94479510D01*
X122885180Y-91642940D02*
X122646550Y-91642940D01*
X155896470Y-94479510D02*
X155896470Y-94638620D01*
X150741920Y-84140190D02*
X150503290Y-84140190D01*
X137473240Y-120641590D02*
X137473240Y-120800690D01*
X125430700Y-87931340D02*
X125430700Y-88726790D01*
D12*
X157028300Y-73885980D02*
X157255580Y-73658700D01*
D10*
X137489700Y-80667240D02*
X136932880Y-80667240D01*
D11*
X86897270Y-123000670D02*
X86942990Y-123092110D01*
D10*
X159094200Y-80508160D02*
X159014650Y-80667240D01*
X142357870Y-81780880D02*
X142119230Y-81780880D01*
D12*
X159369210Y-73885980D02*
X159710100Y-73999620D01*
X157255580Y-75022350D02*
X157028300Y-74795070D01*
D10*
X155610160Y-87056330D02*
X155610160Y-88726790D01*
X139669150Y-83583370D02*
X139669150Y-85253820D01*
D11*
X86851550Y-125355250D02*
X87489090Y-125083460D01*
X80857430Y-111060910D02*
X81012370Y-111007570D01*
D10*
X155578310Y-84219710D02*
X155498780Y-84458370D01*
X154670950Y-121198410D02*
X154511840Y-121277960D01*
X139096560Y-87692710D02*
X138937480Y-87613150D01*
X158330630Y-88726790D02*
X158569260Y-88647240D01*
X130839550Y-85015190D02*
X130680470Y-85174270D01*
D11*
X86534000Y-81928860D02*
X86534000Y-82426700D01*
D10*
X155371480Y-90847490D02*
X155451030Y-90688410D01*
D11*
X80494210Y-88840990D02*
X80595810Y-88787650D01*
D10*
X141960200Y-87613150D02*
X142278390Y-88726790D01*
X158855570Y-94002240D02*
X159014650Y-94081800D01*
X135819240Y-95036330D02*
X135660160Y-95115880D01*
X156326040Y-91165670D02*
X156246480Y-91404310D01*
D11*
X86897240Y-115616860D02*
X87623680Y-115929280D01*
D10*
X145157330Y-120164320D02*
X144680060Y-121277960D01*
D11*
X87623680Y-84357080D02*
X87572880Y-84458680D01*
X86742300Y-119538620D02*
X86846440Y-119538620D01*
D10*
X135612440Y-91006570D02*
X135612440Y-91165670D01*
X146032860Y-90529300D02*
X145476050Y-90529300D01*
D12*
X125551090Y-73658700D02*
X125778370Y-73885980D01*
D10*
X134896560Y-88249530D02*
X134817040Y-88488160D01*
D12*
X145437410Y-74454150D02*
X145437410Y-72749610D01*
D10*
X159253290Y-94638620D02*
X159173760Y-94877250D01*
D11*
X86897240Y-120557160D02*
X87623680Y-120247280D01*
D10*
X124301080Y-81542250D02*
X124142000Y-81701330D01*
D11*
X81116510Y-90326890D02*
X81012370Y-90431030D01*
D12*
X124755640Y-73658700D02*
X124982920Y-73545060D01*
D10*
X143391950Y-90767940D02*
X143471500Y-91006570D01*
D11*
X80494240Y-106245100D02*
X80440900Y-106400040D01*
D13*
X87397550Y-110272830D02*
X87306110Y-110227110D01*
D10*
X151870950Y-120164320D02*
X151393660Y-121277960D01*
X149055570Y-84140190D02*
X149055570Y-85253820D01*
X147035120Y-80905880D02*
X147194230Y-80746800D01*
X140034600Y-120164320D02*
X140193680Y-120243870D01*
D11*
X87572910Y-105762240D02*
X87626250Y-105866380D01*
D10*
X143360150Y-80746800D02*
X143280600Y-80985430D01*
X123457900Y-94479510D02*
X123457900Y-94638620D01*
X159014650Y-94081800D02*
X159173760Y-94240880D01*
D11*
X87209660Y-98415980D02*
X87313800Y-98415980D01*
X86846440Y-115220620D02*
X86950580Y-115169820D01*
D10*
X148514670Y-80667240D02*
X148514670Y-81780880D01*
X150391400Y-120482510D02*
X150152770Y-120243870D01*
D11*
X80986060Y-123873050D02*
X81031520Y-123736700D01*
D10*
X146351050Y-94002240D02*
X146589680Y-94002240D01*
X131157350Y-120243870D02*
X130998250Y-120164320D01*
X144155600Y-80985430D02*
X144155600Y-81780880D01*
D11*
X80804090Y-89204210D02*
X80857430Y-89308350D01*
D10*
X128707910Y-80667240D02*
X128866990Y-80746800D01*
X139541970Y-94638620D02*
X139462420Y-94877250D01*
X160048790Y-87931340D02*
X159810150Y-87692710D01*
X154337390Y-94240880D02*
X154178310Y-94081800D01*
D11*
X80285930Y-88444750D02*
X80440870Y-88444750D01*
X87443370Y-76028450D02*
X87397650Y-75982720D01*
D10*
X141801050Y-81144510D02*
X141801050Y-80985430D01*
X146701010Y-84617450D02*
X146701010Y-84458370D01*
D11*
X87443370Y-77356860D02*
X87397650Y-77311140D01*
X80908230Y-90481830D02*
X80753290Y-90535170D01*
X80804240Y-121545800D02*
X80895150Y-121591240D01*
D10*
X149739660Y-83583370D02*
X149660110Y-83662890D01*
D11*
X80440060Y-82911000D02*
X81169040Y-82598580D01*
D10*
X140194140Y-84617450D02*
X140194140Y-84776560D01*
X139573850Y-87613150D02*
X139414740Y-87692710D01*
D11*
X87367170Y-106333740D02*
X87209690Y-106333740D01*
D10*
X160732840Y-94002240D02*
X160732840Y-95672700D01*
X121978380Y-94797700D02*
X121898830Y-94877250D01*
X145317020Y-87692710D02*
X145237460Y-87931340D01*
D11*
X81167310Y-96793730D02*
X81167310Y-97002010D01*
D10*
X139462420Y-94877250D02*
X139303340Y-95036330D01*
X123585180Y-81701330D02*
X123426100Y-81542250D01*
X137028230Y-84140190D02*
X137266870Y-84140190D01*
X122582920Y-95513600D02*
X122662450Y-95593150D01*
X144266900Y-83583370D02*
X144266900Y-85253820D01*
X135580660Y-88647240D02*
X135421580Y-88488160D01*
D11*
X86534050Y-122637450D02*
X86534050Y-123137830D01*
D10*
X129996520Y-91642940D02*
X129837440Y-91563390D01*
X143391950Y-91404310D02*
X143232870Y-91563390D01*
X151982840Y-85253820D02*
X151823760Y-85174270D01*
D11*
X80232590Y-109521670D02*
X81167310Y-109521670D01*
D10*
X147576020Y-84378820D02*
X147655540Y-84617450D01*
X144712470Y-88249530D02*
X144632920Y-88488160D01*
X155085170Y-88090420D02*
X154130640Y-88090420D01*
D11*
X86534020Y-94067500D02*
X87623680Y-94067500D01*
D10*
X158060120Y-90847490D02*
X158060120Y-91642940D01*
X122662450Y-94081800D02*
X122821560Y-94002240D01*
D12*
X125323810Y-75135960D02*
X124982920Y-75135960D01*
D10*
X138571510Y-90608860D02*
X138730620Y-90529300D01*
X144202770Y-120164320D02*
X144680060Y-121277960D01*
X142246510Y-95115880D02*
X142564700Y-95115880D01*
D11*
X87306210Y-76874270D02*
X87351930Y-76919980D01*
X80077650Y-102648430D02*
X81167310Y-102648430D01*
D10*
X149389680Y-81542250D02*
X149230600Y-81701330D01*
X160986840Y-120164320D02*
X160668650Y-121277960D01*
X139128330Y-91563390D02*
X138969250Y-91642940D01*
X139462420Y-94240880D02*
X139541970Y-94479510D01*
X157376020Y-89972480D02*
X157455570Y-89892930D01*
D12*
X143323780Y-74454150D02*
X143437420Y-74795070D01*
D10*
X151235110Y-94638620D02*
X151155590Y-94797700D01*
D11*
X87489040Y-80872220D02*
X87489040Y-80737610D01*
D10*
X150757850Y-80746800D02*
X150598770Y-80905880D01*
X154591930Y-80110430D02*
X154591930Y-81780880D01*
X158298750Y-80985430D02*
X158139650Y-81064980D01*
X144394230Y-80667240D02*
X144235130Y-80746800D01*
D12*
X147028320Y-72749610D02*
X147028320Y-74454150D01*
D10*
X138571510Y-91563390D02*
X138412430Y-91404310D01*
D11*
X87123330Y-124509430D02*
X87214770Y-124509430D01*
D10*
X133193700Y-121277960D02*
X133034620Y-121198410D01*
X150630590Y-94002240D02*
X150312410Y-95115880D01*
X153637400Y-80826350D02*
X153876030Y-80905880D01*
D12*
X124528360Y-73885980D02*
X124755640Y-73658700D01*
D10*
X141593680Y-120164320D02*
X141036890Y-120164320D01*
D11*
X81012370Y-119516570D02*
X81116510Y-119412430D01*
D10*
X149994220Y-80110430D02*
X149994220Y-81780880D01*
X122742000Y-81701330D02*
X122821560Y-81542250D01*
X137393690Y-120402950D02*
X137473240Y-120641590D01*
D11*
X87105550Y-107144000D02*
X87105550Y-106676640D01*
D10*
X130044100Y-84299270D02*
X130123650Y-84219710D01*
X150598770Y-80905880D02*
X150519220Y-81144510D01*
D12*
X158051030Y-73658700D02*
X158278310Y-73885980D01*
D11*
X81167340Y-106400040D02*
X81116540Y-106245100D01*
D10*
X142835130Y-90529300D02*
X143073790Y-90529300D01*
X148148760Y-94002240D02*
X147591940Y-94002240D01*
X126305620Y-80667240D02*
X126146540Y-80746800D01*
X147161870Y-120164320D02*
X147161870Y-121277960D01*
X141371510Y-94002240D02*
X141451060Y-94002240D01*
X147782870Y-90529300D02*
X147782870Y-91802020D01*
D11*
X86988660Y-81100830D02*
X87123280Y-81146540D01*
D10*
X128707910Y-81780880D02*
X128469270Y-81780880D01*
X155657840Y-94081800D02*
X155816940Y-94240880D01*
X135660160Y-95115880D02*
X135421530Y-95115880D01*
D11*
X80440950Y-76326440D02*
X80440950Y-76463600D01*
D10*
X147353310Y-81780880D02*
X147194230Y-81701330D01*
X128469270Y-81780880D02*
X128310170Y-81701330D01*
X145555600Y-91642940D02*
X145396490Y-91642940D01*
X158298750Y-94877250D02*
X158219200Y-94638620D01*
X158060120Y-81144510D02*
X157980570Y-81303620D01*
X148101030Y-91642940D02*
X147941950Y-91563390D01*
X160653330Y-87135890D02*
X160573810Y-87056330D01*
D11*
X80849890Y-77037630D02*
X80804170Y-76991910D01*
D10*
X155689670Y-90529300D02*
X155928300Y-90529300D01*
D12*
X125323810Y-73545060D02*
X125551090Y-73658700D01*
D11*
X86534000Y-82426700D02*
X86897220Y-82154930D01*
D10*
X137298850Y-88726790D02*
X137139740Y-88647240D01*
X141355050Y-119607500D02*
X141355050Y-120959770D01*
X130012450Y-94877250D02*
X129853340Y-95036330D01*
X131395990Y-120482510D02*
X131157350Y-120243870D01*
D12*
X136164710Y-75022350D02*
X136278350Y-74795070D01*
D10*
X134101060Y-95115880D02*
X133941980Y-95115880D01*
X127148850Y-88726790D02*
X126989770Y-88647240D01*
D11*
X80494210Y-89308350D02*
X80440870Y-89153410D01*
D10*
X145841400Y-120243870D02*
X146000500Y-120164320D01*
D11*
X87489090Y-76300220D02*
X87489090Y-76165610D01*
D10*
X130282730Y-84140190D02*
X130521360Y-84140190D01*
X130521360Y-84140190D02*
X130680470Y-84219710D01*
D11*
X87001410Y-107352280D02*
X87054750Y-107298940D01*
D10*
X160016940Y-80110430D02*
X159778300Y-80189980D01*
X151552770Y-121596140D02*
X151711850Y-121755220D01*
X155530580Y-91563390D02*
X155371480Y-91404310D01*
D11*
X80667010Y-77972360D02*
X80758450Y-77972360D01*
X86897270Y-77720090D02*
X86942990Y-77811530D01*
D10*
X142596550Y-87613150D02*
X142914740Y-88726790D01*
X144314730Y-87613150D02*
X144473840Y-87692710D01*
X143598220Y-119687050D02*
X143518700Y-119607500D01*
X155101020Y-95036330D02*
X154941940Y-94877250D01*
D11*
X80987050Y-77428790D02*
X80941330Y-77383070D01*
D10*
X140687410Y-90927040D02*
X140528330Y-91006570D01*
D11*
X80232590Y-90431030D02*
X80128450Y-90326890D01*
D10*
X139795970Y-120164320D02*
X140034600Y-120164320D01*
D11*
X80128450Y-96689590D02*
X80232590Y-96585450D01*
D10*
X151139660Y-83583370D02*
X151139660Y-85253820D01*
X156087380Y-90608860D02*
X156246480Y-90767940D01*
D11*
X86668620Y-79800350D02*
X87489040Y-79800350D01*
X80336730Y-101579090D02*
X80232590Y-101525750D01*
X87623680Y-103282620D02*
X87623680Y-102919400D01*
D12*
X121323820Y-72522350D02*
X121096540Y-72863250D01*
D10*
X129964540Y-84617450D02*
X129964540Y-84458370D01*
X158935100Y-80746800D02*
X158776020Y-80826350D01*
X136741980Y-95036330D02*
X136582900Y-94877250D01*
X154687430Y-88726790D02*
X154448800Y-88726790D01*
X130776080Y-95036330D02*
X130616990Y-94877250D01*
X147671490Y-95115880D02*
X147512410Y-95115880D01*
X159857830Y-94877250D02*
X160016940Y-95036330D01*
X135580660Y-87692710D02*
X135739740Y-87613150D01*
D12*
X157482850Y-75135960D02*
X157255580Y-75022350D01*
D10*
X135930620Y-80667240D02*
X136089700Y-80746800D01*
D11*
X81167310Y-86336550D02*
X81167310Y-85973330D01*
X87468740Y-89853640D02*
X87572880Y-89749500D01*
D10*
X142676050Y-91563390D02*
X142516970Y-91404310D01*
X122503370Y-94240880D02*
X122662450Y-94081800D01*
D12*
X131210160Y-75363240D02*
X130982910Y-75704160D01*
D11*
X81032770Y-76372150D02*
X81032770Y-76237540D01*
D10*
X129837440Y-91563390D02*
X129678360Y-91404310D01*
D11*
X87123330Y-76574540D02*
X87214770Y-76574540D01*
X86534000Y-80600450D02*
X86534000Y-81100830D01*
D10*
X146510130Y-81303620D02*
X146430600Y-81542250D01*
D11*
X80961570Y-89359150D02*
X81012370Y-89359150D01*
X86897240Y-119934860D02*
X87623680Y-120247280D01*
X86742300Y-115220620D02*
X86846440Y-115220620D01*
D12*
X153028300Y-75135960D02*
X152687380Y-75135960D01*
D11*
X87156320Y-96409380D02*
X87156320Y-97344100D01*
X87364600Y-95086040D02*
X87468740Y-95035240D01*
X81167310Y-92811010D02*
X81116510Y-92912610D01*
D10*
X148101080Y-87613150D02*
X147942000Y-87692710D01*
X138539740Y-87692710D02*
X138460210Y-87931340D01*
D12*
X156914660Y-74454150D02*
X156914660Y-74226870D01*
D11*
X80440900Y-106557520D02*
X80494240Y-106712460D01*
D10*
X120164740Y-91324750D02*
X120244270Y-91404310D01*
D12*
X157255580Y-73658700D02*
X157482850Y-73545060D01*
D10*
X138952790Y-120641590D02*
X138952790Y-120800690D01*
X130123650Y-84219710D02*
X130282730Y-84140190D01*
D12*
X121551100Y-72295070D02*
X121323820Y-72522350D01*
D10*
X126305620Y-95115880D02*
X126544260Y-95115880D01*
D11*
X80395230Y-78272070D02*
X81032770Y-78546390D01*
D10*
X141960150Y-81701330D02*
X141801050Y-81542250D01*
X123044260Y-91563390D02*
X122885180Y-91642940D01*
X152634580Y-120243870D02*
X152793660Y-120164320D01*
X135230500Y-84458370D02*
X135310030Y-84299270D01*
D11*
X81012370Y-89806190D02*
X81116510Y-89910330D01*
X81012370Y-86598170D02*
X81116510Y-86494030D01*
D12*
X137596510Y-75135960D02*
X137369250Y-75022350D01*
D10*
X130187430Y-81780880D02*
X129948800Y-81780880D01*
X154114130Y-121198410D02*
X153955020Y-121039320D01*
X147194230Y-80746800D02*
X147353310Y-80667240D01*
D11*
X87306210Y-123574700D02*
X87260490Y-123528980D01*
X81167310Y-114655010D02*
X81116510Y-114500070D01*
D10*
X158807870Y-84378820D02*
X158887420Y-84219710D01*
X139064600Y-84378820D02*
X139144160Y-84617450D01*
D11*
X80077650Y-98330430D02*
X81167310Y-98330430D01*
X87351930Y-76528830D02*
X87443370Y-76437380D01*
D12*
X121096540Y-75363240D02*
X121323820Y-75704160D01*
D10*
X142357870Y-80667240D02*
X142516970Y-80746800D01*
X126146540Y-94081800D02*
X125987440Y-94240880D01*
X149993660Y-120164320D02*
X149755030Y-120164320D01*
X126305680Y-87931340D02*
X126067040Y-87692710D01*
D11*
X81031520Y-123736700D02*
X81031520Y-123418520D01*
D12*
X135823790Y-73545060D02*
X136164710Y-73658700D01*
D10*
X148101030Y-92199760D02*
X148339670Y-92199760D01*
D11*
X86851500Y-83318250D02*
X87489040Y-83046460D01*
X80804240Y-122182150D02*
X80667870Y-122182150D01*
D10*
X152380580Y-85174270D02*
X152221470Y-85253820D01*
X124380630Y-81144510D02*
X124380630Y-81303620D01*
X142405590Y-94081800D02*
X142246510Y-94320430D01*
D11*
X80077650Y-87718310D02*
X81167310Y-87718310D01*
D10*
X148339720Y-87613150D02*
X148101080Y-87613150D01*
D12*
X138278350Y-74681430D02*
X138164710Y-75022350D01*
D10*
X140432340Y-120641590D02*
X140432340Y-120800690D01*
X143550980Y-83583370D02*
X143312350Y-83662890D01*
X159778300Y-94638620D02*
X159857830Y-94877250D01*
X128469320Y-88726790D02*
X128310220Y-88726790D01*
X138348680Y-84219710D02*
X138507780Y-84140190D01*
X138507780Y-84140190D02*
X138746420Y-84140190D01*
X134737430Y-90688410D02*
X134816990Y-90608860D01*
X152793660Y-120164320D02*
X153032320Y-120164320D01*
X133591440Y-120243870D02*
X133750520Y-120402950D01*
X124380630Y-95115880D02*
X124221550Y-95036330D01*
D11*
X80336730Y-92341110D02*
X80494210Y-92290310D01*
D10*
X132176070Y-94002240D02*
X132176070Y-95115880D01*
D11*
X80667870Y-121954870D02*
X80667870Y-122182150D01*
D10*
X134673250Y-120164320D02*
X134911880Y-120164320D01*
X147877770Y-121198410D02*
X147718690Y-121277960D01*
X151139660Y-84458370D02*
X150901030Y-84219710D01*
X129551130Y-86976780D02*
X129630690Y-87056330D01*
X160732840Y-90529300D02*
X160414650Y-91642940D01*
X138157340Y-121198410D02*
X137998230Y-121039320D01*
X137489700Y-90529300D02*
X137251070Y-90529300D01*
D12*
X146346500Y-75135960D02*
X146119220Y-75135960D01*
D11*
X80987050Y-76509310D02*
X81032770Y-76372150D01*
D10*
X150662400Y-89972480D02*
X150741950Y-89892930D01*
X123426100Y-80905880D02*
X123585180Y-80746800D01*
X127912450Y-90767940D02*
X127991980Y-91006570D01*
X160096460Y-90529300D02*
X159778300Y-91642940D01*
X145269240Y-94081800D02*
X145110130Y-94002240D01*
X158091970Y-88726790D02*
X158330630Y-88726790D01*
X134514170Y-121198410D02*
X134355060Y-121039320D01*
D11*
X80077650Y-93412990D02*
X81167310Y-94139430D01*
X86584820Y-92840680D02*
X86534020Y-92739080D01*
D10*
X125430700Y-87931340D02*
X125192040Y-87692710D01*
X158569260Y-88647240D02*
X158648790Y-88488160D01*
X133480490Y-84140190D02*
X132923650Y-84140190D01*
X148101030Y-90529300D02*
X148339670Y-90529300D01*
D11*
X86793100Y-100778180D02*
X86950580Y-100727380D01*
D10*
X151998770Y-80985430D02*
X152078320Y-80826350D01*
X139366960Y-91165670D02*
X139287410Y-91404310D01*
X155005620Y-88488160D02*
X154846540Y-88647240D01*
X149994220Y-94002240D02*
X149676040Y-95115880D01*
X134976070Y-91642940D02*
X134816990Y-91563390D01*
D11*
X87306160Y-81446270D02*
X87351880Y-81491980D01*
D13*
X87443270Y-110727490D02*
X87488990Y-110590330D01*
D11*
X87364600Y-83887180D02*
X87468740Y-83940520D01*
D10*
X152714660Y-80746800D02*
X152873770Y-80905880D01*
X141148700Y-84378820D02*
X140989620Y-84219710D01*
X148880050Y-120164320D02*
X148720950Y-120243870D01*
X159460120Y-90529300D02*
X159778300Y-91642940D01*
X146271500Y-80746800D02*
X146430600Y-80905880D01*
X131475540Y-120243870D02*
X131395990Y-120482510D01*
X135612440Y-91165670D02*
X135532890Y-91404310D01*
X142118700Y-120482510D02*
X142118700Y-121277960D01*
X147718690Y-120164320D02*
X147877770Y-120243870D01*
X124030700Y-87851790D02*
X123951150Y-88010890D01*
X150344210Y-84219710D02*
X150264660Y-84458370D01*
X150503370Y-86976780D02*
X150582920Y-87056330D01*
X135532890Y-81701330D02*
X135373810Y-81542250D01*
D12*
X131551080Y-74340510D02*
X131437440Y-74908710D01*
D10*
X144712420Y-94081800D02*
X144632870Y-94320430D01*
D11*
X81116510Y-83989590D02*
X81167310Y-84093730D01*
D10*
X123044260Y-90608860D02*
X123203370Y-90767940D01*
D11*
X80494210Y-114500070D02*
X80440870Y-114655010D01*
X80077650Y-102991330D02*
X80077650Y-103354550D01*
X80440870Y-111403810D02*
X81167310Y-111713690D01*
D10*
X133337440Y-94240880D02*
X133178360Y-94081800D01*
X157169270Y-87613150D02*
X157169270Y-88726790D01*
X134976070Y-90529300D02*
X135214700Y-90529300D01*
X155260130Y-95115880D02*
X155101020Y-95036330D01*
X154019210Y-94002240D02*
X153780580Y-94002240D01*
D11*
X86742330Y-107403080D02*
X86899810Y-107403080D01*
D13*
X87488990Y-110590330D02*
X87488990Y-110455710D01*
D10*
X139144160Y-84776560D02*
X139064600Y-85015190D01*
X127355630Y-91642940D02*
X127196530Y-91563390D01*
X159173760Y-94877250D02*
X159014650Y-95036330D01*
X127546540Y-80030870D02*
X127626090Y-80110430D01*
D12*
X155255580Y-73545060D02*
X154801020Y-75135960D01*
D10*
X155371480Y-91006570D02*
X155371480Y-90847490D01*
X131619300Y-87613150D02*
X131460220Y-87692710D01*
X125987440Y-94877250D02*
X126146540Y-95036330D01*
D12*
X123664740Y-75931410D02*
X123778380Y-75931410D01*
D10*
X154130640Y-87931340D02*
X154210170Y-87772260D01*
X154846540Y-87692710D02*
X155005620Y-87851790D01*
D12*
X135028340Y-73885980D02*
X135141980Y-73658700D01*
D10*
X151585130Y-91086120D02*
X151426050Y-91165670D01*
X151951040Y-94081800D02*
X152030590Y-94240880D01*
D11*
X80076960Y-121954870D02*
X80076960Y-121773050D01*
D10*
X133178360Y-94081800D02*
X133019250Y-94002240D01*
X151394220Y-94559060D02*
X151235110Y-94638620D01*
X126989770Y-88647240D02*
X126830690Y-88488160D01*
D11*
X81167310Y-84093730D02*
X81167310Y-84302010D01*
D10*
X125907960Y-87613150D02*
X125669330Y-87613150D01*
X132270990Y-120164320D02*
X132270990Y-121277960D01*
D11*
X80304240Y-121545800D02*
X80440590Y-121500330D01*
X80532390Y-77926630D02*
X80667010Y-77972360D01*
D10*
X137012440Y-90847490D02*
X137012440Y-91642940D01*
X139064600Y-85015190D02*
X138905500Y-85174270D01*
D11*
X86688960Y-86653240D02*
X86793100Y-86704040D01*
X86851550Y-78746250D02*
X87489090Y-78474460D01*
D10*
X127387490Y-88726790D02*
X127148850Y-88726790D01*
X154273210Y-121277960D02*
X154114130Y-121198410D01*
X131157890Y-90847490D02*
X131157890Y-91642940D01*
X155896470Y-94479510D02*
X154941940Y-94479510D01*
X149516400Y-120482510D02*
X149277770Y-120243870D01*
D12*
X135141980Y-74454150D02*
X135028340Y-74681430D01*
D11*
X80395230Y-78818180D02*
X81032770Y-78546390D01*
D10*
X152619210Y-84776560D02*
X152539660Y-85015190D01*
X134339700Y-93445430D02*
X134339700Y-94797700D01*
D11*
X80494210Y-100799310D02*
X80753290Y-100799310D01*
D10*
X135310030Y-84299270D02*
X135389580Y-84219710D01*
X127626090Y-80110430D02*
X127546540Y-80189980D01*
X126862440Y-94002240D02*
X126862440Y-95672700D01*
X130919100Y-84617450D02*
X130919100Y-84776560D01*
D12*
X144232870Y-73545060D02*
X143891950Y-73545060D01*
D10*
X149262400Y-90847490D02*
X149262400Y-91642940D01*
X152619210Y-84617450D02*
X152619210Y-84776560D01*
X121023820Y-80667240D02*
X120785190Y-80667240D01*
X129678360Y-90847490D02*
X129757890Y-90688410D01*
X127546590Y-87692710D02*
X127705670Y-87851790D01*
X131395990Y-120482510D02*
X131395990Y-121277960D01*
X143550980Y-84378820D02*
X144266900Y-84378820D01*
X120546560Y-80985430D02*
X120546560Y-81780880D01*
X126146540Y-95036330D02*
X126305620Y-95115880D01*
X138507780Y-85253820D02*
X138348680Y-85174270D01*
D11*
X87209660Y-83836380D02*
X87364600Y-83887180D01*
X80076960Y-123418520D02*
X81031520Y-123418520D01*
X80849890Y-76946200D02*
X80895610Y-76991910D01*
D10*
X133241830Y-84935640D02*
X133162300Y-85174270D01*
D11*
X80857450Y-106869940D02*
X81012400Y-106816600D01*
D10*
X122662450Y-95036330D02*
X122503370Y-94877250D01*
X142198230Y-120243870D02*
X142118700Y-120482510D01*
X131635150Y-90529300D02*
X131396520Y-90529300D01*
X125223810Y-81701330D02*
X125064730Y-81780880D01*
X154178310Y-94081800D02*
X154019210Y-94002240D01*
D11*
X86742300Y-118261000D02*
X86688960Y-118365140D01*
D10*
X135373810Y-91563390D02*
X135214700Y-91642940D01*
X135532890Y-80746800D02*
X135691970Y-80667240D01*
D11*
X81031520Y-121954870D02*
X80986060Y-122045800D01*
D10*
X147019200Y-85253820D02*
X146860090Y-85174270D01*
X158219200Y-94479510D02*
X158298750Y-94240880D01*
X133417040Y-87613150D02*
X133417040Y-88726790D01*
X134769260Y-80667240D02*
X134769260Y-81780880D01*
X135739740Y-87613150D02*
X135978400Y-87613150D01*
D11*
X80895610Y-76991910D02*
X80849890Y-77037630D01*
D10*
X157773810Y-87851790D02*
X157853340Y-87692710D01*
X137139690Y-95115880D02*
X136901060Y-95115880D01*
X158378310Y-81780880D02*
X158696470Y-81780880D01*
D13*
X86668570Y-109518450D02*
X87488990Y-109518450D01*
D10*
X124046550Y-91563390D02*
X124205630Y-91642940D01*
D11*
X87351930Y-123137830D02*
X87443370Y-123046380D01*
D10*
X123457900Y-94638620D02*
X123378380Y-94877250D01*
D11*
X86688960Y-84562820D02*
X86584820Y-84458680D01*
D13*
X86851450Y-110455710D02*
X86851450Y-110590330D01*
D10*
X133241830Y-83583370D02*
X133241830Y-84935640D01*
X141530610Y-95115880D02*
X141371510Y-95115880D01*
X147782870Y-91802020D02*
X147862400Y-92040650D01*
X149660110Y-84140190D02*
X149660110Y-85253820D01*
X126544260Y-94002240D02*
X126305620Y-94002240D01*
X142230540Y-85253820D02*
X141991880Y-85253820D01*
D11*
X80908230Y-84561090D02*
X80753290Y-84561090D01*
D10*
X126830690Y-87931340D02*
X126910220Y-87772260D01*
X144235130Y-80746800D02*
X144155600Y-80985430D01*
D11*
X87364600Y-103595040D02*
X87468740Y-103544240D01*
D10*
X158616940Y-95115880D02*
X158457830Y-95036330D01*
X150598770Y-81542250D02*
X150757850Y-81701330D01*
D11*
X86793100Y-103595040D02*
X86950580Y-103648380D01*
D10*
X146430600Y-81542250D02*
X146271500Y-81701330D01*
X122821560Y-95672700D02*
X123060190Y-95672700D01*
X156755020Y-120164320D02*
X156436860Y-121277960D01*
D11*
X86688960Y-114047140D02*
X86534020Y-114202080D01*
D10*
X135914160Y-120880220D02*
X135993690Y-120959770D01*
X128676080Y-91642940D02*
X128517000Y-91642940D01*
D11*
X86534050Y-124463700D02*
X86897270Y-124191930D01*
D10*
X146589680Y-95115880D02*
X146351050Y-95115880D01*
X130632900Y-91006570D02*
X130632900Y-91165670D01*
X143232920Y-87613150D02*
X142914740Y-88726790D01*
X154687430Y-87613150D02*
X154846540Y-87692710D01*
X123155690Y-87851790D02*
X123235220Y-87692710D01*
X142119230Y-80667240D02*
X142357870Y-80667240D01*
X160048790Y-87613150D02*
X160048790Y-88726790D01*
X132096520Y-93445430D02*
X132176070Y-93365870D01*
X129455630Y-95115880D02*
X129296520Y-95036330D01*
X158298750Y-90529300D02*
X158139650Y-90608860D01*
X121946550Y-81542250D02*
X122026110Y-81701330D01*
D12*
X145551050Y-74795070D02*
X145437410Y-74454150D01*
D11*
X86638160Y-114649120D02*
X86584820Y-114702460D01*
D10*
X135787320Y-84140190D02*
X135946400Y-84219710D01*
X124857900Y-94797700D02*
X124778370Y-95036330D01*
D12*
X135823790Y-75135960D02*
X136164710Y-75022350D01*
D10*
X130091980Y-94638620D02*
X130012450Y-94877250D01*
X137585050Y-85015190D02*
X137425950Y-85174270D01*
X147910130Y-81542250D02*
X147751050Y-81701330D01*
X159603350Y-85174270D02*
X159682880Y-85015190D01*
X124221550Y-95036330D02*
X123982920Y-94797700D01*
X133591440Y-121198410D02*
X133432360Y-121277960D01*
X136105500Y-84378820D02*
X136185030Y-84617450D01*
X146000500Y-120164320D02*
X146239140Y-120164320D01*
X154591930Y-80110430D02*
X153876030Y-80110430D01*
X128946590Y-87613150D02*
X128389770Y-87613150D01*
X158696470Y-81780880D02*
X158935100Y-81701330D01*
D11*
X87468740Y-100831520D02*
X87572880Y-100935660D01*
D13*
X86533950Y-111890810D02*
X87488990Y-111527590D01*
D10*
X139812480Y-87613150D02*
X139573850Y-87613150D01*
D11*
X87626250Y-105866380D02*
X87626250Y-106072120D01*
D10*
X149341950Y-90608860D02*
X149262400Y-90847490D01*
D11*
X80128450Y-92498590D02*
X80232590Y-92394450D01*
D10*
X155101020Y-94081800D02*
X155260130Y-94002240D01*
D11*
X86688960Y-88367740D02*
X87623680Y-88367740D01*
D10*
X130394260Y-90608860D02*
X130553340Y-90767940D01*
X159778300Y-80189980D02*
X159698750Y-80269530D01*
X120164740Y-91483860D02*
X120323820Y-91642940D01*
X122264740Y-80667240D02*
X122503370Y-80667240D01*
X144473790Y-90529300D02*
X144235130Y-90529300D01*
X148753310Y-93365870D02*
X148832860Y-93445430D01*
D11*
X80758450Y-77972360D02*
X80895610Y-77926630D01*
D10*
X149118680Y-120164320D02*
X148880050Y-120164320D01*
D11*
X87364600Y-86704040D02*
X87468740Y-86653240D01*
D12*
X125891990Y-74454150D02*
X125778370Y-74795070D01*
D10*
X133830070Y-120641590D02*
X133830070Y-120800690D01*
X135834610Y-120959770D02*
X135914160Y-120880220D01*
X153144200Y-91642940D02*
X152985120Y-91563390D01*
X143280600Y-80985430D02*
X143280600Y-81780880D01*
X124205630Y-90529300D02*
X124046550Y-90608860D01*
D11*
X80753290Y-95211310D02*
X80908230Y-95157970D01*
D10*
X137537430Y-94638620D02*
X137457880Y-94877250D01*
D12*
X137369250Y-75022350D02*
X137028340Y-74681430D01*
D10*
X138666970Y-94161350D02*
X138746520Y-94081800D01*
X151155590Y-94797700D02*
X151155590Y-94877250D01*
X140034600Y-121277960D02*
X139795970Y-121277960D01*
X130346540Y-81701330D02*
X130187430Y-81780880D01*
D11*
X80753290Y-97002010D02*
X80753290Y-97261090D01*
X87623680Y-94773620D02*
X87623680Y-94410400D01*
D12*
X149823760Y-74113260D02*
X147778330Y-74113260D01*
D10*
X153478320Y-80587690D02*
X153557840Y-80746800D01*
X133034620Y-121198410D02*
X132875540Y-121039320D01*
X152953300Y-81303620D02*
X152873770Y-81542250D01*
D11*
X86534020Y-89282140D02*
X87001380Y-89231340D01*
D10*
X156326090Y-87692710D02*
X156485170Y-87851790D01*
X145714680Y-91563390D02*
X145555600Y-91642940D01*
X123951150Y-88647240D02*
X124030700Y-88488160D01*
X142166960Y-94081800D02*
X142087410Y-94002240D01*
X126305620Y-94002240D02*
X126146540Y-94081800D01*
X145030610Y-80667240D02*
X145030610Y-81780880D01*
D11*
X86688960Y-95035240D02*
X86793100Y-95086040D01*
X86988710Y-123137830D02*
X87123330Y-123183540D01*
X80649150Y-91449570D02*
X81167310Y-91449570D01*
X86742300Y-118916320D02*
X86638160Y-118967120D01*
X87209660Y-89906980D02*
X87313800Y-89906980D01*
D10*
X150821500Y-89972480D02*
X150741950Y-90052040D01*
D13*
X87123230Y-110864650D02*
X87214670Y-110864650D01*
D10*
X138157340Y-120243870D02*
X138316420Y-120164320D01*
D12*
X153482860Y-74795070D02*
X153255580Y-75022350D01*
D10*
X147910130Y-93445430D02*
X147910130Y-94797700D01*
D11*
X80336730Y-86648970D02*
X80494210Y-86702310D01*
X80180980Y-81841660D02*
X80285120Y-81892460D01*
X86534020Y-114202080D02*
X87623680Y-114202080D01*
D10*
X120785190Y-80667240D02*
X120626110Y-80746800D01*
D11*
X80545010Y-114449270D02*
X80494210Y-114500070D01*
D10*
X138316420Y-121834780D02*
X138555050Y-121834780D01*
X141291950Y-94161350D02*
X141291950Y-94081800D01*
X146860090Y-85174270D02*
X146701010Y-85015190D01*
X150423810Y-87056330D02*
X150503370Y-86976780D01*
X134101110Y-87692710D02*
X134260220Y-87613150D01*
X141928330Y-94877250D02*
X142087410Y-95036330D01*
D11*
X87364600Y-101507160D02*
X87209660Y-101507160D01*
D10*
X139303340Y-95036330D02*
X139144230Y-95115880D01*
D12*
X126642000Y-73545060D02*
X126642000Y-75135960D01*
D11*
X87260440Y-81491980D02*
X87306160Y-81446270D01*
D10*
X131173810Y-94002240D02*
X131332890Y-94081800D01*
X146557320Y-121039320D02*
X146398220Y-121198410D01*
D12*
X153596480Y-74454150D02*
X153482860Y-74795070D01*
D10*
X134021590Y-87772260D02*
X134101110Y-87692710D01*
X154830030Y-121039320D02*
X154670950Y-121198410D01*
X139303340Y-94081800D02*
X139462420Y-94240880D01*
X140639680Y-80667240D02*
X140480600Y-80746800D01*
X152539660Y-85015190D02*
X152380580Y-85174270D01*
X122248810Y-91006570D02*
X122328370Y-90767940D01*
D11*
X81012370Y-103616170D02*
X81116510Y-103512030D01*
X87572880Y-92840680D02*
X87468740Y-92944820D01*
D10*
X146032860Y-94240880D02*
X146191940Y-94081800D01*
X130394260Y-91563390D02*
X130235160Y-91642940D01*
D11*
X81116510Y-97103610D02*
X81012370Y-97207750D01*
X81167310Y-89153410D02*
X81167310Y-88995930D01*
D12*
X134278350Y-72749610D02*
X134164710Y-72863250D01*
D11*
X80077650Y-118945070D02*
X80545010Y-118894270D01*
D10*
X143312350Y-84299270D02*
X143550980Y-84378820D01*
D12*
X135369260Y-74340510D02*
X135141980Y-74454150D01*
D10*
X129471580Y-87056330D02*
X129551130Y-86976780D01*
D12*
X157823750Y-73545060D02*
X158051030Y-73658700D01*
D10*
X155005620Y-87851790D02*
X155085170Y-88090420D01*
X158935100Y-80189980D02*
X159094200Y-80349060D01*
X145476100Y-87613150D02*
X145317020Y-87692710D01*
X131571530Y-94638620D02*
X131491970Y-94877250D01*
X136518710Y-120482510D02*
X136598240Y-120323430D01*
X123155690Y-88488160D02*
X123235220Y-88647240D01*
X157853340Y-87692710D02*
X158091970Y-87613150D01*
D12*
X151482870Y-74226870D02*
X151369230Y-73885980D01*
D10*
X123585180Y-80746800D02*
X123744260Y-80667240D01*
X145794230Y-89972480D02*
X145794230Y-91324750D01*
X123394330Y-88169970D02*
X123235220Y-88249530D01*
D11*
X81116510Y-89910330D02*
X81167310Y-90014470D01*
D10*
X138730620Y-90529300D02*
X138969250Y-90529300D01*
D11*
X86897220Y-82292090D02*
X86942940Y-82383530D01*
D10*
X139144230Y-95115880D02*
X138905600Y-95115880D01*
D11*
X87489090Y-76165610D02*
X87443370Y-76028450D01*
D10*
X138873240Y-120402950D02*
X138952790Y-120641590D01*
D11*
X87489040Y-80737610D02*
X87443320Y-80600450D01*
X80804170Y-76991910D02*
X80849890Y-76946200D01*
D10*
X155514130Y-120880220D02*
X155593650Y-120959770D01*
X150264660Y-84458370D02*
X150264660Y-85253820D01*
X139891960Y-91324750D02*
X139891960Y-91404310D01*
X121898830Y-94877250D02*
X121819270Y-94797700D01*
X122328370Y-90767940D02*
X122487450Y-90608860D01*
D11*
X86950580Y-119487820D02*
X87105520Y-119383680D01*
D10*
X149389680Y-80905880D02*
X149469230Y-81144510D01*
X134101110Y-88647240D02*
X133942030Y-88488160D01*
X141673690Y-84617450D02*
X141673690Y-84458370D01*
D11*
X86534050Y-106676640D02*
X87626250Y-106676640D01*
D13*
X86988610Y-110818930D02*
X87123230Y-110864650D01*
D10*
X145237460Y-87931340D02*
X145237460Y-88726790D01*
X135389580Y-85174270D02*
X135230500Y-85015190D01*
X154909580Y-120641590D02*
X154909580Y-120800690D01*
X138746520Y-94081800D02*
X138905600Y-94002240D01*
X140193680Y-121198410D02*
X140034600Y-121277960D01*
D11*
X86795670Y-105604760D02*
X86950610Y-105553960D01*
D12*
X146687400Y-75022350D02*
X146346500Y-75135960D01*
D10*
X146510130Y-81144510D02*
X146510130Y-81303620D01*
X145873780Y-81780880D02*
X145714680Y-81701330D01*
X145555600Y-80985430D02*
X145635130Y-80826350D01*
D12*
X127891980Y-73545060D02*
X127891980Y-74681430D01*
D10*
X154098760Y-84617450D02*
X154098760Y-84776560D01*
X157455570Y-81303620D02*
X157376020Y-81542250D01*
D11*
X87077610Y-121428400D02*
X87077610Y-122246280D01*
D10*
X153032320Y-120164320D02*
X153191400Y-120243870D01*
D11*
X81012370Y-111007570D02*
X81116510Y-110903430D01*
D10*
X144473840Y-87692710D02*
X144632920Y-87851790D01*
D11*
X87209660Y-95139380D02*
X87364600Y-95086040D01*
X80077650Y-97603990D02*
X81167310Y-97603990D01*
X86584820Y-84458680D02*
X86534020Y-84357080D01*
X86688960Y-113132740D02*
X87623680Y-113132740D01*
D10*
X129948800Y-80667240D02*
X130187430Y-80667240D01*
D12*
X157028300Y-74795070D02*
X156914660Y-74454150D01*
D10*
X154703310Y-84219710D02*
X154623780Y-84458370D01*
X133178410Y-87692710D02*
X133019300Y-87613150D01*
X151982840Y-84140190D02*
X152221470Y-84140190D01*
X148260090Y-84219710D02*
X148180560Y-84458370D01*
D11*
X80753290Y-84302010D02*
X80753290Y-84561090D01*
D10*
X129630640Y-80667240D02*
X129630640Y-81780880D01*
D11*
X86942990Y-77811530D02*
X86988710Y-77854700D01*
X86534050Y-76028450D02*
X86534050Y-76528830D01*
D10*
X152221500Y-90767940D02*
X152141950Y-90927040D01*
D11*
X86534050Y-123965860D02*
X86534050Y-124463700D01*
X80336730Y-100850110D02*
X80494210Y-100799310D01*
D12*
X135028340Y-74795070D02*
X135141980Y-75022350D01*
D11*
X80440870Y-114812490D02*
X80494210Y-114967430D01*
D10*
X148657830Y-84140190D02*
X148419190Y-84140190D01*
X141991880Y-84140190D02*
X142230540Y-84140190D01*
X159778300Y-80905880D02*
X160016940Y-80985430D01*
D11*
X86584820Y-94931100D02*
X86688960Y-95035240D01*
X86897240Y-98103560D02*
X86950580Y-98258500D01*
D10*
X148832860Y-81780880D02*
X148673780Y-81701330D01*
D11*
X80753290Y-83781310D02*
X80908230Y-83832110D01*
D10*
X159619200Y-80428610D02*
X159619200Y-80667240D01*
D11*
X80753310Y-106869940D02*
X80857450Y-106869940D01*
D10*
X158855570Y-95115880D02*
X158616940Y-95115880D01*
X150582920Y-87056330D02*
X150503370Y-87135890D01*
X135230500Y-84617450D02*
X135230500Y-84458370D01*
X153860130Y-84219710D02*
X154019230Y-84378820D01*
D11*
X87468740Y-95035240D02*
X87572880Y-94931100D01*
D10*
X146748760Y-95036330D02*
X146589680Y-95115880D01*
D12*
X150914670Y-73545060D02*
X150573770Y-73545060D01*
D10*
X133193700Y-120164320D02*
X133432360Y-120164320D01*
X137028230Y-85253820D02*
X136869130Y-85174270D01*
D11*
X80532390Y-76600760D02*
X80667010Y-76646470D01*
X80077650Y-88185670D02*
X80128450Y-88340610D01*
X80440060Y-82288700D02*
X81169040Y-82598580D01*
D10*
X128707960Y-88408610D02*
X128628400Y-88647240D01*
D11*
X86534020Y-101248080D02*
X86534020Y-101039800D01*
D10*
X121946550Y-81462700D02*
X121946550Y-81542250D01*
X122662450Y-95593150D02*
X122821560Y-95672700D01*
D11*
X81167310Y-99036550D02*
X81167310Y-98673330D01*
D10*
X148737410Y-91006570D02*
X148737410Y-91165670D01*
X137171520Y-80189980D02*
X137251070Y-80428610D01*
X157773810Y-88488160D02*
X157853340Y-88647240D01*
D13*
X87214670Y-110864650D02*
X87351830Y-110818930D01*
D10*
X142595970Y-120164320D02*
X142357330Y-120164320D01*
D11*
X86897240Y-89594560D02*
X86950580Y-89749500D01*
D10*
X142755050Y-120243870D02*
X142595970Y-120164320D01*
X160732890Y-83583370D02*
X160732890Y-85253820D01*
X138077790Y-121675670D02*
X138157340Y-121755220D01*
D11*
X87623680Y-89437080D02*
X87572880Y-89282140D01*
X86897270Y-122863510D02*
X86897270Y-123000670D01*
D10*
X152953300Y-81144510D02*
X152953300Y-81303620D01*
D11*
X80908230Y-93070090D02*
X80753290Y-93070090D01*
D10*
X140830510Y-85253820D02*
X140989620Y-85174270D01*
D11*
X80699950Y-88840990D02*
X80753290Y-88945130D01*
X80076960Y-122482150D02*
X81031520Y-123118520D01*
X80232590Y-100903450D02*
X80336730Y-100850110D01*
X87572880Y-86549100D02*
X87623680Y-86391620D01*
X81167310Y-94845550D02*
X81167310Y-94482330D01*
X80077650Y-85973330D02*
X80077650Y-86336550D01*
D10*
X124142000Y-80746800D02*
X124301080Y-80905880D01*
X152141950Y-91563390D02*
X152221500Y-91404310D01*
D11*
X87052180Y-89853640D02*
X87209660Y-89906980D01*
D10*
X123235220Y-88647240D02*
X123473880Y-88726790D01*
X145507870Y-94320430D02*
X145269240Y-94081800D01*
D11*
X86846440Y-119538620D02*
X86950580Y-119487820D01*
D10*
X147989680Y-81144510D02*
X147989680Y-81303620D01*
X132270990Y-120482510D02*
X132032360Y-120243870D01*
X144712470Y-88090420D02*
X143757910Y-88090420D01*
D11*
X86897240Y-89437080D02*
X86897240Y-89594560D01*
D10*
X123982920Y-94002240D02*
X123982920Y-95115880D01*
D11*
X87572880Y-84044660D02*
X87623680Y-84148800D01*
D10*
X133417040Y-88090420D02*
X133337490Y-87851790D01*
D11*
X86534020Y-119332880D02*
X86584820Y-119434480D01*
D10*
X153541940Y-91563390D02*
X153382860Y-91642940D01*
D11*
X87123330Y-123183540D02*
X87214770Y-123183540D01*
D10*
X134816990Y-91563390D02*
X134657880Y-91404310D01*
X159810150Y-87692710D02*
X159651070Y-87613150D01*
D11*
X86897240Y-98758880D02*
X87623680Y-99068760D01*
D10*
X158887420Y-85174270D02*
X159126060Y-85253820D01*
D11*
X81012370Y-84507750D02*
X80908230Y-84561090D01*
D10*
X152221470Y-84140190D02*
X152380580Y-84219710D01*
X153350480Y-120402950D02*
X153430030Y-120641590D01*
D11*
X80753290Y-115124910D02*
X80857430Y-115124910D01*
D10*
X151903310Y-91642940D02*
X152141950Y-91563390D01*
X135946400Y-85174270D02*
X135787320Y-85253820D01*
X125303370Y-80110430D02*
X125303370Y-81462700D01*
X135548660Y-85253820D02*
X135389580Y-85174270D01*
D11*
X87260490Y-123528980D02*
X87306210Y-123483270D01*
D10*
X158457830Y-95036330D02*
X158298750Y-94877250D01*
D11*
X81116510Y-89308350D02*
X81167310Y-89153410D01*
D10*
X139637420Y-80110430D02*
X139637420Y-81462700D01*
D11*
X86584820Y-119020460D02*
X86534020Y-119124600D01*
X80440870Y-88444750D02*
X80545010Y-88393950D01*
X87572880Y-92426660D02*
X87623680Y-92530800D01*
X86793100Y-83887180D02*
X86950580Y-83836380D01*
X87489040Y-82200640D02*
X87489040Y-82063480D01*
X86950580Y-103648380D02*
X87209660Y-103648380D01*
D12*
X120755650Y-74340510D02*
X120869290Y-74908710D01*
D10*
X125303370Y-81462700D02*
X125223810Y-81701330D01*
D12*
X130982910Y-72522350D02*
X131210160Y-72863250D01*
D11*
X80130180Y-81374300D02*
X80076840Y-81475900D01*
D10*
X158091970Y-87613150D02*
X158330630Y-87613150D01*
X123203370Y-91404310D02*
X123044260Y-91563390D01*
X159698750Y-80826350D02*
X159778300Y-80905880D01*
D11*
X86534050Y-77854700D02*
X86897270Y-77582930D01*
X87214720Y-82472430D02*
X87351880Y-82426700D01*
D10*
X148737460Y-87931340D02*
X148498820Y-87692710D01*
D11*
X80077650Y-114500070D02*
X80545010Y-114449270D01*
D10*
X140989620Y-85174270D02*
X141148700Y-85015190D01*
X140591880Y-85253820D02*
X140830510Y-85253820D01*
D12*
X131437440Y-74908710D02*
X131210160Y-75363240D01*
D10*
X158887420Y-84219710D02*
X159126060Y-84140190D01*
D11*
X87468740Y-83940520D02*
X87572880Y-84044660D01*
D10*
X137473240Y-120800690D02*
X137393690Y-121039320D01*
X159364710Y-84140190D02*
X159603350Y-84219710D01*
X141530610Y-94081800D02*
X141610140Y-94240880D01*
X139557870Y-81701330D02*
X139398790Y-81780880D01*
X144076100Y-87613150D02*
X144314730Y-87613150D01*
D12*
X123210180Y-75590520D02*
X123437460Y-75817800D01*
D10*
X136328340Y-81303620D02*
X136248780Y-81542250D01*
D11*
X87351880Y-81100830D02*
X87443320Y-81009380D01*
D10*
X120848820Y-90529300D02*
X121723820Y-91642940D01*
D11*
X86534050Y-105866380D02*
X86587390Y-105762240D01*
D10*
X124555690Y-87931340D02*
X124555690Y-88726790D01*
X153303310Y-84219710D02*
X153462390Y-84140190D01*
X127546540Y-80189980D02*
X127466990Y-80110430D01*
D11*
X81116540Y-106245100D02*
X81065740Y-106194290D01*
D10*
X151314670Y-80746800D02*
X151155590Y-80667240D01*
X131857940Y-87613150D02*
X131619300Y-87613150D01*
D11*
X87397600Y-81883140D02*
X87306160Y-81837430D01*
X80077650Y-90222750D02*
X80077650Y-90014470D01*
D10*
X143598220Y-120164320D02*
X143598220Y-121277960D01*
X141801050Y-80985430D02*
X141880600Y-80826350D01*
X124380630Y-81303620D02*
X124301080Y-81542250D01*
D11*
X86534020Y-98311840D02*
X86534020Y-97791140D01*
D10*
X124778370Y-95036330D02*
X124619270Y-95115880D01*
D13*
X86851450Y-110590330D02*
X86897170Y-110727490D01*
D11*
X80077650Y-90014470D02*
X80128450Y-89910330D01*
D10*
X132080470Y-84219710D02*
X131921390Y-84140190D01*
X135373810Y-81542250D02*
X135294250Y-81303620D01*
X135612440Y-91006570D02*
X134657880Y-91006570D01*
D12*
X120869290Y-74908710D02*
X121096540Y-75363240D01*
D11*
X86942990Y-124420530D02*
X86988710Y-124463700D01*
D10*
X159682880Y-84378820D02*
X159603350Y-84537900D01*
D11*
X86638160Y-119487820D02*
X86742300Y-119538620D01*
D10*
X159444240Y-84617450D02*
X159046530Y-84697010D01*
X128310170Y-80746800D02*
X128469270Y-80667240D01*
X139144160Y-84617450D02*
X139144160Y-84776560D01*
D11*
X86534020Y-93341060D02*
X87623680Y-93341060D01*
D10*
X129964540Y-84458370D02*
X130044100Y-84299270D01*
X126067040Y-87692710D02*
X125907960Y-87613150D01*
D11*
X87489090Y-122909220D02*
X87489090Y-122774610D01*
D10*
X130680470Y-85174270D02*
X130521360Y-85253820D01*
X131110160Y-80110430D02*
X131110160Y-81780880D01*
X157169270Y-87135890D02*
X157089710Y-87056330D01*
D11*
X87443370Y-77765800D02*
X87489090Y-77628640D01*
X80077650Y-98673330D02*
X81167310Y-98673330D01*
X81012370Y-99298170D02*
X81116510Y-99194030D01*
X80753290Y-111060910D02*
X80857430Y-111060910D01*
D10*
X142723780Y-95036330D02*
X142803330Y-94956800D01*
D12*
X159369210Y-72863250D02*
X159255570Y-72976890D01*
D10*
X124635220Y-87692710D02*
X124555690Y-87931340D01*
X141673690Y-84458370D02*
X141753240Y-84299270D01*
D11*
X80699950Y-109054310D02*
X80699950Y-109989030D01*
X86668670Y-75228350D02*
X87489090Y-75228350D01*
X80440870Y-119912810D02*
X81167310Y-120222690D01*
D10*
X142357330Y-120164320D02*
X142198230Y-120243870D01*
X157455570Y-89892930D02*
X157535100Y-89972480D01*
X155085170Y-88090420D02*
X155085170Y-88249530D01*
X142628250Y-84776560D02*
X142548700Y-85015190D01*
X140766960Y-90767940D02*
X140687410Y-90927040D01*
X150916950Y-80667240D02*
X150757850Y-80746800D01*
X137585050Y-84378820D02*
X137664580Y-84617450D01*
D11*
X87468740Y-101453820D02*
X87364600Y-101507160D01*
D12*
X124982920Y-75135960D02*
X124755640Y-75022350D01*
D10*
X143471500Y-91165670D02*
X143391950Y-91404310D01*
X137012440Y-90847490D02*
X136773800Y-90608860D01*
X132795980Y-120800690D02*
X132795980Y-120641590D01*
X140448780Y-91642940D02*
X140687410Y-91563390D01*
D11*
X80077650Y-101921990D02*
X81167310Y-101921990D01*
D10*
X155928300Y-91642940D02*
X155689670Y-91642940D01*
X130919100Y-84617450D02*
X129964540Y-84617450D01*
X139795970Y-121277960D02*
X139636890Y-121198410D01*
X157089710Y-87056330D02*
X157169270Y-86976780D01*
D11*
X80494210Y-89702050D02*
X80753290Y-89702050D01*
D10*
X139398790Y-81780880D02*
X139239690Y-81780880D01*
D12*
X131437440Y-73317800D02*
X131551080Y-73885980D01*
D10*
X136296560Y-88488160D02*
X136137480Y-88647240D01*
X136836900Y-120164320D02*
X137075530Y-120164320D01*
D11*
X86638160Y-118967120D02*
X86584820Y-119020460D01*
X80667010Y-76646470D02*
X80758450Y-76646470D01*
D10*
X160732840Y-80110430D02*
X160732840Y-81780880D01*
X155928300Y-90529300D02*
X156087380Y-90608860D01*
X142676050Y-81542250D02*
X142516970Y-81701330D01*
X148832860Y-93445430D02*
X148753310Y-93524980D01*
X120164740Y-91324750D02*
X120164740Y-91483860D01*
X129026090Y-81542250D02*
X128866990Y-81701330D01*
D11*
X80128450Y-90326890D02*
X80077650Y-90222750D01*
D10*
X142803330Y-94479510D02*
X142723780Y-94399980D01*
D11*
X81116510Y-96689590D02*
X81167310Y-96793730D01*
D10*
X146398220Y-121198410D02*
X146239140Y-121277960D01*
X136614700Y-90529300D02*
X136376060Y-90529300D01*
D11*
X87209690Y-105553960D02*
X87367170Y-105604760D01*
D10*
X158378310Y-80110430D02*
X158696470Y-80110430D01*
X124444260Y-91642940D02*
X124603370Y-91563390D01*
D11*
X81167310Y-114812490D02*
X81167310Y-114655010D01*
D10*
X136901060Y-94002240D02*
X137139690Y-94002240D01*
D11*
X81116510Y-103512030D02*
X81167310Y-103354550D01*
D10*
X150503370Y-87135890D02*
X150423810Y-87056330D01*
X135389580Y-84219710D02*
X135548660Y-84140190D01*
X147257830Y-85253820D02*
X147019200Y-85253820D01*
D11*
X87260490Y-76919980D02*
X87306210Y-76874270D01*
X80595840Y-106816600D02*
X80753310Y-106869940D01*
D10*
X132255680Y-87931340D02*
X132017040Y-87692710D01*
X144871500Y-89972480D02*
X144871500Y-91642940D01*
D11*
X80753290Y-88945130D02*
X80804090Y-89204210D01*
D10*
X130553340Y-91404310D02*
X130394260Y-91563390D01*
D11*
X81116510Y-114967430D02*
X81167310Y-114812490D01*
D10*
X137075530Y-121277960D02*
X136836900Y-121277960D01*
D11*
X80753290Y-92811010D02*
X80753290Y-93070090D01*
D10*
X156246480Y-91404310D02*
X156087380Y-91563390D01*
D11*
X87471310Y-105658100D02*
X87572910Y-105762240D01*
X86534020Y-84148800D02*
X86584820Y-84044660D01*
D10*
X142246510Y-93445430D02*
X142405590Y-93524980D01*
D12*
X153596480Y-74226870D02*
X153596480Y-74454150D01*
D10*
X142485140Y-93684060D02*
X142485140Y-93843160D01*
X132255630Y-93445430D02*
X132176070Y-93524980D01*
D11*
X86897220Y-80963670D02*
X86942940Y-81055110D01*
D10*
X124603370Y-90608860D02*
X124444260Y-90529300D01*
D11*
X80077650Y-85630430D02*
X81167310Y-85630430D01*
X80440870Y-90878070D02*
X81167310Y-90878070D01*
D10*
X143232790Y-83742450D02*
X143153270Y-83901550D01*
X136869130Y-85174270D02*
X136710050Y-85015190D01*
D13*
X86897170Y-110318550D02*
X86851450Y-110455710D01*
D11*
X80941330Y-77383070D02*
X80849890Y-77337360D01*
D10*
X155101050Y-84140190D02*
X154862410Y-84140190D01*
D11*
X80545010Y-88393950D02*
X80595810Y-88340610D01*
D10*
X147576020Y-85015190D02*
X147416910Y-85174270D01*
X145030610Y-80985430D02*
X144791950Y-80746800D01*
X149421550Y-88726790D02*
X149262450Y-88726790D01*
X160176020Y-95115880D02*
X160414650Y-95115880D01*
X138714160Y-121198410D02*
X138555050Y-121277960D01*
D12*
X144687400Y-73545060D02*
X144687400Y-75931410D01*
D11*
X81167310Y-92602730D02*
X81167310Y-92811010D01*
D10*
X144712470Y-88090420D02*
X144712470Y-88249530D01*
D11*
X81031520Y-121773050D02*
X81031520Y-121954870D01*
X87054750Y-107298940D02*
X87105550Y-107144000D01*
X80232590Y-96585450D02*
X80336730Y-96532110D01*
D10*
X160016940Y-94081800D02*
X159857830Y-94240880D01*
D11*
X87123280Y-81146540D02*
X87214720Y-81146540D01*
D10*
X139414740Y-87692710D02*
X139335190Y-87931340D01*
D11*
X81012370Y-115071570D02*
X81116510Y-114967430D01*
D10*
X142755600Y-81303620D02*
X142676050Y-81542250D01*
X136057880Y-94479510D02*
X136057880Y-94638620D01*
X139128330Y-90608860D02*
X139287410Y-90767940D01*
X137664580Y-84776560D02*
X137585050Y-85015190D01*
D12*
X146119220Y-75135960D02*
X145778330Y-75022350D01*
D10*
X128866990Y-80746800D02*
X129026090Y-80905880D01*
X135262430Y-94081800D02*
X135421530Y-94002240D01*
X123282900Y-91006570D02*
X123282900Y-91165670D01*
X122503370Y-95274960D02*
X122582920Y-95513600D01*
X153701050Y-84140190D02*
X153860130Y-84219710D01*
D11*
X80077650Y-103354550D02*
X80128450Y-103512030D01*
D10*
X151155590Y-81780880D02*
X151314670Y-81701330D01*
X151473770Y-94002240D02*
X151712410Y-94002240D01*
X126544260Y-95115880D02*
X126703360Y-95036330D01*
X160176020Y-94002240D02*
X160016940Y-94081800D01*
X147320950Y-120243870D02*
X147480050Y-120164320D01*
X151314670Y-81701330D02*
X151473770Y-81542250D01*
X135914160Y-121039320D02*
X135834610Y-120959770D01*
D11*
X86988710Y-77854700D02*
X87123330Y-77900430D01*
X81116510Y-101007590D02*
X81167310Y-101111730D01*
D10*
X158139650Y-81701330D02*
X158378310Y-81780880D01*
X139971560Y-87692710D02*
X139812480Y-87613150D01*
X144235130Y-90529300D02*
X144076050Y-90608860D01*
D11*
X87156320Y-87900380D02*
X87156320Y-88835100D01*
D10*
X160573810Y-87056330D02*
X160653330Y-86976780D01*
X130935160Y-95115880D02*
X130776080Y-95036330D01*
X147751050Y-81701330D02*
X147591940Y-81780880D01*
X130839550Y-84378820D02*
X130919100Y-84617450D01*
X133750520Y-121039320D02*
X133591440Y-121198410D01*
D11*
X86897240Y-99381180D02*
X87623680Y-99068760D01*
D10*
X134578350Y-94002240D02*
X134021530Y-94002240D01*
X129996520Y-90529300D02*
X130235160Y-90529300D01*
X128835160Y-91563390D02*
X128676080Y-91642940D01*
X136773800Y-90608860D02*
X136614700Y-90529300D01*
X151823760Y-84219710D02*
X151982840Y-84140190D01*
X129837440Y-90608860D02*
X129996520Y-90529300D01*
X148339670Y-90529300D02*
X148498770Y-90608860D01*
D11*
X80077730Y-77428790D02*
X80077730Y-77926630D01*
D10*
X127466990Y-80110430D02*
X127546540Y-80030870D01*
D11*
X87364600Y-100778180D02*
X87468740Y-100831520D01*
X80389260Y-81892460D02*
X80493400Y-81841660D01*
D10*
X137696560Y-88647240D02*
X137537480Y-88726790D01*
X129026090Y-80905880D02*
X129105620Y-81144510D01*
X138460210Y-87931340D02*
X138460210Y-88726790D01*
X153955020Y-120402950D02*
X154114130Y-120243870D01*
X132176070Y-93365870D02*
X132255630Y-93445430D01*
X158012440Y-88169970D02*
X157853340Y-88249530D01*
X141276050Y-80667240D02*
X141276050Y-81780880D01*
D11*
X80895610Y-76600760D02*
X80987050Y-76509310D01*
X80908230Y-95157970D02*
X81012370Y-95107170D01*
D10*
X152475500Y-120402950D02*
X152634580Y-120243870D01*
X141355050Y-120959770D02*
X141275520Y-121198410D01*
X128707960Y-87056330D02*
X128707960Y-88408610D01*
X151712410Y-94002240D02*
X151951040Y-94081800D01*
X138905500Y-84219710D02*
X139064600Y-84378820D01*
X125510220Y-87692710D02*
X125430700Y-87931340D01*
X136836900Y-121277960D02*
X136677790Y-121198410D01*
X130235160Y-91642940D02*
X129996520Y-91642940D01*
D13*
X86533950Y-110773210D02*
X86533950Y-110318550D01*
D10*
X137855660Y-88488160D02*
X137696560Y-88647240D01*
X149994220Y-94002240D02*
X150312410Y-95115880D01*
X132875540Y-120402950D02*
X133034620Y-120243870D01*
D11*
X86668670Y-121837350D02*
X87489090Y-121837350D01*
D10*
X137251070Y-90529300D02*
X137091960Y-90608860D01*
X123982920Y-80667240D02*
X124142000Y-80746800D01*
D12*
X159141930Y-73545060D02*
X159255570Y-73772340D01*
D10*
X130632900Y-91165670D02*
X130553340Y-91404310D01*
X146636880Y-120800690D02*
X146557320Y-121039320D01*
X131237440Y-90608860D02*
X131157890Y-90847490D01*
X137696560Y-87692710D02*
X137855660Y-87851790D01*
D11*
X80649150Y-90878070D02*
X80494210Y-91033010D01*
X80440950Y-76463600D02*
X80486670Y-76555040D01*
D10*
X146907870Y-94877250D02*
X146748760Y-95036330D01*
X151823760Y-85174270D02*
X151664650Y-85015190D01*
D11*
X87209660Y-84357080D02*
X87209660Y-84616160D01*
D10*
X146271500Y-81701330D02*
X146112420Y-81780880D01*
D12*
X154346490Y-73545060D02*
X154801020Y-75135960D01*
D10*
X125987440Y-94240880D02*
X125907910Y-94479510D01*
X138746420Y-85253820D02*
X138507780Y-85253820D01*
D11*
X80077650Y-97603990D02*
X81167310Y-98330430D01*
X86950580Y-83836380D02*
X87209660Y-83836380D01*
D10*
X130123650Y-85174270D02*
X129964540Y-85015190D01*
D11*
X86988710Y-124463700D02*
X87123330Y-124509430D01*
D10*
X142485140Y-93843160D02*
X142405590Y-94081800D01*
D11*
X87306160Y-81537700D02*
X87260440Y-81491980D01*
D13*
X87077510Y-109109510D02*
X87077510Y-109927390D01*
D11*
X80077650Y-97002010D02*
X80077650Y-96793730D01*
D10*
X141037420Y-80746800D02*
X140878340Y-80667240D01*
X145507870Y-93445430D02*
X145507870Y-95115880D01*
X158282880Y-83583370D02*
X158203330Y-83662890D01*
D11*
X80440870Y-114655010D02*
X80440870Y-114812490D01*
D10*
X148673780Y-81701330D02*
X148514670Y-81542250D01*
X135294250Y-81303620D02*
X135294250Y-81144510D01*
X140989620Y-84219710D02*
X140830510Y-84140190D01*
D11*
X80130180Y-81788320D02*
X80180980Y-81841660D01*
X80336730Y-99348970D02*
X80494210Y-99402310D01*
D10*
X152985120Y-91563390D02*
X152746490Y-91324750D01*
X129757890Y-90688410D02*
X129837440Y-90608860D01*
D11*
X80232590Y-113585670D02*
X81167310Y-113585670D01*
D10*
X139971510Y-91165670D02*
X139891960Y-91324750D01*
X155260130Y-84219710D02*
X155101050Y-84140190D01*
D11*
X86584820Y-103440100D02*
X86688960Y-103544240D01*
X80753290Y-86702310D02*
X80908230Y-86648970D01*
D10*
X147942000Y-87692710D02*
X147862450Y-87931340D01*
X136518710Y-120641590D02*
X136518710Y-120482510D01*
D11*
X87572880Y-101349680D02*
X87468740Y-101453820D01*
X80122430Y-122045800D02*
X80076960Y-121954870D01*
D10*
X139144230Y-94002240D02*
X139303340Y-94081800D01*
X143677780Y-119607500D02*
X143598220Y-119687050D01*
X143710090Y-84378820D02*
X143153270Y-85253820D01*
X127355630Y-90529300D02*
X127594270Y-90529300D01*
X160350460Y-120164320D02*
X160032300Y-121277960D01*
X122026110Y-80746800D02*
X122264740Y-80667240D01*
D11*
X80986060Y-122045800D02*
X80895150Y-122136710D01*
D10*
X148657850Y-91404310D02*
X148498770Y-91563390D01*
D11*
X80077650Y-85973330D02*
X81167310Y-85973330D01*
X86584820Y-86549100D02*
X86688960Y-86653240D01*
D10*
X160653330Y-86976780D02*
X160732890Y-87056330D01*
D11*
X86851500Y-82772140D02*
X87489040Y-83046460D01*
D10*
X148753310Y-94002240D02*
X148753310Y-95115880D01*
D11*
X81012370Y-96585450D02*
X81116510Y-96689590D01*
X87626250Y-106072120D02*
X87572910Y-106176260D01*
X86534020Y-84959060D02*
X87623680Y-85685500D01*
D10*
X135373810Y-90608860D02*
X135532890Y-90767940D01*
D11*
X87209660Y-92218380D02*
X87364600Y-92269180D01*
D10*
X130520980Y-120482510D02*
X130520980Y-121277960D01*
D11*
X86950580Y-98258500D02*
X87052180Y-98362640D01*
D10*
X153430030Y-120800690D02*
X153350480Y-121039320D01*
D11*
X87052180Y-98362640D02*
X87209660Y-98415980D01*
D10*
X139891960Y-90767940D02*
X139971510Y-90608860D01*
X128866990Y-81701330D02*
X128707910Y-81780880D01*
X137998230Y-120402950D02*
X138157340Y-120243870D01*
X153462390Y-85253820D02*
X153303310Y-85174270D01*
X137266870Y-85253820D02*
X137028230Y-85253820D01*
X142755600Y-81144510D02*
X141801050Y-81144510D01*
X133432360Y-120164320D02*
X133591440Y-120243870D01*
X138746420Y-84140190D02*
X138905500Y-84219710D01*
X142246510Y-94320430D02*
X141848770Y-94877250D01*
D11*
X80128450Y-101007590D02*
X80232590Y-100903450D01*
X80908230Y-101579090D02*
X80753290Y-101579090D01*
D10*
X126989770Y-87692710D02*
X127148850Y-87613150D01*
X153382860Y-91642940D02*
X153144200Y-91642940D01*
D12*
X136278350Y-73885980D02*
X136164710Y-74113260D01*
D10*
X154416950Y-94002240D02*
X154416950Y-95115880D01*
D11*
X86793100Y-101507160D02*
X86688960Y-101453820D01*
D10*
X136677790Y-121198410D02*
X136518710Y-121039320D01*
X154909580Y-120800690D02*
X154830030Y-121039320D01*
X142676050Y-80905880D02*
X142755600Y-81144510D01*
X142882880Y-94638620D02*
X142803330Y-94479510D01*
D11*
X80895150Y-122136710D02*
X80804240Y-122182150D01*
D10*
X138157340Y-121755220D02*
X138316420Y-121834780D01*
X153557840Y-80269530D02*
X153478320Y-80428610D01*
X146398220Y-120243870D02*
X146557320Y-120402950D01*
D11*
X86534050Y-123137830D02*
X86897270Y-122863510D01*
X81167310Y-84302010D02*
X81116510Y-84403610D01*
D10*
X137473240Y-120641590D02*
X136518710Y-120641590D01*
X132032890Y-90847490D02*
X131794260Y-90608860D01*
D11*
X80077730Y-76100380D02*
X80077730Y-76600760D01*
D10*
X144632870Y-90608860D02*
X144473790Y-90529300D01*
D11*
X81116510Y-118945070D02*
X81065710Y-118894270D01*
D10*
X125542000Y-80667240D02*
X124985180Y-80667240D01*
X142548700Y-85015190D02*
X142389620Y-85174270D01*
X153701050Y-85253820D02*
X153462390Y-85253820D01*
X155434570Y-120959770D02*
X155514130Y-120880220D01*
D11*
X81169040Y-81216820D02*
X81169040Y-81945800D01*
X80076960Y-123736700D02*
X80122430Y-123873050D01*
D10*
X122264740Y-81780880D02*
X122503370Y-81780880D01*
X135532890Y-90767940D02*
X135612440Y-91006570D01*
X136376060Y-90529300D02*
X136216980Y-90608860D01*
D11*
X87209660Y-86757380D02*
X87364600Y-86704040D01*
D10*
X136853330Y-80110430D02*
X137012440Y-80110430D01*
X159603350Y-84219710D02*
X159682880Y-84378820D01*
D11*
X87623680Y-101248080D02*
X87572880Y-101349680D01*
X86534020Y-102576500D02*
X87623680Y-102576500D01*
D10*
X124762450Y-90767940D02*
X124603370Y-90608860D01*
X133003200Y-85253820D02*
X132844120Y-85253820D01*
X155021490Y-94161350D02*
X155101020Y-94081800D01*
X136582900Y-94320430D02*
X136662420Y-94161350D01*
X137887410Y-90847490D02*
X137648780Y-90608860D01*
X131491970Y-94877250D02*
X131332890Y-95036330D01*
D12*
X152460130Y-75022350D02*
X152232850Y-74795070D01*
D11*
X81032770Y-76237540D02*
X80987050Y-76100380D01*
D10*
X150519220Y-81144510D02*
X150519220Y-81303620D01*
D12*
X158391920Y-74454150D02*
X158278310Y-74795070D01*
D10*
X128628400Y-88647240D02*
X128469320Y-88726790D01*
X130585170Y-81303620D02*
X130505620Y-81542250D01*
X128914710Y-89972480D02*
X128914710Y-91324750D01*
X155498780Y-84458370D02*
X155260130Y-84219710D01*
D12*
X135141980Y-73658700D02*
X135482900Y-73545060D01*
D10*
X139541970Y-94479510D02*
X138587410Y-94479510D01*
X144632920Y-87851790D02*
X144712470Y-88090420D01*
X136980660Y-88488160D02*
X136901110Y-88249530D01*
X145841400Y-121198410D02*
X145682320Y-121039320D01*
X150503370Y-87613150D02*
X150503370Y-88726790D01*
X155451030Y-90688410D02*
X155530580Y-90608860D01*
D11*
X86691530Y-105658100D02*
X86795670Y-105604760D01*
X81116510Y-84403610D02*
X81012370Y-84507750D01*
X80895610Y-77926630D02*
X80987050Y-77837730D01*
D10*
X132669260Y-90608860D02*
X132510160Y-90529300D01*
X157535100Y-89972480D02*
X157455570Y-90052040D01*
X151473770Y-80905880D02*
X151314670Y-80746800D01*
X127594270Y-90529300D02*
X127753350Y-90608860D01*
X147194230Y-81701330D02*
X147035120Y-81542250D01*
X149660110Y-83662890D02*
X149580560Y-83583370D01*
X140432770Y-85174270D02*
X140591880Y-85253820D01*
D11*
X80545040Y-106194290D02*
X80494240Y-106245100D01*
D10*
X159857830Y-94240880D02*
X159778300Y-94479510D01*
X134371520Y-80667240D02*
X134132890Y-80667240D01*
X133750520Y-120402950D02*
X133830070Y-120641590D01*
X154830030Y-120402950D02*
X154909580Y-120641590D01*
X135978350Y-94877250D02*
X135819240Y-95036330D01*
X142676050Y-90608860D02*
X142835130Y-90529300D01*
X147416910Y-85174270D02*
X147257830Y-85253820D01*
D11*
X87209660Y-100727380D02*
X87364600Y-100778180D01*
D10*
X149755030Y-120164320D02*
X149595950Y-120243870D01*
D11*
X81065710Y-118894270D02*
X80961570Y-118840930D01*
D10*
X156564720Y-88249530D02*
X156485170Y-88488160D01*
D11*
X80077650Y-94139430D02*
X81167310Y-94139430D01*
X81116510Y-110436070D02*
X81065710Y-110385270D01*
D10*
X121946550Y-80905880D02*
X122026110Y-80746800D01*
X140687410Y-90608860D02*
X140766960Y-90767940D01*
X142389620Y-85174270D02*
X142230540Y-85253820D01*
X134530630Y-80746800D02*
X134371520Y-80667240D01*
X151346490Y-90767940D02*
X151426050Y-90608860D01*
D11*
X80128450Y-88340610D02*
X80181790Y-88393950D01*
X87468740Y-103544240D02*
X87572880Y-103440100D01*
D10*
X140830510Y-84140190D02*
X140591880Y-84140190D01*
X136710050Y-84378820D02*
X136869130Y-84219710D01*
X152746490Y-90529300D02*
X152746490Y-91642940D01*
X135421580Y-87851790D02*
X135580660Y-87692710D01*
D11*
X81012370Y-89359150D02*
X81116510Y-89308350D01*
D10*
X158410160Y-88090420D02*
X158012440Y-88169970D01*
X143757910Y-87931340D02*
X143837470Y-87772260D01*
X129694260Y-95115880D02*
X129455630Y-95115880D01*
X127037450Y-90529300D02*
X127037450Y-91642940D01*
X124603370Y-91563390D02*
X124762450Y-91404310D01*
X148036870Y-120402950D02*
X148116400Y-120641590D01*
X123155690Y-88408610D02*
X123155690Y-88488160D01*
D12*
X120869290Y-73317800D02*
X120755650Y-73885980D01*
D10*
X127785220Y-88249530D02*
X127705670Y-88488160D01*
D11*
X87471310Y-106280400D02*
X87367170Y-106333740D01*
D10*
X135373810Y-80905880D02*
X135532890Y-80746800D01*
D11*
X86587390Y-106176260D02*
X86534050Y-106072120D01*
D10*
X134657880Y-90847490D02*
X134737430Y-90688410D01*
X159126060Y-84140190D02*
X159364710Y-84140190D01*
X129105620Y-81303620D02*
X129026090Y-81542250D01*
D11*
X87351930Y-76919980D02*
X87306210Y-76965700D01*
X80180980Y-81320960D02*
X80130180Y-81374300D01*
D10*
X150152770Y-120243870D02*
X149993660Y-120164320D01*
X127705670Y-88488160D02*
X127546590Y-88647240D01*
X131332890Y-95036330D02*
X131173810Y-95115880D01*
X152539660Y-84378820D02*
X152619210Y-84617450D01*
D11*
X86742300Y-113943000D02*
X86688960Y-114047140D01*
D10*
X145635130Y-80826350D02*
X145714680Y-80746800D01*
D11*
X80338460Y-81270160D02*
X80285120Y-81270160D01*
D10*
X144314730Y-88726790D02*
X144076100Y-88726790D01*
D11*
X81116510Y-114500070D02*
X81065710Y-114449270D01*
D10*
X122328370Y-91404310D02*
X122248810Y-91165670D01*
D12*
X137937430Y-75135960D02*
X137596510Y-75135960D01*
D10*
X149071490Y-81780880D02*
X148832860Y-81780880D01*
X152873770Y-80905880D02*
X152953300Y-81144510D01*
X151998770Y-81144510D02*
X151998770Y-80985430D01*
X134260170Y-95036330D02*
X134101060Y-95115880D01*
X160732840Y-94240880D02*
X160573750Y-94081800D01*
X159778300Y-94479510D02*
X159778300Y-94638620D01*
X159126060Y-85253820D02*
X159364710Y-85253820D01*
X130616990Y-94240880D02*
X130776080Y-94081800D01*
D11*
X80232590Y-103616170D02*
X80336730Y-103666970D01*
D10*
X158298750Y-94240880D02*
X158457830Y-94081800D01*
X154210170Y-87772260D02*
X154289720Y-87692710D01*
X147910130Y-80905880D02*
X147989680Y-81144510D01*
X147161870Y-120402950D02*
X147320950Y-120243870D01*
X155085170Y-88249530D02*
X155005620Y-88488160D01*
X142119230Y-81780880D02*
X141960150Y-81701330D01*
D12*
X123437460Y-75817800D02*
X123664740Y-75931410D01*
D10*
X150757850Y-81701330D02*
X150916950Y-81780880D01*
D11*
X86988710Y-76528830D02*
X87123330Y-76574540D01*
D10*
X141832800Y-84219710D02*
X141991880Y-84140190D01*
D11*
X86897240Y-116239160D02*
X87623680Y-115929280D01*
D10*
X137457880Y-94877250D02*
X137298790Y-95036330D01*
X123807920Y-91006570D02*
X123807920Y-91165670D01*
X154114130Y-120243870D02*
X154273210Y-120164320D01*
X151903310Y-90529300D02*
X152141950Y-90608860D01*
X141148700Y-84140190D02*
X141148700Y-85810640D01*
D11*
X86534020Y-93341060D02*
X87623680Y-94067500D01*
D10*
X148339670Y-91642940D02*
X148101030Y-91642940D01*
D12*
X138164710Y-75022350D02*
X137937430Y-75135960D01*
D10*
X147782870Y-90767940D02*
X147941950Y-90608860D01*
D11*
X87397600Y-80554720D02*
X87306160Y-80509010D01*
D12*
X146914680Y-74795070D02*
X146687400Y-75022350D01*
D10*
X146701010Y-84458370D02*
X146780540Y-84299270D01*
X147989680Y-81303620D02*
X147910130Y-81542250D01*
X137935190Y-88249530D02*
X137855660Y-88488160D01*
X145555600Y-81144510D02*
X145555600Y-80985430D01*
X123235220Y-88249530D02*
X123155690Y-88408610D01*
X138555050Y-121834780D02*
X138714160Y-121755220D01*
X156246480Y-90767940D02*
X156326040Y-91006570D01*
X124301080Y-80905880D02*
X124380630Y-81144510D01*
D12*
X151369230Y-73885980D02*
X151141950Y-73658700D01*
D10*
X126703360Y-95036330D02*
X126862440Y-94877250D01*
X131380670Y-87931340D02*
X131380670Y-88726790D01*
X136980660Y-87851790D02*
X137139740Y-87692710D01*
X120244270Y-91404310D02*
X120323820Y-91324750D01*
D11*
X86584820Y-92426660D02*
X86688960Y-92322520D01*
D10*
X130521360Y-85253820D02*
X130282730Y-85253820D01*
X138587410Y-94320430D02*
X138666970Y-94161350D01*
D12*
X122982920Y-75135960D02*
X123210180Y-75590520D01*
D10*
X142835130Y-91642940D02*
X142676050Y-91563390D01*
D12*
X137028340Y-73545060D02*
X137028340Y-75135960D01*
D10*
X139477780Y-120402950D02*
X139636890Y-120243870D01*
X156421490Y-94002240D02*
X156739650Y-95115880D01*
X156485170Y-87851790D02*
X156564720Y-88090420D01*
X130505620Y-80905880D02*
X130585170Y-81144510D01*
X143598220Y-119527950D02*
X143677780Y-119607500D01*
X135548660Y-84140190D02*
X135787320Y-84140190D01*
X135978400Y-88726790D02*
X135739740Y-88726790D01*
D11*
X86793100Y-95086040D02*
X86950580Y-95139380D01*
D10*
X129455630Y-94002240D02*
X129694260Y-94002240D01*
D11*
X87623680Y-92739080D02*
X87572880Y-92840680D01*
X80941330Y-76054650D02*
X80849890Y-76008940D01*
D10*
X138555050Y-120164320D02*
X138714160Y-120243870D01*
X147257830Y-84140190D02*
X147416910Y-84219710D01*
X154941940Y-94479510D02*
X154941940Y-94320430D01*
X151664650Y-84378820D02*
X151823760Y-84219710D01*
X142516970Y-91006570D02*
X142516970Y-90847490D01*
X135309620Y-120800690D02*
X135230070Y-121039320D01*
X130998250Y-120164320D02*
X130759620Y-120164320D01*
X127753350Y-90608860D02*
X127912450Y-90767940D01*
X120626110Y-80746800D02*
X120546560Y-80985430D01*
D11*
X87077610Y-74819400D02*
X87077610Y-75637280D01*
D12*
X139028330Y-72749610D02*
X139028330Y-75135960D01*
D11*
X80077650Y-92602730D02*
X80128450Y-92498590D01*
D12*
X130755630Y-72295070D02*
X130982910Y-72522350D01*
D10*
X122821560Y-80905880D02*
X122742000Y-81064980D01*
X123951150Y-88010890D02*
X123792040Y-88090420D01*
D11*
X87156320Y-116983380D02*
X87156320Y-117918100D01*
D10*
X134673250Y-121277960D02*
X134514170Y-121198410D01*
D11*
X87351930Y-124463700D02*
X87443370Y-124374800D01*
X87489090Y-77491480D02*
X87443370Y-77356860D01*
D10*
X146096440Y-84856090D02*
X146175990Y-84935640D01*
D11*
X86950580Y-89282140D02*
X86897240Y-89437080D01*
D10*
X136869130Y-84219710D02*
X137028230Y-84140190D01*
X122646550Y-90529300D02*
X122885180Y-90529300D01*
D11*
X87214770Y-124509430D02*
X87351930Y-124463700D01*
D12*
X136164710Y-73658700D02*
X136278350Y-73885980D01*
D10*
X152380630Y-87613150D02*
X152062440Y-88726790D01*
D11*
X80494210Y-86702310D02*
X80753290Y-86702310D01*
D10*
X158552750Y-120164320D02*
X158870940Y-121277960D01*
X132271530Y-90529300D02*
X132112450Y-90608860D01*
D11*
X80232590Y-95107170D02*
X80336730Y-95157970D01*
D10*
X135294250Y-81144510D02*
X135373810Y-80905880D01*
X122742000Y-81064980D02*
X122582900Y-81144510D01*
X120244270Y-91245200D02*
X120164740Y-91324750D01*
X158776020Y-80826350D02*
X158298750Y-80985430D01*
D11*
X86534020Y-92739080D02*
X86534020Y-92530800D01*
X80077650Y-86336550D02*
X80128450Y-86494030D01*
D10*
X144076050Y-90608860D02*
X143996500Y-90847490D01*
X136185030Y-84617450D02*
X136185030Y-84776560D01*
D11*
X86534020Y-97791140D02*
X87001380Y-97740340D01*
D10*
X146239140Y-120164320D02*
X146398220Y-120243870D01*
D11*
X86897270Y-124329090D02*
X86942990Y-124420530D01*
D10*
X157980570Y-80349060D02*
X158139650Y-80189980D01*
D11*
X81116510Y-119412430D02*
X81167310Y-119257490D01*
X86793100Y-84616160D02*
X86688960Y-84562820D01*
D10*
X125669330Y-87613150D02*
X125510220Y-87692710D01*
D11*
X81167310Y-103354550D02*
X81167310Y-102991330D01*
X80336730Y-83832110D02*
X80494210Y-83781310D01*
D10*
X135787320Y-85253820D02*
X135548660Y-85253820D01*
X151473770Y-95115880D02*
X151712410Y-95115880D01*
D11*
X86688960Y-118365140D02*
X86534020Y-118520080D01*
X80440590Y-121500330D02*
X80667870Y-121500330D01*
X87397650Y-75982720D02*
X87306210Y-75937010D01*
D10*
X152030590Y-94240880D02*
X151951040Y-94399980D01*
D11*
X87209690Y-106072120D02*
X87209690Y-106333740D01*
X87623680Y-84148800D02*
X87623680Y-84357080D01*
X86793100Y-86704040D02*
X86950580Y-86757380D01*
D10*
X135993690Y-120959770D02*
X135914160Y-121039320D01*
D11*
X80077650Y-84903990D02*
X81167310Y-84903990D01*
D10*
X145682320Y-120402950D02*
X145841400Y-120243870D01*
D12*
X134164710Y-72635970D02*
X134278350Y-72749610D01*
D11*
X86688960Y-101453820D02*
X86584820Y-101349680D01*
X81012370Y-95107170D02*
X81116510Y-95003030D01*
D10*
X143917020Y-88647240D02*
X143757910Y-88488160D01*
D11*
X81065710Y-114449270D02*
X80961570Y-114395930D01*
D10*
X158203330Y-84140190D02*
X158203330Y-85253820D01*
D11*
X80621290Y-74891330D02*
X80621290Y-75709210D01*
X80336730Y-89755390D02*
X80494210Y-89702050D01*
X86638190Y-107352280D02*
X86742330Y-107403080D01*
D10*
X130600540Y-120243870D02*
X130520980Y-120482510D01*
X151346490Y-91404310D02*
X151426050Y-91563390D01*
X122646550Y-91642940D02*
X122487450Y-91563390D01*
X148720950Y-120243870D02*
X148641390Y-120482510D01*
D11*
X80494210Y-90535170D02*
X80336730Y-90481830D01*
X86897270Y-76254510D02*
X86897270Y-76391670D01*
D10*
X152953300Y-81144510D02*
X151998770Y-81144510D01*
X136901060Y-95115880D02*
X136741980Y-95036330D01*
X158569260Y-88010890D02*
X158410160Y-88090420D01*
X132382880Y-80110430D02*
X131746530Y-81780880D01*
X127546590Y-88647240D02*
X127387490Y-88726790D01*
X159619200Y-80667240D02*
X159698750Y-80826350D01*
D11*
X80753290Y-96481310D02*
X80908230Y-96532110D01*
X86534050Y-76528830D02*
X86897270Y-76254510D01*
D10*
X135946400Y-84219710D02*
X136105500Y-84378820D01*
X154098760Y-84776560D02*
X154019230Y-85015190D01*
X155896470Y-94638620D02*
X155816940Y-94877250D01*
X160414650Y-95115880D02*
X160573750Y-95036330D01*
X141848770Y-94877250D02*
X141689690Y-95036330D01*
X160732890Y-87056330D02*
X160653330Y-87135890D01*
D12*
X158391920Y-74226870D02*
X158391920Y-74454150D01*
D10*
X129137440Y-94002240D02*
X129137440Y-95115880D01*
D11*
X80128450Y-84403610D02*
X80077650Y-84302010D01*
D10*
X137266870Y-84140190D02*
X137425950Y-84219710D01*
X125382920Y-93445430D02*
X125382920Y-95115880D01*
D12*
X142573790Y-74113260D02*
X140528330Y-74113260D01*
D11*
X80699950Y-113118310D02*
X80699950Y-114053030D01*
D10*
X130680470Y-84219710D02*
X130839550Y-84378820D01*
X136901110Y-88249530D02*
X136901110Y-88090420D01*
X132017040Y-87692710D02*
X131857940Y-87613150D01*
X152555580Y-81780880D02*
X152316950Y-81780880D01*
X134657880Y-91006570D02*
X134657880Y-90847490D01*
X158935100Y-89972480D02*
X158935100Y-91642940D01*
D11*
X80494210Y-96481310D02*
X80753290Y-96481310D01*
X87572880Y-100935660D02*
X87623680Y-101039800D01*
D10*
X146748760Y-94081800D02*
X146907870Y-94240880D01*
D11*
X87306210Y-123483270D02*
X87351930Y-123528980D01*
D10*
X146987400Y-94479510D02*
X146987400Y-94638620D01*
X133019300Y-87613150D02*
X132780670Y-87613150D01*
X146510130Y-81144510D02*
X145555600Y-81144510D01*
X154941940Y-94320430D02*
X155021490Y-94161350D01*
D12*
X120755650Y-73885980D02*
X120755650Y-74340510D01*
D10*
X144632870Y-80667240D02*
X144394230Y-80667240D01*
X138412430Y-90529300D02*
X138412430Y-91642940D01*
X151664680Y-90529300D02*
X151903310Y-90529300D01*
D11*
X87001380Y-89231340D02*
X86950580Y-89282140D01*
D10*
X138587410Y-94479510D02*
X138587410Y-94320430D01*
X151664680Y-91642940D02*
X151903310Y-91642940D01*
X132875540Y-121039320D02*
X132795980Y-120800690D01*
X137537430Y-94479510D02*
X137537430Y-94638620D01*
X141276050Y-80985430D02*
X141037420Y-80746800D01*
D12*
X127551090Y-75135960D02*
X127210170Y-75135960D01*
D10*
X147877770Y-120243870D02*
X148036870Y-120402950D01*
X153303310Y-85174270D02*
X153144230Y-85015190D01*
X158569260Y-87692710D02*
X158648790Y-87851790D01*
X145873840Y-87692710D02*
X145714730Y-87613150D01*
X137298790Y-95036330D02*
X137139690Y-95115880D01*
D11*
X80753290Y-89702050D02*
X80908230Y-89755390D01*
X80077650Y-94845550D02*
X80128450Y-95003030D01*
D10*
X152141950Y-90927040D02*
X151982840Y-91006570D01*
X132510160Y-90529300D02*
X132271530Y-90529300D01*
D11*
X86688960Y-92944820D02*
X86584820Y-92840680D01*
X80440870Y-120535110D02*
X81167310Y-120222690D01*
D10*
X123807920Y-91165670D02*
X123887440Y-91404310D01*
X143073790Y-91642940D02*
X142835130Y-91642940D01*
D11*
X80857430Y-89308350D02*
X80961570Y-89359150D01*
D10*
X120323820Y-91324750D02*
X120244270Y-91245200D01*
D11*
X86851550Y-124809140D02*
X87489090Y-125083460D01*
D10*
X148498770Y-91563390D02*
X148339670Y-91642940D01*
D11*
X81167310Y-88995930D02*
X81116510Y-88840990D01*
X86534020Y-118520080D02*
X87623680Y-118520080D01*
X80077650Y-101921990D02*
X81167310Y-102648430D01*
D10*
X147655540Y-84617450D02*
X146701010Y-84617450D01*
X135532890Y-91404310D02*
X135373810Y-91563390D01*
D11*
X80494210Y-110903430D02*
X80595810Y-111007570D01*
D10*
X153876030Y-80110430D02*
X153637400Y-80189980D01*
X153621500Y-90529300D02*
X153621500Y-91324750D01*
D11*
X86584820Y-100935660D02*
X86688960Y-100831520D01*
D10*
X154416950Y-94479510D02*
X154337390Y-94240880D01*
D12*
X130982910Y-75704160D02*
X130755630Y-75931410D01*
D11*
X80232590Y-99298170D02*
X80336730Y-99348970D01*
D10*
X126942000Y-80985430D02*
X126703360Y-80746800D01*
D12*
X130005620Y-72749610D02*
X130005620Y-75135960D01*
D10*
X123712510Y-88726790D02*
X123951150Y-88647240D01*
D12*
X153255580Y-75022350D02*
X153028300Y-75135960D01*
D10*
X149469230Y-81144510D02*
X149469230Y-81303620D01*
X152078320Y-80826350D02*
X152157850Y-80746800D01*
X139366960Y-91006570D02*
X139366960Y-91165670D01*
X143518700Y-119607500D02*
X143598220Y-119527950D01*
X157376020Y-81542250D02*
X157216940Y-81701330D01*
D11*
X87623680Y-118862980D02*
X87623680Y-119591960D01*
D12*
X152687380Y-75135960D02*
X152460130Y-75022350D01*
D11*
X87623680Y-97946080D02*
X87572880Y-97791140D01*
D10*
X123982920Y-81780880D02*
X123744260Y-81780880D01*
X137075530Y-120164320D02*
X137234610Y-120243870D01*
X147655540Y-84776560D02*
X147576020Y-85015190D01*
X135739740Y-88726790D02*
X135580660Y-88647240D01*
D11*
X86534020Y-101850060D02*
X87623680Y-101850060D01*
D12*
X157482850Y-73545060D02*
X157823750Y-73545060D01*
D10*
X153478320Y-80428610D02*
X153478320Y-80587690D01*
D11*
X87306210Y-76965700D02*
X87260490Y-76919980D01*
D10*
X127148850Y-87613150D02*
X127387490Y-87613150D01*
D11*
X80987050Y-77837730D02*
X81032770Y-77700570D01*
X81012370Y-92394450D02*
X81116510Y-92498590D01*
D10*
X130346540Y-80746800D02*
X130505620Y-80905880D01*
D11*
X80667870Y-121500330D02*
X80804240Y-121545800D01*
X80494210Y-118945070D02*
X80440870Y-119100010D01*
D10*
X145794230Y-91324750D02*
X145714680Y-91563390D01*
X146112470Y-87931340D02*
X145873840Y-87692710D01*
X141275520Y-121198410D02*
X141116420Y-121277960D01*
X140273690Y-84378820D02*
X140194140Y-84617450D01*
X134514170Y-120243870D02*
X134673250Y-120164320D01*
D11*
X87105520Y-115065680D02*
X87623680Y-114544980D01*
D10*
X148498770Y-90608860D02*
X148657850Y-90767940D01*
D11*
X87443370Y-123046380D02*
X87489090Y-122909220D01*
D10*
X135691970Y-81780880D02*
X135532890Y-81701330D01*
D11*
X86793100Y-114598320D02*
X86742300Y-114598320D01*
X86795670Y-106333740D02*
X86691530Y-106280400D01*
X80486670Y-77883460D02*
X80532390Y-77926630D01*
D10*
X139477780Y-120164320D02*
X139477780Y-121277960D01*
X129630690Y-87056330D02*
X129551130Y-87135890D01*
X137012440Y-80110430D02*
X137171520Y-80189980D01*
X136376110Y-88249530D02*
X136296560Y-88488160D01*
X140352790Y-121039320D02*
X140193680Y-121198410D01*
D11*
X86534050Y-106676640D02*
X86534050Y-107144000D01*
D10*
X158139650Y-81064980D02*
X158060120Y-81144510D01*
X137234610Y-121198410D02*
X137075530Y-121277960D01*
D11*
X87367170Y-105604760D02*
X87471310Y-105658100D01*
D10*
X138062420Y-93445430D02*
X138062420Y-95115880D01*
D11*
X80232590Y-101525750D02*
X80128450Y-101421610D01*
D12*
X134164710Y-73545060D02*
X134164710Y-75135960D01*
D11*
X81116540Y-106712460D02*
X81167340Y-106557520D01*
D10*
X149055570Y-84458370D02*
X148816930Y-84219710D01*
X139287410Y-91404310D02*
X139128330Y-91563390D01*
D13*
X86533950Y-110318550D02*
X86942890Y-110272830D01*
D10*
X123203370Y-90767940D02*
X123282900Y-91006570D01*
X151744260Y-87613150D02*
X152062440Y-88726790D01*
X139335190Y-87931340D02*
X139335190Y-88726790D01*
X159412440Y-87613150D02*
X159253340Y-87692710D01*
X141291950Y-95036330D02*
X141291950Y-94956800D01*
X140878340Y-80667240D02*
X140639680Y-80667240D01*
D11*
X80699950Y-117563310D02*
X80699950Y-118498030D01*
D12*
X124982920Y-73545060D02*
X125323810Y-73545060D01*
D11*
X80077650Y-99036550D02*
X80128450Y-99194030D01*
D10*
X149357850Y-94002240D02*
X149676040Y-95115880D01*
X141753240Y-84299270D02*
X141832800Y-84219710D01*
D12*
X121323820Y-75704160D02*
X121551100Y-75931410D01*
D10*
X142993680Y-120164320D02*
X142993680Y-121277960D01*
D11*
X86534020Y-85685500D02*
X87623680Y-85685500D01*
X87313800Y-98415980D02*
X87468740Y-98362640D01*
D10*
X123426100Y-81542250D02*
X123346550Y-81303620D01*
X139971510Y-91563390D02*
X140210140Y-91642940D01*
D11*
X86988660Y-82426700D02*
X87123280Y-82472430D01*
D10*
X142723780Y-94399980D02*
X142166960Y-94081800D01*
X127594270Y-91642940D02*
X127355630Y-91642940D01*
X129694260Y-94002240D02*
X129853340Y-94081800D01*
X139637420Y-81462700D02*
X139557870Y-81701330D01*
X134817040Y-88488160D02*
X134657930Y-88647240D01*
D11*
X80595810Y-111007570D02*
X80753290Y-111060910D01*
X81012400Y-106816600D02*
X81116540Y-106712460D01*
X80077650Y-101320010D02*
X80077650Y-101111730D01*
X86534020Y-84357080D02*
X86534020Y-84148800D01*
X80128450Y-101421610D02*
X80077650Y-101320010D01*
X80595810Y-88787650D02*
X80699950Y-88840990D01*
X80213340Y-121591240D02*
X80304240Y-121545800D01*
D10*
X156118670Y-120164320D02*
X156436860Y-121277960D01*
X144076100Y-88726790D02*
X143917020Y-88647240D01*
X155816940Y-94240880D02*
X155896470Y-94479510D01*
D11*
X86534020Y-102919400D02*
X87623680Y-102919400D01*
X87468740Y-92944820D02*
X87364600Y-92998160D01*
D10*
X139891960Y-91404310D02*
X139971510Y-91563390D01*
D11*
X80336730Y-90481830D02*
X80232590Y-90431030D01*
D10*
X133432360Y-121277960D02*
X133193700Y-121277960D01*
D11*
X86793100Y-92269180D02*
X86950580Y-92218380D01*
D12*
X130005620Y-75135960D02*
X128641990Y-75135960D01*
D11*
X80232590Y-84507750D02*
X80128450Y-84403610D01*
D10*
X157057840Y-94002240D02*
X157376020Y-95115880D01*
D12*
X153482860Y-73885980D02*
X153596480Y-74226870D01*
D10*
X140528330Y-91006570D02*
X140130620Y-91086120D01*
X158807870Y-84935640D02*
X158807870Y-85015190D01*
D11*
X87364600Y-92269180D02*
X87468740Y-92322520D01*
D10*
X156326040Y-91006570D02*
X156326040Y-91165670D01*
D11*
X80648340Y-81737520D02*
X81169040Y-81216820D01*
X86688960Y-100831520D02*
X86793100Y-100778180D01*
D10*
X157980570Y-81542250D02*
X158139650Y-81701330D01*
D11*
X86584820Y-115116480D02*
X86638160Y-115169820D01*
D12*
X159710100Y-73999620D02*
X160732840Y-73999620D01*
D10*
X134689710Y-80905880D02*
X134530630Y-80746800D01*
D11*
X80077650Y-84302010D02*
X80077650Y-84093730D01*
D10*
X160573750Y-95036330D02*
X160732840Y-94877250D01*
D12*
X135028340Y-74681430D02*
X135028340Y-74795070D01*
D11*
X86950580Y-86757380D02*
X87209660Y-86757380D01*
X80304240Y-124009420D02*
X80440590Y-124054860D01*
X87468740Y-98362640D02*
X87572880Y-98258500D01*
X80076960Y-123418520D02*
X80076960Y-123736700D01*
D10*
X150391400Y-120164320D02*
X150391400Y-121277960D01*
X147862400Y-92040650D02*
X147941950Y-92120210D01*
D11*
X86534020Y-94410400D02*
X86534020Y-94773620D01*
D10*
X159603350Y-84537900D02*
X159444240Y-84617450D01*
D11*
X86950580Y-115169820D02*
X87105520Y-115065680D01*
D10*
X154289720Y-88647240D02*
X154130640Y-88488160D01*
D11*
X80908230Y-97261090D02*
X80753290Y-97261090D01*
D10*
X143917020Y-87692710D02*
X144076100Y-87613150D01*
D11*
X86897240Y-90249880D02*
X87623680Y-90559760D01*
X80986060Y-121682150D02*
X81031520Y-121773050D01*
D10*
X137425950Y-85174270D02*
X137266870Y-85253820D01*
D11*
X80494210Y-91033010D02*
X80440870Y-91137150D01*
D10*
X151712410Y-95115880D02*
X151951040Y-95036330D01*
D11*
X80440870Y-119100010D02*
X80440870Y-119257490D01*
D10*
X154448800Y-87613150D02*
X154687430Y-87613150D01*
X140273690Y-85015190D02*
X140432770Y-85174270D01*
X130585170Y-81144510D02*
X130585170Y-81303620D01*
D11*
X80077650Y-98673330D02*
X80077650Y-99036550D01*
X80753290Y-100799310D02*
X80908230Y-100850110D01*
D10*
X136137430Y-90847490D02*
X136137430Y-91642940D01*
X143312350Y-83662890D02*
X143232790Y-83742450D01*
X124794320Y-87613150D02*
X124635220Y-87692710D01*
X155498760Y-95115880D02*
X155260130Y-95115880D01*
X129853340Y-94081800D02*
X130012450Y-94240880D01*
D12*
X134051070Y-72749610D02*
X134164710Y-72635970D01*
D11*
X86534020Y-101850060D02*
X87623680Y-102576500D01*
D10*
X133337490Y-87851790D02*
X133178410Y-87692710D01*
D11*
X80753290Y-119569910D02*
X80857430Y-119569910D01*
X87397650Y-123920140D02*
X87306210Y-123874430D01*
X80181790Y-88393950D02*
X80285930Y-88444750D01*
D10*
X140130620Y-91086120D02*
X139971510Y-91165670D01*
D12*
X135937430Y-74226870D02*
X135369260Y-74340510D01*
D10*
X127196530Y-91563390D02*
X127037450Y-91404310D01*
D11*
X81116510Y-86494030D02*
X81167310Y-86336550D01*
X80128450Y-99194030D02*
X80232590Y-99298170D01*
D10*
X158935100Y-90847490D02*
X158696470Y-90608860D01*
X148116400Y-120641590D02*
X148116400Y-120800690D01*
D11*
X80440870Y-115467810D02*
X81167310Y-115777690D01*
D10*
X137998230Y-121437040D02*
X138077790Y-121675670D01*
X122885180Y-90529300D02*
X123044260Y-90608860D01*
X151951040Y-94399980D02*
X151791930Y-94479510D01*
X142516970Y-90847490D02*
X142596500Y-90688410D01*
X146860090Y-84219710D02*
X147019200Y-84140190D01*
D11*
X80077650Y-92811010D02*
X80077650Y-92602730D01*
D10*
X130935160Y-94002240D02*
X131173810Y-94002240D01*
X151235110Y-94081800D02*
X151473770Y-94002240D01*
D12*
X160732840Y-72749610D02*
X160732840Y-75135960D01*
D11*
X80440950Y-77792020D02*
X80486670Y-77883460D01*
X87623680Y-114544980D02*
X87623680Y-115273960D01*
D10*
X129853340Y-95036330D02*
X129694260Y-95115880D01*
X134816990Y-90608860D02*
X134976070Y-90529300D01*
X148180560Y-84458370D02*
X148180560Y-85253820D01*
D12*
X143437420Y-74795070D02*
X143664700Y-75022350D01*
D10*
X148419190Y-84140190D02*
X148260090Y-84219710D01*
X138905600Y-94002240D02*
X139144230Y-94002240D01*
X125192040Y-87692710D02*
X125032960Y-87613150D01*
D11*
X80857430Y-115124910D02*
X81012370Y-115071570D01*
X86587390Y-107298940D02*
X86638190Y-107352280D01*
D12*
X144687400Y-73885980D02*
X144460150Y-73658700D01*
D10*
X138348680Y-85174270D02*
X138189600Y-85015190D01*
X146430600Y-80905880D02*
X146510130Y-81144510D01*
D12*
X138278350Y-73545060D02*
X138278350Y-74681430D01*
D10*
X141451060Y-94002240D02*
X141530610Y-94081800D01*
X137648780Y-90608860D02*
X137489700Y-90529300D01*
X126703360Y-80746800D02*
X126544260Y-80667240D01*
X156564720Y-88090420D02*
X156564720Y-88249530D01*
X147862450Y-87931340D02*
X147862450Y-88726790D01*
D11*
X80336730Y-103666970D02*
X80494210Y-103720310D01*
D12*
X155255580Y-73545060D02*
X155710110Y-75135960D01*
D10*
X124444260Y-90529300D02*
X124205630Y-90529300D01*
X140448780Y-90529300D02*
X140687410Y-90608860D01*
X157980570Y-81303620D02*
X157980570Y-81542250D01*
X146780540Y-84299270D02*
X146860090Y-84219710D01*
X122503370Y-94002240D02*
X122503370Y-95274960D01*
X158457830Y-94081800D02*
X158616940Y-94002240D01*
D11*
X87123280Y-82472430D02*
X87214720Y-82472430D01*
D12*
X143664700Y-73658700D02*
X143437420Y-73885980D01*
D10*
X151235110Y-95036330D02*
X151473770Y-95115880D01*
X129137440Y-94240880D02*
X129296520Y-94081800D01*
D11*
X80077650Y-102991330D02*
X81167310Y-102991330D01*
D10*
X146112420Y-81780880D02*
X145873780Y-81780880D01*
D11*
X86584820Y-84044660D02*
X86688960Y-83940520D01*
X86942940Y-82383530D02*
X86988660Y-82426700D01*
D10*
X157391390Y-120164320D02*
X157073200Y-121277960D01*
D11*
X80440870Y-89153410D02*
X80440870Y-88995930D01*
D10*
X148657850Y-90767940D02*
X148737410Y-91006570D01*
X140210190Y-87613150D02*
X140210190Y-88726790D01*
X130235160Y-90529300D02*
X130394260Y-90608860D01*
X131873250Y-120164320D02*
X131634620Y-120164320D01*
D11*
X80699970Y-104863330D02*
X80699970Y-105798050D01*
D10*
X160096460Y-90529300D02*
X160414650Y-91642940D01*
X135691970Y-80667240D02*
X135930620Y-80667240D01*
D11*
X80077650Y-101111730D02*
X80128450Y-101007590D01*
D10*
X133034620Y-120243870D02*
X133193700Y-120164320D01*
X142007880Y-93684060D02*
X142087410Y-93524980D01*
D11*
X80285120Y-81270160D02*
X80180980Y-81320960D01*
X86942990Y-76483110D02*
X86988710Y-76528830D01*
D10*
X123792040Y-88090420D02*
X123394330Y-88169970D01*
D11*
X80545010Y-118894270D02*
X80494210Y-118945070D01*
D10*
X149660110Y-83503810D02*
X149739660Y-83583370D01*
X135930620Y-81780880D02*
X135691970Y-81780880D01*
X140352790Y-120402950D02*
X140432340Y-120641590D01*
X137234610Y-120243870D02*
X137393690Y-120402950D01*
D11*
X86534020Y-102919400D02*
X86534020Y-103282620D01*
D10*
X134911880Y-120164320D02*
X135070990Y-120243870D01*
X131682730Y-84140190D02*
X131523650Y-84219710D01*
D11*
X80667870Y-124054860D02*
X80804240Y-124009420D01*
X86688960Y-96876740D02*
X87623680Y-96876740D01*
D10*
X156166980Y-87613150D02*
X156326090Y-87692710D01*
X138746520Y-95036330D02*
X138587410Y-94877250D01*
X131332890Y-94081800D02*
X131491970Y-94240880D01*
X143153270Y-83901550D02*
X143153270Y-84060630D01*
X155514130Y-121039320D02*
X155434570Y-120959770D01*
X146636880Y-120641590D02*
X146636880Y-120800690D01*
X158935100Y-81701330D02*
X159094200Y-81542250D01*
X156166980Y-88726790D02*
X155928350Y-88726790D01*
X148737410Y-91165670D02*
X148657850Y-91404310D01*
D11*
X80336730Y-96532110D02*
X80494210Y-96481310D01*
D10*
X126066990Y-80985430D02*
X126066990Y-81780880D01*
D12*
X152346490Y-73772340D02*
X152460130Y-73658700D01*
D10*
X147910130Y-94797700D02*
X147830600Y-95036330D01*
X155260130Y-94002240D02*
X155498760Y-94002240D01*
D11*
X80077650Y-94482330D02*
X81167310Y-94482330D01*
X80908230Y-99348970D02*
X81012370Y-99298170D01*
D10*
X137393690Y-121039320D02*
X137234610Y-121198410D01*
X152634580Y-121198410D02*
X152475500Y-121039320D01*
X147941950Y-91563390D02*
X147782870Y-91404310D01*
X141689690Y-95036330D02*
X141530610Y-95115880D01*
X134498850Y-87613150D02*
X134657930Y-87692710D01*
X135070990Y-120243870D02*
X135230070Y-120402950D01*
X152555580Y-80667240D02*
X152714660Y-80746800D01*
X144155600Y-80985430D02*
X143916970Y-80746800D01*
X152793660Y-121277960D02*
X152634580Y-121198410D01*
X155737420Y-84140190D02*
X155578310Y-84219710D01*
X159173810Y-87931340D02*
X159173810Y-88726790D01*
D11*
X81012370Y-93016750D02*
X80908230Y-93070090D01*
X80908230Y-100850110D02*
X81012370Y-100903450D01*
X80494210Y-110436070D02*
X80440870Y-110591010D01*
D10*
X157455570Y-90529300D02*
X157455570Y-91642940D01*
D12*
X156164670Y-73545060D02*
X155710110Y-75135960D01*
D11*
X81116510Y-101421610D02*
X81012370Y-101525750D01*
D10*
X144632920Y-88488160D02*
X144473840Y-88647240D01*
X140193680Y-120243870D02*
X140352790Y-120402950D01*
X152873770Y-81542250D02*
X152714660Y-81701330D01*
D11*
X80804240Y-124009420D02*
X80895150Y-123963960D01*
D10*
X140591880Y-84140190D02*
X140432770Y-84219710D01*
X136137480Y-87692710D02*
X136296560Y-87851790D01*
X129551130Y-87613150D02*
X129551130Y-88726790D01*
X155657840Y-95036330D02*
X155498760Y-95115880D01*
D11*
X80232590Y-118030670D02*
X81167310Y-118030670D01*
D12*
X152232850Y-73999620D02*
X152346490Y-73772340D01*
D10*
X157694210Y-94002240D02*
X157376020Y-95115880D01*
X158330630Y-87613150D02*
X158569260Y-87692710D01*
D11*
X80908230Y-86648970D02*
X81012370Y-86598170D01*
D10*
X122821560Y-94002240D02*
X123060190Y-94002240D01*
D11*
X81167310Y-119257490D02*
X81167310Y-119100010D01*
D10*
X148737460Y-87056330D02*
X148737460Y-88726790D01*
X142596550Y-87613150D02*
X142278390Y-88726790D01*
X157169270Y-86976780D02*
X157248790Y-87056330D01*
X136185030Y-84776560D02*
X136105500Y-85015190D01*
X147718690Y-121277960D02*
X147480050Y-121277960D01*
X151473770Y-80667240D02*
X151473770Y-82337700D01*
D11*
X87572880Y-84458680D02*
X87468740Y-84562820D01*
D10*
X123744260Y-80667240D02*
X123982920Y-80667240D01*
D11*
X80494240Y-106712460D02*
X80595840Y-106816600D01*
D10*
X137537480Y-87613150D02*
X137696560Y-87692710D01*
D11*
X80440870Y-116090110D02*
X81167310Y-115777690D01*
X80232590Y-97207750D02*
X80128450Y-97103610D01*
D12*
X121096540Y-72863250D02*
X120869290Y-73317800D01*
D10*
X137664580Y-84617450D02*
X137664580Y-84776560D01*
D11*
X87443320Y-80600450D02*
X87397600Y-80554720D01*
D10*
X137298790Y-94081800D02*
X137457880Y-94240880D01*
X157916380Y-120164320D02*
X158234570Y-121277960D01*
D11*
X81167310Y-90222750D02*
X81116510Y-90326890D01*
D10*
X145714680Y-80746800D02*
X145873780Y-80667240D01*
X134817040Y-87851790D02*
X134896560Y-88090420D01*
D12*
X158278310Y-74795070D02*
X158051030Y-75022350D01*
D10*
X156580570Y-81701330D02*
X156421490Y-81542250D01*
X134498850Y-88726790D02*
X134260220Y-88726790D01*
X123887440Y-90767940D02*
X123807920Y-91006570D01*
X151982840Y-91006570D02*
X151585130Y-91086120D01*
X134657930Y-88647240D02*
X134498850Y-88726790D01*
D11*
X87468740Y-92322520D02*
X87572880Y-92426660D01*
D12*
X152232850Y-74226870D02*
X152232850Y-73999620D01*
D10*
X148514670Y-80905880D02*
X148673780Y-80746800D01*
X124762450Y-89972480D02*
X124762450Y-91642940D01*
X136376110Y-88090420D02*
X136376110Y-88249530D01*
D11*
X80895150Y-121591240D02*
X80986060Y-121682150D01*
X80494210Y-91396230D02*
X80649150Y-91449570D01*
D10*
X160573750Y-94081800D02*
X160414650Y-94002240D01*
X123060190Y-95115880D02*
X122821560Y-95115880D01*
X122026110Y-81701330D02*
X122264740Y-81780880D01*
D11*
X81167310Y-97002010D02*
X81116510Y-97103610D01*
D10*
X159253290Y-94479510D02*
X159253290Y-94638620D01*
D13*
X86942890Y-110272830D02*
X86897170Y-110318550D01*
D10*
X147591940Y-81780880D02*
X147353310Y-81780880D01*
X153621500Y-91324750D02*
X153541940Y-91563390D01*
D12*
X136164710Y-74113260D02*
X135937430Y-74226870D01*
D10*
X131491970Y-94240880D02*
X131571530Y-94479510D01*
X137855660Y-87851790D02*
X137935190Y-88090420D01*
X134339700Y-94797700D02*
X134260170Y-95036330D01*
X142628250Y-84617450D02*
X141673690Y-84617450D01*
X146096440Y-85015190D02*
X146016910Y-84935640D01*
X136105500Y-85015190D02*
X135946400Y-85174270D01*
X147480050Y-121277960D02*
X147320950Y-121198410D01*
X142882880Y-94797700D02*
X142882880Y-94638620D01*
X137887410Y-90529300D02*
X137887410Y-91642940D01*
D12*
X153255580Y-73658700D02*
X153482860Y-73885980D01*
X153596480Y-74226870D02*
X152232850Y-74226870D01*
D10*
X156087380Y-91563390D02*
X155928300Y-91642940D01*
D11*
X87351930Y-123528980D02*
X87306210Y-123574700D01*
X87214770Y-123183540D02*
X87351930Y-123137830D01*
D10*
X133019250Y-94002240D02*
X132780620Y-94002240D01*
X143837470Y-87772260D02*
X143917020Y-87692710D01*
X146987400Y-94638620D02*
X146907870Y-94877250D01*
X149071490Y-80667240D02*
X149230600Y-80746800D01*
X125064730Y-81780880D02*
X124905630Y-81780880D01*
X130759620Y-120164320D02*
X130600540Y-120243870D01*
D11*
X86691530Y-106280400D02*
X86587390Y-106176260D01*
X80232590Y-93016750D02*
X80128450Y-92912610D01*
X87443370Y-124374800D02*
X87489090Y-124237640D01*
D10*
X140432770Y-84219710D02*
X140273690Y-84378820D01*
D11*
X80128450Y-95003030D02*
X80232590Y-95107170D01*
D10*
X158203330Y-83662890D02*
X158123800Y-83583370D01*
X151870950Y-121834780D02*
X151950480Y-121834780D01*
X136662420Y-94161350D02*
X136741980Y-94081800D01*
D11*
X80494210Y-95211310D02*
X80753290Y-95211310D01*
X80440900Y-107212830D02*
X81167340Y-107522710D01*
D10*
X136089700Y-81701330D02*
X135930620Y-81780880D01*
X156135130Y-84219710D02*
X155976050Y-84140190D01*
X135660160Y-94002240D02*
X135819240Y-94081800D01*
X136598240Y-120323430D02*
X136677790Y-120243870D01*
X153032320Y-121277960D02*
X152793660Y-121277960D01*
D12*
X143323780Y-74226870D02*
X143323780Y-74454150D01*
D10*
X143073790Y-90529300D02*
X143232870Y-90608860D01*
D11*
X87522080Y-89231340D02*
X87417940Y-89178000D01*
X86897240Y-90872180D02*
X87623680Y-90559760D01*
D10*
X159014650Y-80667240D02*
X158935100Y-80746800D01*
D12*
X134164710Y-72863250D02*
X134051070Y-72749610D01*
D10*
X125907910Y-94638620D02*
X125987440Y-94877250D01*
D11*
X87468740Y-84562820D02*
X87364600Y-84616160D01*
D10*
X145714680Y-81701330D02*
X145555600Y-81542250D01*
X156373790Y-84458370D02*
X156135130Y-84219710D01*
X143232870Y-91563390D02*
X143073790Y-91642940D01*
D11*
X87209660Y-92739080D02*
X87209660Y-92998160D01*
D10*
X138698840Y-87613150D02*
X138539740Y-87692710D01*
D11*
X80076840Y-80873920D02*
X81169040Y-80873920D01*
D12*
X127210170Y-75135960D02*
X126982920Y-75022350D01*
D11*
X86534020Y-101039800D02*
X86584820Y-100935660D01*
X87214770Y-76574540D02*
X87351930Y-76528830D01*
D10*
X130505620Y-81542250D02*
X130346540Y-81701330D01*
X137298850Y-87613150D02*
X137537480Y-87613150D01*
D12*
X126982920Y-75022350D02*
X126642000Y-74681430D01*
D11*
X80232590Y-83885450D02*
X80336730Y-83832110D01*
X80128450Y-103512030D02*
X80232590Y-103616170D01*
D10*
X133942030Y-87931340D02*
X134021590Y-87772260D01*
D11*
X87443320Y-82337800D02*
X87489040Y-82200640D01*
X80753290Y-99402310D02*
X80908230Y-99348970D01*
X80753290Y-90535170D02*
X80494210Y-90535170D01*
D10*
X145110130Y-94002240D02*
X144871500Y-94002240D01*
X153557840Y-80746800D02*
X153637400Y-80826350D01*
X145714730Y-87613150D02*
X145476100Y-87613150D01*
X143153270Y-84060630D02*
X143232790Y-84219710D01*
X129153350Y-90529300D02*
X128596530Y-90529300D01*
X133416990Y-94479510D02*
X133337440Y-94240880D01*
D11*
X86688960Y-103544240D02*
X86793100Y-103595040D01*
X86534050Y-106072120D02*
X86534050Y-105866380D01*
X86534020Y-86028400D02*
X86534020Y-86391620D01*
D12*
X139778340Y-72749610D02*
X139778340Y-75135960D01*
D11*
X80440870Y-119257490D02*
X80494210Y-119412430D01*
D10*
X131396520Y-90529300D02*
X131237440Y-90608860D01*
X160016940Y-80985430D02*
X160732840Y-80985430D01*
D11*
X86534020Y-119124600D02*
X86534020Y-119332880D01*
X87351930Y-77854700D02*
X87443370Y-77765800D01*
D10*
X140210140Y-91642940D02*
X140448780Y-91642940D01*
X121898830Y-94718140D02*
X121978380Y-94797700D01*
X141832800Y-85174270D02*
X141673690Y-85015190D01*
D11*
X80440870Y-91292090D02*
X80494210Y-91396230D01*
D10*
X157216940Y-81701330D02*
X156978310Y-81780880D01*
D11*
X80077650Y-87718310D02*
X80077650Y-88185670D01*
D12*
X131210160Y-72863250D02*
X131437440Y-73317800D01*
D11*
X86584820Y-114702460D02*
X86534020Y-114806600D01*
D10*
X128612450Y-93445430D02*
X128612450Y-95115880D01*
D12*
X159255570Y-73772340D02*
X159369210Y-73885980D01*
D10*
X144473840Y-88647240D02*
X144314730Y-88726790D01*
X159364710Y-85253820D02*
X159603350Y-85174270D01*
X138937480Y-87613150D02*
X138698840Y-87613150D01*
X142993680Y-120482510D02*
X142755050Y-120243870D01*
D11*
X80336730Y-84561090D02*
X80232590Y-84507750D01*
D10*
X152221470Y-85253820D02*
X151982840Y-85253820D01*
X156373790Y-84140190D02*
X156373790Y-85253820D01*
D11*
X80213340Y-122136710D02*
X80122430Y-122045800D01*
D10*
X134769260Y-81144510D02*
X134689710Y-80905880D01*
X159651070Y-87613150D02*
X159412440Y-87613150D01*
X132112450Y-90608860D02*
X132032890Y-90847490D01*
D12*
X143891950Y-75135960D02*
X144232870Y-75135960D01*
D10*
X133416990Y-94002240D02*
X133416990Y-95115880D01*
X126862440Y-94240880D02*
X126703360Y-94081800D01*
X126910220Y-87772260D02*
X126989770Y-87692710D01*
D11*
X87364600Y-92998160D02*
X87209660Y-92998160D01*
X80122430Y-121682150D02*
X80213340Y-121591240D01*
D10*
X139876060Y-80667240D02*
X139319240Y-80667240D01*
X159173760Y-94240880D02*
X159253290Y-94479510D01*
D11*
X81012370Y-101525750D02*
X80908230Y-101579090D01*
D10*
X146112420Y-80667240D02*
X146271500Y-80746800D01*
X136057880Y-94638620D02*
X135978350Y-94877250D01*
X153430030Y-120641590D02*
X153430030Y-120800690D01*
D11*
X80701680Y-79337220D02*
X80701680Y-80271940D01*
D10*
X122503370Y-80667240D02*
X122742000Y-80746800D01*
X123219270Y-94081800D02*
X123378380Y-94240880D01*
X138316420Y-120164320D02*
X138555050Y-120164320D01*
D11*
X81167310Y-110591010D02*
X81116510Y-110436070D01*
X80232590Y-86598170D02*
X80336730Y-86648970D01*
D10*
X132176070Y-93524980D02*
X132096520Y-93445430D01*
X142548700Y-84378820D02*
X142628250Y-84617450D01*
X146351050Y-95115880D02*
X146191940Y-95036330D01*
X127705670Y-87851790D02*
X127785220Y-88090420D01*
D11*
X80908230Y-96532110D02*
X81012370Y-96585450D01*
X80077650Y-93412990D02*
X81167310Y-93412990D01*
X80753290Y-92290310D02*
X80908230Y-92341110D01*
D10*
X126305680Y-87613150D02*
X126305680Y-88726790D01*
X128469270Y-80667240D02*
X128707910Y-80667240D01*
X140210140Y-90529300D02*
X140448780Y-90529300D01*
D12*
X125778370Y-73885980D02*
X125891990Y-74226870D01*
D11*
X87489090Y-122774610D02*
X87443370Y-122637450D01*
D10*
X151711850Y-121755220D02*
X151870950Y-121834780D01*
X154019230Y-84378820D02*
X154098760Y-84617450D01*
X154862410Y-84140190D02*
X154703310Y-84219710D01*
X153191400Y-120243870D02*
X153350480Y-120402950D01*
D11*
X86897220Y-80826510D02*
X86897220Y-80963670D01*
X80285120Y-80614840D02*
X80234320Y-80718980D01*
D10*
X129789720Y-80746800D02*
X129948800Y-80667240D01*
X151155590Y-94240880D02*
X151235110Y-94081800D01*
X142803330Y-94956800D02*
X142882880Y-94797700D01*
X129296520Y-95036330D02*
X129137440Y-94877250D01*
X158887420Y-84776560D02*
X158807870Y-84935640D01*
X142230540Y-84140190D02*
X142389620Y-84219710D01*
X135978350Y-94240880D02*
X136057880Y-94479510D01*
X138952790Y-120800690D02*
X138873240Y-121039320D01*
D11*
X86534020Y-115014880D02*
X86584820Y-115116480D01*
D10*
X150137400Y-90529300D02*
X150137400Y-91642940D01*
D11*
X80077730Y-77926630D02*
X80440950Y-77654860D01*
D10*
X157773810Y-88408610D02*
X157773810Y-88488160D01*
X152157850Y-80746800D02*
X152316950Y-80667240D01*
D11*
X87001380Y-97740340D02*
X86950580Y-97791140D01*
X87623680Y-101039800D02*
X87623680Y-101248080D01*
X80440590Y-124054860D02*
X80667870Y-124054860D01*
D10*
X143519230Y-80667240D02*
X143360150Y-80746800D01*
D12*
X144232870Y-75135960D02*
X144460150Y-75022350D01*
D11*
X80895150Y-123963960D02*
X80986060Y-123873050D01*
D10*
X127387490Y-87613150D02*
X127546590Y-87692710D01*
X139971510Y-90608860D02*
X140210140Y-90529300D01*
D12*
X122301090Y-73545060D02*
X122982920Y-75135960D01*
D10*
X150901030Y-84219710D02*
X150741920Y-84140190D01*
X143916970Y-80746800D02*
X143757860Y-80667240D01*
X138730620Y-91642940D02*
X138571510Y-91563390D01*
X138969250Y-90529300D02*
X139128330Y-90608860D01*
D11*
X86742300Y-114598320D02*
X86638160Y-114649120D01*
D10*
X156421490Y-81542250D02*
X156341940Y-81303620D01*
D12*
X143664700Y-75022350D02*
X143891950Y-75135960D01*
D10*
X147941950Y-90608860D02*
X148101030Y-90529300D01*
X148641390Y-120482510D02*
X148641390Y-121277960D01*
X121182900Y-80746800D02*
X121023820Y-80667240D01*
D11*
X80304240Y-122182150D02*
X80213340Y-122136710D01*
D10*
X149277770Y-120243870D02*
X149118680Y-120164320D01*
X137091960Y-90608860D02*
X137012440Y-90847490D01*
X150741950Y-90529300D02*
X150741950Y-91642940D01*
X126544260Y-80667240D02*
X126305620Y-80667240D01*
X123235220Y-87692710D02*
X123473880Y-87613150D01*
D11*
X81167340Y-106557520D02*
X81167340Y-106400040D01*
D10*
X153876030Y-80905880D02*
X154591930Y-80905880D01*
D12*
X135482900Y-75135960D02*
X135823790Y-75135960D01*
D10*
X132319100Y-83583370D02*
X132319100Y-85253820D01*
D11*
X80753290Y-101320010D02*
X80753290Y-101579090D01*
X81167310Y-101320010D02*
X81116510Y-101421610D01*
D10*
X136248780Y-81542250D02*
X136089700Y-81701330D01*
X127546540Y-80667240D02*
X127546540Y-81780880D01*
X153462390Y-84140190D02*
X153701050Y-84140190D01*
D11*
X87214720Y-81146540D02*
X87351880Y-81100830D01*
D12*
X135482900Y-73545060D02*
X135823790Y-73545060D01*
D11*
X80213340Y-123963960D02*
X80304240Y-124009420D01*
X86897270Y-124191930D02*
X86897270Y-124329090D01*
X86950580Y-89749500D02*
X87052180Y-89853640D01*
D10*
X147591940Y-80667240D02*
X147751050Y-80746800D01*
D11*
X86534000Y-81100830D02*
X86897220Y-80826510D01*
X87572880Y-103440100D02*
X87623680Y-103282620D01*
D10*
X151791930Y-94479510D02*
X151394220Y-94559060D01*
X153144230Y-84140190D02*
X153144230Y-85253820D01*
X154511840Y-121277960D02*
X154273210Y-121277960D01*
X134896560Y-88090420D02*
X133942030Y-88090420D01*
X123219270Y-95036330D02*
X123060190Y-95115880D01*
X154035110Y-80905880D02*
X153478320Y-81780880D01*
D11*
X80908230Y-92341110D02*
X81012370Y-92394450D01*
X80077650Y-110956770D02*
X80077650Y-110436070D01*
D10*
X129948800Y-81780880D02*
X129789720Y-81701330D01*
X123378380Y-94877250D02*
X123219270Y-95036330D01*
X135819240Y-94081800D02*
X135978350Y-94240880D01*
D12*
X144460150Y-73658700D02*
X144232870Y-73545060D01*
D10*
X148816930Y-84219710D02*
X148657830Y-84140190D01*
X129105620Y-81144510D02*
X129105620Y-81303620D01*
X143471500Y-91006570D02*
X142516970Y-91006570D01*
X127785220Y-88090420D02*
X126830690Y-88090420D01*
X126703360Y-94081800D02*
X126544260Y-94002240D01*
X151346490Y-91324750D02*
X151346490Y-91404310D01*
X137425950Y-84219710D02*
X137585050Y-84378820D01*
D11*
X87489090Y-124100480D02*
X87443370Y-123965860D01*
X86942990Y-123092110D02*
X86988710Y-123137830D01*
D10*
X149595950Y-120243870D02*
X149516400Y-120482510D01*
D11*
X87572880Y-97791140D02*
X87522080Y-97740340D01*
X80494210Y-114967430D02*
X80595810Y-115071570D01*
D10*
X140687410Y-91563390D02*
X140766960Y-91404310D01*
D11*
X86950580Y-95139380D02*
X87209660Y-95139380D01*
D10*
X154846540Y-88647240D02*
X154687430Y-88726790D01*
X125032960Y-87613150D02*
X124794320Y-87613150D01*
X160732840Y-80110430D02*
X160016940Y-80110430D01*
X131794260Y-90608860D02*
X131635150Y-90529300D01*
X123951150Y-87692710D02*
X124030700Y-87851790D01*
D11*
X80077650Y-96793730D02*
X80128450Y-96689590D01*
D10*
X123744260Y-81780880D02*
X123585180Y-81701330D01*
X154670950Y-120243870D02*
X154830030Y-120402950D01*
X140432340Y-120800690D02*
X140352790Y-121039320D01*
D11*
X81116510Y-95003030D02*
X81167310Y-94845550D01*
X80494210Y-103720310D02*
X80753290Y-103720310D01*
D10*
X128914710Y-91324750D02*
X128835160Y-91563390D01*
X146239140Y-121277960D02*
X146000500Y-121277960D01*
X151744260Y-87613150D02*
X151426100Y-88726790D01*
X127785220Y-88090420D02*
X127785220Y-88249530D01*
X149898770Y-90608860D02*
X149739660Y-90529300D01*
X151426050Y-91165670D02*
X151346490Y-91324750D01*
X152475500Y-120164320D02*
X152475500Y-121277960D01*
X130187430Y-80667240D02*
X130346540Y-80746800D01*
X159714120Y-120164320D02*
X160032300Y-121277960D01*
X143232870Y-90608860D02*
X143391950Y-90767940D01*
D11*
X80076960Y-122482150D02*
X81031520Y-122482150D01*
D10*
X155593650Y-120959770D02*
X155514130Y-121039320D01*
X136328340Y-81144510D02*
X136328340Y-81303620D01*
D11*
X87443320Y-81009380D02*
X87489040Y-80872220D01*
D10*
X142596500Y-90688410D02*
X142676050Y-90608860D01*
X146191940Y-94081800D02*
X146351050Y-94002240D01*
D11*
X87209660Y-101248080D02*
X87209660Y-101507160D01*
D10*
X150916950Y-81780880D02*
X151155590Y-81780880D01*
X142087410Y-94002240D02*
X142007880Y-93843160D01*
D11*
X81012370Y-90431030D02*
X80908230Y-90481830D01*
X86950610Y-105553960D02*
X87209690Y-105553960D01*
X80595810Y-119516570D02*
X80753290Y-119569910D01*
D10*
X129630640Y-80905880D02*
X129789720Y-80746800D01*
D11*
X87623680Y-89594560D02*
X87623680Y-89437080D01*
D10*
X143232790Y-84219710D02*
X143312350Y-84299270D01*
X138905600Y-95115880D02*
X138746520Y-95036330D01*
D11*
X86534020Y-114806600D02*
X86534020Y-115014880D01*
D10*
X158139650Y-80189980D02*
X158378310Y-80110430D01*
D13*
X87443270Y-110318550D02*
X87397550Y-110272830D01*
D11*
X86950580Y-97791140D02*
X86897240Y-97946080D01*
D10*
X153637400Y-80189980D02*
X153557840Y-80269530D01*
D11*
X80595810Y-115071570D02*
X80753290Y-115124910D01*
D10*
X149660190Y-87056330D02*
X149660190Y-88408610D01*
D12*
X151482870Y-73545060D02*
X151482870Y-75135960D01*
D10*
X146589680Y-94002240D02*
X146748760Y-94081800D01*
D11*
X80753290Y-103720310D02*
X80908230Y-103666970D01*
X81116510Y-88840990D02*
X81012370Y-88787650D01*
X80128450Y-97103610D02*
X80077650Y-97002010D01*
D10*
X156326090Y-88647240D02*
X156166980Y-88726790D01*
X130012450Y-94240880D02*
X130091980Y-94479510D01*
X141880600Y-80826350D02*
X141960150Y-80746800D01*
X124142000Y-81701330D02*
X123982920Y-81780880D01*
D11*
X80122430Y-123873050D02*
X80213340Y-123963960D01*
D10*
X135103350Y-94240880D02*
X135262430Y-94081800D01*
D11*
X86534020Y-92530800D02*
X86584820Y-92426660D01*
D10*
X155769270Y-88647240D02*
X155610160Y-88488160D01*
D11*
X87351880Y-81491980D02*
X87306160Y-81537700D01*
D12*
X124755640Y-75022350D02*
X124528360Y-74795070D01*
D10*
X150741950Y-90052040D02*
X150662400Y-89972480D01*
X149230600Y-80746800D02*
X149389680Y-80905880D01*
X154623780Y-84458370D02*
X154623780Y-85253820D01*
X155498760Y-94002240D02*
X155657840Y-94081800D01*
X137139740Y-88647240D02*
X136980660Y-88488160D01*
D11*
X80494210Y-83781310D02*
X80753290Y-83781310D01*
X87443370Y-123965860D02*
X87397650Y-123920140D01*
D10*
X126512460Y-89972480D02*
X126512460Y-91642940D01*
D11*
X86534020Y-94410400D02*
X87623680Y-94410400D01*
D10*
X123060190Y-95672700D02*
X123219270Y-95593150D01*
D11*
X80285120Y-81892460D02*
X80389260Y-81892460D01*
X86793100Y-118916320D02*
X86742300Y-118916320D01*
D10*
X158203330Y-83503810D02*
X158282880Y-83583370D01*
X146016910Y-84935640D02*
X146096440Y-84856090D01*
D12*
X135141980Y-75022350D02*
X135482900Y-75135960D01*
D10*
X150137400Y-90847490D02*
X149898770Y-90608860D01*
D11*
X81032770Y-77563410D02*
X80987050Y-77428790D01*
D10*
X157853340Y-88647240D02*
X158091970Y-88726790D01*
X142564700Y-95115880D02*
X142723780Y-95036330D01*
X135230070Y-120402950D02*
X135309620Y-120641590D01*
X140480600Y-80746800D02*
X140401050Y-80985430D01*
X134657930Y-87692710D02*
X134817040Y-87851790D01*
X126146540Y-80746800D02*
X126066990Y-80985430D01*
D11*
X80908230Y-103666970D02*
X81012370Y-103616170D01*
D10*
X141960150Y-80746800D02*
X142119230Y-80667240D01*
X136216980Y-90608860D02*
X136137430Y-90847490D01*
X142516970Y-81701330D02*
X142357870Y-81780880D01*
X131523650Y-84219710D02*
X131444090Y-84458370D01*
X129678360Y-91006570D02*
X129678360Y-90847490D01*
D11*
X87522080Y-97740340D02*
X87417940Y-97687000D01*
X86584820Y-101349680D02*
X86534020Y-101248080D01*
D10*
X136296560Y-87851790D02*
X136376110Y-88090420D01*
X156341940Y-81303620D02*
X156341940Y-80110430D01*
D11*
X86897270Y-76391670D02*
X86942990Y-76483110D01*
D10*
X134911880Y-121277960D02*
X134673250Y-121277960D01*
X138555050Y-121277960D02*
X138316420Y-121277960D01*
D11*
X86793100Y-92998160D02*
X86688960Y-92944820D01*
D10*
X127991980Y-91165670D02*
X127912450Y-91404310D01*
X151426050Y-91563390D02*
X151664680Y-91642940D01*
D12*
X125551090Y-75022350D02*
X125323810Y-75135960D01*
D10*
X141991880Y-85253820D02*
X141832800Y-85174270D01*
D12*
X160732840Y-72749610D02*
X159710100Y-72749610D01*
D10*
X148673780Y-80746800D02*
X148832860Y-80667240D01*
X127991980Y-91006570D02*
X127991980Y-91165670D01*
X137457880Y-94240880D02*
X137537430Y-94479510D01*
X156819200Y-81780880D02*
X156580570Y-81701330D01*
D11*
X80545010Y-110385270D02*
X80494210Y-110436070D01*
D12*
X152460130Y-73658700D02*
X152687380Y-73545060D01*
D10*
X149898820Y-87613150D02*
X149342000Y-87613150D01*
X160653330Y-87613150D02*
X160653330Y-88726790D01*
D11*
X80077680Y-106245100D02*
X80545040Y-106194290D01*
X87489040Y-82063480D02*
X87443320Y-81928860D01*
X80440900Y-106400040D02*
X80440900Y-106557520D01*
D13*
X87488990Y-110455710D02*
X87443270Y-110318550D01*
D10*
X145873780Y-80667240D02*
X146112420Y-80667240D01*
X158648790Y-87851790D02*
X158569260Y-88010890D01*
X147353310Y-80667240D02*
X147591940Y-80667240D01*
D11*
X87443370Y-122637450D02*
X87397650Y-122591720D01*
X80076960Y-121773050D02*
X80122430Y-121682150D01*
D10*
X158552750Y-120164320D02*
X158234570Y-121277960D01*
X123712510Y-87613150D02*
X123951150Y-87692710D01*
D11*
X87105520Y-119383680D02*
X87623680Y-118862980D01*
D10*
X151393660Y-121277960D02*
X151552770Y-121596140D01*
D11*
X80494210Y-92290310D02*
X80753290Y-92290310D01*
D10*
X130553340Y-90767940D02*
X130632900Y-91006570D01*
X150741950Y-89892930D02*
X150821500Y-89972480D01*
X136185030Y-84617450D02*
X135230500Y-84617450D01*
D11*
X87123330Y-77900430D02*
X87214770Y-77900430D01*
D10*
X136248780Y-80905880D02*
X136328340Y-81144510D01*
X132907900Y-90847490D02*
X132669260Y-90608860D01*
X151951040Y-95036330D02*
X152030590Y-94877250D01*
X127196530Y-90608860D02*
X127355630Y-90529300D01*
X136741980Y-94081800D02*
X136901060Y-94002240D01*
X143757910Y-88090420D02*
X143757910Y-87931340D01*
X150503290Y-84140190D02*
X150344210Y-84219710D01*
X128151090Y-80905880D02*
X128310170Y-80746800D01*
X138316420Y-121277960D02*
X138157340Y-121198410D01*
D11*
X87443370Y-76437380D02*
X87489090Y-76300220D01*
D10*
X122742000Y-80746800D02*
X122821560Y-80905880D01*
X152157850Y-81701330D02*
X151998770Y-81542250D01*
D11*
X80493400Y-81841660D02*
X80648340Y-81737520D01*
D10*
X130919100Y-84776560D02*
X130839550Y-85015190D01*
X144871500Y-94002240D02*
X144712420Y-94081800D01*
D12*
X158278310Y-73885980D02*
X158391920Y-74226870D01*
X127778370Y-75022350D02*
X127551090Y-75135960D01*
D10*
X154448800Y-88726790D02*
X154289720Y-88647240D01*
X137251070Y-80428610D02*
X137251070Y-81780880D01*
D11*
X80595810Y-89359150D02*
X80494210Y-89308350D01*
D10*
X130632900Y-91006570D02*
X129678360Y-91006570D01*
D11*
X81116510Y-99194030D02*
X81167310Y-99036550D01*
D10*
X149501030Y-90529300D02*
X149341950Y-90608860D01*
X122582900Y-81144510D02*
X122185190Y-81224060D01*
D11*
X86534020Y-89802840D02*
X86534020Y-89282140D01*
D10*
X160016940Y-95036330D02*
X160176020Y-95115880D01*
X142405590Y-93524980D02*
X142485140Y-93684060D01*
X133942030Y-88090420D02*
X133942030Y-87931340D01*
X121421560Y-80110430D02*
X121421560Y-81780880D01*
X146000500Y-121277960D02*
X145841400Y-121198410D01*
X155689670Y-91642940D02*
X155530580Y-91563390D01*
X159253340Y-87692710D02*
X159173810Y-87931340D01*
X146557320Y-120402950D02*
X146636880Y-120641590D01*
X125907910Y-94479510D02*
X125907910Y-94638620D01*
X143471500Y-91006570D02*
X143471500Y-91165670D01*
X122026110Y-81303620D02*
X121946550Y-81462700D01*
X132319100Y-84458370D02*
X132080470Y-84219710D01*
X126830690Y-88090420D02*
X126830690Y-87931340D01*
X144871500Y-90847490D02*
X144632870Y-90608860D01*
X151155590Y-80667240D02*
X150916950Y-80667240D01*
D11*
X80077650Y-110436070D02*
X80545010Y-110385270D01*
D10*
X141769250Y-94638620D02*
X141928330Y-94877250D01*
D14*
X110609813Y-57824619D02*
X110609813Y-56824619D01*
X110609813Y-56824619D02*
X110228861Y-56824619D01*
X110228861Y-56824619D02*
X110133623Y-56872238D01*
X110133623Y-56872238D02*
X110086004Y-56919857D01*
X110086004Y-56919857D02*
X110038385Y-57015095D01*
X110038385Y-57015095D02*
X110038385Y-57157952D01*
X110038385Y-57157952D02*
X110086004Y-57253190D01*
X110086004Y-57253190D02*
X110133623Y-57300809D01*
X110133623Y-57300809D02*
X110228861Y-57348428D01*
X110228861Y-57348428D02*
X110609813Y-57348428D01*
X109276480Y-57300809D02*
X109609813Y-57300809D01*
X109609813Y-57824619D02*
X109609813Y-56824619D01*
X109609813Y-56824619D02*
X109133623Y-56824619D01*
X108847908Y-56824619D02*
X108609813Y-57824619D01*
X108609813Y-57824619D02*
X108419337Y-57110333D01*
X108419337Y-57110333D02*
X108228861Y-57824619D01*
X108228861Y-57824619D02*
X107990766Y-56824619D01*
X122761718Y-52730809D02*
X122618861Y-52778428D01*
X122618861Y-52778428D02*
X122571242Y-52826047D01*
X122571242Y-52826047D02*
X122523623Y-52921285D01*
X122523623Y-52921285D02*
X122523623Y-53064142D01*
X122523623Y-53064142D02*
X122571242Y-53159380D01*
X122571242Y-53159380D02*
X122618861Y-53207000D01*
X122618861Y-53207000D02*
X122714099Y-53254619D01*
X122714099Y-53254619D02*
X123095051Y-53254619D01*
X123095051Y-53254619D02*
X123095051Y-52254619D01*
X123095051Y-52254619D02*
X122761718Y-52254619D01*
X122761718Y-52254619D02*
X122666480Y-52302238D01*
X122666480Y-52302238D02*
X122618861Y-52349857D01*
X122618861Y-52349857D02*
X122571242Y-52445095D01*
X122571242Y-52445095D02*
X122571242Y-52540333D01*
X122571242Y-52540333D02*
X122618861Y-52635571D01*
X122618861Y-52635571D02*
X122666480Y-52683190D01*
X122666480Y-52683190D02*
X122761718Y-52730809D01*
X122761718Y-52730809D02*
X123095051Y-52730809D01*
X121618861Y-53254619D02*
X122095051Y-53254619D01*
X122095051Y-53254619D02*
X122095051Y-52254619D01*
X121285527Y-53254619D02*
X121285527Y-52254619D01*
X120714099Y-53254619D02*
X121142670Y-52683190D01*
X120714099Y-52254619D02*
X121285527Y-52826047D01*
X107429813Y-57453666D02*
X106667909Y-57453666D01*
X107048861Y-57834619D02*
X107048861Y-57072714D01*
X105715528Y-56834619D02*
X106191718Y-56834619D01*
X106191718Y-56834619D02*
X106239337Y-57310809D01*
X106239337Y-57310809D02*
X106191718Y-57263190D01*
X106191718Y-57263190D02*
X106096480Y-57215571D01*
X106096480Y-57215571D02*
X105858385Y-57215571D01*
X105858385Y-57215571D02*
X105763147Y-57263190D01*
X105763147Y-57263190D02*
X105715528Y-57310809D01*
X105715528Y-57310809D02*
X105667909Y-57406047D01*
X105667909Y-57406047D02*
X105667909Y-57644142D01*
X105667909Y-57644142D02*
X105715528Y-57739380D01*
X105715528Y-57739380D02*
X105763147Y-57787000D01*
X105763147Y-57787000D02*
X105858385Y-57834619D01*
X105858385Y-57834619D02*
X106096480Y-57834619D01*
X106096480Y-57834619D02*
X106191718Y-57787000D01*
X106191718Y-57787000D02*
X106239337Y-57739380D01*
X105382194Y-56834619D02*
X105048861Y-57834619D01*
X105048861Y-57834619D02*
X104715528Y-56834619D01*
X104429813Y-57787000D02*
X104286956Y-57834619D01*
X104286956Y-57834619D02*
X104048861Y-57834619D01*
X104048861Y-57834619D02*
X103953623Y-57787000D01*
X103953623Y-57787000D02*
X103906004Y-57739380D01*
X103906004Y-57739380D02*
X103858385Y-57644142D01*
X103858385Y-57644142D02*
X103858385Y-57548904D01*
X103858385Y-57548904D02*
X103906004Y-57453666D01*
X103906004Y-57453666D02*
X103953623Y-57406047D01*
X103953623Y-57406047D02*
X104048861Y-57358428D01*
X104048861Y-57358428D02*
X104239337Y-57310809D01*
X104239337Y-57310809D02*
X104334575Y-57263190D01*
X104334575Y-57263190D02*
X104382194Y-57215571D01*
X104382194Y-57215571D02*
X104429813Y-57120333D01*
X104429813Y-57120333D02*
X104429813Y-57025095D01*
X104429813Y-57025095D02*
X104382194Y-56929857D01*
X104382194Y-56929857D02*
X104334575Y-56882238D01*
X104334575Y-56882238D02*
X104239337Y-56834619D01*
X104239337Y-56834619D02*
X104001242Y-56834619D01*
X104001242Y-56834619D02*
X103858385Y-56882238D01*
X103096480Y-57310809D02*
X102953623Y-57358428D01*
X102953623Y-57358428D02*
X102906004Y-57406047D01*
X102906004Y-57406047D02*
X102858385Y-57501285D01*
X102858385Y-57501285D02*
X102858385Y-57644142D01*
X102858385Y-57644142D02*
X102906004Y-57739380D01*
X102906004Y-57739380D02*
X102953623Y-57787000D01*
X102953623Y-57787000D02*
X103048861Y-57834619D01*
X103048861Y-57834619D02*
X103429813Y-57834619D01*
X103429813Y-57834619D02*
X103429813Y-56834619D01*
X103429813Y-56834619D02*
X103096480Y-56834619D01*
X103096480Y-56834619D02*
X103001242Y-56882238D01*
X103001242Y-56882238D02*
X102953623Y-56929857D01*
X102953623Y-56929857D02*
X102906004Y-57025095D01*
X102906004Y-57025095D02*
X102906004Y-57120333D01*
X102906004Y-57120333D02*
X102953623Y-57215571D01*
X102953623Y-57215571D02*
X103001242Y-57263190D01*
X103001242Y-57263190D02*
X103096480Y-57310809D01*
X103096480Y-57310809D02*
X103429813Y-57310809D01*
X105834575Y-52588428D02*
X105834575Y-53064619D01*
X106167908Y-52064619D02*
X105834575Y-52588428D01*
X105834575Y-52588428D02*
X105501242Y-52064619D01*
X104691718Y-53064619D02*
X105167908Y-53064619D01*
X105167908Y-53064619D02*
X105167908Y-52064619D01*
X104453622Y-52064619D02*
X104215527Y-53064619D01*
X104215527Y-53064619D02*
X104025051Y-52350333D01*
X104025051Y-52350333D02*
X103834575Y-53064619D01*
X103834575Y-53064619D02*
X103596480Y-52064619D01*
X109707003Y-63614675D02*
X110040336Y-63138484D01*
X110278431Y-63614675D02*
X110278431Y-62614675D01*
X110278431Y-62614675D02*
X109897479Y-62614675D01*
X109897479Y-62614675D02*
X109802241Y-62662294D01*
X109802241Y-62662294D02*
X109754622Y-62709913D01*
X109754622Y-62709913D02*
X109707003Y-62805151D01*
X109707003Y-62805151D02*
X109707003Y-62948008D01*
X109707003Y-62948008D02*
X109754622Y-63043246D01*
X109754622Y-63043246D02*
X109802241Y-63090865D01*
X109802241Y-63090865D02*
X109897479Y-63138484D01*
X109897479Y-63138484D02*
X110278431Y-63138484D01*
X109278431Y-63090865D02*
X108945098Y-63090865D01*
X108802241Y-63614675D02*
X109278431Y-63614675D01*
X109278431Y-63614675D02*
X109278431Y-62614675D01*
X109278431Y-62614675D02*
X108802241Y-62614675D01*
X108373669Y-63614675D02*
X108373669Y-62614675D01*
X108373669Y-62614675D02*
X108135574Y-62614675D01*
X108135574Y-62614675D02*
X107992717Y-62662294D01*
X107992717Y-62662294D02*
X107897479Y-62757532D01*
X107897479Y-62757532D02*
X107849860Y-62852770D01*
X107849860Y-62852770D02*
X107802241Y-63043246D01*
X107802241Y-63043246D02*
X107802241Y-63186103D01*
X107802241Y-63186103D02*
X107849860Y-63376579D01*
X107849860Y-63376579D02*
X107897479Y-63471817D01*
X107897479Y-63471817D02*
X107992717Y-63567056D01*
X107992717Y-63567056D02*
X108135574Y-63614675D01*
X108135574Y-63614675D02*
X108373669Y-63614675D01*
X110278431Y-64843666D02*
X109516527Y-64843666D01*
X109897479Y-65224619D02*
X109897479Y-64462714D01*
X108564146Y-64224619D02*
X109040336Y-64224619D01*
X109040336Y-64224619D02*
X109087955Y-64700809D01*
X109087955Y-64700809D02*
X109040336Y-64653190D01*
X109040336Y-64653190D02*
X108945098Y-64605571D01*
X108945098Y-64605571D02*
X108707003Y-64605571D01*
X108707003Y-64605571D02*
X108611765Y-64653190D01*
X108611765Y-64653190D02*
X108564146Y-64700809D01*
X108564146Y-64700809D02*
X108516527Y-64796047D01*
X108516527Y-64796047D02*
X108516527Y-65034142D01*
X108516527Y-65034142D02*
X108564146Y-65129380D01*
X108564146Y-65129380D02*
X108611765Y-65177000D01*
X108611765Y-65177000D02*
X108707003Y-65224619D01*
X108707003Y-65224619D02*
X108945098Y-65224619D01*
X108945098Y-65224619D02*
X109040336Y-65177000D01*
X109040336Y-65177000D02*
X109087955Y-65129380D01*
X108230812Y-64224619D02*
X107897479Y-65224619D01*
X107897479Y-65224619D02*
X107564146Y-64224619D01*
X122806004Y-56892238D02*
X122901242Y-56844619D01*
X122901242Y-56844619D02*
X123044099Y-56844619D01*
X123044099Y-56844619D02*
X123186956Y-56892238D01*
X123186956Y-56892238D02*
X123282194Y-56987476D01*
X123282194Y-56987476D02*
X123329813Y-57082714D01*
X123329813Y-57082714D02*
X123377432Y-57273190D01*
X123377432Y-57273190D02*
X123377432Y-57416047D01*
X123377432Y-57416047D02*
X123329813Y-57606523D01*
X123329813Y-57606523D02*
X123282194Y-57701761D01*
X123282194Y-57701761D02*
X123186956Y-57797000D01*
X123186956Y-57797000D02*
X123044099Y-57844619D01*
X123044099Y-57844619D02*
X122948861Y-57844619D01*
X122948861Y-57844619D02*
X122806004Y-57797000D01*
X122806004Y-57797000D02*
X122758385Y-57749380D01*
X122758385Y-57749380D02*
X122758385Y-57416047D01*
X122758385Y-57416047D02*
X122948861Y-57416047D01*
X122329813Y-57844619D02*
X122329813Y-56844619D01*
X122329813Y-56844619D02*
X121758385Y-57844619D01*
X121758385Y-57844619D02*
X121758385Y-56844619D01*
X121282194Y-57844619D02*
X121282194Y-56844619D01*
X121282194Y-56844619D02*
X121044099Y-56844619D01*
X121044099Y-56844619D02*
X120901242Y-56892238D01*
X120901242Y-56892238D02*
X120806004Y-56987476D01*
X120806004Y-56987476D02*
X120758385Y-57082714D01*
X120758385Y-57082714D02*
X120710766Y-57273190D01*
X120710766Y-57273190D02*
X120710766Y-57416047D01*
X120710766Y-57416047D02*
X120758385Y-57606523D01*
X120758385Y-57606523D02*
X120806004Y-57701761D01*
X120806004Y-57701761D02*
X120901242Y-57797000D01*
X120901242Y-57797000D02*
X121044099Y-57844619D01*
X121044099Y-57844619D02*
X121282194Y-57844619D01*
X115769813Y-57473666D02*
X115007909Y-57473666D01*
X114007909Y-57854619D02*
X114579337Y-57854619D01*
X114293623Y-57854619D02*
X114293623Y-56854619D01*
X114293623Y-56854619D02*
X114388861Y-56997476D01*
X114388861Y-56997476D02*
X114484099Y-57092714D01*
X114484099Y-57092714D02*
X114579337Y-57140333D01*
X113626956Y-56949857D02*
X113579337Y-56902238D01*
X113579337Y-56902238D02*
X113484099Y-56854619D01*
X113484099Y-56854619D02*
X113246004Y-56854619D01*
X113246004Y-56854619D02*
X113150766Y-56902238D01*
X113150766Y-56902238D02*
X113103147Y-56949857D01*
X113103147Y-56949857D02*
X113055528Y-57045095D01*
X113055528Y-57045095D02*
X113055528Y-57140333D01*
X113055528Y-57140333D02*
X113103147Y-57283190D01*
X113103147Y-57283190D02*
X113674575Y-57854619D01*
X113674575Y-57854619D02*
X113055528Y-57854619D01*
X112769813Y-56854619D02*
X112436480Y-57854619D01*
X112436480Y-57854619D02*
X112103147Y-56854619D01*
X118421718Y-52620809D02*
X118278861Y-52668428D01*
X118278861Y-52668428D02*
X118231242Y-52716047D01*
X118231242Y-52716047D02*
X118183623Y-52811285D01*
X118183623Y-52811285D02*
X118183623Y-52954142D01*
X118183623Y-52954142D02*
X118231242Y-53049380D01*
X118231242Y-53049380D02*
X118278861Y-53097000D01*
X118278861Y-53097000D02*
X118374099Y-53144619D01*
X118374099Y-53144619D02*
X118755051Y-53144619D01*
X118755051Y-53144619D02*
X118755051Y-52144619D01*
X118755051Y-52144619D02*
X118421718Y-52144619D01*
X118421718Y-52144619D02*
X118326480Y-52192238D01*
X118326480Y-52192238D02*
X118278861Y-52239857D01*
X118278861Y-52239857D02*
X118231242Y-52335095D01*
X118231242Y-52335095D02*
X118231242Y-52430333D01*
X118231242Y-52430333D02*
X118278861Y-52525571D01*
X118278861Y-52525571D02*
X118326480Y-52573190D01*
X118326480Y-52573190D02*
X118421718Y-52620809D01*
X118421718Y-52620809D02*
X118755051Y-52620809D01*
X117278861Y-53144619D02*
X117755051Y-53144619D01*
X117755051Y-53144619D02*
X117755051Y-52144619D01*
X116945527Y-53144619D02*
X116945527Y-52144619D01*
X116374099Y-53144619D02*
X116802670Y-52573190D01*
X116374099Y-52144619D02*
X116945527Y-52716047D01*
X114025003Y-63614675D02*
X114358336Y-63138484D01*
X114596431Y-63614675D02*
X114596431Y-62614675D01*
X114596431Y-62614675D02*
X114215479Y-62614675D01*
X114215479Y-62614675D02*
X114120241Y-62662294D01*
X114120241Y-62662294D02*
X114072622Y-62709913D01*
X114072622Y-62709913D02*
X114025003Y-62805151D01*
X114025003Y-62805151D02*
X114025003Y-62948008D01*
X114025003Y-62948008D02*
X114072622Y-63043246D01*
X114072622Y-63043246D02*
X114120241Y-63090865D01*
X114120241Y-63090865D02*
X114215479Y-63138484D01*
X114215479Y-63138484D02*
X114596431Y-63138484D01*
X113596431Y-63090865D02*
X113263098Y-63090865D01*
X113120241Y-63614675D02*
X113596431Y-63614675D01*
X113596431Y-63614675D02*
X113596431Y-62614675D01*
X113596431Y-62614675D02*
X113120241Y-62614675D01*
X112691669Y-63614675D02*
X112691669Y-62614675D01*
X112691669Y-62614675D02*
X112453574Y-62614675D01*
X112453574Y-62614675D02*
X112310717Y-62662294D01*
X112310717Y-62662294D02*
X112215479Y-62757532D01*
X112215479Y-62757532D02*
X112167860Y-62852770D01*
X112167860Y-62852770D02*
X112120241Y-63043246D01*
X112120241Y-63043246D02*
X112120241Y-63186103D01*
X112120241Y-63186103D02*
X112167860Y-63376579D01*
X112167860Y-63376579D02*
X112215479Y-63471817D01*
X112215479Y-63471817D02*
X112310717Y-63567056D01*
X112310717Y-63567056D02*
X112453574Y-63614675D01*
X112453574Y-63614675D02*
X112691669Y-63614675D01*
X114596431Y-64843666D02*
X113834527Y-64843666D01*
X114215479Y-65224619D02*
X114215479Y-64462714D01*
X112882146Y-64224619D02*
X113358336Y-64224619D01*
X113358336Y-64224619D02*
X113405955Y-64700809D01*
X113405955Y-64700809D02*
X113358336Y-64653190D01*
X113358336Y-64653190D02*
X113263098Y-64605571D01*
X113263098Y-64605571D02*
X113025003Y-64605571D01*
X113025003Y-64605571D02*
X112929765Y-64653190D01*
X112929765Y-64653190D02*
X112882146Y-64700809D01*
X112882146Y-64700809D02*
X112834527Y-64796047D01*
X112834527Y-64796047D02*
X112834527Y-65034142D01*
X112834527Y-65034142D02*
X112882146Y-65129380D01*
X112882146Y-65129380D02*
X112929765Y-65177000D01*
X112929765Y-65177000D02*
X113025003Y-65224619D01*
X113025003Y-65224619D02*
X113263098Y-65224619D01*
X113263098Y-65224619D02*
X113358336Y-65177000D01*
X113358336Y-65177000D02*
X113405955Y-65129380D01*
X112548812Y-64224619D02*
X112215479Y-65224619D01*
X112215479Y-65224619D02*
X111882146Y-64224619D01*
X118216003Y-63614675D02*
X118549336Y-63138484D01*
X118787431Y-63614675D02*
X118787431Y-62614675D01*
X118787431Y-62614675D02*
X118406479Y-62614675D01*
X118406479Y-62614675D02*
X118311241Y-62662294D01*
X118311241Y-62662294D02*
X118263622Y-62709913D01*
X118263622Y-62709913D02*
X118216003Y-62805151D01*
X118216003Y-62805151D02*
X118216003Y-62948008D01*
X118216003Y-62948008D02*
X118263622Y-63043246D01*
X118263622Y-63043246D02*
X118311241Y-63090865D01*
X118311241Y-63090865D02*
X118406479Y-63138484D01*
X118406479Y-63138484D02*
X118787431Y-63138484D01*
X117787431Y-63090865D02*
X117454098Y-63090865D01*
X117311241Y-63614675D02*
X117787431Y-63614675D01*
X117787431Y-63614675D02*
X117787431Y-62614675D01*
X117787431Y-62614675D02*
X117311241Y-62614675D01*
X116882669Y-63614675D02*
X116882669Y-62614675D01*
X116882669Y-62614675D02*
X116644574Y-62614675D01*
X116644574Y-62614675D02*
X116501717Y-62662294D01*
X116501717Y-62662294D02*
X116406479Y-62757532D01*
X116406479Y-62757532D02*
X116358860Y-62852770D01*
X116358860Y-62852770D02*
X116311241Y-63043246D01*
X116311241Y-63043246D02*
X116311241Y-63186103D01*
X116311241Y-63186103D02*
X116358860Y-63376579D01*
X116358860Y-63376579D02*
X116406479Y-63471817D01*
X116406479Y-63471817D02*
X116501717Y-63567056D01*
X116501717Y-63567056D02*
X116644574Y-63614675D01*
X116644574Y-63614675D02*
X116882669Y-63614675D01*
X118787431Y-64843666D02*
X118025527Y-64843666D01*
X118406479Y-65224619D02*
X118406479Y-64462714D01*
X117073146Y-64224619D02*
X117549336Y-64224619D01*
X117549336Y-64224619D02*
X117596955Y-64700809D01*
X117596955Y-64700809D02*
X117549336Y-64653190D01*
X117549336Y-64653190D02*
X117454098Y-64605571D01*
X117454098Y-64605571D02*
X117216003Y-64605571D01*
X117216003Y-64605571D02*
X117120765Y-64653190D01*
X117120765Y-64653190D02*
X117073146Y-64700809D01*
X117073146Y-64700809D02*
X117025527Y-64796047D01*
X117025527Y-64796047D02*
X117025527Y-65034142D01*
X117025527Y-65034142D02*
X117073146Y-65129380D01*
X117073146Y-65129380D02*
X117120765Y-65177000D01*
X117120765Y-65177000D02*
X117216003Y-65224619D01*
X117216003Y-65224619D02*
X117454098Y-65224619D01*
X117454098Y-65224619D02*
X117549336Y-65177000D01*
X117549336Y-65177000D02*
X117596955Y-65129380D01*
X116739812Y-64224619D02*
X116406479Y-65224619D01*
X116406479Y-65224619D02*
X116073146Y-64224619D01*
X105881098Y-63090865D02*
X105738241Y-63138484D01*
X105738241Y-63138484D02*
X105690622Y-63186103D01*
X105690622Y-63186103D02*
X105643003Y-63281341D01*
X105643003Y-63281341D02*
X105643003Y-63424198D01*
X105643003Y-63424198D02*
X105690622Y-63519436D01*
X105690622Y-63519436D02*
X105738241Y-63567056D01*
X105738241Y-63567056D02*
X105833479Y-63614675D01*
X105833479Y-63614675D02*
X106214431Y-63614675D01*
X106214431Y-63614675D02*
X106214431Y-62614675D01*
X106214431Y-62614675D02*
X105881098Y-62614675D01*
X105881098Y-62614675D02*
X105785860Y-62662294D01*
X105785860Y-62662294D02*
X105738241Y-62709913D01*
X105738241Y-62709913D02*
X105690622Y-62805151D01*
X105690622Y-62805151D02*
X105690622Y-62900389D01*
X105690622Y-62900389D02*
X105738241Y-62995627D01*
X105738241Y-62995627D02*
X105785860Y-63043246D01*
X105785860Y-63043246D02*
X105881098Y-63090865D01*
X105881098Y-63090865D02*
X106214431Y-63090865D01*
X104738241Y-63614675D02*
X105214431Y-63614675D01*
X105214431Y-63614675D02*
X105214431Y-62614675D01*
X104404907Y-63614675D02*
X104404907Y-62614675D01*
X103833479Y-63614675D02*
X104262050Y-63043246D01*
X103833479Y-62614675D02*
X104404907Y-63186103D01*
X105690622Y-64272238D02*
X105785860Y-64224619D01*
X105785860Y-64224619D02*
X105928717Y-64224619D01*
X105928717Y-64224619D02*
X106071574Y-64272238D01*
X106071574Y-64272238D02*
X106166812Y-64367476D01*
X106166812Y-64367476D02*
X106214431Y-64462714D01*
X106214431Y-64462714D02*
X106262050Y-64653190D01*
X106262050Y-64653190D02*
X106262050Y-64796047D01*
X106262050Y-64796047D02*
X106214431Y-64986523D01*
X106214431Y-64986523D02*
X106166812Y-65081761D01*
X106166812Y-65081761D02*
X106071574Y-65177000D01*
X106071574Y-65177000D02*
X105928717Y-65224619D01*
X105928717Y-65224619D02*
X105833479Y-65224619D01*
X105833479Y-65224619D02*
X105690622Y-65177000D01*
X105690622Y-65177000D02*
X105643003Y-65129380D01*
X105643003Y-65129380D02*
X105643003Y-64796047D01*
X105643003Y-64796047D02*
X105833479Y-64796047D01*
X105214431Y-65224619D02*
X105214431Y-64224619D01*
X105214431Y-64224619D02*
X104643003Y-65224619D01*
X104643003Y-65224619D02*
X104643003Y-64224619D01*
X104166812Y-65224619D02*
X104166812Y-64224619D01*
X104166812Y-64224619D02*
X103928717Y-64224619D01*
X103928717Y-64224619D02*
X103785860Y-64272238D01*
X103785860Y-64272238D02*
X103690622Y-64367476D01*
X103690622Y-64367476D02*
X103643003Y-64462714D01*
X103643003Y-64462714D02*
X103595384Y-64653190D01*
X103595384Y-64653190D02*
X103595384Y-64796047D01*
X103595384Y-64796047D02*
X103643003Y-64986523D01*
X103643003Y-64986523D02*
X103690622Y-65081761D01*
X103690622Y-65081761D02*
X103785860Y-65177000D01*
X103785860Y-65177000D02*
X103928717Y-65224619D01*
X103928717Y-65224619D02*
X104166812Y-65224619D01*
X118516004Y-56912238D02*
X118611242Y-56864619D01*
X118611242Y-56864619D02*
X118754099Y-56864619D01*
X118754099Y-56864619D02*
X118896956Y-56912238D01*
X118896956Y-56912238D02*
X118992194Y-57007476D01*
X118992194Y-57007476D02*
X119039813Y-57102714D01*
X119039813Y-57102714D02*
X119087432Y-57293190D01*
X119087432Y-57293190D02*
X119087432Y-57436047D01*
X119087432Y-57436047D02*
X119039813Y-57626523D01*
X119039813Y-57626523D02*
X118992194Y-57721761D01*
X118992194Y-57721761D02*
X118896956Y-57817000D01*
X118896956Y-57817000D02*
X118754099Y-57864619D01*
X118754099Y-57864619D02*
X118658861Y-57864619D01*
X118658861Y-57864619D02*
X118516004Y-57817000D01*
X118516004Y-57817000D02*
X118468385Y-57769380D01*
X118468385Y-57769380D02*
X118468385Y-57436047D01*
X118468385Y-57436047D02*
X118658861Y-57436047D01*
X118039813Y-57864619D02*
X118039813Y-56864619D01*
X118039813Y-56864619D02*
X117468385Y-57864619D01*
X117468385Y-57864619D02*
X117468385Y-56864619D01*
X116992194Y-57864619D02*
X116992194Y-56864619D01*
X116992194Y-56864619D02*
X116754099Y-56864619D01*
X116754099Y-56864619D02*
X116611242Y-56912238D01*
X116611242Y-56912238D02*
X116516004Y-57007476D01*
X116516004Y-57007476D02*
X116468385Y-57102714D01*
X116468385Y-57102714D02*
X116420766Y-57293190D01*
X116420766Y-57293190D02*
X116420766Y-57436047D01*
X116420766Y-57436047D02*
X116468385Y-57626523D01*
X116468385Y-57626523D02*
X116516004Y-57721761D01*
X116516004Y-57721761D02*
X116611242Y-57817000D01*
X116611242Y-57817000D02*
X116754099Y-57864619D01*
X116754099Y-57864619D02*
X116992194Y-57864619D01*
X114161242Y-52172238D02*
X114256480Y-52124619D01*
X114256480Y-52124619D02*
X114399337Y-52124619D01*
X114399337Y-52124619D02*
X114542194Y-52172238D01*
X114542194Y-52172238D02*
X114637432Y-52267476D01*
X114637432Y-52267476D02*
X114685051Y-52362714D01*
X114685051Y-52362714D02*
X114732670Y-52553190D01*
X114732670Y-52553190D02*
X114732670Y-52696047D01*
X114732670Y-52696047D02*
X114685051Y-52886523D01*
X114685051Y-52886523D02*
X114637432Y-52981761D01*
X114637432Y-52981761D02*
X114542194Y-53077000D01*
X114542194Y-53077000D02*
X114399337Y-53124619D01*
X114399337Y-53124619D02*
X114304099Y-53124619D01*
X114304099Y-53124619D02*
X114161242Y-53077000D01*
X114161242Y-53077000D02*
X114113623Y-53029380D01*
X114113623Y-53029380D02*
X114113623Y-52696047D01*
X114113623Y-52696047D02*
X114304099Y-52696047D01*
X113113623Y-53124619D02*
X113446956Y-52648428D01*
X113685051Y-53124619D02*
X113685051Y-52124619D01*
X113685051Y-52124619D02*
X113304099Y-52124619D01*
X113304099Y-52124619D02*
X113208861Y-52172238D01*
X113208861Y-52172238D02*
X113161242Y-52219857D01*
X113161242Y-52219857D02*
X113113623Y-52315095D01*
X113113623Y-52315095D02*
X113113623Y-52457952D01*
X113113623Y-52457952D02*
X113161242Y-52553190D01*
X113161242Y-52553190D02*
X113208861Y-52600809D01*
X113208861Y-52600809D02*
X113304099Y-52648428D01*
X113304099Y-52648428D02*
X113685051Y-52648428D01*
X112685051Y-53124619D02*
X112685051Y-52124619D01*
X112685051Y-52124619D02*
X112113623Y-53124619D01*
X112113623Y-53124619D02*
X112113623Y-52124619D01*
X110500289Y-52104619D02*
X110262194Y-53104619D01*
X110262194Y-53104619D02*
X110071718Y-52390333D01*
X110071718Y-52390333D02*
X109881242Y-53104619D01*
X109881242Y-53104619D02*
X109643147Y-52104619D01*
X109262194Y-53104619D02*
X109262194Y-52104619D01*
X109262194Y-52580809D02*
X108690766Y-52580809D01*
X108690766Y-53104619D02*
X108690766Y-52104619D01*
X108357432Y-52104619D02*
X107786004Y-52104619D01*
X108071718Y-53104619D02*
X108071718Y-52104619D01*
X122915050Y-62614675D02*
X122724574Y-62614675D01*
X122724574Y-62614675D02*
X122629336Y-62662294D01*
X122629336Y-62662294D02*
X122534098Y-62757532D01*
X122534098Y-62757532D02*
X122486479Y-62948008D01*
X122486479Y-62948008D02*
X122486479Y-63281341D01*
X122486479Y-63281341D02*
X122534098Y-63471817D01*
X122534098Y-63471817D02*
X122629336Y-63567056D01*
X122629336Y-63567056D02*
X122724574Y-63614675D01*
X122724574Y-63614675D02*
X122915050Y-63614675D01*
X122915050Y-63614675D02*
X123010288Y-63567056D01*
X123010288Y-63567056D02*
X123105526Y-63471817D01*
X123105526Y-63471817D02*
X123153145Y-63281341D01*
X123153145Y-63281341D02*
X123153145Y-62948008D01*
X123153145Y-62948008D02*
X123105526Y-62757532D01*
X123105526Y-62757532D02*
X123010288Y-62662294D01*
X123010288Y-62662294D02*
X122915050Y-62614675D01*
X121486479Y-63614675D02*
X121819812Y-63138484D01*
X122057907Y-63614675D02*
X122057907Y-62614675D01*
X122057907Y-62614675D02*
X121676955Y-62614675D01*
X121676955Y-62614675D02*
X121581717Y-62662294D01*
X121581717Y-62662294D02*
X121534098Y-62709913D01*
X121534098Y-62709913D02*
X121486479Y-62805151D01*
X121486479Y-62805151D02*
X121486479Y-62948008D01*
X121486479Y-62948008D02*
X121534098Y-63043246D01*
X121534098Y-63043246D02*
X121581717Y-63090865D01*
X121581717Y-63090865D02*
X121676955Y-63138484D01*
X121676955Y-63138484D02*
X122057907Y-63138484D01*
X120534098Y-62662294D02*
X120629336Y-62614675D01*
X120629336Y-62614675D02*
X120772193Y-62614675D01*
X120772193Y-62614675D02*
X120915050Y-62662294D01*
X120915050Y-62662294D02*
X121010288Y-62757532D01*
X121010288Y-62757532D02*
X121057907Y-62852770D01*
X121057907Y-62852770D02*
X121105526Y-63043246D01*
X121105526Y-63043246D02*
X121105526Y-63186103D01*
X121105526Y-63186103D02*
X121057907Y-63376579D01*
X121057907Y-63376579D02*
X121010288Y-63471817D01*
X121010288Y-63471817D02*
X120915050Y-63567056D01*
X120915050Y-63567056D02*
X120772193Y-63614675D01*
X120772193Y-63614675D02*
X120676955Y-63614675D01*
X120676955Y-63614675D02*
X120534098Y-63567056D01*
X120534098Y-63567056D02*
X120486479Y-63519436D01*
X120486479Y-63519436D02*
X120486479Y-63186103D01*
X120486479Y-63186103D02*
X120676955Y-63186103D01*
X123867431Y-64843666D02*
X123105527Y-64843666D01*
X123486479Y-65224619D02*
X123486479Y-64462714D01*
X122105527Y-65224619D02*
X122676955Y-65224619D01*
X122391241Y-65224619D02*
X122391241Y-64224619D01*
X122391241Y-64224619D02*
X122486479Y-64367476D01*
X122486479Y-64367476D02*
X122581717Y-64462714D01*
X122581717Y-64462714D02*
X122676955Y-64510333D01*
X121724574Y-64319857D02*
X121676955Y-64272238D01*
X121676955Y-64272238D02*
X121581717Y-64224619D01*
X121581717Y-64224619D02*
X121343622Y-64224619D01*
X121343622Y-64224619D02*
X121248384Y-64272238D01*
X121248384Y-64272238D02*
X121200765Y-64319857D01*
X121200765Y-64319857D02*
X121153146Y-64415095D01*
X121153146Y-64415095D02*
X121153146Y-64510333D01*
X121153146Y-64510333D02*
X121200765Y-64653190D01*
X121200765Y-64653190D02*
X121772193Y-65224619D01*
X121772193Y-65224619D02*
X121153146Y-65224619D01*
X120867431Y-64224619D02*
X120534098Y-65224619D01*
X120534098Y-65224619D02*
X120200765Y-64224619D01*
D15*
X125442813Y-62400489D02*
X125442813Y-63114774D01*
X125442813Y-63114774D02*
X125490432Y-63257631D01*
X125490432Y-63257631D02*
X125585670Y-63352870D01*
X125585670Y-63352870D02*
X125728527Y-63400489D01*
X125728527Y-63400489D02*
X125823765Y-63400489D01*
X125014241Y-62495727D02*
X124966622Y-62448108D01*
X124966622Y-62448108D02*
X124871384Y-62400489D01*
X124871384Y-62400489D02*
X124633289Y-62400489D01*
X124633289Y-62400489D02*
X124538051Y-62448108D01*
X124538051Y-62448108D02*
X124490432Y-62495727D01*
X124490432Y-62495727D02*
X124442813Y-62590965D01*
X124442813Y-62590965D02*
X124442813Y-62686203D01*
X124442813Y-62686203D02*
X124490432Y-62829060D01*
X124490432Y-62829060D02*
X125061860Y-63400489D01*
X125061860Y-63400489D02*
X124442813Y-63400489D01*
D16*
%TO.C,J2*%
X128721350Y-60975000D02*
X128021350Y-60575000D01*
X128721350Y-60175000D02*
X128721350Y-60975000D01*
X128021350Y-60575000D02*
X128721350Y-60175000D01*
%TD*%
M02*
